<svg xmlns="http://www.w3.org/2000/svg" xmlns:xlink="http://www.w3.org/1999/xlink" width="1920" zoomAndPan="magnify" viewBox="0 0 1440 809.999993" height="1080" preserveAspectRatio="xMidYMid meet" version="1.0"><path fill="#ffcc4d" d="M 1044 405 C 1044 583.9375 898.9375 729 720 729 C 541.0625 729 396 583.9375 396 405 C 396 226.0625 541.0625 81 720 81 C 898.9375 81 1044 226.0625 1044 405 " fill-opacity="1" fill-rule="nonzero"/><path fill="#664500" d="M 657 378 C 657 379.621094 656.929688 381.238281 656.785156 382.851562 C 656.640625 384.464844 656.421875 386.066406 656.136719 387.65625 C 655.847656 389.246094 655.488281 390.816406 655.0625 392.367188 C 654.632812 393.921875 654.136719 395.445312 653.574219 396.941406 C 653.011719 398.441406 652.382812 399.90625 651.6875 401.335938 C 650.992188 402.765625 650.234375 404.152344 649.417969 405.5 C 648.597656 406.847656 647.71875 408.148438 646.785156 409.402344 C 645.851562 410.65625 644.863281 411.855469 643.820312 413 C 642.777344 414.148438 641.6875 415.234375 640.546875 416.265625 C 639.410156 417.292969 638.226562 418.257812 637 419.15625 C 635.773438 420.058594 634.511719 420.890625 633.210938 421.65625 C 631.914062 422.417969 630.582031 423.113281 629.21875 423.730469 C 627.859375 424.351562 626.472656 424.898438 625.0625 425.367188 C 623.652344 425.839844 622.222656 426.234375 620.777344 426.546875 C 619.332031 426.863281 617.878906 427.101562 616.410156 427.261719 C 614.945312 427.421875 613.472656 427.5 612 427.5 C 610.527344 427.5 609.054688 427.421875 607.589844 427.261719 C 606.121094 427.101562 604.667969 426.863281 603.222656 426.546875 C 601.777344 426.234375 600.347656 425.839844 598.9375 425.367188 C 597.527344 424.898438 596.140625 424.351562 594.777344 423.730469 C 593.417969 423.113281 592.085938 422.417969 590.789062 421.65625 C 589.488281 420.890625 588.226562 420.058594 587 419.15625 C 585.773438 418.257812 584.589844 417.292969 583.453125 416.265625 C 582.3125 415.234375 581.222656 414.148438 580.179688 413 C 579.136719 411.855469 578.148438 410.65625 577.214844 409.402344 C 576.28125 408.148438 575.402344 406.847656 574.582031 405.5 C 573.765625 404.152344 573.007812 402.765625 572.3125 401.335938 C 571.617188 399.90625 570.988281 398.441406 570.425781 396.941406 C 569.863281 395.445312 569.367188 393.921875 568.9375 392.367188 C 568.511719 390.816406 568.152344 389.246094 567.863281 387.65625 C 567.578125 386.066406 567.359375 384.464844 567.214844 382.851562 C 567.070312 381.238281 567 379.621094 567 378 C 567 376.378906 567.070312 374.761719 567.214844 373.148438 C 567.359375 371.535156 567.578125 369.933594 567.863281 368.34375 C 568.152344 366.753906 568.511719 365.183594 568.9375 363.632812 C 569.367188 362.078125 569.863281 360.554688 570.425781 359.058594 C 570.988281 357.558594 571.617188 356.09375 572.3125 354.664062 C 573.007812 353.234375 573.765625 351.847656 574.582031 350.5 C 575.402344 349.152344 576.28125 347.851562 577.214844 346.597656 C 578.148438 345.34375 579.136719 344.144531 580.179688 343 C 581.222656 341.851562 582.3125 340.765625 583.453125 339.734375 C 584.589844 338.707031 585.773438 337.742188 587 336.84375 C 588.226562 335.941406 589.488281 335.109375 590.789062 334.34375 C 592.085938 333.582031 593.417969 332.886719 594.777344 332.269531 C 596.140625 331.648438 597.527344 331.101562 598.9375 330.632812 C 600.347656 330.160156 601.777344 329.765625 603.222656 329.449219 C 604.667969 329.136719 606.121094 328.898438 607.589844 328.738281 C 609.054688 328.578125 610.527344 328.5 612 328.5 C 613.472656 328.5 614.945312 328.578125 616.410156 328.738281 C 617.878906 328.898438 619.332031 329.136719 620.777344 329.449219 C 622.222656 329.765625 623.652344 330.160156 625.0625 330.632812 C 626.472656 331.101562 627.859375 331.648438 629.21875 332.269531 C 630.582031 332.886719 631.914062 333.582031 633.210938 334.34375 C 634.511719 335.109375 635.773438 335.941406 637 336.84375 C 638.226562 337.742188 639.410156 338.707031 640.546875 339.734375 C 641.6875 340.765625 642.777344 341.851562 643.820312 343 C 644.863281 344.144531 645.851562 345.34375 646.785156 346.597656 C 647.71875 347.851562 648.597656 349.152344 649.417969 350.5 C 650.234375 351.847656 650.992188 353.234375 651.6875 354.664062 C 652.382812 356.09375 653.011719 357.558594 653.574219 359.058594 C 654.136719 360.554688 654.632812 362.078125 655.0625 363.632812 C 655.488281 365.183594 655.847656 366.753906 656.136719 368.34375 C 656.421875 369.933594 656.640625 371.535156 656.785156 373.148438 C 656.929688 374.761719 657 376.378906 657 378 Z M 657 378 " fill-opacity="1" fill-rule="nonzero"/><path fill="#664500" d="M 873 378 C 873 380.0625 872.925781 382.121094 872.785156 384.175781 C 872.640625 386.226562 872.421875 388.265625 872.136719 390.289062 C 871.847656 392.3125 871.488281 394.3125 871.0625 396.289062 C 870.632812 398.261719 870.136719 400.203125 869.574219 402.109375 C 869.011719 404.015625 868.382812 405.878906 867.6875 407.699219 C 866.992188 409.519531 866.234375 411.285156 865.414062 413 C 864.597656 414.714844 863.71875 416.371094 862.785156 417.964844 C 861.851562 419.5625 860.863281 421.089844 859.820312 422.546875 C 858.777344 424.007812 857.6875 425.390625 856.546875 426.699219 C 855.410156 428.007812 854.226562 429.234375 853 430.382812 C 851.773438 431.527344 850.511719 432.589844 849.210938 433.5625 C 847.914062 434.535156 846.582031 435.414062 845.21875 436.203125 C 843.859375 436.992188 842.472656 437.6875 841.0625 438.289062 C 839.652344 438.886719 838.222656 439.386719 836.777344 439.789062 C 835.332031 440.191406 833.878906 440.496094 832.410156 440.695312 C 830.945312 440.898438 829.472656 441 828 441 C 826.527344 441 825.054688 440.898438 823.589844 440.695312 C 822.121094 440.496094 820.667969 440.191406 819.222656 439.789062 C 817.777344 439.386719 816.347656 438.886719 814.9375 438.289062 C 813.527344 437.6875 812.140625 436.992188 810.777344 436.203125 C 809.417969 435.414062 808.085938 434.535156 806.785156 433.5625 C 805.488281 432.589844 804.226562 431.527344 803 430.382812 C 801.773438 429.234375 800.589844 428.007812 799.453125 426.699219 C 798.3125 425.390625 797.222656 424.007812 796.179688 422.546875 C 795.136719 421.089844 794.148438 419.5625 793.214844 417.964844 C 792.28125 416.371094 791.402344 414.714844 790.582031 413 C 789.765625 411.285156 789.007812 409.519531 788.3125 407.699219 C 787.617188 405.878906 786.988281 404.015625 786.425781 402.109375 C 785.863281 400.203125 785.367188 398.261719 784.9375 396.289062 C 784.511719 394.3125 784.152344 392.3125 783.863281 390.289062 C 783.578125 388.265625 783.359375 386.226562 783.214844 384.175781 C 783.070312 382.121094 783 380.0625 783 378 C 783 375.9375 783.070312 373.878906 783.214844 371.824219 C 783.359375 369.773438 783.578125 367.734375 783.863281 365.710938 C 784.152344 363.6875 784.511719 361.6875 784.9375 359.710938 C 785.367188 357.738281 785.863281 355.796875 786.425781 353.890625 C 786.988281 351.984375 787.617188 350.121094 788.3125 348.300781 C 789.007812 346.480469 789.765625 344.714844 790.582031 343 C 791.402344 341.285156 792.28125 339.628906 793.214844 338.03125 C 794.148438 336.4375 795.136719 334.910156 796.179688 333.453125 C 797.222656 331.992188 798.3125 330.609375 799.453125 329.300781 C 800.589844 327.992188 801.773438 326.765625 803 325.617188 C 804.226562 324.472656 805.488281 323.410156 806.785156 322.4375 C 808.085938 321.464844 809.417969 320.585938 810.777344 319.796875 C 812.140625 319.007812 813.527344 318.3125 814.9375 317.710938 C 816.347656 317.113281 817.777344 316.613281 819.222656 316.210938 C 820.667969 315.808594 822.121094 315.503906 823.589844 315.304688 C 825.054688 315.101562 826.527344 315 828 315 C 829.472656 315 830.945312 315.101562 832.410156 315.304688 C 833.878906 315.503906 835.332031 315.808594 836.777344 316.210938 C 838.222656 316.613281 839.652344 317.113281 841.0625 317.710938 C 842.472656 318.3125 843.859375 319.007812 845.21875 319.796875 C 846.582031 320.585938 847.914062 321.464844 849.210938 322.4375 C 850.511719 323.410156 851.773438 324.472656 853 325.617188 C 854.226562 326.765625 855.410156 327.992188 856.546875 329.300781 C 857.6875 330.609375 858.777344 331.992188 859.820312 333.453125 C 860.863281 334.910156 861.851562 336.4375 862.785156 338.035156 C 863.71875 339.628906 864.597656 341.285156 865.414062 343 C 866.234375 344.714844 866.992188 346.480469 867.6875 348.300781 C 868.382812 350.121094 869.011719 351.984375 869.574219 353.890625 C 870.136719 355.796875 870.632812 357.738281 871.0625 359.710938 C 871.488281 361.6875 871.847656 363.6875 872.136719 365.710938 C 872.421875 367.734375 872.640625 369.773438 872.785156 371.824219 C 872.925781 373.878906 873 375.9375 873 378 Z M 873 378 " fill-opacity="1" fill-rule="nonzero"/><path fill="#664500" d="M 523.835938 307.0625 C 528.316406 310.230469 534.167969 311.308594 539.765625 309.492188 C 615.132812 285.101562 666.253906 319.464844 668.394531 320.941406 C 676.546875 326.554688 687.742188 324.558594 693.414062 316.441406 C 699.085938 308.320312 697.15625 297.160156 689.074219 291.457031 C 686.375 289.546875 621.828125 245.105469 528.695312 275.238281 C 519.226562 278.296875 514.042969 288.449219 517.121094 297.898438 C 518.347656 301.753906 520.777344 304.882812 523.835938 307.0625 Z M 846 549 L 594 549 C 584.0625 549 576 540.953125 576 531 C 576 521.046875 584.0625 513 594 513 L 846 513 C 855.953125 513 864 521.046875 864 531 C 864 540.953125 855.953125 549 846 549 Z M 936.019531 268.34375 C 929.394531 268.34375 922.859375 265.445312 918.394531 259.867188 C 893.285156 228.347656 841.015625 200.699219 822.742188 200.699219 C 811.1875 200.699219 788.09375 217.097656 775.871094 228.925781 C 766.945312 237.601562 752.6875 237.328125 744.066406 228.421875 C 735.425781 219.511719 735.625 205.289062 744.496094 196.632812 C 751.535156 189.792969 788.347656 155.683594 822.742188 155.683594 C 858.832031 155.683594 922.429688 192.691406 953.605469 231.804688 C 961.363281 241.523438 959.742188 255.671875 950.039062 263.410156 C 945.882812 266.742188 940.914062 268.34375 936.019531 268.34375 Z M 936.019531 268.34375 " fill-opacity="1" fill-rule="nonzero"/></svg>