<svg xmlns="http://www.w3.org/2000/svg" xmlns:xlink="http://www.w3.org/1999/xlink" width="1920" zoomAndPan="magnify" viewBox="0 0 1440 809.999993" height="1080" preserveAspectRatio="xMidYMid meet" version="1.0"><metadata><ContainsAiGeneratedContent>Yes</ContainsAiGeneratedContent></metadata><defs><filter x="0%" y="0%" width="100%" height="100%" id="ed4f63b489"><feColorMatrix values="0 0 0 0 1 0 0 0 0 1 0 0 0 0 1 0 0 0 1 0" color-interpolation-filters="sRGB"/></filter><clipPath id="982dbb012d"><path d="M 337.132812 255 L 1102.882812 255 L 1102.882812 729 L 337.132812 729 Z M 337.132812 255 " clip-rule="nonzero"/></clipPath><mask id="e12da5f11c"><g filter="url(#ed4f63b489)"><rect x="-144" width="1728" fill="#000000" y="-80.999999" height="971.999992" fill-opacity="0.2"/></g></mask><clipPath id="9d28fbc5a4"><path d="M 4 2 L 38 2 L 38 87.28125 L 4 87.28125 Z M 4 2 " clip-rule="nonzero"/></clipPath><clipPath id="9777ba9844"><rect x="0" width="42" y="0" height="88"/></clipPath><mask id="03919c230f"><g filter="url(#ed4f63b489)"><rect x="-144" width="1728" fill="#000000" y="-80.999999" height="971.999992" fill-opacity="0.2"/></g></mask><clipPath id="3c7be5411e"><rect x="0" width="16" y="0" height="11"/></clipPath><mask id="8e7a6273d2"><g filter="url(#ed4f63b489)"><rect x="-144" width="1728" fill="#000000" y="-80.999999" height="971.999992" fill-opacity="0.2"/></g></mask><clipPath id="f9d0cdca4b"><rect x="0" width="11" y="0" height="22"/></clipPath><mask id="37ce9cfd16"><g filter="url(#ed4f63b489)"><rect x="-144" width="1728" fill="#000000" y="-80.999999" height="971.999992" fill-opacity="0.2"/></g></mask><clipPath id="0ea3ce7d5f"><rect x="0" width="17" y="0" height="22"/></clipPath><mask id="efb8dc87f9"><g filter="url(#ed4f63b489)"><rect x="-144" width="1728" fill="#000000" y="-80.999999" height="971.999992" fill-opacity="0.2"/></g></mask><clipPath id="0410b1668c"><rect x="0" width="37" y="0" height="31"/></clipPath></defs><path fill="#193564" d="M 544.714844 454.453125 C 544.773438 455.210938 544.847656 455.859375 544.972656 456.453125 C 544.140625 456.710938 543.273438 457.511719 543.273438 458.433594 L 543.148438 460.605469 L 541.277344 460.605469 L 541.277344 458.433594 C 541.273438 456.5 542.898438 454.851562 544.714844 454.453125 Z M 544.714844 454.453125 " fill-opacity="1" fill-rule="nonzero"/><path fill="#193564" d="M 557.5625 454.957031 C 557.5625 454.957031 557.695312 454.761719 557.859375 454.457031 C 559.796875 454.753906 561.460938 456.417969 561.460938 458.4375 L 561.460938 460.609375 L 559.476562 460.609375 L 559.46875 458.4375 C 559.46875 457.402344 558.523438 456.554688 557.523438 456.421875 C 557.570312 455.617188 557.5625 454.957031 557.5625 454.957031 Z M 557.5625 454.957031 " fill-opacity="1" fill-rule="nonzero"/><path fill="#f2adab" d="M 603.511719 346.34375 C 603.511719 346.34375 603.097656 349.074219 601.445312 351.289062 L 610.394531 359.765625 L 610.828125 350.082031 C 610.828125 350.082031 616.234375 351.941406 618.527344 350.296875 C 620.816406 348.65625 622.03125 344.714844 621.15625 341.996094 C 621.15625 341.996094 620.214844 340.75 622.230469 340.417969 C 624.246094 340.085938 622.457031 337.976562 621.089844 336.84375 C 619.722656 335.710938 619.660156 331.742188 619.660156 331.742188 L 611.519531 330.203125 L 600.144531 337.410156 C 600.144531 337.410156 602.96875 342.25 603.511719 346.34375 Z M 603.511719 346.34375 " fill-opacity="1" fill-rule="nonzero"/><path fill="#f2adab" d="M 614.527344 351.84375 L 613.777344 347.726562 L 608.367188 351.238281 L 610.398438 359.765625 L 614.332031 357.238281 Z M 614.527344 351.84375 " fill-opacity="1" fill-rule="nonzero"/><path fill="#f2adab" d="M 552.589844 444.171875 C 552.730469 446.773438 557.160156 449.175781 558.242188 450.941406 C 559.324219 452.707031 557.746094 454.953125 557.746094 454.953125 C 557.746094 454.953125 557.769531 457.238281 557.421875 458.472656 C 557.074219 459.707031 555.703125 459.839844 554.34375 458.675781 C 552.988281 457.511719 552.394531 459.5 550.636719 459.15625 C 548.875 458.820312 548.558594 457.867188 546.339844 458.089844 C 542.449219 458.484375 545.738281 443.511719 545.738281 443.511719 Z M 552.589844 444.171875 " fill-opacity="1" fill-rule="nonzero"/><path fill="#f2adab" d="M 685.117188 403.117188 C 687.714844 403.367188 690.75 399.347656 692.660156 398.539062 C 694.566406 397.734375 696.550781 399.628906 696.550781 399.628906 C 696.550781 399.628906 698.816406 399.949219 699.984375 400.472656 C 701.15625 401 701.082031 402.378906 699.730469 403.546875 C 698.378906 404.714844 700.25 405.597656 699.65625 407.285156 C 699.058594 408.976562 698.066406 409.144531 697.960938 411.371094 C 697.773438 415.277344 683.460938 409.785156 683.460938 409.785156 Z M 685.117188 403.117188 " fill-opacity="1" fill-rule="nonzero"/><path fill="#737373" d="M 658.707031 513.164062 L 658.101562 521.761719 L 669.089844 522.058594 L 669.761719 512.640625 Z M 658.707031 513.164062 " fill-opacity="1" fill-rule="nonzero"/><path fill="#737373" d="M 600.671875 554.738281 L 599.285156 565.628906 L 586.707031 566.949219 L 588.222656 553.652344 Z M 600.671875 554.738281 " fill-opacity="1" fill-rule="nonzero"/><path fill="#737373" d="M 601.445312 351.289062 C 601.445312 351.289062 604.648438 354.15625 610.019531 356.730469 C 610.019531 356.730469 613.058594 354.660156 614.527344 351.847656 L 618.78125 354.011719 C 618.78125 354.011719 625.175781 375.894531 625.140625 389.742188 C 625.105469 403.589844 632.777344 424.933594 634.046875 441.578125 C 634.046875 441.578125 626.722656 457.421875 610.726562 457.421875 C 594.730469 457.421875 580.808594 439.355469 580.808594 439.355469 C 580.808594 439.355469 584.03125 423.183594 585.796875 416.210938 C 587.5625 409.234375 588.582031 396.957031 585.796875 389.785156 C 583.007812 382.609375 594.039062 364.011719 597.578125 354.894531 Z M 601.445312 351.289062 " fill-opacity="1" fill-rule="nonzero"/><path fill="#737373" d="M 544.441406 442.570312 L 544.449219 445.304688 L 554.269531 445.792969 L 554.378906 442.648438 Z M 544.441406 442.570312 " fill-opacity="1" fill-rule="nonzero"/><path fill="#737373" d="M 682.316406 410.933594 L 685.019531 411.332031 L 686.96875 401.699219 L 683.878906 401.117188 Z M 682.316406 410.933594 " fill-opacity="1" fill-rule="nonzero"/><path fill="#737373" d="M 630.960938 141.132812 C 633.289062 131.003906 642.355469 123.441406 653.191406 123.441406 C 655.183594 123.441406 657.109375 123.695312 658.953125 124.175781 C 664.300781 112.738281 675.90625 104.8125 689.367188 104.8125 C 692.847656 104.8125 696.207031 105.34375 699.359375 106.328125 C 706.605469 94.328125 719.769531 86.304688 734.808594 86.304688 C 752.703125 86.304688 767.945312 97.664062 773.714844 113.5625 C 777.800781 111.28125 782.507812 109.980469 787.523438 109.980469 C 803.207031 109.980469 815.921875 122.695312 815.921875 138.382812 C 815.921875 139.308594 815.875 140.226562 815.785156 141.136719 L 630.960938 141.136719 Z M 630.960938 141.132812 " fill-opacity="1" fill-rule="nonzero"/><path fill="#737373" d="M 399.355469 269.199219 C 400.867188 262.632812 406.738281 257.734375 413.765625 257.734375 C 415.054688 257.734375 416.304688 257.902344 417.492188 258.210938 C 420.957031 250.796875 428.484375 245.660156 437.210938 245.660156 C 439.464844 245.660156 441.636719 246 443.683594 246.636719 C 448.378906 238.863281 456.914062 233.664062 466.660156 233.664062 C 478.257812 233.664062 488.136719 241.023438 491.875 251.328125 C 494.523438 249.851562 497.574219 249.003906 500.824219 249.003906 C 510.988281 249.003906 519.230469 257.246094 519.230469 267.410156 C 519.230469 268.011719 519.199219 268.609375 519.144531 269.195312 L 399.355469 269.195312 Z M 399.355469 269.199219 " fill-opacity="1" fill-rule="nonzero"/><path fill="#737373" d="M 394.335938 524.0625 C 395.355469 519.613281 399.335938 516.296875 404.09375 516.296875 C 404.96875 516.296875 405.816406 516.410156 406.621094 516.621094 C 408.96875 511.597656 414.066406 508.117188 419.972656 508.117188 C 421.5 508.117188 422.972656 508.351562 424.363281 508.78125 C 427.539062 503.515625 433.320312 499.992188 439.925781 499.992188 C 447.78125 499.992188 454.472656 504.976562 457.007812 511.957031 C 458.800781 510.957031 460.867188 510.382812 463.066406 510.382812 C 469.953125 510.382812 475.535156 515.964844 475.535156 522.847656 C 475.535156 523.257812 475.511719 523.660156 475.472656 524.058594 L 394.335938 524.058594 Z M 394.335938 524.0625 " fill-opacity="1" fill-rule="nonzero"/><path fill="#737373" d="M 736.367188 260.597656 C 737.75 254.582031 743.125 250.097656 749.5625 250.097656 C 750.738281 250.097656 751.886719 250.25 752.980469 250.53125 C 756.152344 243.738281 763.046875 239.035156 771.03125 239.035156 C 773.097656 239.035156 775.085938 239.351562 776.960938 239.933594 C 781.261719 232.8125 789.074219 228.050781 798.003906 228.050781 C 808.625 228.050781 817.667969 234.789062 821.097656 244.230469 C 823.519531 242.878906 826.316406 242.101562 829.289062 242.101562 C 838.601562 242.101562 846.148438 249.648438 846.148438 258.960938 C 846.148438 259.511719 846.117188 260.058594 846.066406 260.597656 Z M 736.367188 260.597656 " fill-opacity="1" fill-rule="nonzero"/><path fill="#2878b5" d="M 601.445312 351.289062 C 601.445312 351.289062 583.796875 355.839844 581.570312 357.820312 C 579.339844 359.792969 558.65625 384.84375 556.308594 389.230469 C 553.964844 393.613281 550.175781 400.136719 547.527344 412.613281 C 545.261719 423.285156 542.992188 443.414062 542.992188 443.414062 L 555.460938 444.074219 L 565.339844 404.351562 L 581.308594 388.703125 C 581.308594 388.703125 585.441406 424.277344 579.089844 438.445312 C 579.089844 438.445312 593.449219 446.90625 613.425781 445.972656 C 613.425781 445.972656 610.867188 403.515625 605.976562 391.46875 C 601.085938 379.425781 600.738281 365.058594 601.445312 351.289062 Z M 601.445312 351.289062 " fill-opacity="1" fill-rule="nonzero"/><path fill="#2878b5" d="M 614.527344 351.84375 C 614.527344 351.84375 618.707031 378.671875 617.710938 393.4375 C 616.714844 408.210938 616.390625 413.34375 618.492188 424.324219 C 620.59375 435.304688 622.171875 445.1875 622.171875 445.1875 C 622.171875 445.1875 630.273438 443.859375 637.445312 439.910156 C 637.445312 439.910156 635.695312 423.09375 631.542969 413.175781 C 624.65625 396.730469 627.164062 381.917969 627.164062 381.917969 C 627.164062 381.917969 636.6875 396.78125 642.8125 402.789062 C 645.609375 405.53125 654.121094 407.019531 659.300781 407.945312 C 667.367188 409.378906 682.535156 412.148438 682.535156 412.148438 L 685.351562 400.882812 C 685.351562 400.882812 659.007812 394.40625 653.707031 391.757812 L 629.570312 355.441406 C 629.570312 355.429688 625.546875 351.316406 614.527344 351.84375 Z M 614.527344 351.84375 " fill-opacity="1" fill-rule="nonzero"/><path fill="#2878b5" d="M 572.707031 493.835938 L 530.042969 493.835938 C 528.203125 493.835938 526.714844 492.347656 526.714844 490.511719 L 526.714844 465.457031 L 576.039062 465.457031 L 576.039062 490.511719 C 576.039062 492.347656 574.550781 493.835938 572.707031 493.835938 Z M 572.707031 493.835938 " fill-opacity="1" fill-rule="nonzero"/><path fill="#2878b5" d="M 573.582031 581.542969 L 634.042969 581.542969 L 634.042969 728.796875 L 573.582031 728.796875 Z M 573.582031 581.542969 " fill-opacity="1" fill-rule="nonzero"/><path fill="#2878b5" d="M 493.902344 609.253906 L 554.363281 609.253906 L 554.363281 728.789062 L 493.902344 728.789062 Z M 493.902344 609.253906 " fill-opacity="1" fill-rule="nonzero"/><path fill="#2878b5" d="M 415.597656 633.175781 L 476.058594 633.175781 L 476.058594 728.796875 L 415.597656 728.796875 Z M 415.597656 633.175781 " fill-opacity="1" fill-rule="nonzero"/><path fill="#2878b5" d="M 653.808594 537.558594 L 714.273438 537.558594 L 714.273438 728.796875 L 653.808594 728.796875 Z M 653.808594 537.558594 " fill-opacity="1" fill-rule="nonzero"/><path fill="#2878b5" d="M 734.867188 469.714844 L 795.328125 469.714844 L 795.328125 728.796875 L 734.867188 728.796875 Z M 734.867188 469.714844 " fill-opacity="1" fill-rule="nonzero"/><path fill="#2878b5" d="M 815.917969 374.289062 L 876.378906 374.289062 L 876.378906 728.796875 L 815.917969 728.796875 Z M 815.917969 374.289062 " fill-opacity="1" fill-rule="nonzero"/><path fill="#2878b5" d="M 895.59375 291.175781 L 956.058594 291.175781 L 956.058594 728.789062 L 895.59375 728.789062 Z M 895.59375 291.175781 " fill-opacity="1" fill-rule="nonzero"/><path fill="#193564" d="M 1005.777344 226.46875 L 1059.820312 226.46875 L 1059.820312 251.433594 L 1005.777344 251.433594 Z M 1005.777344 226.46875 " fill-opacity="1" fill-rule="evenodd"/><path fill="#193564" d="M 1064.175781 249.898438 C 1064.175781 246.636719 1061.535156 243.988281 1058.269531 243.988281 L 1007.328125 243.988281 C 1004.066406 243.988281 1001.417969 246.632812 1001.417969 249.898438 C 1001.417969 253.160156 1004.0625 255.808594 1007.328125 255.808594 L 1058.269531 255.808594 C 1061.535156 255.808594 1064.175781 253.160156 1064.175781 249.898438 Z M 1064.175781 249.898438 " fill-opacity="1" fill-rule="evenodd"/><path fill="#ffbd00" d="M 610.019531 356.730469 C 610.019531 356.730469 608.894531 358.988281 606.929688 360.144531 C 606.929688 360.144531 609.636719 362.671875 610.761719 362.804688 C 611.882812 362.9375 613.128906 360.144531 613.128906 360.144531 C 613.128906 360.144531 612.574219 357.90625 610.019531 356.730469 Z M 610.019531 356.730469 " fill-opacity="1" fill-rule="nonzero"/><path fill="#ffbd00" d="M 609.859375 360.453125 C 609.859375 360.453125 607.265625 371.3125 597.765625 377.539062 C 588.265625 383.765625 582.929688 388.722656 582.800781 407.863281 C 582.800781 407.863281 583.585938 420.46875 576.097656 426.691406 L 576.550781 441.539062 C 576.550781 441.539062 586.464844 437.332031 590.289062 430.921875 C 594.117188 424.507812 593.136719 407.855469 592.972656 404.304688 C 592.816406 400.753906 592.597656 390.316406 600.785156 383.042969 C 608.976562 375.773438 611.648438 369.226562 612.167969 360.796875 Z M 609.859375 360.453125 " fill-opacity="1" fill-rule="nonzero"/><path fill="#ffbd00" d="M 551.375 484.3125 C 552.441406 484.3125 553.308594 483.445312 553.308594 482.378906 L 553.308594 480.75 C 553.308594 479.679688 552.441406 478.816406 551.375 478.816406 C 550.304688 478.816406 549.441406 479.683594 549.441406 480.75 L 549.441406 482.378906 C 549.441406 483.449219 550.308594 484.3125 551.375 484.3125 Z M 551.375 484.3125 " fill-opacity="1" fill-rule="nonzero"/><g clip-path="url(#982dbb012d)"><path fill="#ffbd00" d="M 1102.675781 255.648438 L 965.679688 255.648438 L 987.601562 293.617188 L 912.695312 331.097656 L 836.851562 500.195312 L 750.9375 530.523438 L 672.003906 618.792969 L 591.847656 604.078125 L 518.902344 665.527344 L 441.210938 654.902344 L 337.320312 728.789062 L 395.011719 728.789062 L 450.449219 690.828125 L 529.367188 701.621094 L 601.582031 640.785156 L 684.761719 656.046875 L 770.675781 559.980469 L 862.160156 527.675781 L 938.960938 356.445312 L 1005.085938 323.90625 L 1034.175781 374.289062 Z M 1102.675781 255.648438 " fill-opacity="1" fill-rule="nonzero"/></g><path fill="#ffbd00" d="M 1002.132812 180.027344 C 998.144531 180.027344 993.515625 179.011719 989.769531 176.101562 C 985.203125 172.558594 982.785156 167.035156 982.574219 159.695312 C 982.398438 153.453125 984.066406 149.015625 987.519531 146.5 C 992.882812 142.597656 1000.320312 145.164062 1000.636719 145.273438 C 1001.847656 145.703125 1002.472656 147.023438 1002.050781 148.234375 C 1001.621094 149.4375 1000.300781 150.070312 999.097656 149.648438 C 999.015625 149.621094 993.601562 147.789062 990.234375 150.257812 C 988.097656 151.824219 987.074219 154.957031 987.207031 159.566406 C 987.375 165.460938 989.191406 169.792969 992.605469 172.445312 C 996.6875 175.613281 1002.253906 175.808594 1005.78125 175.011719 C 1007.03125 174.730469 1008.269531 175.511719 1008.550781 176.761719 C 1008.832031 178.011719 1008.050781 179.25 1006.800781 179.53125 C 1005.449219 179.835938 1003.851562 180.027344 1002.132812 180.027344 Z M 1002.132812 180.027344 " fill-opacity="1" fill-rule="nonzero"/><path fill="#ffbd00" d="M 1065.988281 132.019531 C 1064.539062 132.019531 1062.714844 132.019531 1060.617188 132.019531 L 1004.796875 132.019531 C 1002.621094 132.019531 1000.730469 132.019531 999.234375 132.019531 C 997.117188 132.019531 995.398438 133.738281 995.398438 135.855469 C 995.398438 137.476562 996.414062 138.859375 997.839844 139.421875 L 997.839844 148.304688 C 997.839844 169.019531 1006.183594 186.878906 1018.179688 195.007812 C 1019.300781 196.007812 1021.609375 198.269531 1023.628906 201.578125 C 1024.539062 203.074219 1025.464844 204.65625 1025.433594 206.351562 C 1025.40625 208.054688 1024.367188 209.617188 1023.441406 211.117188 C 1021.351562 214.488281 1019.074219 216.804688 1018.046875 217.769531 C 1011.269531 220.121094 1005.878906 221.632812 1005.777344 224.464844 L 1005.777344 227.371094 L 1059.820312 227.371094 L 1059.820312 224.464844 C 1059.722656 221.65625 1054.402344 220.484375 1047.679688 218.226562 C 1047.421875 218.007812 1044.457031 215.4375 1041.78125 211.121094 C 1040.855469 209.617188 1039.824219 208.058594 1039.789062 206.355469 C 1039.757812 204.660156 1040.679688 203.078125 1041.59375 201.585938 C 1043.339844 198.714844 1045.308594 196.636719 1046.535156 195.476562 C 1058.871094 187.597656 1067.523438 169.527344 1067.570312 148.480469 C 1067.570312 148.480469 1067.570312 143.738281 1067.570312 139.34375 C 1068.898438 138.742188 1069.820312 137.410156 1069.820312 135.859375 C 1069.820312 133.734375 1068.105469 132.019531 1065.988281 132.019531 Z M 1065.988281 132.019531 " fill-opacity="1" fill-rule="evenodd"/><path fill="#ffbd00" d="M 1063.28125 180.027344 C 1061.558594 180.027344 1059.964844 179.835938 1058.601562 179.53125 C 1057.351562 179.25 1056.570312 178.007812 1056.851562 176.761719 C 1057.132812 175.511719 1058.375 174.730469 1059.621094 175.011719 C 1063.148438 175.808594 1068.714844 175.613281 1072.796875 172.445312 C 1076.214844 169.792969 1078.03125 165.460938 1078.199219 159.566406 C 1078.328125 154.957031 1077.3125 151.824219 1075.171875 150.257812 C 1071.796875 147.785156 1066.367188 149.625 1066.308594 149.648438 C 1065.101562 150.066406 1063.78125 149.433594 1063.359375 148.222656 C 1062.9375 147.019531 1063.566406 145.699219 1064.769531 145.273438 C 1065.085938 145.164062 1072.523438 142.597656 1077.886719 146.5 C 1081.347656 149.015625 1083.011719 153.457031 1082.832031 159.695312 C 1082.621094 167.035156 1080.203125 172.558594 1075.636719 176.101562 C 1071.898438 179.011719 1067.269531 180.027344 1063.28125 180.027344 Z M 1063.28125 180.027344 " fill-opacity="1" fill-rule="nonzero"/><path fill="#737373" d="M 1016.964844 231.683594 L 1048.628906 231.683594 L 1048.628906 244.328125 L 1016.964844 244.328125 Z M 1016.964844 231.683594 " fill-opacity="1" fill-rule="evenodd"/><path fill="#ffbd00" d="M 1019.957031 117.488281 C 1019.578125 117.488281 1019.214844 117.273438 1019.042969 116.90625 L 1005.828125 88.21875 C 1005.59375 87.71875 1005.816406 87.121094 1006.316406 86.886719 C 1006.816406 86.652344 1007.414062 86.878906 1007.648438 87.378906 L 1020.863281 116.0625 C 1021.09375 116.5625 1020.875 117.160156 1020.375 117.394531 C 1020.242188 117.457031 1020.097656 117.488281 1019.957031 117.488281 Z M 1019.957031 117.488281 " fill-opacity="1" fill-rule="nonzero"/><path fill="#ffbd00" d="M 1045.660156 117.160156 C 1045.527344 117.160156 1045.394531 117.136719 1045.261719 117.078125 C 1044.753906 116.859375 1044.519531 116.265625 1044.738281 115.761719 L 1057.226562 86.75 C 1057.449219 86.238281 1058.039062 86.011719 1058.542969 86.226562 C 1059.054688 86.445312 1059.289062 87.035156 1059.070312 87.542969 L 1046.578125 116.554688 C 1046.421875 116.9375 1046.046875 117.160156 1045.660156 117.160156 Z M 1045.660156 117.160156 " fill-opacity="1" fill-rule="nonzero"/><path fill="#ffbd00" d="M 1032.777344 114.589844 C 1032.230469 114.589844 1031.78125 114.148438 1031.773438 113.597656 L 1031.375 82.015625 C 1031.371094 81.460938 1031.8125 81.003906 1032.363281 81 C 1032.371094 81 1032.375 81 1032.375 81 C 1032.921875 81 1033.371094 81.4375 1033.378906 81.988281 L 1033.777344 113.574219 C 1033.78125 114.128906 1033.339844 114.582031 1032.789062 114.589844 C 1032.78125 114.589844 1032.777344 114.589844 1032.777344 114.589844 Z M 1032.777344 114.589844 " fill-opacity="1" fill-rule="nonzero"/><path fill="#ffbd00" d="M 1055.222656 123.558594 C 1054.96875 123.558594 1054.71875 123.460938 1054.523438 123.273438 C 1054.125 122.886719 1054.121094 122.253906 1054.507812 121.855469 L 1076.5625 99.242188 C 1076.949219 98.84375 1077.582031 98.835938 1077.980469 99.226562 C 1078.378906 99.613281 1078.382812 100.246094 1077.996094 100.644531 L 1055.941406 123.257812 C 1055.742188 123.457031 1055.484375 123.558594 1055.222656 123.558594 Z M 1055.222656 123.558594 " fill-opacity="1" fill-rule="nonzero"/><path fill="#ffbd00" d="M 1010.558594 124.121094 C 1010.300781 124.121094 1010.050781 124.023438 1009.859375 123.835938 L 987.242188 101.78125 C 986.847656 101.394531 986.839844 100.761719 987.230469 100.363281 C 987.617188 99.964844 988.25 99.960938 988.648438 100.347656 L 1011.261719 122.402344 C 1011.660156 122.789062 1011.664062 123.421875 1011.277344 123.820312 C 1011.082031 124.019531 1010.816406 124.121094 1010.558594 124.121094 Z M 1010.558594 124.121094 " fill-opacity="1" fill-rule="nonzero"/><path fill="#193564" d="M 614.527344 351.84375 C 614.527344 351.84375 617.015625 367.828125 617.695312 381.917969 C 620.109375 372.804688 623.859375 364.296875 623.859375 364.296875 C 622.527344 362.496094 618.882812 360.496094 618.882812 360.496094 L 622.050781 357.957031 C 620.949219 355.746094 619.574219 353.53125 618.464844 351.855469 C 617.265625 351.789062 615.957031 351.777344 614.527344 351.84375 Z M 614.527344 351.84375 " fill-opacity="1" fill-rule="nonzero"/><path fill="#193564" d="M 603.511719 346.34375 C 603.511719 346.34375 603.113281 344.644531 600.394531 342.398438 C 597.671875 340.160156 594.335938 334.503906 596.179688 330.085938 C 596.179688 330.085938 597.703125 326.578125 601.570312 325.796875 C 601.570312 325.796875 603.269531 320.632812 607.679688 320.648438 C 612.085938 320.664062 614.832031 322.796875 616.777344 322.996094 C 618.722656 323.195312 623.664062 324.011719 623.339844 327.855469 C 623.011719 331.703125 618.027344 335.585938 613.699219 332.59375 C 613.699219 332.59375 611.746094 331.394531 612 334.636719 C 612.257812 337.886719 611.769531 338.660156 611.769531 338.660156 C 611.769531 338.660156 610.480469 335.53125 608.542969 335.332031 C 606.597656 335.132812 605.546875 336.398438 605.632812 337.917969 C 605.746094 339.824219 604.710938 344.714844 603.511719 346.34375 Z M 603.511719 346.34375 " fill-opacity="1" fill-rule="nonzero"/><path fill="#193564" d="M 602.242188 381.707031 C 602.703125 382.457031 603.148438 383.207031 603.5625 383.953125 C 603.320312 382.992188 603.113281 382.023438 602.914062 381.050781 C 602.695312 381.269531 602.46875 381.488281 602.242188 381.707031 Z M 602.242188 381.707031 " fill-opacity="1" fill-rule="nonzero"/><path fill="#193564" d="M 591.585938 367.703125 C 591.585938 367.703125 595.222656 371.738281 598.882812 376.757812 C 599.964844 375.960938 600.949219 375.109375 601.84375 374.226562 C 600.988281 366.726562 601.050781 358.921875 601.445312 351.289062 C 601.445312 351.289062 598.488281 352.046875 594.847656 353.082031 C 593.878906 354.949219 592.636719 357.347656 591.679688 359.195312 L 596.671875 361.878906 C 596.671875 361.878906 593.769531 363.976562 591.585938 367.703125 Z M 591.585938 367.703125 " fill-opacity="1" fill-rule="nonzero"/><path fill="#193564" d="M 572.707031 459.824219 L 530.042969 459.824219 C 528.203125 459.824219 526.714844 461.316406 526.714844 463.152344 L 526.714844 465.988281 C 526.714844 467.824219 527.726562 469.515625 529.34375 470.386719 L 549.011719 480.964844 C 549.148438 481.039062 549.296875 481.101562 549.441406 481.164062 L 549.441406 480.75 C 549.441406 479.683594 550.308594 478.816406 551.375 478.816406 C 552.441406 478.816406 553.308594 479.683594 553.308594 480.75 L 553.308594 481.164062 C 553.453125 481.101562 553.597656 481.039062 553.738281 480.964844 L 573.40625 470.386719 C 575.023438 469.515625 576.035156 467.824219 576.035156 465.988281 L 576.035156 463.15625 C 576.039062 461.316406 574.550781 459.824219 572.707031 459.824219 Z M 572.707031 459.824219 " fill-opacity="1" fill-rule="nonzero"/><path fill="#193564" d="M 621.210938 582.015625 L 588.832031 582.042969 C 586.003906 582.058594 584.234375 579.085938 584.480469 577.867188 L 585.246094 566.5625 C 585.902344 564.078125 590.90625 566.21875 594.300781 563.921875 C 598.898438 562.039062 599.171875 561.523438 600.667969 561.867188 C 603.292969 562.421875 603.246094 564.066406 602.8125 565.996094 C 601.570312 569.144531 605.628906 571.832031 608.164062 571.84375 C 618.496094 571.886719 627.691406 579.164062 621.210938 582.015625 Z M 621.210938 582.015625 " fill-opacity="1" fill-rule="nonzero"/><path fill="#193564" d="M 686.710938 538.257812 L 656.667969 538.339844 C 655.441406 538.335938 653.488281 536.234375 653.851562 535.226562 L 657.101562 521.078125 C 657.96875 519.046875 661.601562 521.65625 664.589844 520.210938 C 668.46875 519.304688 668.757812 518.90625 669.886719 519.425781 C 671.871094 520.308594 671.601562 521.710938 670.984375 523.304688 C 669.566406 525.8125 672.339844 529.242188 674.363281 529.152344 C 684.449219 528.679688 692.207031 536.808594 686.710938 538.257812 Z M 686.710938 538.257812 " fill-opacity="1" fill-rule="nonzero"/><path fill="#193564" d="M 678.777344 451.253906 C 673 445.171875 649.253906 443.003906 637.445312 439.90625 C 630.273438 443.855469 622.171875 445.1875 622.171875 445.1875 C 622.171875 445.1875 621.410156 440.429688 620.246094 433.859375 C 617.859375 434.359375 614.8125 435.023438 612.652344 435.414062 C 612.894531 438.332031 613.074219 440.804688 613.199219 442.636719 C 613.230469 443.042969 613.257812 443.414062 613.277344 443.757812 C 613.28125 443.847656 613.285156 443.957031 613.296875 444.042969 C 613.34375 444.757812 613.378906 445.269531 613.398438 445.589844 C 613.414062 445.8125 613.425781 445.972656 613.425781 445.972656 C 611.242188 446.074219 609.136719 446.046875 607.101562 445.945312 C 606.429688 445.914062 605.796875 445.839844 605.136719 445.789062 C 603.808594 445.6875 602.484375 445.570312 601.230469 445.394531 C 600.519531 445.296875 599.847656 445.1875 599.167969 445.070312 C 598.03125 444.878906 596.914062 444.675781 595.855469 444.445312 C 595.230469 444.308594 594.613281 444.171875 594.015625 444.023438 C 592.972656 443.769531 591.980469 443.503906 591.035156 443.226562 C 586.335938 441.855469 582.753906 440.304688 580.816406 439.347656 C 580.816406 439.347656 580.808594 439.347656 580.808594 439.347656 C 579.164062 445.957031 582.265625 457.277344 590.515625 464.621094 C 591.480469 481.613281 593.472656 497.796875 593.472656 497.796875 C 584.457031 515.648438 585.582031 558.136719 585.582031 558.136719 L 601.632812 558.574219 C 602.859375 547.792969 614.683594 507.40625 614.800781 497.328125 C 614.859375 492.628906 618.632812 482.171875 620.890625 471.402344 C 645.160156 470.433594 658.867188 467.25 658.867188 467.25 L 655.96875 517.761719 L 672.5625 514.910156 C 672.566406 514.910156 686.132812 459.003906 678.777344 451.253906 Z M 678.777344 451.253906 " fill-opacity="1" fill-rule="nonzero"/><g mask="url(#e12da5f11c)"><g transform="matrix(1, 0, 0, 1, 576, 356)"><g clip-path="url(#9777ba9844)"><g clip-path="url(#9d28fbc5a4)"><path fill="#193564" d="M 36.378906 2.65625 C 36.960938 3.464844 37.128906 4.140625 37.128906 4.140625 C 37.128906 4.140625 36.679688 5.144531 36.082031 5.914062 C 35.394531 13.808594 32.601562 20.09375 24.785156 27.039062 C 16.597656 34.308594 16.8125 44.75 16.972656 48.300781 C 17.132812 51.855469 18.113281 68.5 14.285156 74.921875 C 12.113281 78.5625 7.972656 81.496094 4.800781 83.347656 C 4.351562 85.09375 4.371094 87.207031 4.371094 87.207031 C 4.371094 87.207031 13.304688 82.726562 16.953125 76.199219 C 20.597656 69.683594 19.148438 53.070312 18.886719 49.527344 C 18.632812 45.980469 18.121094 35.550781 26.097656 28.050781 C 33.71875 20.890625 36.328125 14.527344 36.796875 6.613281 C 37.375 5.828125 37.796875 4.8125 37.796875 4.8125 C 37.796875 4.8125 37.484375 3.695312 36.378906 2.65625 Z M 36.378906 2.65625 " fill-opacity="1" fill-rule="nonzero"/></g></g></g></g><g mask="url(#03919c230f)"><g transform="matrix(1, 0, 0, 1, 602, 346)"><g clip-path="url(#3c7be5411e)"><path fill="#193564" d="M 12.351562 4.882812 L 12.164062 4.855469 C 12.164062 4.855469 8.460938 4.078125 5.480469 1.933594 C 5.480469 1.933594 7.710938 4.367188 12.527344 5.847656 Z M 12.351562 4.882812 " fill-opacity="1" fill-rule="nonzero"/></g></g></g><g mask="url(#8e7a6273d2)"><g transform="matrix(1, 0, 0, 1, 623, 366)"><g clip-path="url(#f9d0cdca4b)"><path fill="#193564" d="M 5.539062 3.527344 C 5.539062 7.652344 4.164062 15.917969 4.164062 15.917969 C 4.164062 15.917969 4.675781 16.71875 5.53125 18.007812 C 5.53125 17.988281 5.539062 17.972656 5.539062 17.953125 C 6.054688 10.742188 5.539062 3.527344 5.539062 3.527344 Z M 5.539062 3.527344 " fill-opacity="1" fill-rule="nonzero"/></g></g></g><g mask="url(#37ce9cfd16)"><g transform="matrix(1, 0, 0, 1, 576, 371)"><g clip-path="url(#0ea3ce7d5f)"><path fill="#193564" d="M 5.582031 20.335938 C 12.503906 10.917969 14.269531 5.054688 14.269531 5.054688 C 11.40625 10.921875 5.308594 17.707031 5.308594 17.707031 C 5.308594 17.707031 5.421875 18.671875 5.582031 20.335938 Z M 5.582031 20.335938 " fill-opacity="1" fill-rule="nonzero"/></g></g></g><g mask="url(#efb8dc87f9)"><g transform="matrix(1, 0, 0, 1, 1015, 193)"><g clip-path="url(#0410b1668c)"><path fill="#193564" d="M 26.78125 18.109375 C 25.855469 16.605469 24.824219 15.046875 24.789062 13.34375 C 24.757812 11.652344 25.679688 10.070312 26.59375 8.574219 C 28.339844 5.707031 30.308594 3.625 31.535156 2.464844 C 27.292969 5.175781 22.621094 6.679688 17.707031 6.679688 C 12.523438 6.679688 7.601562 4.996094 3.179688 1.996094 C 4.300781 2.996094 6.609375 5.257812 8.628906 8.570312 C 9.535156 10.0625 10.464844 11.644531 10.433594 13.339844 C 10.40625 15.042969 9.367188 16.605469 8.441406 18.105469 C 5.644531 22.621094 2.496094 25.257812 2.496094 25.257812 C 2.496094 29.558594 32.734375 29.558594 32.734375 25.257812 C 32.726562 25.265625 29.578125 22.632812 26.78125 18.109375 Z M 26.78125 18.109375 " fill-opacity="1" fill-rule="evenodd"/></g></g></g></svg>