<svg xmlns="http://www.w3.org/2000/svg" xmlns:xlink="http://www.w3.org/1999/xlink" width="1920" zoomAndPan="magnify" viewBox="0 0 1440 809.999993" height="1080" preserveAspectRatio="xMidYMid meet" version="1.0"><metadata><ContainsAiGeneratedContent>Yes</ContainsAiGeneratedContent></metadata><path fill="#a1cdf0" d="M 891.597656 82.136719 L 930.695312 82.136719 L 930.695312 726.988281 L 891.597656 726.988281 Z M 891.597656 82.136719 " fill-opacity="1" fill-rule="nonzero"/><path fill="#6caee3" d="M 935.769531 727.074219 L 886.609375 727.074219 L 889.148438 706.960938 L 933.144531 706.960938 Z M 935.769531 727.074219 " fill-opacity="1" fill-rule="nonzero"/><path fill="#6caee3" d="M 933.144531 665.25 C 933.144531 668.136719 930.785156 670.496094 927.898438 670.496094 L 894.394531 670.496094 C 891.507812 670.496094 889.148438 668.136719 889.148438 665.25 C 889.148438 663.851562 889.671875 662.625 890.546875 661.664062 C 891.507812 660.613281 892.90625 660.003906 894.394531 660.003906 L 927.898438 660.003906 C 930.785156 660.003906 933.144531 662.277344 933.144531 665.25 Z M 933.144531 665.25 " fill-opacity="1" fill-rule="nonzero"/><path fill="#6caee3" d="M 933.144531 652.042969 C 933.144531 654.929688 930.785156 657.292969 927.898438 657.292969 L 894.394531 657.292969 C 891.507812 657.292969 889.148438 654.929688 889.148438 652.042969 C 889.148438 650.820312 889.582031 649.683594 890.285156 648.722656 C 891.246094 647.496094 892.734375 646.710938 894.394531 646.710938 L 927.898438 646.710938 C 930.785156 646.796875 933.144531 649.160156 933.144531 652.042969 Z M 933.144531 652.042969 " fill-opacity="1" fill-rule="nonzero"/><path fill="#6caee3" d="M 933.144531 494.199219 C 933.144531 497.085938 930.785156 499.445312 927.898438 499.445312 L 894.394531 499.445312 C 891.507812 499.445312 889.148438 497.085938 889.148438 494.199219 C 889.148438 492.800781 889.671875 491.574219 890.546875 490.613281 C 891.507812 489.5625 892.90625 488.953125 894.394531 488.953125 L 927.898438 488.953125 C 930.785156 488.953125 933.144531 491.3125 933.144531 494.199219 Z M 933.144531 494.199219 " fill-opacity="1" fill-rule="nonzero"/><path fill="#ffffff" d="M 891.769531 694.109375 C 902.792969 694.109375 913.726562 694.109375 924.75 694.109375 C 926.324219 694.109375 927.808594 694.109375 929.382812 694.109375 C 931.046875 694.109375 931.046875 691.570312 929.382812 691.570312 C 918.363281 691.570312 907.429688 691.570312 896.40625 691.570312 C 894.832031 691.570312 893.34375 691.570312 891.769531 691.570312 C 891.332031 691.570312 890.984375 691.746094 890.722656 692.097656 C 890.285156 692.796875 890.632812 694.109375 891.769531 694.109375 Z M 891.769531 694.109375 " fill-opacity="1" fill-rule="nonzero"/><path fill="#ffffff" d="M 891.769531 564.246094 C 902.792969 564.246094 913.726562 564.246094 924.75 564.246094 C 926.324219 564.246094 927.808594 564.246094 929.382812 564.246094 C 931.046875 564.246094 931.046875 561.710938 929.382812 561.710938 C 918.363281 561.710938 907.429688 561.710938 896.40625 561.710938 C 894.832031 561.710938 893.34375 561.710938 891.769531 561.710938 C 891.246094 561.710938 890.984375 561.972656 890.722656 562.234375 C 890.285156 563.019531 890.632812 564.246094 891.769531 564.246094 Z M 891.769531 564.246094 " fill-opacity="1" fill-rule="nonzero"/><path fill="#ffffff" d="M 891.769531 546.054688 C 902.792969 546.054688 913.726562 546.054688 924.75 546.054688 C 926.324219 546.054688 927.808594 546.054688 929.382812 546.054688 C 931.046875 546.054688 931.046875 543.519531 929.382812 543.519531 C 918.363281 543.519531 907.429688 543.519531 896.40625 543.519531 C 894.832031 543.519531 893.34375 543.519531 891.769531 543.519531 C 891.332031 543.519531 891.070312 543.695312 890.894531 543.871094 C 890.285156 544.570312 890.546875 546.054688 891.769531 546.054688 Z M 891.769531 546.054688 " fill-opacity="1" fill-rule="nonzero"/><path fill="#6caee3" d="M 933.144531 257.296875 C 933.144531 260.183594 930.785156 262.546875 927.898438 262.546875 L 894.394531 262.546875 C 891.507812 262.546875 889.148438 260.183594 889.148438 257.296875 C 889.148438 255.898438 889.671875 254.675781 890.546875 253.710938 C 891.507812 252.664062 892.90625 252.050781 894.394531 252.050781 L 927.898438 252.050781 C 930.785156 252.050781 933.144531 254.414062 933.144531 257.296875 Z M 933.144531 257.296875 " fill-opacity="1" fill-rule="nonzero"/><path fill="#6caee3" d="M 933.144531 244.09375 C 933.144531 246.980469 930.785156 249.339844 927.898438 249.339844 L 894.394531 249.339844 C 891.507812 249.339844 889.148438 246.980469 889.148438 244.09375 C 889.148438 242.605469 889.757812 241.292969 890.722656 240.421875 C 891.683594 239.457031 892.996094 238.847656 894.394531 238.847656 L 927.898438 238.847656 C 930.785156 238.847656 933.144531 241.207031 933.144531 244.09375 Z M 933.144531 244.09375 " fill-opacity="1" fill-rule="nonzero"/><path fill="#6caee3" d="M 933.144531 86.246094 C 933.144531 89.132812 930.785156 91.492188 927.898438 91.492188 L 894.394531 91.492188 C 891.507812 91.492188 889.148438 89.132812 889.148438 86.246094 C 889.148438 84.847656 889.671875 83.625 890.546875 82.660156 C 891.507812 81.613281 892.90625 81 894.394531 81 L 927.898438 81 C 930.785156 81 933.144531 83.359375 933.144531 86.246094 Z M 933.144531 86.246094 " fill-opacity="1" fill-rule="nonzero"/><path fill="#ffffff" d="M 891.769531 286.15625 C 902.792969 286.15625 913.726562 286.15625 924.75 286.15625 C 926.324219 286.15625 927.808594 286.15625 929.382812 286.15625 C 931.046875 286.15625 931.046875 283.621094 929.382812 283.621094 C 918.363281 283.621094 907.429688 283.621094 896.40625 283.621094 C 894.832031 283.621094 893.34375 283.621094 891.769531 283.621094 C 890.371094 283.621094 890.195312 285.457031 891.160156 285.980469 C 891.332031 286.15625 891.597656 286.15625 891.769531 286.15625 Z M 891.769531 286.15625 " fill-opacity="1" fill-rule="nonzero"/><path fill="#ffffff" d="M 891.769531 156.292969 C 902.792969 156.292969 913.726562 156.292969 924.75 156.292969 C 926.324219 156.292969 927.808594 156.292969 929.382812 156.292969 C 931.046875 156.292969 931.046875 153.757812 929.382812 153.757812 C 918.363281 153.757812 907.429688 153.757812 896.40625 153.757812 C 894.832031 153.757812 893.34375 153.757812 891.769531 153.757812 C 891.246094 153.757812 890.894531 154.019531 890.722656 154.371094 C 890.285156 155.15625 890.632812 156.292969 891.769531 156.292969 Z M 891.769531 156.292969 " fill-opacity="1" fill-rule="nonzero"/><path fill="#ffffff" d="M 891.769531 138.105469 C 902.792969 138.105469 913.726562 138.105469 924.75 138.105469 C 926.324219 138.105469 927.808594 138.105469 929.382812 138.105469 C 931.046875 138.105469 931.046875 135.570312 929.382812 135.570312 C 918.363281 135.570312 907.429688 135.570312 896.40625 135.570312 C 894.832031 135.570312 893.34375 135.570312 891.769531 135.570312 C 891.332031 135.570312 891.070312 135.742188 890.808594 136.003906 C 890.285156 136.617188 890.546875 138.105469 891.769531 138.105469 Z M 891.769531 138.105469 " fill-opacity="1" fill-rule="nonzero"/><path fill="#6caee3" d="M 890.808594 335.566406 L 931.484375 335.566406 L 931.484375 440.765625 L 890.808594 440.765625 Z M 890.808594 335.566406 " fill-opacity="1" fill-rule="nonzero"/><path fill="#f7931e" d="M 527.707031 712.996094 C 527.878906 715.621094 526.917969 717.71875 526.480469 717.71875 C 525.78125 717.71875 494.289062 718.15625 492.015625 717.71875 C 489.828125 717.28125 491.140625 683.265625 492.015625 680.816406 C 492.890625 678.367188 489.828125 644.347656 494.464844 641.027344 C 496.566406 639.539062 502.6875 640.851562 508.898438 642.773438 C 516.507812 645.136719 524.292969 648.460938 525.167969 648.808594 C 525.167969 648.808594 531.816406 679.679688 526.742188 678.804688 C 521.582031 677.929688 515.808594 700.578125 515.808594 700.578125 C 515.808594 700.578125 523.59375 704.339844 526.21875 708.535156 C 527.179688 710.109375 527.617188 711.597656 527.707031 712.996094 Z M 527.707031 712.996094 " fill-opacity="1" fill-rule="nonzero"/><path fill="#dc6501" d="M 526.480469 717.71875 C 525.78125 717.71875 494.289062 718.15625 492.015625 717.71875 C 489.828125 717.28125 491.140625 683.265625 492.015625 680.816406 C 492.890625 678.367188 489.828125 644.347656 494.464844 641.027344 C 496.566406 639.539062 502.6875 640.851562 508.898438 642.773438 C 508.984375 652.042969 506.097656 667.347656 503.386719 675.742188 C 500.238281 685.273438 498.3125 711.511719 501.375 711.074219 C 503.824219 710.722656 520.882812 712.382812 527.707031 712.996094 C 527.878906 715.621094 526.917969 717.71875 526.480469 717.71875 Z M 526.480469 717.71875 " fill-opacity="1" fill-rule="nonzero"/><path fill="#f9d275" d="M 526.480469 716.496094 C 518.609375 716.496094 510.734375 716.667969 502.863281 716.667969 C 500.675781 716.667969 498.488281 716.667969 496.214844 716.667969 C 495.078125 716.667969 493.503906 716.320312 492.367188 716.582031 C 492.191406 716.582031 492.453125 716.667969 492.804688 716.84375 C 492.976562 716.933594 492.890625 716.933594 492.890625 716.933594 C 492.890625 716.40625 492.628906 715.796875 492.539062 715.269531 C 492.277344 713.519531 492.277344 711.683594 492.191406 709.9375 C 491.929688 700.839844 492.015625 691.570312 493.066406 682.5625 C 493.242188 680.816406 493.503906 678.628906 493.503906 676.53125 C 493.414062 671.71875 493.242188 666.910156 493.152344 662.101562 C 493.066406 656.679688 492.890625 651.082031 493.941406 645.75 C 494.117188 644.875 494.289062 644 494.640625 643.210938 C 494.902344 642.601562 495.164062 642.164062 495.425781 641.988281 C 496.828125 641.199219 499.1875 641.726562 500.675781 641.988281 C 503.386719 642.425781 506.011719 643.210938 508.722656 644 C 508.375 643.5625 508.109375 643.210938 507.761719 642.773438 C 507.847656 651.433594 506.1875 660.265625 504.175781 668.660156 C 503.386719 671.808594 502.339844 674.957031 501.550781 678.105469 C 500.761719 681.253906 500.324219 684.402344 499.890625 687.636719 C 499.015625 694.019531 498.3125 700.578125 498.839844 706.960938 C 498.925781 708.449219 499.015625 710.636719 500.152344 711.773438 C 501.199219 712.734375 503.738281 712.296875 505.050781 712.296875 C 512.660156 712.648438 520.269531 713.433594 527.792969 714.222656 C 527.355469 713.785156 526.917969 713.347656 526.480469 712.910156 C 526.480469 713.785156 526.480469 714.660156 526.304688 715.53125 C 526.21875 715.796875 526.128906 716.058594 526.042969 716.230469 C 526.042969 716.667969 525.605469 716.582031 526.21875 716.40625 C 524.644531 716.933594 525.34375 719.378906 526.917969 718.855469 C 529.015625 718.242188 529.105469 714.570312 529.015625 712.910156 C 529.015625 712.210938 528.492188 711.683594 527.707031 711.597656 C 521.144531 710.984375 514.585938 710.285156 508.023438 709.847656 C 506.625 709.761719 505.3125 709.671875 503.914062 709.585938 C 503.386719 709.585938 502.074219 709.324219 501.550781 709.585938 C 501.199219 709.761719 501.988281 709.671875 501.8125 709.761719 C 501.8125 709.761719 501.726562 709.410156 501.636719 709.238281 C 501.375 708.449219 501.289062 707.488281 501.289062 706.699219 C 500.851562 700.578125 501.464844 694.28125 502.25 688.25 C 502.601562 685.1875 503.125 682.128906 503.824219 679.066406 C 504.523438 676.09375 505.574219 673.207031 506.273438 670.234375 C 508.546875 661.3125 510.296875 651.871094 510.296875 642.601562 C 510.296875 641.988281 509.859375 641.550781 509.335938 641.375 C 505.3125 640.152344 500.761719 638.578125 496.566406 639.015625 C 494.554688 639.1875 493.152344 640.0625 492.367188 641.898438 C 490.703125 645.835938 490.792969 650.734375 490.703125 654.929688 C 490.617188 660.441406 490.703125 665.949219 490.878906 671.457031 C 490.964844 673.558594 490.964844 675.566406 491.054688 677.667969 C 491.054688 678.367188 491.054688 678.980469 491.054688 679.679688 C 491.054688 680.289062 491.054688 679.941406 490.964844 680.464844 C 490.265625 683.699219 490.265625 687.199219 490.089844 690.433594 C 489.652344 695.945312 489.566406 701.367188 489.566406 706.789062 C 489.566406 709.0625 489.652344 711.335938 489.828125 713.609375 C 489.917969 714.921875 490.003906 716.40625 490.441406 717.632812 C 490.878906 718.855469 491.753906 719.03125 492.890625 719.117188 C 494.554688 719.207031 496.128906 719.207031 497.789062 719.207031 C 507.0625 719.292969 516.421875 719.117188 525.695312 719.03125 C 525.957031 719.03125 526.21875 719.03125 526.480469 719.03125 C 528.144531 719.03125 528.144531 716.40625 526.480469 716.496094 Z M 526.480469 716.496094 " fill-opacity="1" fill-rule="nonzero"/><path fill="#f7931e" d="M 827.476562 719.207031 C 827.476562 721.21875 827.214844 723.316406 826.601562 725.152344 C 825.378906 728.738281 784.527344 726.375 782.429688 725.765625 C 780.328125 725.152344 751.636719 726.640625 750.152344 726.640625 C 748.664062 726.640625 749.277344 723.402344 748.925781 721.042969 C 748.75 719.730469 752.425781 713.519531 755.75 708.363281 C 758.285156 704.425781 760.648438 701.105469 761.085938 700.839844 C 761.960938 700.230469 763.445312 690.171875 763.445312 688.949219 L 764.058594 687.199219 L 791.875 680.117188 C 791.875 680.117188 790.652344 693.757812 794.851562 696.992188 C 798.960938 700.230469 826.867188 711.246094 827.128906 714.222656 C 827.300781 715.621094 827.476562 717.371094 827.476562 719.207031 Z M 827.476562 719.207031 " fill-opacity="1" fill-rule="nonzero"/><path fill="#dc6501" d="M 827.476562 719.207031 C 827.476562 721.21875 827.214844 723.316406 826.601562 725.152344 C 825.378906 728.738281 784.527344 726.375 782.429688 725.765625 C 780.328125 725.152344 751.636719 726.640625 750.152344 726.640625 C 748.664062 726.640625 749.277344 723.402344 748.925781 721.042969 C 748.75 719.730469 752.425781 713.519531 755.75 708.363281 C 762.660156 711.160156 783.828125 718.332031 798.699219 720.429688 C 811.644531 722.179688 822.753906 720.253906 827.476562 719.207031 Z M 827.476562 719.207031 " fill-opacity="1" fill-rule="nonzero"/><path fill="#f9d275" d="M 826.164062 719.207031 C 826.164062 720.953125 825.992188 722.617188 825.554688 724.277344 C 825.289062 725.328125 825.554688 724.453125 825.554688 724.539062 C 825.726562 724.367188 825.554688 724.539062 825.378906 724.628906 C 825.378906 724.628906 824.851562 724.800781 824.589844 724.890625 C 824.066406 725.066406 823.542969 725.152344 823.015625 725.238281 C 819.953125 725.675781 816.894531 725.765625 813.832031 725.765625 C 806.132812 725.851562 798.523438 725.589844 790.824219 725.152344 C 788.375 724.976562 785.925781 724.890625 783.476562 724.628906 C 782.953125 724.539062 783.214844 724.628906 782.953125 724.539062 C 782.691406 724.453125 782.429688 724.453125 782.167969 724.367188 C 781.292969 724.277344 780.417969 724.277344 779.542969 724.277344 C 772.105469 724.277344 764.585938 724.714844 757.148438 724.976562 C 755.574219 725.066406 753.914062 725.152344 752.335938 725.152344 C 751.8125 725.152344 751.289062 725.152344 750.851562 725.238281 C 750.675781 725.238281 750.589844 725.238281 750.414062 725.238281 C 750.414062 725.238281 750.324219 725.238281 750.324219 725.238281 C 750.851562 725.328125 750.414062 725.589844 750.589844 725.152344 C 750.761719 724.628906 750.5 723.492188 750.5 722.878906 C 750.5 722.265625 750.324219 721.480469 750.414062 720.78125 C 750.5 719.90625 751.113281 718.945312 751.464844 718.15625 C 753.125 714.921875 755.050781 711.859375 757.0625 708.800781 C 756.625 708.972656 756.097656 709.148438 755.660156 709.410156 C 763.621094 712.648438 771.933594 715.183594 780.15625 717.457031 C 791.089844 720.429688 802.199219 722.703125 813.65625 722.179688 C 818.46875 721.917969 823.277344 721.390625 828.003906 720.34375 C 829.578125 719.992188 828.964844 717.542969 827.300781 717.894531 C 817.417969 720.082031 807.097656 720.34375 797.125 718.769531 C 787.152344 717.105469 777.269531 714.308594 767.734375 711.074219 C 763.882812 709.847656 760.121094 708.535156 756.363281 706.960938 C 755.835938 706.789062 755.222656 707.136719 754.960938 707.574219 C 753.039062 710.460938 751.199219 713.433594 749.539062 716.496094 C 749.015625 717.457031 748.488281 718.417969 748.140625 719.46875 C 747.789062 720.515625 747.964844 721.480469 747.964844 722.617188 C 747.964844 724.539062 747.789062 727.601562 750.324219 727.777344 C 751.113281 727.863281 751.898438 727.6875 752.601562 727.6875 C 760.472656 727.339844 768.34375 726.988281 776.128906 726.8125 C 777.617188 726.8125 779.105469 726.726562 780.589844 726.8125 C 781.027344 726.8125 781.554688 726.8125 781.992188 726.902344 C 782.253906 726.902344 781.902344 726.902344 782.339844 726.988281 C 784.441406 727.339844 786.628906 727.425781 788.726562 727.601562 C 796.773438 728.125 804.820312 728.386719 812.957031 728.300781 C 816.632812 728.300781 820.390625 728.214844 824.066406 727.601562 C 825.027344 727.425781 826.164062 727.25 826.953125 726.640625 C 827.476562 726.289062 827.738281 725.851562 828.003906 725.238281 C 828.613281 723.316406 828.789062 721.21875 828.789062 719.207031 C 828.703125 717.542969 826.164062 717.542969 826.164062 719.207031 Z M 826.164062 719.207031 " fill-opacity="1" fill-rule="nonzero"/><path fill="#27a77e" d="M 809.109375 681.515625 C 808.058594 683.964844 757.671875 691.398438 755.925781 691.398438 C 754.175781 691.398438 752.425781 617.152344 752.773438 611.117188 C 753.125 605.171875 760.386719 595.640625 760.558594 595.203125 C 760.296875 595.464844 755.660156 596.777344 753.5625 595.726562 C 751.464844 594.675781 758.375 585.84375 759.074219 584.445312 C 759.511719 583.484375 729.769531 555.675781 709.039062 550.339844 C 699.417969 547.890625 691.804688 546.054688 689.96875 546.054688 C 689.269531 546.054688 688.746094 546.929688 688.21875 548.59375 C 684.546875 560.921875 683.933594 632.457031 679.910156 669.359375 C 674.660156 717.019531 658.476562 716.144531 658.476562 716.144531 C 658.476562 716.144531 636.261719 716.144531 632.410156 716.144531 C 628.476562 716.144531 526.566406 691.484375 526.566406 690.433594 C 526.566406 689.386719 525.167969 644.347656 525.167969 644.347656 C 525.167969 644.347656 573.542969 641.8125 602.144531 646.097656 C 619.726562 648.722656 613.953125 649.769531 617.277344 644.347656 C 620.515625 639.101562 626.464844 652.042969 626.464844 652.042969 C 626.464844 652.042969 595.324219 526.292969 596.023438 517.109375 C 596.722656 507.929688 610.542969 468.574219 610.542969 468.574219 L 614.042969 473.210938 L 715.421875 479.945312 C 715.421875 479.945312 784.441406 523.582031 787.675781 525.679688 C 796.511719 531.453125 813.394531 551.476562 815.84375 563.546875 C 818.378906 575.527344 810.15625 679.066406 809.109375 681.515625 Z M 809.109375 681.515625 " fill-opacity="1" fill-rule="nonzero"/><path fill="#165e47" d="M 688.832031 547.28125 C 690.492188 548.066406 692.679688 544.742188 693.644531 543.78125 C 696.53125 540.632812 699.417969 537.484375 702.390625 534.425781 C 709.300781 527.167969 716.472656 519.472656 724.785156 513.785156 C 726.269531 512.824219 727.84375 511.777344 729.507812 511.25 C 730.207031 510.988281 730.558594 510.902344 731.167969 510.988281 C 731.429688 510.988281 731.605469 511.074219 731.867188 511.425781 C 733.007812 512.648438 734.753906 510.8125 733.707031 509.589844 C 731.695312 507.402344 728.457031 508.714844 726.359375 509.851562 C 722.507812 511.863281 719.183594 514.75 715.949219 517.636719 C 708.25 524.457031 701.164062 532.0625 694.082031 539.585938 C 692.855469 540.894531 691.632812 542.296875 690.320312 543.605469 C 689.96875 544.042969 689.617188 544.394531 689.183594 544.832031 C 689.09375 544.917969 688.917969 545.09375 688.832031 545.179688 C 688.832031 545.269531 688.746094 545.269531 688.65625 545.269531 C 688.832031 544.917969 690.144531 545.179688 690.054688 545.179688 C 688.65625 544.308594 687.34375 546.492188 688.832031 547.28125 Z M 688.832031 547.28125 " fill-opacity="1" fill-rule="nonzero"/><path fill="#165e47" d="M 695.21875 494.898438 C 694.34375 508.363281 693.378906 521.917969 691.632812 535.386719 C 691.28125 538.273438 690.929688 541.507812 689.882812 544.21875 C 689.269531 545.707031 691.71875 546.40625 692.332031 544.917969 C 693.207031 542.558594 693.554688 539.933594 693.90625 537.398438 C 694.519531 533.289062 694.953125 529.179688 695.390625 525.066406 C 696.179688 516.847656 696.878906 508.539062 697.492188 500.320312 C 697.578125 498.484375 697.753906 496.734375 697.839844 494.898438 C 697.929688 493.238281 695.390625 493.238281 695.21875 494.898438 Z M 695.21875 494.898438 " fill-opacity="1" fill-rule="nonzero"/><path fill="#165e47" d="M 759.683594 584.707031 C 759.511719 585.144531 759.335938 585.234375 759.683594 584.882812 C 759.949219 584.707031 760.121094 584.535156 760.386719 584.269531 C 760.910156 583.835938 761.699219 583.222656 762.484375 582.695312 C 764.757812 581.035156 766.945312 579.375 769.21875 577.710938 C 773.855469 574.214844 778.84375 570.542969 782.339844 565.90625 C 783.390625 564.507812 784.527344 562.671875 783.914062 560.835938 C 783.304688 559 781.292969 558.386719 779.542969 559 C 777.441406 559.785156 775.605469 561.535156 774.117188 563.109375 C 772.019531 565.292969 770.09375 567.65625 768.34375 570.015625 C 765.546875 573.691406 763.007812 577.449219 760.558594 581.296875 C 759.6875 582.695312 761.871094 584.007812 762.746094 582.609375 C 764.585938 579.636719 766.507812 576.75 768.609375 573.953125 C 770.269531 571.589844 772.019531 569.316406 773.855469 567.132812 C 775.429688 565.292969 777.09375 563.457031 779.015625 562.058594 C 779.367188 561.796875 779.71875 561.621094 780.066406 561.445312 C 780.066406 561.445312 780.941406 561.183594 780.679688 561.183594 C 780.765625 561.183594 780.941406 561.183594 781.027344 561.183594 C 780.679688 561.097656 781.117188 561.183594 781.203125 561.273438 C 780.941406 561.183594 781.378906 561.445312 781.378906 561.445312 C 781.464844 561.621094 781.464844 561.535156 781.464844 561.796875 C 781.464844 562.058594 781.464844 562.058594 781.464844 561.972656 C 781.464844 562.148438 781.378906 562.410156 781.292969 562.582031 C 781.292969 562.671875 781.027344 563.109375 780.855469 563.457031 C 780.589844 563.894531 780.328125 564.246094 780.066406 564.59375 C 776.742188 568.96875 772.019531 572.378906 767.644531 575.613281 C 765.371094 577.363281 763.007812 579.023438 760.648438 580.773438 C 759.511719 581.648438 757.761719 582.523438 757.148438 583.921875 C 756.625 585.496094 759.074219 586.195312 759.683594 584.707031 Z M 759.683594 584.707031 " fill-opacity="1" fill-rule="nonzero"/><path fill="#165e47" d="M 619.816406 483.617188 C 618.765625 485.890625 618.066406 488.339844 617.277344 490.789062 C 615.792969 495.421875 614.480469 500.230469 613.34375 504.953125 C 611.59375 512.386719 609.84375 520.171875 610.457031 527.867188 C 611.503906 540.371094 613.78125 552.789062 615.792969 565.207031 C 618.589844 582.347656 621.566406 599.398438 624.539062 616.453125 C 626.636719 628.609375 628.914062 640.761719 630.925781 652.917969 C 631.097656 654.054688 631.363281 655.28125 631.535156 656.417969 C 631.535156 656.855469 631.449219 657.464844 631.449219 657.640625 C 631.449219 657.378906 631.800781 657.464844 631.710938 657.464844 C 631.535156 657.378906 631.449219 657.464844 631.1875 657.378906 C 629.960938 657.027344 628.914062 656.328125 627.863281 655.71875 C 625.851562 654.582031 622.703125 652.65625 620.425781 654.054688 C 618.941406 654.929688 618.679688 656.855469 618.503906 658.429688 C 618.152344 661.226562 618.066406 664.113281 618.503906 666.910156 C 618.679688 667.960938 618.851562 669.007812 619.203125 669.972656 C 619.816406 671.457031 622.175781 670.847656 621.652344 669.273438 C 619.726562 663.9375 617.804688 658.691406 615.878906 653.355469 C 615.703125 652.832031 615.265625 652.480469 614.652344 652.394531 C 605.820312 652.132812 596.984375 652.132812 588.238281 652.21875 C 573.015625 652.394531 557.535156 652.742188 542.402344 654.929688 C 539.25 655.367188 536.101562 655.890625 533.042969 656.765625 C 530.855469 657.378906 528.578125 658.078125 526.742188 659.390625 C 525.429688 660.351562 526.742188 662.539062 528.054688 661.578125 C 531.640625 658.953125 536.890625 658.339844 541.175781 657.640625 C 548.261719 656.503906 555.433594 655.980469 562.519531 655.542969 C 576.777344 654.753906 591.035156 654.582031 605.292969 654.753906 C 608.445312 654.753906 611.503906 654.84375 614.652344 654.929688 C 614.21875 654.582031 613.867188 654.316406 613.429688 653.96875 C 615.355469 659.304688 617.277344 664.550781 619.203125 669.882812 C 619.988281 669.621094 620.863281 669.445312 621.652344 669.183594 C 620.253906 665.6875 620.425781 660.789062 621.214844 657.203125 C 621.476562 656.15625 621.738281 655.890625 622.789062 656.066406 C 624.101562 656.328125 625.324219 657.027344 626.464844 657.730469 C 628.210938 658.691406 631.1875 660.878906 633.199219 659.390625 C 634.773438 658.253906 634.160156 655.890625 633.898438 654.230469 C 632.148438 643.5625 630.136719 632.894531 628.300781 622.222656 C 625.324219 605.347656 622.351562 588.46875 619.550781 571.589844 C 617.277344 558.125 614.917969 544.570312 613.429688 531.015625 C 612.816406 525.242188 613.078125 519.734375 614.042969 513.960938 C 615.617188 504.867188 618.152344 495.773438 621.214844 487.027344 C 621.390625 486.503906 621.566406 485.976562 621.828125 485.453125 C 621.914062 485.277344 621.914062 485.105469 622 484.929688 C 622.089844 484.753906 621.914062 485.105469 622.089844 484.839844 C 622.703125 483.441406 620.515625 482.128906 619.816406 483.617188 Z M 619.816406 483.617188 " fill-opacity="1" fill-rule="nonzero"/><path fill="#165e47" d="M 644.832031 490.089844 C 643.695312 494.808594 641.945312 499.445312 640.109375 503.90625 C 636.699219 512.039062 632.238281 520.433594 625.238281 526.03125 C 621.476562 529.089844 616.929688 530.925781 612.03125 530.664062 C 610.367188 530.578125 610.367188 533.113281 612.03125 533.199219 C 621.652344 533.636719 629.175781 527.078125 634.421875 519.644531 C 639.410156 512.5625 642.90625 504.429688 645.621094 496.210938 C 646.230469 494.375 646.757812 492.535156 647.28125 490.699219 C 647.71875 489.214844 645.269531 488.515625 644.832031 490.089844 Z M 644.832031 490.089844 " fill-opacity="1" fill-rule="nonzero"/><path fill="#dc6501" d="M 501.550781 705.476562 C 501.636719 705.214844 501.8125 705.039062 501.988281 704.777344 C 502.074219 704.6875 502.164062 704.601562 502.164062 704.425781 C 502.25 704.339844 502.425781 704.164062 502.164062 704.425781 C 502.25 704.339844 502.25 704.25 502.339844 704.25 C 502.601562 703.988281 502.863281 703.640625 503.125 703.378906 C 503.300781 703.203125 503.476562 703.113281 503.648438 702.941406 C 503.476562 703.113281 503.648438 702.941406 503.738281 702.851562 C 503.824219 702.765625 504 702.679688 504.085938 702.589844 C 504.523438 702.242188 505.050781 701.976562 505.574219 701.804688 C 506.535156 701.367188 508.023438 701.105469 509.25 701.015625 C 511.523438 700.929688 513.796875 701.277344 515.984375 701.976562 C 517.558594 702.414062 518.257812 699.96875 516.683594 699.53125 C 510.910156 697.867188 503.738281 697.867188 499.976562 703.203125 C 499.714844 703.550781 499.539062 703.816406 499.363281 704.164062 C 499.101562 704.777344 499.1875 705.5625 499.800781 705.914062 C 500.324219 706.261719 501.199219 706.089844 501.550781 705.476562 Z M 501.550781 705.476562 " fill-opacity="1" fill-rule="nonzero"/><path fill="#6caee3" d="M 717 467.527344 C 717 467.527344 716.296875 480.644531 732.21875 480.644531 C 748.140625 480.644531 817.242188 462.191406 820.128906 455.808594 C 822.929688 449.425781 807.359375 426.773438 807.359375 426.773438 C 807.359375 426.773438 754.875 418.992188 756.011719 416.894531 C 757.0625 414.792969 764.320312 354.628906 750.5 345.882812 C 741.929688 340.460938 717 467.527344 717 467.527344 Z M 717 467.527344 " fill-opacity="1" fill-rule="nonzero"/><path fill="#a1cdf0" d="M 734.667969 326.46875 C 736.066406 327.871094 749.449219 341.074219 751.636719 348.859375 C 753.738281 356.640625 757.0625 372.554688 747.4375 411.910156 C 737.90625 451.261719 721.898438 476.359375 721.898438 479.945312 C 721.898438 483.53125 703.789062 494.460938 695.304688 494.109375 C 686.820312 493.761719 617.714844 490.175781 609.582031 476.707031 C 601.445312 463.242188 604.59375 459.742188 613.167969 442.339844 C 621.652344 424.9375 624.886719 350.605469 635.121094 331.453125 C 645.445312 312.304688 648.242188 306.269531 685.070312 310.90625 C 721.898438 315.539062 734.667969 326.46875 734.667969 326.46875 Z M 734.667969 326.46875 " fill-opacity="1" fill-rule="nonzero"/><path fill="#d9ebf9" d="M 723.472656 311.953125 C 729.769531 316.152344 734.582031 325.507812 734.84375 326.382812 C 735.191406 327.171875 735.628906 335.214844 733.355469 346.410156 C 731.082031 357.601562 728.808594 366.785156 728.808594 366.785156 L 717 350.082031 C 717 350.082031 707.203125 366.433594 706.9375 365.824219 C 706.589844 365.035156 667.3125 312.652344 670.460938 309.242188 C 670.460938 309.242188 684.285156 305.132812 691.367188 300.585938 C 698.453125 296.039062 702.128906 298.136719 702.128906 298.136719 Z M 723.472656 311.953125 " fill-opacity="1" fill-rule="nonzero"/><path fill="#7c4415" d="M 693.292969 244.269531 C 693.292969 244.269531 689.355469 263.683594 688.917969 269.804688 C 688.394531 275.925781 699.679688 302.507812 701.339844 302.160156 C 702.914062 301.808594 747.175781 290.265625 753.210938 283.445312 C 759.597656 276.1875 767.734375 264.03125 764.320312 254.9375 C 760.910156 245.929688 698.804688 240.59375 693.292969 244.269531 Z M 693.292969 244.269531 " fill-opacity="1" fill-rule="nonzero"/><path fill="#f7a98f" d="M 703.613281 279.683594 C 703.613281 279.683594 702.304688 291.839844 697.667969 301.546875 C 692.941406 311.253906 689.882812 312.214844 690.054688 314.316406 C 690.230469 316.414062 714.636719 351.570312 715.949219 348.945312 C 717.261719 346.320312 717.261719 335.039062 717.261719 335.039062 L 728.28125 311.777344 Z M 703.613281 279.683594 " fill-opacity="1" fill-rule="nonzero"/><path fill="#f7a98f" d="M 713.324219 253.363281 C 711.574219 254.414062 709.914062 255.460938 708.339844 260.796875 C 706.765625 266.128906 703.003906 269.714844 702.214844 268.753906 C 701.429688 267.792969 696.09375 259.660156 692.679688 263.769531 C 689.269531 267.792969 692.679688 282.046875 696.53125 285.804688 C 700.378906 289.566406 702.214844 287.292969 702.214844 287.292969 C 702.214844 287.292969 700.289062 303.035156 702.214844 305.570312 C 704.140625 308.195312 718.574219 318.863281 726.359375 319.648438 C 734.144531 320.4375 744.464844 313.179688 746.300781 310.46875 C 748.050781 307.757812 753.300781 281.171875 753.914062 279.597656 C 754.523438 277.9375 757.148438 261.144531 755.488281 258.523438 C 753.824219 255.8125 716.910156 251.265625 713.324219 253.363281 Z M 713.324219 253.363281 " fill-opacity="1" fill-rule="nonzero"/><path fill="#ffffff" d="M 719.972656 299.273438 L 739.917969 301.371094 C 739.917969 301.371094 735.019531 310.292969 727.933594 308.628906 C 720.757812 307.058594 719.972656 299.273438 719.972656 299.273438 Z M 719.972656 299.273438 " fill-opacity="1" fill-rule="nonzero"/><path fill="#001c31" d="M 726.269531 276.011719 C 726.269531 276.332031 726.238281 276.652344 726.175781 276.96875 C 726.113281 277.28125 726.019531 277.589844 725.898438 277.886719 C 725.773438 278.183594 725.625 278.464844 725.445312 278.734375 C 725.265625 279 725.0625 279.246094 724.835938 279.476562 C 724.609375 279.703125 724.359375 279.90625 724.09375 280.085938 C 723.824219 280.261719 723.542969 280.414062 723.246094 280.535156 C 722.949219 280.660156 722.644531 280.753906 722.328125 280.816406 C 722.011719 280.878906 721.695312 280.910156 721.371094 280.910156 C 721.050781 280.910156 720.730469 280.878906 720.417969 280.816406 C 720.101562 280.753906 719.792969 280.660156 719.496094 280.535156 C 719.199219 280.414062 718.917969 280.261719 718.652344 280.085938 C 718.382812 279.90625 718.136719 279.703125 717.910156 279.476562 C 717.679688 279.246094 717.476562 279 717.300781 278.734375 C 717.121094 278.464844 716.96875 278.183594 716.847656 277.886719 C 716.722656 277.589844 716.628906 277.28125 716.566406 276.96875 C 716.503906 276.652344 716.472656 276.332031 716.472656 276.011719 C 716.472656 275.691406 716.503906 275.371094 716.566406 275.058594 C 716.628906 274.742188 716.722656 274.433594 716.847656 274.136719 C 716.96875 273.839844 717.121094 273.558594 717.300781 273.292969 C 717.476562 273.023438 717.679688 272.777344 717.910156 272.550781 C 718.136719 272.320312 718.382812 272.117188 718.652344 271.941406 C 718.917969 271.761719 719.199219 271.609375 719.496094 271.488281 C 719.792969 271.363281 720.101562 271.273438 720.417969 271.210938 C 720.730469 271.144531 721.050781 271.113281 721.371094 271.113281 C 721.695312 271.113281 722.011719 271.144531 722.328125 271.210938 C 722.644531 271.273438 722.949219 271.363281 723.246094 271.488281 C 723.542969 271.609375 723.824219 271.761719 724.09375 271.941406 C 724.359375 272.117188 724.609375 272.320312 724.835938 272.550781 C 725.0625 272.777344 725.265625 273.023438 725.445312 273.292969 C 725.625 273.558594 725.773438 273.839844 725.898438 274.136719 C 726.019531 274.433594 726.113281 274.742188 726.175781 275.058594 C 726.238281 275.371094 726.269531 275.691406 726.269531 276.011719 Z M 726.269531 276.011719 " fill-opacity="1" fill-rule="nonzero"/><path fill="#001c31" d="M 752.425781 279.859375 C 752.425781 280.179688 752.394531 280.5 752.332031 280.816406 C 752.269531 281.128906 752.175781 281.4375 752.050781 281.734375 C 751.929688 282.03125 751.777344 282.3125 751.601562 282.582031 C 751.421875 282.847656 751.21875 283.09375 750.992188 283.324219 C 750.761719 283.550781 750.515625 283.753906 750.25 283.933594 C 749.980469 284.109375 749.699219 284.261719 749.402344 284.382812 C 749.105469 284.507812 748.796875 284.601562 748.480469 284.664062 C 748.167969 284.726562 747.847656 284.757812 747.527344 284.757812 C 747.203125 284.757812 746.886719 284.726562 746.570312 284.664062 C 746.253906 284.601562 745.949219 284.507812 745.652344 284.382812 C 745.355469 284.261719 745.074219 284.109375 744.804688 283.933594 C 744.539062 283.753906 744.289062 283.550781 744.0625 283.324219 C 743.835938 283.09375 743.632812 282.847656 743.453125 282.582031 C 743.273438 282.3125 743.125 282.03125 743 281.734375 C 742.878906 281.4375 742.785156 281.128906 742.722656 280.816406 C 742.660156 280.5 742.628906 280.179688 742.628906 279.859375 C 742.628906 279.539062 742.660156 279.21875 742.722656 278.90625 C 742.785156 278.589844 742.878906 278.28125 743 277.984375 C 743.125 277.6875 743.273438 277.40625 743.453125 277.140625 C 743.632812 276.871094 743.835938 276.625 744.0625 276.398438 C 744.289062 276.167969 744.539062 275.964844 744.804688 275.789062 C 745.074219 275.609375 745.355469 275.457031 745.652344 275.335938 C 745.949219 275.210938 746.253906 275.121094 746.570312 275.058594 C 746.886719 274.992188 747.203125 274.960938 747.527344 274.960938 C 747.847656 274.960938 748.167969 274.992188 748.480469 275.058594 C 748.796875 275.121094 749.105469 275.210938 749.402344 275.335938 C 749.699219 275.457031 749.980469 275.609375 750.25 275.789062 C 750.515625 275.964844 750.761719 276.167969 750.992188 276.398438 C 751.21875 276.625 751.421875 276.871094 751.601562 277.140625 C 751.777344 277.40625 751.929688 277.6875 752.050781 277.984375 C 752.175781 278.28125 752.269531 278.589844 752.332031 278.90625 C 752.394531 279.21875 752.425781 279.539062 752.425781 279.859375 Z M 752.425781 279.859375 " fill-opacity="1" fill-rule="nonzero"/><path fill="#d92c09" d="M 764.933594 261.40625 L 758.285156 260.535156 L 719.796875 255.375 L 690.582031 251.4375 C 690.582031 251.4375 689.792969 227.039062 700.640625 220.21875 C 703.441406 218.46875 707.375 217.070312 711.925781 216.109375 C 723.558594 213.75 739.304688 214.183594 751.636719 218.644531 C 753.125 219.171875 754.523438 219.78125 755.835938 220.394531 C 773.070312 228.441406 764.933594 261.40625 764.933594 261.40625 Z M 764.933594 261.40625 " fill-opacity="1" fill-rule="nonzero"/><path fill="#b53101" d="M 758.375 260.535156 L 719.886719 255.375 C 720.234375 253.011719 722.945312 234.910156 719.183594 225.554688 C 717.347656 221.09375 714.898438 217.945312 712.011719 216.109375 C 723.644531 213.75 739.390625 214.183594 751.726562 218.644531 C 756.273438 223.105469 760.824219 229.664062 760.996094 237.882812 C 761.171875 250.738281 759.160156 258.171875 758.375 260.535156 Z M 758.375 260.535156 " fill-opacity="1" fill-rule="nonzero"/><path fill="#b53101" d="M 690.84375 248.816406 C 691.457031 248.816406 718.398438 251.875 718.398438 251.875 C 718.398438 251.875 726.796875 245.929688 742.191406 244.792969 C 757.5 243.65625 769.484375 255.898438 770.445312 258.523438 C 771.40625 261.144531 771.230469 263.855469 768.957031 263.855469 C 766.683594 263.855469 763.972656 261.40625 745.164062 259.308594 C 726.359375 257.210938 720.585938 257.035156 717.609375 256.6875 C 714.722656 256.335938 690.582031 251.351562 690.582031 251.351562 Z M 690.84375 248.816406 " fill-opacity="1" fill-rule="nonzero"/><path fill="#7c4415" d="M 701.867188 276.625 C 700.902344 282.484375 700.117188 288.429688 699.941406 294.375 C 699.765625 297.4375 699.589844 301.023438 700.726562 303.910156 C 702.214844 307.667969 705.976562 310.640625 709.039062 313.089844 C 713.324219 316.328125 718.136719 319.386719 723.382812 320.785156 C 724.957031 321.222656 725.660156 318.773438 724.082031 318.335938 C 719.710938 317.113281 715.597656 314.664062 711.925781 312.042969 C 708.777344 309.855469 704.839844 306.882812 703.175781 303.296875 C 702.039062 300.761719 702.304688 297.523438 702.476562 294.8125 C 702.652344 291.054688 703.003906 287.292969 703.441406 283.621094 C 703.703125 281.519531 703.964844 279.335938 704.316406 277.238281 C 704.578125 275.664062 702.128906 274.960938 701.867188 276.625 Z M 701.867188 276.625 " fill-opacity="1" fill-rule="nonzero"/><path fill="#7c4415" d="M 733.09375 295.339844 C 735.542969 294.203125 737.46875 291.753906 737.90625 289.128906 C 737.992188 288.515625 737.730469 287.730469 737.03125 287.554688 C 736.417969 287.378906 735.628906 287.730469 735.457031 288.429688 C 735.367188 288.691406 735.367188 289.042969 735.28125 289.304688 C 735.28125 289.390625 735.191406 289.566406 735.191406 289.652344 C 735.191406 289.742188 735.105469 289.828125 735.105469 289.917969 C 735.105469 289.828125 735.191406 289.652344 735.105469 289.828125 C 735.019531 290.089844 734.84375 290.355469 734.753906 290.617188 C 734.582031 290.792969 734.492188 290.878906 734.40625 291.054688 C 734.40625 291.140625 734.316406 291.140625 734.316406 291.226562 C 734.316406 291.226562 734.230469 291.316406 734.230469 291.316406 C 734.144531 291.402344 734.230469 291.402344 734.316406 291.226562 C 734.230469 291.226562 734.144531 291.492188 734.054688 291.578125 C 733.96875 291.664062 733.878906 291.839844 733.792969 291.929688 C 733.617188 292.101562 733.355469 292.277344 733.179688 292.539062 C 733.007812 292.714844 733.445312 292.363281 733.179688 292.539062 C 733.09375 292.539062 733.09375 292.628906 733.007812 292.628906 C 732.917969 292.714844 732.742188 292.800781 732.65625 292.890625 C 732.394531 293.066406 732.132812 293.152344 731.867188 293.328125 C 731.257812 293.589844 731.082031 294.550781 731.429688 295.074219 C 731.695312 295.511719 732.394531 295.6875 733.09375 295.339844 Z M 733.09375 295.339844 " fill-opacity="1" fill-rule="nonzero"/><path fill="#001c31" d="M 714.722656 272.6875 C 716.296875 271.289062 718.574219 271.027344 720.496094 271.640625 C 722.683594 272.339844 724.519531 274 725.921875 275.75 C 726.359375 276.273438 727.058594 276.625 727.671875 276.1875 C 728.195312 275.835938 728.546875 274.960938 728.109375 274.4375 C 726.269531 272.078125 723.996094 269.890625 721.023438 269.105469 C 718.222656 268.316406 715.074219 268.839844 712.972656 270.851562 C 711.664062 271.988281 713.5 273.824219 714.722656 272.6875 Z M 714.722656 272.6875 " fill-opacity="1" fill-rule="nonzero"/><path fill="#001c31" d="M 742.015625 278.375 C 743.589844 277.238281 745.253906 276.097656 747.175781 275.75 C 749.1875 275.398438 751.199219 276.449219 752.773438 277.847656 C 754 278.984375 755.75 277.148438 754.613281 276.011719 C 752.511719 274.089844 749.976562 272.777344 747.089844 273.125 C 744.726562 273.476562 742.714844 274.699219 740.792969 276.101562 C 740.265625 276.535156 740.003906 277.238281 740.355469 277.847656 C 740.617188 278.460938 741.492188 278.722656 742.015625 278.375 Z M 742.015625 278.375 " fill-opacity="1" fill-rule="nonzero"/><path fill="#001c31" d="M 714.023438 264.117188 C 718.574219 262.546875 724.871094 262.457031 728.542969 266.21875 C 729.683594 267.355469 731.519531 265.605469 730.382812 264.382812 C 726.183594 260.007812 718.835938 259.746094 713.410156 261.671875 C 711.835938 262.195312 712.449219 264.644531 714.023438 264.117188 Z M 714.023438 264.117188 " fill-opacity="1" fill-rule="nonzero"/><path fill="#001c31" d="M 744.027344 269.105469 C 747.351562 267.878906 751.988281 266.042969 755.136719 268.839844 C 755.660156 269.277344 756.449219 269.367188 756.972656 268.839844 C 757.410156 268.402344 757.5 267.53125 756.972656 267.003906 C 755.222656 265.519531 753.039062 264.820312 750.761719 264.820312 C 748.226562 264.820312 745.777344 265.691406 743.414062 266.65625 C 742.804688 266.917969 742.367188 267.53125 742.539062 268.230469 C 742.628906 268.753906 743.328125 269.277344 744.027344 269.105469 Z M 744.027344 269.105469 " fill-opacity="1" fill-rule="nonzero"/><path fill="#ffffff" d="M 690.230469 247.679688 C 689.707031 248.117188 689.792969 249.078125 690.230469 249.515625 C 690.929688 250.128906 692.242188 250.128906 693.117188 250.214844 C 695.21875 250.476562 697.316406 250.738281 699.417969 251 C 704.316406 251.613281 709.214844 252.226562 714.199219 252.75 C 715.425781 252.839844 716.734375 253.1875 717.960938 253.101562 C 719.097656 253.011719 720.324219 252.136719 721.371094 251.703125 C 727.757812 248.640625 734.753906 246.191406 741.839844 245.929688 C 749.1875 245.667969 756.625 248.027344 762.570312 252.3125 C 763.796875 253.1875 765.019531 254.238281 766.070312 255.375 C 767.558594 257.035156 769.394531 259.132812 770.007812 261.40625 C 770.09375 261.582031 770.007812 261.671875 769.746094 261.84375 C 769.570312 262.019531 769.21875 262.109375 769.046875 262.28125 C 769.21875 262.109375 769.394531 262.28125 769.308594 262.195312 C 769.308594 262.195312 769.570312 262.28125 769.394531 262.195312 C 768.257812 261.144531 766.769531 260.183594 765.546875 259.132812 C 760.386719 255.113281 754.523438 252.574219 747.964844 252.050781 C 738.605469 251.265625 729.417969 253.1875 720.324219 254.761719 C 718.398438 255.113281 717.171875 255.199219 715.335938 254.847656 C 713.148438 254.5 711.050781 254.0625 708.863281 253.710938 C 707.289062 253.449219 706.589844 255.898438 708.164062 256.160156 C 710.175781 256.511719 712.101562 256.859375 714.113281 257.210938 C 715.6875 257.472656 717.085938 257.734375 718.660156 257.558594 C 721.808594 257.125 724.957031 256.421875 728.019531 255.898438 C 732.65625 255.113281 737.378906 254.5 742.101562 254.414062 C 746.566406 254.324219 751.027344 254.585938 755.3125 256.160156 C 758.199219 257.210938 760.824219 258.695312 763.273438 260.535156 C 764.757812 261.671875 766.160156 263.070312 767.820312 264.117188 C 769.046875 264.90625 770.09375 264.730469 771.230469 263.945312 C 775.082031 261.144531 769.832031 255.550781 767.734375 253.363281 C 764.058594 249.515625 759.160156 246.804688 754.261719 245.230469 C 746.039062 242.519531 737.640625 243.042969 729.507812 245.667969 C 726.445312 246.628906 723.382812 247.851562 720.496094 249.253906 C 719.710938 249.601562 718.835938 250.039062 718.046875 250.476562 C 717.4375 250.828125 718.398438 250.5625 717.785156 250.5625 C 709.300781 249.601562 700.816406 248.816406 692.417969 247.589844 C 692.242188 247.589844 691.980469 247.503906 691.804688 247.503906 C 691.457031 247.503906 691.367188 247.066406 692.070312 247.765625 C 692.070312 248.378906 692.070312 248.992188 692.070312 249.601562 C 693.292969 248.378906 691.457031 246.628906 690.230469 247.679688 Z M 690.230469 247.679688 " fill-opacity="1" fill-rule="nonzero"/><path fill="#015392" d="M 688.394531 310.90625 C 688.21875 313.003906 688.746094 314.839844 689.617188 316.761719 C 691.457031 320.785156 694.253906 324.285156 696.792969 327.78125 C 701.601562 334.429688 706.414062 341.160156 712.011719 347.195312 C 713.0625 348.332031 715.859375 351.742188 717.4375 349.46875 C 718.398438 348.15625 716.210938 346.847656 715.25 348.15625 C 715.425781 347.894531 716.296875 347.546875 716.296875 347.71875 C 716.296875 347.71875 716.210938 347.71875 716.125 347.546875 C 715.859375 347.285156 715.597656 347.109375 715.25 346.847656 C 714.375 345.972656 713.5 345.007812 712.710938 344.136719 C 710.351562 341.425781 708.164062 338.625 706.0625 335.828125 C 703.703125 332.765625 701.339844 329.617188 699.066406 326.46875 C 696.792969 323.324219 694.34375 320.175781 692.503906 316.675781 C 691.457031 314.753906 690.757812 313.003906 691.019531 310.90625 C 691.105469 309.242188 688.570312 309.242188 688.394531 310.90625 Z M 688.394531 310.90625 " fill-opacity="1" fill-rule="nonzero"/><path fill="#015392" d="M 703.175781 453.273438 C 702.828125 460.09375 702.828125 466.914062 702.304688 473.648438 C 701.953125 478.195312 701.429688 483.003906 699.152344 487.027344 C 698.015625 488.953125 696.53125 490.613281 694.78125 491.925781 C 694.605469 492.011719 693.816406 492.535156 694.605469 492.363281 C 694.605469 492.363281 694.519531 492.363281 694.519531 492.363281 C 694.34375 492.363281 694.082031 492.363281 693.90625 492.363281 C 691.804688 492.363281 689.617188 492.273438 687.519531 492.1875 C 679.296875 491.925781 671.074219 491.488281 662.851562 490.699219 C 654.628906 489.914062 646.058594 489.039062 638.183594 486.328125 C 636.699219 485.804688 635.296875 485.277344 633.984375 484.402344 C 632.5 483.441406 632.148438 482.566406 631.273438 480.992188 C 629.875 478.195312 628.476562 475.398438 627.511719 472.421875 C 627.335938 471.8125 627.164062 471.199219 626.988281 470.585938 C 626.902344 470.324219 626.902344 469.976562 626.902344 470.324219 C 626.8125 468.664062 624.277344 468.664062 624.363281 470.324219 C 624.539062 473.296875 626.289062 476.359375 627.511719 478.980469 C 628.476562 481.082031 629.351562 483.617188 631.097656 485.277344 C 632.0625 486.152344 633.199219 486.851562 634.335938 487.464844 C 641.597656 490.960938 650.429688 491.835938 658.304688 492.800781 C 667.3125 493.847656 676.410156 494.375 685.507812 494.722656 C 688.132812 494.8125 690.757812 494.898438 693.378906 494.898438 C 693.816406 494.898438 694.253906 494.984375 694.691406 494.898438 C 696.355469 494.722656 698.367188 492.449219 699.417969 491.226562 C 702.914062 487.113281 704.226562 481.957031 704.753906 476.707031 C 705.625 468.925781 705.453125 461.144531 705.890625 453.359375 C 705.800781 451.699219 703.265625 451.699219 703.175781 453.273438 Z M 703.175781 453.273438 " fill-opacity="1" fill-rule="nonzero"/><path fill="#015392" d="M 749.449219 347.371094 C 750.5 350.867188 750.9375 354.628906 751.375 358.300781 C 752.425781 368.097656 752.074219 377.976562 750.851562 387.683594 C 749.800781 395.730469 748.050781 403.601562 745.777344 411.382812 C 745.339844 412.957031 747.789062 413.65625 748.226562 412.082031 C 754 392.40625 756.710938 370.808594 752.863281 350.429688 C 752.601562 349.207031 752.335938 347.894531 751.988281 346.671875 C 751.464844 345.183594 749.015625 345.796875 749.449219 347.371094 Z M 749.449219 347.371094 " fill-opacity="1" fill-rule="nonzero"/><path fill="#015392" d="M 715.160156 349.292969 C 715.25 349.558594 715.25 349.820312 715.25 349.996094 C 715.25 350.167969 715.25 350.257812 715.335938 350.429688 C 715.425781 350.867188 715.335938 350.34375 715.335938 350.695312 C 715.425781 351.132812 715.425781 351.65625 715.511719 352.09375 C 715.859375 355.417969 716.035156 358.738281 716.035156 361.976562 C 716.296875 376.316406 714.898438 390.746094 713.0625 404.914062 C 711.3125 418.46875 708.863281 432.023438 706.152344 445.402344 C 705.800781 446.976562 708.25 447.675781 708.601562 446.101562 C 712.886719 425.027344 716.386719 403.777344 717.875 382.261719 C 718.574219 372.46875 719.011719 362.5 718.046875 352.792969 C 717.875 351.394531 717.785156 349.996094 717.523438 348.59375 C 717.261719 347.019531 714.8125 347.632812 715.160156 349.292969 Z M 715.160156 349.292969 " fill-opacity="1" fill-rule="nonzero"/><path fill="#6caee3" d="M 637.222656 316.9375 C 645.882812 304.609375 663.550781 305.570312 674.484375 313.003906 C 685.507812 320.4375 726.882812 403.425781 727.234375 405.175781 C 727.582031 406.925781 722.246094 411.910156 722.246094 411.910156 C 722.246094 411.910156 730.03125 406.222656 731.78125 409.460938 C 733.53125 412.609375 732.132812 415.84375 732.132812 415.84375 C 732.132812 415.84375 739.917969 405.175781 744.550781 405.613281 C 749.1875 405.960938 799.484375 415.144531 800.1875 416.980469 C 800.886719 418.730469 806.222656 423.714844 806.921875 424.761719 C 807.621094 425.8125 806.222656 454.496094 802.285156 455.546875 C 798.347656 456.59375 721.808594 464.027344 712.976562 461.230469 C 704.140625 458.429688 632.5 381.738281 629.261719 362.9375 C 626.199219 344.046875 634.773438 320.523438 637.222656 316.9375 Z M 637.222656 316.9375 " fill-opacity="1" fill-rule="nonzero"/><path fill="#001c31" d="M 867.539062 411.734375 L 811.996094 465.953125 C 811.996094 465.953125 811.730469 475.746094 821.53125 476.359375 L 877.335938 427.210938 Z M 867.539062 411.734375 " fill-opacity="1" fill-rule="nonzero"/><path fill="#f7a98f" d="M 821.878906 421.089844 C 823.628906 421.441406 859.40625 408.671875 860.894531 411.910156 C 862.292969 415.058594 860.894531 423.277344 860.894531 423.277344 C 860.894531 423.277344 876.8125 427.910156 877.164062 431.058594 C 877.511719 434.207031 871.128906 438.492188 871.128906 438.492188 C 871.128906 438.492188 871.476562 443.476562 869.027344 445.925781 C 866.578125 448.375 866.578125 448.375 866.578125 448.375 C 866.578125 448.375 867.628906 451.171875 865.179688 453.710938 C 862.730469 456.15625 859.492188 462.890625 856.695312 461.84375 C 853.894531 460.792969 820.566406 454.058594 820.917969 451.171875 C 821.179688 448.375 821.878906 421.089844 821.878906 421.089844 Z M 821.878906 421.089844 " fill-opacity="1" fill-rule="nonzero"/><path fill="#a1cdf0" d="M 805.871094 416.894531 C 804.472656 420.480469 801.933594 453.359375 803.773438 454.847656 C 805.523438 456.246094 822.929688 455.195312 822.929688 455.195312 C 822.929688 455.195312 828.265625 421.527344 826.867188 419.777344 C 825.289062 417.941406 805.871094 416.894531 805.871094 416.894531 Z M 805.871094 416.894531 " fill-opacity="1" fill-rule="nonzero"/><path fill="#015392" d="M 634.949219 378.328125 C 635.386719 379.726562 636.523438 381.039062 637.308594 382.175781 C 639.058594 384.535156 640.894531 386.808594 642.734375 389.085938 C 648.332031 395.90625 654.105469 402.640625 659.878906 409.199219 C 672.910156 423.976562 686.207031 438.84375 700.726562 452.222656 C 703.089844 454.410156 705.453125 456.59375 707.988281 458.519531 C 709.5625 459.742188 711.226562 461.140625 713.148438 461.667969 C 715.25 462.28125 717.699219 462.28125 719.886719 462.367188 C 723.734375 462.542969 727.582031 462.542969 731.429688 462.542969 C 741.753906 462.542969 752.074219 462.105469 762.398438 461.492188 C 772.019531 460.878906 781.640625 460.09375 791.089844 458.429688 C 794.0625 457.90625 797.035156 457.292969 799.835938 456.15625 C 802.023438 455.285156 803.246094 454.148438 803.773438 451.785156 C 804.910156 447.0625 805.171875 441.992188 805.523438 437.179688 C 805.871094 432.460938 806.132812 427.824219 806.398438 423.101562 C 806.398438 422.316406 806.484375 421.527344 806.484375 420.742188 C 806.570312 419.078125 804.035156 419.078125 803.945312 420.742188 C 803.683594 428.875 803.246094 437.007812 802.285156 445.050781 C 802.023438 447.0625 801.761719 449.160156 801.324219 451.085938 C 801.234375 451.4375 801.148438 451.699219 801.0625 452.046875 C 800.972656 452.222656 800.972656 452.398438 800.886719 452.484375 C 800.710938 452.921875 800.972656 452.222656 800.886719 452.484375 C 800.886719 452.484375 800.535156 452.921875 800.535156 452.835938 C 798.785156 454.148438 796.25 454.671875 794.0625 455.109375 C 785.578125 457.03125 776.832031 457.730469 768.257812 458.429688 C 757.847656 459.21875 747.527344 459.65625 737.117188 459.832031 C 729.945312 459.917969 722.683594 460.179688 715.511719 459.394531 C 714.898438 459.304688 714.285156 459.21875 713.5 459.042969 C 713.5 459.042969 713.148438 458.867188 712.800781 458.695312 C 712.363281 458.429688 712.011719 458.257812 711.574219 457.996094 C 709.386719 456.59375 707.375 454.847656 705.453125 453.097656 C 699.152344 447.5 693.207031 441.464844 687.34375 435.34375 C 680.257812 427.910156 673.261719 420.304688 666.351562 412.695312 C 660.140625 405.785156 654.015625 398.792969 648.070312 391.621094 C 644.570312 387.421875 640.722656 383.136719 637.835938 378.503906 C 637.660156 378.242188 637.570312 377.976562 637.398438 377.714844 C 637.308594 377.628906 637.308594 377.539062 637.222656 377.367188 C 637.136719 377.277344 637.308594 377.714844 637.222656 377.367188 C 636.871094 376.054688 634.421875 376.753906 634.949219 378.328125 Z M 634.949219 378.328125 " fill-opacity="1" fill-rule="nonzero"/><path fill="#015392" d="M 721.285156 435.433594 C 721.632812 435.433594 721.898438 435.605469 722.070312 435.871094 C 722.246094 436.132812 722.160156 435.957031 722.160156 435.957031 C 722.246094 435.957031 722.070312 436.308594 722.160156 435.957031 C 722.246094 435.695312 722.160156 435.871094 722.160156 435.871094 C 722.246094 435.257812 722.507812 434.644531 722.683594 434.03125 C 723.382812 432.285156 724.171875 430.621094 725.046875 429.046875 C 727.320312 424.761719 729.855469 420.652344 732.65625 416.71875 C 733.878906 414.96875 735.191406 413.308594 736.765625 411.910156 C 737.640625 411.121094 736.679688 409.285156 735.542969 409.808594 C 728.109375 412.609375 720.757812 415.757812 713.585938 419.167969 C 712.101562 419.867188 713.410156 422.050781 714.898438 421.351562 C 721.898438 418.03125 729.070312 414.96875 736.242188 412.257812 C 735.804688 411.558594 735.457031 410.859375 735.019531 410.160156 C 731.429688 413.394531 728.71875 417.765625 726.269531 421.878906 C 723.910156 425.8125 721.195312 430.011719 719.886719 434.46875 C 719.449219 435.78125 719.273438 437.882812 721.195312 437.96875 C 722.945312 438.054688 722.945312 435.519531 721.285156 435.433594 Z M 721.285156 435.433594 " fill-opacity="1" fill-rule="nonzero"/><path fill="#7c4415" d="M 855.382812 444.351562 C 858.179688 445.402344 861.066406 446.449219 863.867188 447.585938 C 864.652344 447.851562 865.792969 448.550781 866.664062 448.375 C 867.628906 448.113281 868.503906 447.5 869.203125 446.800781 C 871.214844 444.789062 872.175781 441.816406 872.789062 439.105469 C 872.964844 438.40625 872.613281 437.707031 871.914062 437.53125 C 869.902344 436.917969 867.890625 436.308594 865.878906 435.695312 C 864.390625 435.257812 862.90625 434.734375 861.417969 434.207031 C 860.804688 434.03125 860.28125 433.769531 859.753906 433.597656 C 859.667969 433.597656 859.316406 433.421875 859.582031 433.507812 C 859.492188 433.507812 859.40625 433.421875 859.316406 433.421875 C 859.144531 433.332031 859.054688 433.332031 858.878906 433.246094 C 857.480469 432.371094 856.257812 434.558594 857.570312 435.433594 C 858.445312 435.957031 859.492188 436.308594 860.457031 436.570312 C 861.941406 437.09375 863.429688 437.53125 864.917969 438.054688 C 867.015625 438.667969 869.027344 439.367188 871.128906 439.980469 C 870.863281 439.457031 870.515625 438.929688 870.253906 438.40625 C 869.726562 440.59375 868.941406 443.128906 867.539062 444.703125 C 867.367188 444.964844 867.101562 445.140625 866.839844 445.402344 C 866.578125 445.578125 867.015625 445.3125 866.664062 445.488281 C 866.578125 445.578125 866.492188 445.664062 866.316406 445.664062 C 866.230469 445.664062 866.140625 445.75 866.054688 445.75 C 865.792969 445.925781 866.316406 445.664062 866.054688 445.75 C 865.964844 445.75 865.792969 445.839844 865.792969 445.839844 C 865.617188 446.015625 866.316406 445.839844 866.402344 445.839844 C 866.402344 445.75 866.054688 445.664062 865.964844 445.664062 C 865.441406 445.488281 864.828125 445.226562 864.304688 445.050781 C 862.640625 444.441406 860.894531 443.738281 859.230469 443.128906 C 858.09375 442.691406 856.957031 442.253906 855.820312 441.816406 C 854.507812 441.292969 853.894531 443.738281 855.382812 444.351562 Z M 855.382812 444.351562 " fill-opacity="1" fill-rule="nonzero"/><path fill="#7c4415" d="M 853.28125 452.660156 C 855.730469 453.710938 858.269531 454.757812 860.71875 455.894531 C 861.59375 456.246094 862.992188 457.121094 863.867188 456.683594 C 865.003906 455.984375 866.054688 454.933594 866.839844 453.796875 C 868.414062 451.609375 868.589844 448.898438 867.367188 446.539062 C 866.578125 445.050781 864.390625 446.363281 865.179688 447.851562 C 865.441406 448.289062 865.617188 448.8125 865.703125 449.335938 C 865.703125 449.511719 865.703125 450.210938 865.703125 450.386719 C 865.617188 450.648438 865.617188 450.824219 865.527344 451.085938 C 865.441406 451.347656 865.441406 451.261719 865.355469 451.523438 C 865.265625 451.699219 865.179688 451.960938 865.003906 452.136719 C 864.917969 452.222656 864.917969 452.308594 864.828125 452.398438 C 864.828125 452.398438 864.566406 452.746094 864.742188 452.574219 C 864.304688 453.183594 863.777344 453.621094 863.167969 454.148438 C 863.078125 454.234375 863.078125 454.234375 862.992188 454.320312 C 863.078125 454.234375 863.253906 454.148438 863.078125 454.234375 C 862.992188 454.320312 862.90625 454.320312 862.816406 454.410156 C 862.730469 454.496094 862.640625 454.496094 862.554688 454.582031 C 862.992188 454.582031 863.429688 454.582031 863.867188 454.582031 C 860.804688 453.273438 857.65625 451.960938 854.59375 450.5625 C 853.980469 450.296875 853.195312 450.386719 852.84375 451 C 852.582031 451.4375 852.671875 452.308594 853.28125 452.660156 Z M 853.28125 452.660156 " fill-opacity="1" fill-rule="nonzero"/><path fill="#ffffff" d="M 705.539062 253.101562 C 702.214844 252.402344 698.890625 251.703125 695.566406 251.089844 C 695.128906 251 694.605469 250.914062 694.167969 250.828125 C 693.46875 250.652344 692.769531 251 692.59375 251.703125 C 692.417969 252.3125 692.769531 253.101562 693.46875 253.273438 C 696.792969 253.976562 700.117188 254.675781 703.441406 255.375 C 703.878906 255.460938 704.402344 255.550781 704.839844 255.636719 C 705.539062 255.8125 706.238281 255.460938 706.414062 254.761719 C 706.589844 254.0625 706.152344 253.1875 705.539062 253.101562 Z M 705.539062 253.101562 " fill-opacity="1" fill-rule="nonzero"/><path fill="#015392" d="M 608.355469 473.558594 C 606.695312 473.558594 606.957031 475.308594 607.65625 476.183594 C 608.445312 477.144531 609.40625 477.84375 610.367188 478.546875 C 614.480469 481.605469 619.203125 483.792969 624.101562 485.367188 C 628.300781 486.765625 632.671875 487.640625 637.046875 488.25 C 638.621094 488.425781 638.621094 485.890625 637.046875 485.714844 C 629.789062 484.753906 622.613281 482.742188 616.140625 479.246094 C 614.390625 478.28125 612.640625 477.234375 611.066406 475.921875 C 610.628906 475.570312 610.191406 475.132812 609.753906 474.785156 C 609.582031 474.609375 609.230469 474.347656 609.492188 474.523438 C 609.492188 474.523438 609.40625 474.347656 609.40625 474.347656 C 609.40625 474.347656 609.40625 474.261719 609.40625 474.261719 C 609.753906 474.960938 609.40625 475.570312 608.355469 476.007812 C 609.929688 476.097656 609.929688 473.558594 608.355469 473.558594 Z M 608.355469 473.558594 " fill-opacity="1" fill-rule="nonzero"/><path fill="#6caee3" d="M 875.5 381.300781 C 875.5 381.300781 860.457031 405.175781 860.890625 406.488281 C 861.328125 407.796875 879.699219 432.109375 881.886719 432.984375 C 884.074219 433.859375 903.578125 436.65625 905.328125 434.03125 C 907.078125 431.410156 924.835938 417.242188 924.835938 415.492188 C 924.835938 413.746094 913.8125 412.257812 911.191406 412.257812 C 908.566406 412.257812 900.167969 417.59375 900.167969 417.59375 C 900.167969 417.59375 889.496094 417.242188 886.433594 410.160156 C 883.375 403.074219 885.648438 391.09375 886.960938 389.785156 C 888.273438 388.472656 896.757812 381.476562 896.757812 381.476562 C 896.757812 381.476562 902.003906 372.46875 899.292969 371.59375 C 896.757812 370.632812 875.9375 382.613281 875.5 381.300781 Z M 875.5 381.300781 " fill-opacity="1" fill-rule="nonzero"/><path fill="#016fc2" d="M 874.363281 380.601562 C 870.515625 386.722656 866.664062 392.933594 863.078125 399.226562 C 862.203125 400.800781 861.328125 402.375 860.542969 403.949219 C 860.105469 404.738281 859.492188 405.785156 859.753906 406.75 C 860.019531 407.625 860.71875 408.410156 861.242188 409.109375 C 862.292969 410.597656 863.429688 412.082031 864.566406 413.570312 C 867.453125 417.503906 870.515625 421.351562 873.578125 425.199219 C 875.761719 427.910156 877.949219 430.972656 880.574219 433.332031 C 881.363281 434.035156 882.324219 434.296875 883.375 434.46875 C 885.296875 434.90625 887.308594 435.171875 889.320312 435.433594 C 893.957031 436.042969 899.03125 436.746094 903.667969 435.957031 C 904.367188 435.871094 905.066406 435.695312 905.679688 435.34375 C 906.117188 435.082031 906.640625 434.46875 906.730469 434.382812 C 907.777344 433.160156 909.089844 432.023438 910.226562 430.972656 C 913.988281 427.648438 917.839844 424.414062 921.511719 421.003906 C 922.910156 419.777344 927.808594 416.28125 925.796875 414.007812 C 924.484375 412.609375 921.863281 412.257812 920.113281 411.910156 C 917.75 411.472656 915.300781 411.121094 912.851562 410.859375 C 908.476562 410.507812 904.28125 413.484375 900.691406 415.667969 C 900.429688 415.84375 900.167969 415.929688 899.992188 416.105469 C 899.382812 416.628906 900.253906 415.667969 900.34375 416.105469 C 900.34375 416.105469 899.117188 416.019531 899.03125 416.019531 C 897.019531 415.757812 894.917969 415.230469 892.996094 414.355469 C 890.371094 413.132812 888.359375 411.296875 887.398438 408.5 C 886.347656 405.351562 886.171875 401.9375 886.433594 398.617188 C 886.609375 396.167969 886.871094 393.457031 887.746094 391.183594 C 888.183594 389.957031 889.671875 388.996094 890.894531 387.949219 C 892.734375 386.375 894.65625 384.800781 896.582031 383.226562 C 897.367188 382.527344 897.980469 382.089844 898.507812 381.125 C 899.730469 378.941406 903.753906 372.207031 900.34375 370.28125 C 899.207031 369.671875 897.71875 370.195312 896.582031 370.632812 C 894.746094 371.246094 892.90625 372.117188 891.070312 372.90625 C 886.871094 374.828125 882.671875 377.015625 878.476562 378.941406 C 877.863281 379.203125 877.25 379.464844 876.636719 379.726562 C 876.464844 379.816406 876.199219 379.816406 876.027344 379.902344 C 875.675781 380.078125 876.027344 379.816406 876.027344 379.902344 C 876.027344 379.816406 876.8125 380.339844 876.8125 380.425781 C 876.027344 378.941406 873.839844 380.25 874.625 381.738281 C 875.761719 383.925781 880.925781 380.6875 882.148438 380.078125 C 886.261719 378.066406 890.371094 375.96875 894.570312 374.128906 C 895.96875 373.519531 897.457031 372.90625 898.945312 372.554688 C 898.945312 372.554688 899.117188 372.46875 899.292969 372.554688 C 899.292969 372.554688 899.03125 372.46875 899.03125 372.46875 C 898.855469 373.429688 898.769531 374.304688 898.417969 375.179688 C 897.804688 376.929688 896.933594 378.589844 896.058594 380.25 C 895.96875 380.425781 895.707031 380.601562 896.058594 380.25 C 895.96875 380.339844 895.882812 380.425781 895.792969 380.515625 C 895.09375 381.039062 894.394531 381.652344 893.695312 382.261719 C 891.859375 383.75 890.019531 385.324219 888.273438 386.8125 C 887.132812 387.773438 885.996094 388.558594 885.472656 390.046875 C 883.546875 394.945312 883.460938 401.152344 884.335938 406.3125 C 884.859375 409.109375 885.824219 411.734375 887.835938 413.746094 C 889.585938 415.492188 891.859375 416.632812 894.21875 417.417969 C 895.96875 418.03125 897.804688 418.378906 899.644531 418.46875 C 900.691406 418.554688 901.21875 418.292969 902.09375 417.769531 C 904.105469 416.542969 906.203125 415.40625 908.304688 414.355469 C 910.140625 413.484375 911.453125 413.21875 913.464844 413.394531 C 915.914062 413.65625 918.273438 414.007812 920.636719 414.53125 C 921.597656 414.707031 922.5625 414.96875 923.4375 415.320312 C 923.4375 415.320312 924.046875 415.667969 924.046875 415.667969 C 923.785156 415.84375 923.875 414.707031 923.960938 414.792969 C 923.960938 414.792969 923.875 415.058594 923.785156 415.058594 C 923.523438 415.230469 923.085938 415.929688 922.738281 416.28125 C 922.125 416.894531 921.425781 417.503906 920.8125 418.117188 C 919.148438 419.691406 917.402344 421.265625 915.652344 422.753906 C 912.328125 425.636719 908.914062 428.4375 905.855469 431.496094 C 905.417969 431.933594 905.066406 432.285156 904.71875 432.722656 C 904.367188 433.070312 904.71875 432.808594 904.542969 432.894531 C 904.367188 432.984375 904.105469 433.070312 903.84375 433.160156 C 902.003906 433.597656 899.992188 433.507812 898.070312 433.421875 C 893.519531 433.246094 888.972656 432.722656 884.511719 431.847656 C 883.984375 431.757812 883.375 431.671875 882.847656 431.496094 C 882.5 431.410156 882.761719 431.585938 882.410156 431.234375 C 881.363281 430.359375 880.488281 429.3125 879.613281 428.261719 C 876.726562 424.851562 873.925781 421.351562 871.214844 417.855469 C 868.679688 414.53125 866.140625 411.296875 863.777344 407.886719 C 863.691406 407.710938 862.378906 405.613281 862.292969 405.613281 C 862.378906 405.613281 862.46875 406.3125 862.378906 406.3125 C 862.378906 406.3125 862.46875 406.136719 862.378906 406.136719 C 862.378906 406.136719 862.554688 405.613281 862.554688 405.699219 C 862.730469 405.351562 863.078125 404.5625 863.34375 404.125 C 867.101562 396.953125 871.476562 390.132812 875.761719 383.3125 C 876.113281 382.789062 876.464844 382.175781 876.8125 381.652344 C 877.425781 380.515625 875.238281 379.203125 874.363281 380.601562 Z M 874.363281 380.601562 " fill-opacity="1" fill-rule="nonzero"/><path fill="#016fc2" d="M 863.691406 406.75 C 863.605469 406.835938 863.867188 406.660156 864.128906 406.574219 C 864.390625 406.488281 864.652344 406.398438 864.917969 406.3125 C 865.792969 405.960938 866.753906 405.699219 867.628906 405.4375 C 869.902344 404.824219 872.265625 404.214844 874.625 403.6875 C 877.773438 402.988281 880.925781 402.289062 884.160156 401.589844 C 883.636719 401.328125 883.109375 400.976562 882.585938 400.714844 C 883.460938 406.488281 886.523438 413.132812 891.945312 415.757812 C 891.769531 415.144531 891.683594 414.621094 891.507812 414.007812 C 890.195312 416.980469 888.796875 419.867188 887.308594 422.753906 C 886.261719 424.851562 885.121094 426.949219 883.984375 429.046875 C 883.546875 429.835938 883.109375 430.535156 882.585938 431.234375 C 882.410156 431.496094 882.234375 431.671875 882.0625 431.933594 C 881.710938 432.371094 881.710938 432.109375 881.886719 432.195312 C 882.324219 432.371094 882.585938 432.109375 882.671875 432.371094 C 882.671875 432.285156 882.324219 432.023438 882.234375 431.933594 C 881.796875 431.496094 881.363281 430.972656 881.011719 430.535156 C 879.785156 429.046875 878.5625 427.472656 877.335938 425.902344 C 874.363281 421.964844 871.476562 418.03125 868.589844 414.007812 C 866.753906 411.558594 865.003906 409.023438 863.253906 406.574219 C 862.292969 405.261719 860.105469 406.488281 861.066406 407.886719 C 865.703125 414.445312 870.425781 421.003906 875.324219 427.386719 C 876.550781 429.046875 877.863281 430.710938 879.175781 432.371094 C 879.785156 433.160156 880.660156 434.46875 881.710938 434.734375 C 883.109375 435.171875 884.074219 433.597656 884.773438 432.632812 C 885.996094 430.796875 887.046875 428.785156 888.097656 426.863281 C 890.019531 423.101562 891.859375 419.339844 893.609375 415.492188 C 893.871094 414.882812 893.78125 414.09375 893.171875 413.746094 C 888.273438 411.382812 885.734375 405.351562 884.949219 400.191406 C 884.859375 399.492188 883.984375 399.140625 883.375 399.316406 C 879.960938 400.015625 876.550781 400.714844 873.226562 401.503906 C 870.863281 402.027344 868.414062 402.640625 866.140625 403.339844 C 864.742188 403.777344 862.992188 404.125 861.941406 405.085938 C 860.71875 406.136719 862.46875 407.886719 863.691406 406.75 Z M 863.691406 406.75 " fill-opacity="1" fill-rule="nonzero"/><path fill="#016fc2" d="M 882.585938 414.09375 C 882.585938 414.183594 882.585938 414.355469 882.585938 414.445312 C 882.585938 414.707031 882.585938 414.53125 882.585938 414.445312 C 882.585938 414.621094 882.5 414.792969 882.410156 414.96875 C 882.410156 415.058594 882.324219 415.230469 882.324219 415.320312 C 882.324219 415.230469 882.410156 415.144531 882.324219 415.320312 C 882.234375 415.492188 882.0625 415.757812 881.972656 415.929688 C 881.796875 416.195312 882.0625 415.84375 881.886719 416.019531 C 881.800781 416.105469 881.800781 416.195312 881.710938 416.195312 C 881.625 416.28125 881.625 416.28125 881.535156 416.367188 C 881.535156 416.367188 881.1875 416.628906 881.449219 416.457031 C 881.273438 416.542969 881.097656 416.628906 881.011719 416.804688 C 880.925781 416.804688 880.835938 416.894531 880.835938 416.894531 C 880.660156 416.980469 880.660156 416.980469 880.835938 416.894531 C 880.75 416.894531 880.75 416.894531 880.660156 416.980469 C 880.488281 417.066406 880.3125 417.066406 880.136719 417.15625 C 880.050781 417.15625 879.785156 417.242188 880.050781 417.15625 C 879.960938 417.15625 879.875 417.15625 879.785156 417.15625 C 879.613281 417.15625 879.347656 417.15625 879.175781 417.15625 C 878.914062 417.15625 879.4375 417.242188 879.085938 417.15625 C 879 417.15625 878.824219 417.066406 878.738281 417.066406 C 878.648438 417.066406 878.476562 416.980469 878.386719 416.980469 C 878.300781 416.980469 878.210938 416.894531 878.386719 416.980469 C 878.210938 416.894531 878.039062 416.804688 877.863281 416.71875 C 877.773438 416.628906 877.6875 416.628906 877.601562 416.542969 C 877.425781 416.457031 877.773438 416.71875 877.511719 416.457031 C 877.335938 416.28125 877.164062 416.105469 877.074219 415.929688 C 877.25 416.105469 877.074219 415.929688 877.074219 415.929688 C 876.988281 415.84375 876.988281 415.757812 876.898438 415.667969 C 876.898438 415.582031 876.8125 415.582031 876.8125 415.492188 C 876.8125 415.492188 876.636719 415.144531 876.726562 415.40625 C 876.636719 415.230469 876.550781 415.058594 876.550781 414.882812 C 876.550781 414.792969 876.550781 414.707031 876.464844 414.621094 C 876.464844 414.445312 876.464844 414.445312 876.464844 414.621094 C 876.464844 414.53125 876.464844 414.53125 876.464844 414.445312 C 876.464844 414.269531 876.464844 414.09375 876.464844 413.917969 C 876.464844 413.917969 876.550781 413.484375 876.464844 413.746094 C 876.464844 413.65625 876.464844 413.570312 876.550781 413.484375 C 876.550781 413.308594 876.636719 413.132812 876.726562 412.957031 C 876.8125 412.609375 876.636719 413.132812 876.8125 412.871094 C 876.898438 412.78125 876.898438 412.695312 876.988281 412.609375 C 877.074219 412.519531 877.074219 412.433594 877.164062 412.347656 C 877.164062 412.257812 877.335938 412.082031 877.164062 412.257812 C 877.25 412.082031 877.425781 411.996094 877.511719 411.820312 C 877.511719 411.820312 877.773438 411.558594 877.601562 411.734375 C 877.425781 411.820312 877.773438 411.644531 877.773438 411.644531 C 877.949219 411.558594 878.125 411.382812 878.386719 411.296875 C 878.300781 411.296875 878.210938 411.382812 878.386719 411.296875 C 878.476562 411.296875 878.648438 411.210938 878.738281 411.210938 C 878.824219 411.210938 878.914062 411.210938 879 411.121094 C 879 411.121094 879.351562 411.035156 879.175781 411.121094 C 879 411.121094 879.351562 411.121094 879.351562 411.121094 C 879.4375 411.121094 879.523438 411.121094 879.613281 411.121094 C 879.699219 411.121094 879.785156 411.121094 879.875 411.121094 C 880.136719 411.121094 879.785156 411.035156 880.050781 411.121094 C 880.3125 411.210938 880.488281 411.210938 880.75 411.296875 C 881.097656 411.382812 880.660156 411.210938 880.835938 411.296875 C 880.925781 411.382812 881.097656 411.382812 881.1875 411.472656 C 881.273438 411.472656 881.273438 411.558594 881.363281 411.558594 C 881.449219 411.558594 881.449219 411.644531 881.535156 411.734375 C 881.449219 411.644531 881.449219 411.644531 881.535156 411.734375 C 881.710938 411.910156 881.800781 411.996094 881.972656 412.171875 C 882.234375 412.433594 881.886719 411.996094 882.0625 412.257812 C 882.148438 412.347656 882.148438 412.433594 882.234375 412.519531 C 882.324219 412.609375 882.324219 412.695312 882.410156 412.78125 C 882.5 413.046875 882.410156 412.609375 882.5 412.871094 C 882.585938 413.132812 882.671875 413.308594 882.671875 413.570312 C 882.671875 413.65625 882.671875 413.832031 882.671875 413.570312 C 882.585938 413.746094 882.585938 413.917969 882.585938 414.09375 C 882.585938 414.792969 883.199219 415.40625 883.898438 415.40625 C 884.597656 415.40625 885.210938 414.792969 885.210938 414.09375 C 885.210938 411.734375 883.722656 409.636719 881.449219 408.847656 C 879.347656 408.0625 876.726562 408.761719 875.238281 410.507812 C 873.75 412.347656 873.488281 414.96875 874.714844 416.980469 C 875.9375 419.078125 878.300781 420.042969 880.660156 419.605469 C 883.285156 419.167969 885.121094 416.71875 885.210938 414.09375 C 885.210938 413.394531 884.597656 412.78125 883.898438 412.78125 C 883.109375 412.78125 882.585938 413.394531 882.585938 414.09375 Z M 882.585938 414.09375 " fill-opacity="1" fill-rule="nonzero"/><path fill="#016fc2" d="M 899.46875 417.59375 C 898.59375 419.691406 897.894531 421.964844 897.367188 424.152344 C 896.667969 427.300781 896.058594 431.585938 898.417969 434.207031 C 899.992188 435.871094 902.441406 435.957031 904.542969 435.605469 C 906.117188 435.34375 905.503906 432.894531 903.84375 433.160156 C 903.40625 433.246094 903.054688 433.246094 902.617188 433.246094 C 902.441406 433.246094 902.179688 433.246094 902.003906 433.246094 C 901.917969 433.246094 901.65625 433.160156 901.917969 433.246094 C 901.832031 433.246094 901.65625 433.246094 901.566406 433.160156 C 901.394531 433.160156 901.304688 433.070312 901.128906 433.070312 C 900.78125 432.984375 901.304688 433.160156 901.042969 433.070312 C 900.957031 433.070312 900.867188 432.984375 900.78125 432.984375 C 900.691406 432.894531 900.519531 432.808594 900.429688 432.722656 C 900.691406 432.894531 900.253906 432.546875 900.167969 432.460938 C 900.082031 432.371094 900.082031 432.371094 899.992188 432.285156 C 899.992188 432.285156 900.167969 432.460938 899.992188 432.285156 C 899.90625 432.195312 899.820312 432.023438 899.820312 431.933594 C 899.820312 431.847656 899.554688 431.410156 899.644531 431.671875 C 899.554688 431.496094 899.554688 431.324219 899.46875 431.148438 C 899.207031 430.359375 899.207031 430.097656 899.207031 429.222656 C 899.117188 426.25 899.992188 423.277344 900.957031 420.304688 C 901.21875 419.605469 901.480469 418.90625 901.742188 418.203125 C 902.003906 417.59375 901.480469 416.804688 900.867188 416.628906 C 900.34375 416.542969 899.730469 416.980469 899.46875 417.59375 Z M 899.46875 417.59375 " fill-opacity="1" fill-rule="nonzero"/><path fill="#016fc2" d="M 873.578125 382.875 C 874.714844 386.285156 877.6875 388.996094 880.925781 390.222656 C 882.671875 390.921875 884.597656 391.183594 886.433594 391.183594 C 888.097656 391.183594 888.097656 388.648438 886.433594 388.648438 C 883.722656 388.648438 881.1875 388.035156 879.085938 386.375 C 879.261719 386.546875 879 386.285156 878.914062 386.285156 C 878.824219 386.199219 878.738281 386.109375 878.648438 386.023438 C 878.476562 385.847656 878.300781 385.671875 878.125 385.5 C 877.949219 385.324219 877.773438 385.148438 877.6875 384.972656 C 877.601562 384.886719 877.511719 384.800781 877.511719 384.710938 C 877.511719 384.625 877.425781 384.625 877.425781 384.535156 C 877.511719 384.625 877.511719 384.710938 877.425781 384.625 C 876.988281 384.011719 876.636719 383.488281 876.289062 382.875 C 876.199219 382.789062 876.199219 382.613281 876.113281 382.527344 C 875.9375 382.261719 876.199219 382.789062 876.113281 382.527344 C 876.113281 382.4375 876.027344 382.351562 876.027344 382.261719 C 875.5 380.601562 873.050781 381.300781 873.578125 382.875 Z M 873.578125 382.875 " fill-opacity="1" fill-rule="nonzero"/><path fill="#016fc2" d="M 895.707031 380.601562 C 890.808594 383.398438 886.171875 387.949219 883.898438 393.195312 C 882.9375 395.46875 882.324219 397.917969 882.5 400.453125 C 882.585938 402.113281 885.121094 402.113281 885.035156 400.453125 C 884.773438 393.457031 890.109375 387.597656 895.445312 383.835938 C 895.96875 383.488281 896.496094 383.136719 897.019531 382.789062 C 898.417969 381.914062 897.195312 379.726562 895.707031 380.601562 Z M 895.707031 380.601562 " fill-opacity="1" fill-rule="nonzero"/><path fill="#016fc2" d="M 891.945312 415.757812 C 893.609375 416.980469 895.882812 417.59375 897.894531 417.855469 C 902.96875 418.46875 907.605469 416.195312 911.363281 412.957031 C 912.589844 411.910156 910.839844 410.070312 909.527344 411.121094 C 906.292969 413.832031 902.179688 415.84375 897.804688 415.230469 C 897.105469 415.144531 896.496094 414.96875 895.792969 414.792969 C 895.183594 414.621094 894.832031 414.445312 894.484375 414.269531 C 894.046875 414.007812 893.609375 413.832031 893.171875 413.484375 C 892.644531 413.046875 891.769531 413.394531 891.421875 413.917969 C 891.070312 414.707031 891.332031 415.40625 891.945312 415.757812 Z M 891.945312 415.757812 " fill-opacity="1" fill-rule="nonzero"/><path fill="#ffffff" d="M 905.855469 366.171875 C 905.765625 365.996094 905.679688 365.824219 905.503906 365.910156 C 905.242188 364.511719 904.28125 363.199219 903.84375 361.976562 C 901.65625 356.027344 899.644531 349.207031 897.980469 341.597656 C 897.28125 338.625 894.484375 325.945312 897.632812 325.160156 C 899.730469 324.632812 901.304688 336.265625 902.269531 338.363281 C 900.429688 316.328125 895.792969 288.34375 896.84375 253.273438 C 897.105469 246.015625 897.195312 218.644531 901.21875 235.261719 C 903.492188 244.707031 903.40625 258.085938 905.417969 265.867188 C 906.203125 256.074219 912.765625 170.722656 919.761719 197.484375 C 924.398438 215.148438 922.472656 248.816406 921.863281 265.605469 C 921.425781 277.5 920.988281 288.429688 920.375 298.574219 C 920.199219 302.507812 919.148438 310.117188 919.9375 312.652344 C 920.726562 307.667969 922.472656 299.011719 924.660156 296.214844 C 925.625 299.625 925.1875 306.269531 925.097656 310.378906 C 924.835938 319.125 923.960938 327.082031 922.910156 334.601562 C 921.6875 342.824219 920.023438 350.167969 918.363281 356.902344 C 917.574219 360.050781 916.4375 366.171875 914.863281 367.746094 C 913.375 369.144531 911.363281 367.398438 909.878906 367.398438 C 907.777344 367.484375 906.117188 370.019531 905.855469 366.171875 Z M 905.855469 366.171875 " fill-opacity="1" fill-rule="nonzero"/><path fill="#a1cdf0" d="M 885.996094 369.671875 C 885.996094 369.671875 865.792969 365.035156 871.914062 357.339844 C 878.039062 349.730469 885.996094 369.671875 885.996094 369.671875 Z M 885.996094 369.671875 " fill-opacity="1" fill-rule="nonzero"/><path fill="#a1cdf0" d="M 888.972656 357.777344 C 888.972656 357.777344 872.875 344.746094 881.710938 340.550781 C 890.546875 336.351562 888.972656 357.777344 888.972656 357.777344 Z M 888.972656 357.777344 " fill-opacity="1" fill-rule="nonzero"/><path fill="#a1cdf0" d="M 931.921875 372.03125 C 931.921875 372.03125 933.496094 351.394531 941.980469 356.289062 C 950.464844 361.101562 931.921875 372.03125 931.921875 372.03125 Z M 931.921875 372.03125 " fill-opacity="1" fill-rule="nonzero"/><path fill="#ffffff" d="M 917.050781 415.492188 C 917.050781 415.492188 931.832031 444.875 916.261719 445.226562 C 900.78125 445.488281 917.050781 415.492188 917.050781 415.492188 Z M 917.050781 415.492188 " fill-opacity="1" fill-rule="nonzero"/><path fill="#016fc2" d="M 929.472656 370.019531 L 911.191406 363.375 L 892.90625 370.019531 L 883.199219 386.898438 L 886.609375 406.050781 L 901.566406 418.554688 L 921.074219 418.554688 L 936.03125 406.050781 L 939.445312 386.898438 Z M 923.4375 398.878906 L 916 405.085938 L 906.292969 405.085938 L 898.855469 398.878906 L 897.195312 389.347656 L 902.003906 380.953125 L 911.101562 377.628906 L 920.199219 380.953125 L 925.011719 389.347656 Z M 923.4375 398.878906 " fill-opacity="1" fill-rule="nonzero"/><path fill="#000000" d="M 921.335938 419.867188 L 900.957031 419.867188 L 885.296875 406.75 L 881.710938 386.636719 L 891.945312 368.972656 L 911.101562 361.976562 L 930.257812 368.972656 L 940.492188 386.636719 L 936.90625 406.75 Z M 901.917969 417.332031 L 920.460938 417.332031 L 934.632812 405.4375 L 937.871094 387.160156 L 928.597656 371.070312 L 911.191406 364.6875 L 893.78125 371.070312 L 884.511719 387.160156 L 887.746094 405.4375 Z M 916.4375 406.398438 L 905.855469 406.398438 L 897.71875 399.578125 L 895.882812 389.171875 L 901.21875 379.988281 L 911.191406 376.316406 L 921.160156 379.988281 L 926.496094 389.171875 L 924.660156 399.578125 Z M 906.730469 403.863281 L 915.476562 403.863281 L 922.210938 398.265625 L 923.699219 389.609375 L 919.324219 382 L 911.101562 379.027344 L 902.878906 382 L 898.507812 389.609375 L 899.992188 398.265625 Z M 906.730469 403.863281 " fill-opacity="1" fill-rule="nonzero"/><path fill="#016fc2" d="M 918.101562 391.007812 C 918.101562 394.855469 914.953125 397.917969 911.191406 397.917969 C 907.339844 397.917969 904.28125 394.769531 904.28125 391.007812 C 904.28125 387.246094 907.429688 384.097656 911.191406 384.097656 C 914.953125 384.011719 918.101562 387.160156 918.101562 391.007812 Z M 918.101562 391.007812 " fill-opacity="1" fill-rule="nonzero"/><path fill="#a1cdf0" d="M 911.191406 399.226562 C 906.640625 399.226562 902.96875 395.554688 902.96875 391.007812 C 902.96875 386.460938 906.640625 382.789062 911.191406 382.789062 C 915.738281 382.789062 919.414062 386.460938 919.414062 391.007812 C 919.324219 395.46875 915.652344 399.226562 911.191406 399.226562 Z M 911.191406 385.324219 C 908.039062 385.324219 905.503906 387.859375 905.503906 391.007812 C 905.503906 394.15625 908.039062 396.691406 911.191406 396.691406 C 914.339844 396.691406 916.875 394.15625 916.875 391.007812 C 916.875 387.859375 914.25 385.324219 911.191406 385.324219 Z M 911.191406 385.324219 " fill-opacity="1" fill-rule="nonzero"/></svg>