<svg xmlns="http://www.w3.org/2000/svg" xmlns:xlink="http://www.w3.org/1999/xlink" width="1920" zoomAndPan="magnify" viewBox="0 0 1440 809.999993" height="1080" preserveAspectRatio="xMidYMid meet" version="1.0"><path fill="#ef4533" d="M 930.1875 289.773438 C 918.875 275.199219 890.214844 242.550781 887.207031 241.046875 C 884.199219 239.539062 851.75 198.84375 844.207031 179.765625 C 838.078125 164.253906 870.324219 142.6875 882.605469 135.164062 C 882.285156 135.078125 881.976562 134.976562 881.65625 134.894531 C 880.597656 134.621094 879.679688 134.21875 878.878906 133.730469 C 870.753906 132.25 854.714844 127.011719 823.089844 112.382812 C 756.722656 81.6875 658.675781 106.152344 583.253906 172.46875 C 507.832031 238.78125 602.457031 235.015625 602.457031 235.015625 L 662.300781 278.996094 C 662.265625 279.0625 662.238281 279.132812 662.203125 279.203125 C 661.695312 279.101562 661.171875 279.082031 660.667969 279.160156 C 658.433594 277.53125 654.585938 279.128906 654.652344 282.242188 C 654.707031 284.636719 654.90625 286.96875 655.410156 289.1875 C 653.539062 289.617188 651.851562 291.347656 652.273438 293.796875 C 652.300781 293.960938 652.332031 294.121094 652.363281 294.285156 C 650.160156 293.746094 647.496094 295.023438 647.613281 297.820312 C 647.8125 302.585938 648.792969 308.113281 651.507812 312.117188 C 652.222656 313.167969 653.019531 313.855469 653.847656 314.269531 C 654.261719 314.957031 654.699219 315.632812 655.167969 316.300781 C 656.914062 318.789062 660.0625 318.523438 661.484375 316.4375 C 662.109375 316.679688 662.78125 316.710938 663.433594 316.574219 C 663.5625 317.851562 663.664062 319.136719 663.703125 320.425781 C 663.703125 320.425781 663.703125 320.425781 663.703125 320.429688 C 663.773438 322.699219 665.433594 323.894531 667.179688 324.039062 C 668.609375 326.265625 672.386719 327.445312 673.746094 324.335938 C 674.695312 322.179688 675.265625 319.960938 675.578125 317.710938 C 677.746094 318.671875 680.492188 317.496094 680.796875 314.394531 C 680.875 313.601562 680.882812 312.808594 680.851562 312.015625 C 682.121094 311.617188 683.261719 310.589844 683.683594 309.367188 C 685.191406 304.972656 682.929688 300.578125 684.6875 296.304688 C 684.789062 296.0625 684.847656 295.820312 684.875 295.582031 L 728.601562 327.714844 C 827.941406 337.519531 878.902344 491.230469 878.902344 491.230469 C 918.121094 469.378906 938.484375 421.902344 943.761719 372.664062 C 949.042969 323.425781 941.5 304.347656 930.1875 289.773438 Z M 930.1875 289.773438 " fill-opacity="1" fill-rule="nonzero"/><path fill="#e09242" d="M 638.121094 220.542969 C 634.785156 215.640625 632.34375 209.492188 631.164062 202.625 L 630.804688 193.285156 L 683.960938 198.964844 L 683.449219 202.652344 C 683.664062 202.691406 683.863281 202.703125 684.070312 202.726562 C 683.269531 207.332031 681.898438 211.613281 680.074219 215.410156 L 638.808594 216.035156 C 638.808594 216.035156 639.976562 217.964844 638.121094 220.542969 Z M 657.625 154.132812 C 652.898438 154.132812 648.449219 155.859375 644.574219 158.898438 C 651.90625 158.535156 661.398438 158.269531 669.574219 158.082031 C 665.964844 155.554688 661.910156 154.132812 657.625 154.132812 Z M 630.609375 188.109375 C 631.761719 175.484375 637.105469 164.753906 644.574219 158.898438 C 638.175781 159.214844 633.429688 159.605469 632.675781 160.074219 C 631.042969 161.09375 630.546875 173.5 630.40625 182.84375 L 630.40625 182.847656 Z M 684.867188 192.402344 L 686.410156 181.253906 C 687.066406 169.683594 687.195312 157.761719 687.195312 157.761719 C 687.195312 157.761719 679.328125 157.863281 669.570312 158.082031 C 678.472656 164.320312 684.644531 177.308594 684.867188 192.402344 Z M 630.609375 188.109375 L 630.804688 193.285156 L 683.960938 198.964844 L 684.867188 192.402344 C 684.644531 177.308594 678.472656 164.320312 669.570312 158.082031 C 661.398438 158.269531 651.90625 158.535156 644.574219 158.898438 C 637.105469 164.753906 631.761719 175.484375 630.609375 188.109375 Z M 657.625 232.339844 C 649.976562 232.339844 643.070312 227.820312 638.121094 220.542969 C 637.089844 221.976562 635.140625 223.605469 631.507812 225.21875 C 621.339844 229.742188 629.261719 241.046875 629.261719 241.046875 C 629.261719 241.046875 647.121094 254.597656 648.28125 254.847656 C 649.441406 255.097656 668.855469 256.492188 670.742188 250.84375 C 672.628906 245.191406 671.496094 245.945312 676.019531 240.667969 C 680.546875 235.394531 683.941406 229.140625 684.316406 228.6875 C 684.695312 228.234375 689.597656 215.265625 689.597656 215.265625 L 680.074219 215.410156 C 675.160156 225.632812 666.9375 232.339844 657.625 232.339844 Z M 657.625 232.339844 C 666.9375 232.339844 675.160156 225.632812 680.074219 215.410156 L 638.808594 216.035156 C 638.808594 216.035156 639.976562 217.964844 638.121094 220.542969 C 643.070312 227.820312 649.976562 232.339844 657.625 232.339844 Z M 630.363281 193.238281 C 630.363281 193.238281 630.316406 188.625 630.40625 182.84375 C 630.398438 182.773438 629.816406 177.917969 625.808594 180.542969 C 621.773438 183.183594 618.414062 203.277344 631.164062 202.640625 L 631.164062 202.625 C 630.644531 199.617188 630.367188 196.472656 630.363281 193.238281 Z M 630.367188 193.238281 C 630.367188 196.472656 630.644531 199.617188 631.164062 202.625 L 630.804688 193.28125 Z M 630.363281 193.238281 C 630.367188 191.496094 630.453125 189.785156 630.609375 188.109375 L 630.40625 182.847656 L 630.40625 182.84375 C 630.316406 188.625 630.363281 193.238281 630.363281 193.238281 Z M 630.367188 193.238281 L 630.804688 193.28125 L 630.609375 188.105469 C 630.453125 189.789062 630.367188 191.496094 630.367188 193.238281 Z M 684.582031 199.03125 C 684.453125 200.285156 684.28125 201.515625 684.070312 202.726562 C 694.570312 203.808594 694.738281 183.441406 691.824219 179.765625 C 688.847656 176.019531 686.414062 181.234375 686.414062 181.234375 L 686.410156 181.253906 C 686.015625 188.179688 685.4375 194.984375 684.582031 199.03125 Z M 683.960938 198.964844 L 683.449219 202.652344 C 683.664062 202.6875 683.863281 202.703125 684.070312 202.722656 C 684.28125 201.515625 684.453125 200.28125 684.582031 199.03125 Z M 684.882812 193.238281 C 684.882812 195.207031 684.777344 197.140625 684.582031 199.03125 L 684.585938 199.03125 C 685.4375 194.984375 686.015625 188.179688 686.410156 181.253906 L 684.867188 192.398438 C 684.871094 192.679688 684.882812 192.957031 684.882812 193.238281 Z M 684.882812 193.238281 C 684.882812 192.957031 684.871094 192.679688 684.867188 192.398438 L 683.960938 198.964844 L 684.582031 199.03125 C 684.777344 197.140625 684.882812 195.207031 684.882812 193.238281 Z M 684.882812 193.238281 " fill-opacity="1" fill-rule="nonzero"/><path fill="#3c8bca" d="M 593.722656 295.8125 L 599.207031 295.8125 L 607.144531 287.800781 C 608.835938 297.101562 627.320312 332.402344 631.269531 335.832031 C 640.824219 344.132812 637.050781 341.523438 645.171875 344.964844 C 647.421875 345.921875 647.855469 347.785156 647.855469 347.785156 L 659.546875 350.363281 L 660.511719 350.574219 L 670.480469 347.785156 L 703.726562 337.007812 L 732.328125 327.722656 L 736.605469 325.449219 L 735.601562 279.089844 L 739.867188 268.175781 C 739.867188 268.175781 743.398438 264.167969 745.40625 260.144531 C 747.410156 256.117188 745.40625 240.546875 745.40625 240.546875 C 745.40625 240.546875 740.3125 226.265625 728.523438 223.589844 C 728.441406 223.207031 728.105469 222.863281 727.609375 222.988281 C 726.984375 223.140625 726.351562 223.257812 725.714844 223.347656 C 724.808594 222.511719 723.269531 222.082031 721.769531 221.859375 C 721.683594 221.445312 721.269531 221.066406 720.824219 221.230469 C 719.171875 221.832031 717.453125 222.097656 716.351562 223.585938 C 716.097656 223.929688 716.308594 224.40625 716.621094 224.617188 C 716.683594 224.65625 716.734375 224.671875 716.792969 224.707031 C 716.660156 224.757812 716.53125 224.804688 716.398438 224.859375 C 715.285156 225.3125 714.136719 225.855469 712.945312 226.488281 C 711.980469 227.03125 710.984375 227.617188 709.972656 228.296875 C 707.367188 230.015625 704.605469 232.230469 701.664062 235.019531 C 670.484375 264.664062 651.886719 255.621094 651.886719 255.621094 L 648.386719 254.867188 L 648.265625 254.851562 L 644.839844 254.113281 L 621.21875 244.316406 L 612.304688 237.25 L 612.304688 237.234375 L 612.289062 237.234375 L 606.136719 232.351562 L 602.453125 235.019531 C 602.453125 235.019531 602.453125 235.121094 602.453125 235.292969 L 599.207031 234.652344 C 599.207031 234.652344 590.546875 227.992188 576.46875 283.753906 C 562.386719 339.519531 593.722656 295.8125 593.722656 295.8125 Z M 721.835938 226.351562 C 721.835938 226.371094 721.835938 226.394531 721.835938 226.414062 C 721.816406 226.40625 721.796875 226.394531 721.78125 226.382812 C 721.800781 226.375 721.820312 226.359375 721.835938 226.351562 Z M 722.558594 223.46875 C 722.296875 223.519531 722.039062 223.605469 721.78125 223.714844 C 721.871094 223.613281 721.921875 223.492188 721.949219 223.367188 C 721.988281 223.375 722.035156 223.382812 722.070312 223.386719 C 722.234375 223.410156 722.398438 223.441406 722.558594 223.46875 Z M 717.453125 225.007812 C 717.164062 225.375 716.894531 225.757812 716.640625 226.15625 C 716.742188 225.84375 716.839844 225.523438 716.941406 225.21875 C 716.984375 225.09375 717.027344 224.972656 717.066406 224.851562 C 717.199219 224.914062 717.328125 224.96875 717.453125 225.007812 Z M 659.625 283.53125 L 682.523438 300.746094 L 669.824219 322.433594 L 649.339844 304.347656 Z M 740.28125 500.78125 C 719.164062 516.859375 698.550781 515.351562 686.984375 507.816406 C 675.421875 500.277344 686.984375 412.359375 686.984375 412.359375 L 683.3125 412.566406 C 683.3125 412.566406 660.335938 517.863281 650.785156 524.390625 C 641.230469 530.925781 634.191406 534.941406 617.097656 532.933594 C 600 530.925781 577.375 516.355469 564.804688 497.765625 C 552.234375 479.175781 564.804688 478.171875 587.933594 435.46875 C 611.0625 392.765625 650.785156 362.621094 650.785156 362.621094 L 744.65625 344.128906 C 752.992188 349.101562 759.894531 362.621094 766.683594 412.359375 C 773.476562 462.097656 761.398438 484.707031 740.28125 500.78125 Z M 625.808594 180.542969 C 625.808594 180.542969 618.113281 153.316406 624.988281 143.078125 C 628.171875 138.335938 635.308594 133.28125 644.808594 130.492188 C 642.613281 128.289062 640.238281 124.304688 644.683594 119.574219 C 651.511719 112.3125 676.183594 107.910156 684.113281 119.574219 C 684.113281 119.574219 689.179688 124.84375 681.25 132.445312 L 681.226562 132.445312 C 682.4375 132.917969 683.65625 133.421875 684.882812 133.992188 C 687.996094 135.433594 690.511719 137.175781 692.535156 139.125 C 693.179688 141.253906 694.316406 143.171875 695.316406 145.144531 C 696.484375 150.207031 697.648438 155.03125 697.445312 160.566406 C 697.199219 167.316406 695.058594 174.054688 692.488281 180.277344 C 692.289062 180.113281 692.066406 179.945312 691.824219 179.765625 C 687.199219 176.347656 686.292969 183.210938 686.292969 183.210938 L 684.882812 181.53125 L 681.050781 160.410156 C 660.203125 166.316406 639.171875 161.429688 636.964844 160.496094 C 636.90625 161.007812 636.839844 161.628906 636.75 162.382812 C 635.863281 169.976562 630.863281 185.800781 630.40625 182.847656 C 629.945312 179.890625 628.394531 179.824219 628.394531 179.824219 Z M 625.808594 180.542969 " fill-opacity="1" fill-rule="nonzero"/><path fill="#ffc432" d="M 703.746094 336.496094 C 703.746094 336.492188 703.746094 336.492188 703.746094 336.496094 C 704.425781 303.652344 707.0625 256.117188 716.175781 227.585938 C 716.175781 227.570312 716.175781 227.554688 716.191406 227.542969 C 716.429688 226.757812 716.6875 225.972656 716.945312 225.21875 C 717.019531 224.992188 717.109375 224.769531 717.171875 224.558594 L 717.183594 224.558594 C 718.058594 224.242188 718.890625 223.984375 719.71875 223.773438 C 720.21875 223.652344 720.714844 223.53125 721.199219 223.457031 C 721.578125 223.382812 721.9375 223.335938 722.300781 223.289062 C 722.371094 223.277344 722.449219 223.261719 722.523438 223.261719 C 724.226562 223.078125 725.8125 223.109375 727.304688 223.351562 C 727.351562 223.351562 727.414062 223.351562 727.457031 223.382812 C 727.535156 223.382812 727.597656 223.382812 727.671875 223.410156 C 727.6875 223.183594 727.703125 222.960938 727.730469 222.75 C 727.730469 222.746094 727.730469 222.742188 727.730469 222.742188 C 728.652344 220.394531 728.863281 217.53125 728.277344 214.957031 C 728.277344 214.953125 728.273438 214.949219 728.273438 214.945312 C 728.507812 210.539062 728.441406 208.292969 728.269531 207.183594 C 728.207031 207.183594 728.144531 207.171875 728.078125 207.171875 C 727.632812 205.691406 726.214844 205.566406 724.726562 205.566406 C 720.175781 205.570312 715.621094 205.71875 711.070312 205.75 C 707.386719 205.773438 703.722656 205.871094 700.046875 205.558594 C 697.777344 205.367188 695.238281 205.289062 693.476562 206.878906 L 693.109375 206.878906 C 693.109375 206.878906 689.402344 209.046875 685.132812 215.332031 C 683.957031 217.050781 682.734375 219.085938 681.558594 221.453125 C 676.136719 232.269531 653.382812 269.054688 633.585938 224.476562 C 633.953125 224.5 634.332031 224.34375 634.570312 224.074219 C 634.734375 224.078125 634.828125 224.023438 634.8125 223.863281 C 635.195312 223.78125 635.589844 223.507812 635.8125 223.269531 C 635.863281 223.210938 635.898438 223.152344 635.921875 223.09375 C 636.613281 222.644531 637.410156 221.964844 637.785156 221.105469 C 638.082031 220.980469 638.289062 220.65625 638.058594 220.3125 C 637.71875 219.789062 637.398438 219.25 637.085938 218.710938 C 636.925781 218.433594 636.746094 218.117188 636.496094 217.898438 C 636.457031 217.753906 636.398438 217.617188 636.367188 217.476562 C 634.589844 216.003906 634.082031 213.15625 627.914062 211.40625 L 598.292969 222.710938 C 598.292969 226.730469 597.101562 230.015625 599.210938 234.65625 C 600.3125 237.082031 601.472656 239.644531 602.695312 242.328125 C 602.695312 242.328125 602.695312 242.328125 602.695312 242.34375 C 606.40625 250.453125 610.613281 259.570312 615.035156 268.898438 C 627.902344 296.105469 642.457031 325.175781 650.875 336.496094 L 657.902344 347.738281 L 657.902344 347.742188 C 652.59375 347.863281 648.21875 347.078125 645.355469 345.042969 L 638.808594 342.527344 L 645.355469 364.140625 C 645.355469 364.140625 657.011719 369.609375 673.09375 372.023438 C 674.78125 372.277344 676.515625 372.503906 678.296875 372.667969 C 684.105469 373.242188 690.351562 373.363281 696.730469 372.667969 C 699.023438 372.429688 701.332031 372.066406 703.636719 371.597656 L 703.636719 371.585938 C 718.585938 368.539062 733.730469 360.445312 745.40625 343.039062 L 737.863281 322.4375 C 737.867188 322.433594 722.328125 329.726562 703.746094 336.496094 Z M 717.65625 206.867188 C 717.65625 206.867188 717.652344 206.875 717.652344 206.878906 L 717.257812 206.878906 C 717.386719 206.875 717.523438 206.871094 717.65625 206.867188 Z M 649.335938 304.347656 L 659.625 283.53125 L 682.523438 300.746094 L 669.820312 322.433594 Z M 546.453125 342.910156 C 546.453125 342.910156 550.390625 331.042969 551.886719 329.96875 C 553.382812 328.898438 548.820312 330.453125 549.089844 326.871094 C 549.363281 323.292969 552.871094 320.023438 554.667969 319.113281 C 556.46875 318.203125 559.164062 319.855469 559.164062 319.855469 L 563.015625 320.488281 L 577.332031 279.699219 L 580.96875 280.296875 C 580.96875 280.296875 600.585938 283.96875 602.53125 296.148438 L 582.261719 328.386719 C 582.261719 328.386719 584.117188 330.449219 583.984375 335.261719 C 583.847656 340.070312 583.078125 347.410156 580.878906 354.074219 C 580.027344 356.65625 579.503906 358.625 578.996094 360.148438 C 576.078125 361.546875 573.164062 362.277344 569.472656 361.386719 C 569.355469 361.359375 569.242188 361.347656 569.128906 361.339844 C 569.128906 361.335938 569.128906 361.335938 569.128906 361.332031 L 569.125 361.335938 C 569.054688 361.332031 568.988281 361.328125 568.921875 361.328125 C 568.476562 360.933594 567.859375 360.714844 567.117188 360.886719 C 565.261719 361.308594 562.605469 361.167969 561.863281 359.0625 C 561.535156 358.125 560.765625 357.691406 559.980469 357.648438 C 559.980469 357.339844 559.988281 357.015625 560.007812 356.675781 C 560.007812 356.675781 547.769531 360.917969 552.773438 348.5625 C 552.773438 348.5625 544.386719 353.441406 546.453125 342.910156 Z M 799.171875 250.589844 C 798.957031 252.851562 801.21875 252.851562 777.589844 259.132812 C 777.589844 259.132812 772.046875 266.621094 765.273438 271.6875 L 765.273438 271.691406 C 759.496094 305.351562 732.585938 288.269531 727.308594 283.246094 C 723.328125 279.460938 726.570312 270.378906 728.882812 263.570312 C 720.582031 259.402344 709.984375 254.117188 711.71875 251.34375 C 714.105469 247.535156 713.339844 246.664062 733.351562 251.707031 C 735.15625 248.921875 737.34375 246.453125 738.519531 245.199219 L 740.632812 235.769531 C 740.632812 235.769531 747.421875 180.757812 755.464844 189.300781 C 755.464844 189.300781 761.65625 185.660156 752.753906 229.460938 C 753.222656 229.476562 753.6875 229.539062 754.144531 229.648438 C 759.582031 217.390625 771.460938 190.941406 772.8125 190.554688 C 774.570312 190.054688 778.09375 188.042969 779.097656 194.824219 C 780.101562 201.605469 764.765625 232.757812 764.765625 232.757812 C 764.765625 232.757812 764.511719 235.269531 765.769531 235.769531 C 767.027344 236.273438 769.792969 235.769531 769.792969 235.769531 C 769.792969 235.769531 790.660156 212.484375 792.671875 212.195312 C 794.683594 211.90625 796.945312 210.976562 797.953125 212.195312 C 798.957031 213.414062 804.988281 214.417969 776.582031 242.550781 C 776.582031 242.550781 775.828125 247.074219 777.589844 247.828125 C 779.347656 248.582031 789.65625 246.570312 794.179688 246.320312 C 798.707031 246.070312 799.386719 248.328125 799.171875 250.589844 Z M 736.355469 514.21875 L 738.371094 532.449219 C 738.371094 532.449219 738.371094 532.449219 736.859375 550.535156 C 735.351562 568.621094 728.816406 568.621094 721.777344 567.617188 C 714.738281 566.613281 709.207031 551.539062 707.699219 541.492188 C 706.1875 531.445312 706.183594 526.777344 705.175781 523.261719 C 704.167969 519.746094 705.175781 512.757812 705.175781 512.757812 L 733.722656 504.800781 Z M 628.253906 529.667969 C 628.253906 529.667969 616.382812 510.691406 594.089844 505.429688 C 591.492188 504.414062 588.761719 503.792969 585.957031 503.414062 C 583.59375 503.09375 581.199219 503 578.824219 502.796875 C 577.128906 502.660156 575.722656 502.316406 574.214844 503.132812 C 574.125 503.179688 574.078125 503.253906 574.042969 503.332031 L 574.328125 502.277344 C 574.328125 502.277344 573.644531 503.011719 572.476562 504.464844 C 571.773438 504.984375 571.058594 506.128906 569.546875 508.328125 C 569.101562 508.953125 568.621094 509.640625 568.128906 510.359375 C 568.109375 510.390625 568.089844 510.414062 568.070312 510.445312 C 568.054688 510.464844 568.039062 510.492188 568.027344 510.511719 C 558.84375 523.949219 542.300781 554.035156 537.074219 602.191406 C 536.339844 608.972656 535.75 614.761719 535.285156 619.710938 C 530.234375 638.707031 526.6875 652.496094 526.6875 652.496094 L 525.96875 660.359375 C 524.433594 663.296875 522.675781 666.675781 520.652344 670.582031 C 491.492188 726.847656 511.101562 724.839844 511.101562 724.839844 C 522.667969 725.84375 546.800781 728.355469 549.316406 718.304688 C 550.316406 714.3125 550.519531 706.820312 550.402344 699.246094 C 554.003906 698.257812 550.402344 699.242188 554.792969 687.167969 C 559.1875 675.09375 554.796875 662.433594 554.792969 662.429688 L 563.296875 641.210938 Z M 575.125 504.257812 C 575.480469 504.308594 575.832031 504.363281 576.183594 504.414062 C 576.09375 504.417969 576.007812 504.425781 575.917969 504.433594 C 575.636719 504.378906 575.375 504.332031 575.136719 504.285156 C 575.132812 504.277344 575.128906 504.269531 575.125 504.257812 Z M 574.132812 503.867188 C 574.019531 503.921875 573.9375 504.007812 573.875 504.105469 C 573.859375 504.105469 573.847656 504.101562 573.835938 504.101562 L 574.007812 503.460938 C 573.988281 503.609375 574.027344 503.757812 574.132812 503.867188 Z M 574.132812 503.867188 " fill-opacity="1" fill-rule="nonzero"/><path fill="#643a91" d="M 685.769531 188.027344 C 686.011719 186.457031 685.726562 184.84375 685.808594 183.269531 C 685.808594 183.253906 685.824219 183.25 685.835938 183.257812 C 687.105469 184.289062 686.601562 186.878906 685.878906 188.074219 C 685.839844 188.132812 685.757812 188.089844 685.769531 188.027344 Z M 692.148438 183.332031 C 692.207031 183.296875 692.183594 183.199219 692.113281 183.199219 C 688.804688 183.21875 686.488281 189.085938 687.328125 191.8125 C 687.328125 191.816406 687.339844 191.816406 687.339844 191.8125 C 687.824219 190.425781 687.894531 188.945312 688.421875 187.546875 C 688.441406 187.492188 688.472656 187.449219 688.496094 187.394531 C 689.367188 189.175781 690.199219 194.71875 687.835938 194.730469 C 687.746094 194.730469 687.707031 194.859375 687.789062 194.90625 C 690.195312 196.210938 690.386719 192.578125 690.269531 191.082031 C 690.175781 189.886719 689.9375 188.660156 689.382812 187.59375 C 689.300781 187.4375 689.003906 187.058594 688.726562 186.921875 C 689.480469 185.34375 690.601562 184.269531 692.148438 183.332031 Z M 631.339844 187.308594 C 631.59375 185.824219 631.339844 184.164062 630.929688 182.722656 C 630.886719 182.570312 630.648438 182.5625 630.609375 182.722656 C 630.253906 184.222656 630.886719 185.855469 631.203125 187.308594 C 631.21875 187.375 631.328125 187.378906 631.339844 187.308594 Z M 627.550781 186.414062 C 627.976562 187.144531 628.226562 187.992188 628.457031 188.800781 C 628.476562 188.867188 628.488281 188.941406 628.507812 189.007812 C 628.503906 189.007812 628.5 189 628.496094 189.003906 C 625.320312 190.011719 626.878906 195.558594 628.707031 197.136719 C 628.769531 197.191406 628.859375 197.125 628.820312 197.050781 C 627.640625 194.820312 626.394531 191.117188 628.527344 189.097656 C 628.710938 189.789062 628.851562 190.496094 628.9375 191.210938 C 628.980469 191.582031 629.1875 192.214844 629.15625 192.5625 C 629.148438 192.648438 629.25 192.6875 629.316406 192.65625 C 630.714844 191.941406 628.945312 187.730469 628.527344 186.800781 C 628.15625 185.960938 627.554688 184.925781 626.574219 184.734375 C 625.429688 184.511719 624.914062 185.550781 624.980469 186.535156 C 624.980469 186.542969 624.988281 186.542969 624.992188 186.535156 C 625.476562 184.464844 626.9375 185.363281 627.550781 186.414062 Z M 637.761719 221.410156 C 637.796875 221.378906 637.839844 221.378906 637.882812 221.359375 C 637.894531 221.210938 637.921875 221.066406 637.972656 220.925781 C 638.015625 220.816406 638.160156 220.863281 638.144531 220.972656 C 638.128906 221.085938 638.132812 221.210938 638.140625 221.332031 C 638.167969 221.335938 638.195312 221.335938 638.21875 221.347656 C 638.207031 221.257812 638.191406 221.167969 638.191406 221.074219 C 638.195312 220.855469 638.476562 220.789062 638.589844 220.96875 C 638.921875 221.488281 639.148438 222.109375 639.421875 222.667969 C 639.492188 222.816406 639.523438 222.929688 639.515625 223.042969 C 639.921875 223.570312 640.246094 224.210938 640.523438 224.648438 C 640.980469 225.375 641.507812 226.058594 642.019531 226.75 C 642.855469 227.507812 643.652344 228.148438 644.183594 228.5625 C 644.554688 228.851562 644.941406 229.121094 645.328125 229.382812 C 645.570312 229.527344 645.816406 229.660156 646.0625 229.796875 C 644.976562 228.550781 644.351562 226.761719 644.320312 225.21875 C 644.320312 225.191406 644.359375 225.183594 644.367188 225.210938 C 644.6875 226.308594 645.191406 227.375 645.816406 228.335938 C 646.292969 229.074219 646.867188 229.726562 647.3125 230.480469 C 647.328125 230.488281 647.339844 230.5 647.355469 230.503906 C 648.195312 230.910156 649.109375 231.167969 649.878906 231.667969 C 649.957031 231.695312 650.035156 231.71875 650.097656 231.765625 C 650.5625 231.917969 651.03125 232.039062 651.507812 232.148438 C 652.019531 232.210938 652.53125 232.296875 653.023438 232.417969 C 654.289062 232.582031 655.582031 232.605469 656.90625 232.4375 C 666.050781 231.265625 671.546875 225.652344 676.4375 218.382812 C 676.488281 218.308594 676.632812 218.328125 676.625 218.433594 C 676.566406 219.167969 676.40625 219.878906 676.199219 220.582031 C 677.191406 219.953125 678.027344 219.191406 678.675781 218.125 C 679.417969 216.902344 680.015625 215.613281 680.742188 214.382812 C 680.78125 214.320312 680.882812 214.363281 680.863281 214.433594 C 680.179688 217.011719 678.691406 219.957031 676.0625 221 C 675.011719 224.105469 672.613281 226.84375 669.613281 228.972656 C 665.53125 233.792969 657.726562 237.625 651.566406 236.742188 C 649.304688 236.421875 647.28125 235.824219 645.4375 235.007812 C 644.9375 234.835938 644.460938 234.589844 644.003906 234.304688 C 639.910156 232.082031 636.882812 228.546875 634.734375 223.738281 C 634.707031 223.675781 634.78125 223.609375 634.835938 223.660156 C 634.855469 223.679688 634.871094 223.703125 634.894531 223.71875 C 634.890625 223.570312 634.953125 223.4375 635.078125 223.34375 C 635.621094 222.945312 636.210938 222.648438 636.671875 222.148438 C 636.773438 222.035156 636.898438 222.023438 637.015625 222.042969 C 637.277344 221.839844 637.535156 221.628906 637.761719 221.410156 Z M 655.832031 234.0625 C 655.875 234.050781 655.921875 234.035156 655.96875 234.023438 C 655.90625 234 655.855469 233.972656 655.796875 233.945312 C 655.808594 233.984375 655.820312 234.023438 655.832031 234.0625 Z M 639.722656 227.027344 C 639.617188 226.90625 639.515625 226.78125 639.417969 226.65625 C 639.464844 226.757812 639.515625 226.855469 639.5625 226.953125 C 639.609375 226.992188 639.65625 227.03125 639.703125 227.066406 C 639.707031 227.054688 639.71875 227.039062 639.722656 227.027344 Z M 638.292969 222.972656 C 638.273438 222.933594 638.25 222.890625 638.230469 222.847656 C 638.230469 222.863281 638.226562 222.878906 638.226562 222.894531 C 638.25 222.917969 638.273438 222.949219 638.292969 222.972656 Z M 649.542969 235.789062 C 649.582031 235.796875 649.621094 235.804688 649.65625 235.8125 C 649.625 235.796875 649.589844 235.78125 649.558594 235.765625 C 649.554688 235.773438 649.546875 235.78125 649.542969 235.789062 Z M 655.671875 233.613281 C 655.65625 233.613281 655.636719 233.609375 655.617188 233.609375 C 655.621094 233.617188 655.625 233.628906 655.632812 233.632812 C 655.644531 233.628906 655.65625 233.621094 655.671875 233.613281 Z M 639.117188 223.609375 C 639.113281 223.605469 639.109375 223.597656 639.105469 223.59375 C 639.082031 223.558594 639.054688 223.523438 639.03125 223.488281 C 639.058594 223.527344 639.089844 223.566406 639.117188 223.609375 Z M 639.832031 230.789062 C 639.265625 230.164062 638.742188 229.503906 638.28125 228.8125 C 638.269531 228.800781 638.257812 228.789062 638.246094 228.777344 C 638.691406 229.496094 639.203125 230.179688 639.832031 230.789062 Z M 664.765625 231.683594 C 664.601562 231.753906 664.433594 231.820312 664.265625 231.886719 C 664.292969 231.90625 664.304688 231.941406 664.328125 231.964844 C 664.476562 231.871094 664.621094 231.777344 664.765625 231.683594 Z M 684.765625 198.34375 C 684.570312 199.933594 684.136719 201.554688 684.40625 203.160156 C 684.433594 203.328125 684.703125 203.324219 684.734375 203.160156 C 685.039062 201.570312 685.039062 199.949219 684.871094 198.34375 C 684.863281 198.273438 684.777344 198.273438 684.765625 198.34375 Z M 630.402344 201.136719 C 630.476562 201.707031 630.695312 202.597656 631.152344 202.984375 C 631.257812 203.074219 631.449219 203.023438 631.441406 202.863281 C 631.421875 202.390625 631.144531 201.96875 630.996094 201.523438 C 630.8125 200.96875 630.597656 200.183594 630.796875 199.605469 C 630.804688 199.578125 630.765625 199.554688 630.746094 199.574219 C 630.351562 200.070312 630.320312 200.503906 630.402344 201.136719 Z M 661.574219 180.941406 C 659.40625 184.089844 657.917969 188.15625 658.265625 192.015625 C 658.609375 195.835938 660.605469 199.160156 660.285156 203.113281 C 660.273438 203.265625 660.492188 203.308594 660.5625 203.1875 C 661.984375 200.796875 660.976562 198.1875 660.238281 195.679688 C 658.613281 190.167969 659.820312 186.261719 661.820312 181.042969 C 661.878906 180.894531 661.65625 180.824219 661.574219 180.941406 Z M 660.609375 204.328125 C 659.976562 205.804688 659.582031 207.378906 658.113281 208.289062 C 658 208.359375 658.074219 208.542969 658.203125 208.503906 C 659.652344 208.066406 661.316406 205.90625 660.769531 204.347656 C 660.75 204.285156 660.644531 204.25 660.609375 204.328125 Z M 653.507812 207.054688 C 653.414062 207.1875 653.59375 207.347656 653.726562 207.269531 C 654.210938 206.988281 654.816406 206.765625 655.382812 206.851562 C 655.8125 206.917969 656.054688 207.183594 656.480469 207 C 656.523438 206.980469 656.546875 206.925781 656.546875 206.882812 C 656.570312 206.222656 655.800781 206.074219 655.265625 206.027344 C 654.484375 205.960938 653.917969 206.46875 653.507812 207.054688 Z M 681.40625 182.203125 C 680.03125 180.007812 677.894531 179.46875 675.367188 179.671875 C 672.359375 179.910156 666.269531 185.128906 664.09375 181.929688 C 663.996094 181.785156 663.730469 181.871094 663.792969 182.058594 C 664.464844 184.035156 665.753906 184.253906 667.691406 183.890625 C 669.726562 183.511719 671.707031 182.257812 673.640625 181.554688 C 676.507812 180.511719 678.578125 181.667969 681.265625 182.386719 C 681.367188 182.410156 681.464844 182.296875 681.40625 182.203125 Z M 643.265625 182.9375 C 645.480469 183.296875 647.359375 184.964844 649.625 185.160156 C 651.492188 185.324219 654.035156 185.269531 654.410156 183.023438 C 654.414062 183.007812 654.398438 183.003906 654.390625 183.011719 C 651.789062 186.605469 647.402344 183.261719 644.566406 182.320312 C 641.996094 181.46875 640.039062 181.976562 637.527344 182.910156 C 637.417969 182.953125 637.425781 183.085938 637.527344 183.128906 C 639.496094 183.949219 641.121094 182.59375 643.265625 182.9375 Z M 646.582031 187.03125 C 643.761719 187.082031 640.273438 187.988281 638.019531 189.765625 C 637.980469 189.796875 638.023438 189.871094 638.074219 189.851562 C 639.8125 189.230469 641.539062 188.601562 643.347656 188.269531 C 643.253906 188.589844 643.300781 188.933594 643.578125 189.191406 C 643.570312 189.1875 643.558594 189.1875 643.546875 189.183594 C 643.585938 189.21875 643.632812 189.238281 643.671875 189.269531 C 643.835938 189.675781 644.207031 189.976562 644.605469 190.191406 C 645.25 190.539062 645.921875 190.503906 646.574219 190.1875 C 646.59375 190.175781 646.609375 190.15625 646.628906 190.144531 C 647.269531 190.007812 647.824219 189.585938 648.164062 188.933594 C 648.191406 188.902344 648.222656 188.882812 648.25 188.847656 C 648.394531 188.632812 648.429688 188.425781 648.433594 188.191406 C 648.585938 188.21875 648.734375 188.234375 648.886719 188.269531 C 650.261719 188.582031 650.871094 189.660156 652.015625 190.261719 C 652.171875 190.339844 652.390625 190.246094 652.378906 190.054688 C 652.238281 187.570312 648.507812 186.996094 646.582031 187.03125 Z M 679.875 188.523438 C 679.179688 185.761719 674.421875 185.605469 672.128906 185.539062 C 671.765625 185.527344 671.355469 185.546875 670.9375 185.585938 C 670.933594 185.585938 670.933594 185.582031 670.933594 185.582031 C 670.765625 185.527344 670.597656 185.566406 670.445312 185.640625 C 668.230469 185.925781 665.683594 186.886719 665.207031 188.980469 C 665.128906 189.316406 665.601562 189.4375 665.71875 189.121094 C 666.277344 187.59375 667.953125 186.929688 669.675781 186.65625 C 669.578125 187.195312 669.894531 187.789062 670.234375 188.195312 C 670.511719 188.523438 670.867188 188.734375 671.253906 188.875 C 671.613281 189.207031 672.054688 189.339844 672.511719 189.054688 C 672.550781 189.058594 672.582031 189.042969 672.617188 189.039062 C 673.195312 188.957031 673.714844 188.675781 674.179688 188.3125 C 674.480469 188.074219 674.648438 187.722656 674.765625 187.367188 C 674.871094 187.058594 674.785156 186.855469 674.636719 186.679688 C 676.449219 186.976562 678.238281 187.613281 679.746094 188.625 C 679.8125 188.667969 679.894531 188.59375 679.875 188.523438 Z M 649.261719 195.019531 C 650.488281 194.105469 651.15625 192.832031 651.195312 191.308594 C 651.199219 191.238281 651.085938 191.21875 651.070312 191.292969 C 650.746094 192.644531 649.75 193.796875 648.667969 194.632812 C 647.589844 195.460938 646.347656 195.675781 645.082031 196.015625 C 645.007812 196.035156 645.019531 196.125 645.078125 196.148438 C 646.488281 196.71875 648.148438 195.84375 649.261719 195.019531 Z M 669.292969 194.425781 C 669.355469 194.378906 669.378906 194.265625 669.292969 194.222656 C 668.515625 193.855469 667.605469 193.859375 666.8125 193.488281 C 665.90625 193.066406 665.308594 192.324219 665.285156 191.308594 C 665.285156 191.246094 665.203125 191.203125 665.15625 191.253906 C 663.507812 193.125 667.765625 195.546875 669.292969 194.425781 Z M 654.609375 185.457031 C 654.546875 185.480469 654.554688 185.578125 654.609375 185.609375 C 655.765625 186.210938 656.882812 185.097656 657.425781 184.179688 C 658.34375 182.640625 658.265625 180.972656 658.515625 179.277344 C 658.53125 179.160156 658.371094 179.109375 658.332031 179.226562 C 657.949219 180.359375 657.53125 181.472656 657.140625 182.601562 C 656.628906 184.09375 656.046875 184.847656 654.609375 185.457031 Z M 636.605469 160.746094 C 637.152344 161.070312 637.308594 160.230469 636.972656 160.050781 C 634.679688 158.5625 634.117188 155.710938 633.035156 153.375 C 633.03125 153.367188 633.027344 153.375 633.027344 153.378906 C 633.539062 155.9375 634.144531 159.296875 636.605469 160.746094 Z M 681.320312 162.609375 C 681.320312 162.628906 681.320312 162.648438 681.320312 162.664062 C 683.804688 160.535156 685.699219 158.011719 686.917969 154.910156 C 686.953125 154.8125 686.804688 154.753906 686.757812 154.839844 C 685.269531 157.425781 683.179688 159.613281 681.007812 161.65625 C 681.1875 161.910156 681.320312 162.210938 681.320312 162.609375 Z M 684.402344 178.101562 C 684.421875 178.207031 684.445312 178.3125 684.464844 178.417969 C 684.480469 178.5 684.476562 178.578125 684.484375 178.660156 C 686.855469 177.132812 689.871094 176.160156 691.164062 173.507812 C 691.191406 173.441406 691.113281 173.371094 691.058594 173.429688 C 689.953125 174.621094 688.484375 175.472656 687.074219 176.265625 C 686.140625 176.789062 685.128906 177.300781 684.402344 178.101562 Z M 683.582031 173.980469 C 686.308594 172.882812 689.246094 170.839844 690.398438 168.226562 C 690.425781 168.164062 690.347656 168.117188 690.304688 168.171875 C 688.484375 170.566406 685.8125 171.714844 683.460938 173.382812 C 683.5 173.582031 683.542969 173.78125 683.582031 173.980469 Z M 682.761719 169.347656 C 684.78125 167.785156 686.875 166.277344 688.386719 164.207031 C 688.421875 164.15625 688.34375 164.101562 688.304688 164.140625 C 686.652344 165.867188 684.25 167.0625 682.546875 168.808594 C 682.640625 168.957031 682.714844 169.132812 682.761719 169.347656 Z M 630.449219 175.757812 C 631.066406 176.304688 632.261719 177.664062 633.144531 177.671875 C 633.421875 177.671875 633.558594 177.457031 633.558594 177.242188 C 633.558594 177.027344 633.421875 176.8125 633.144531 176.8125 C 632.78125 176.816406 631.820312 175.875 631.5625 175.675781 C 631.085938 175.300781 630.621094 174.910156 630.15625 174.523438 C 629.390625 173.890625 628.535156 173.0625 627.527344 172.882812 C 627.429688 172.863281 627.375 172.964844 627.433594 173.039062 C 628.246094 174.0625 629.472656 174.886719 630.449219 175.757812 Z M 631.429688 168.785156 C 632.039062 169.351562 632.683594 169.886719 633.347656 170.394531 C 633.722656 170.679688 634.105469 170.964844 634.488281 171.246094 C 634.25 171.070312 634.324219 170.984375 634.457031 170.941406 C 634.449219 170.972656 634.449219 171.007812 634.476562 171.027344 C 634.589844 171.117188 634.660156 171.230469 634.675781 171.367188 C 634.742188 171.617188 635.0625 171.691406 635.238281 171.515625 C 635.257812 171.5 635.277344 171.480469 635.296875 171.460938 C 635.464844 171.292969 635.410156 171.035156 635.226562 170.90625 C 632.660156 169.128906 630.433594 167.15625 628.269531 164.917969 C 628.253906 164.90625 628.230469 164.925781 628.238281 164.941406 C 628.964844 166.460938 630.214844 167.652344 631.429688 168.785156 Z M 645.023438 162.132812 C 645.035156 162.140625 645.050781 162.140625 645.0625 162.148438 C 644.597656 158.273438 643.351562 154.550781 643.140625 150.613281 C 643.136719 150.546875 643.035156 150.546875 643.035156 150.613281 C 642.945312 154.285156 643.070312 158.628906 644.75 162.03125 C 644.839844 162.058594 644.929688 162.085938 645.023438 162.132812 Z M 650.554688 152.625 C 650.355469 155.917969 650.296875 159.335938 650.914062 162.605469 C 651.113281 162.625 651.3125 162.644531 651.5 162.679688 C 651.347656 159.328125 650.9375 155.96875 650.707031 152.625 C 650.699219 152.527344 650.558594 152.527344 650.554688 152.625 Z M 658.371094 151.871094 C 658.175781 155.710938 657.75 159.664062 658.117188 163.519531 C 658.269531 163.507812 658.425781 163.496094 658.582031 163.484375 C 658.761719 159.625 658.640625 155.714844 658.476562 151.871094 C 658.472656 151.804688 658.375 151.804688 658.371094 151.871094 Z M 666.785156 150.867188 C 666.777344 150.785156 666.660156 150.78125 666.652344 150.867188 C 666.441406 154.832031 666.839844 159.003906 665.757812 162.84375 C 666.023438 162.851562 666.28125 162.882812 666.53125 162.941406 C 667.921875 159.28125 667.035156 154.441406 666.785156 150.867188 Z M 674.847656 151.117188 C 674.839844 151.011719 674.6875 151.011719 674.679688 151.117188 C 674.503906 153.238281 673.988281 155.324219 673.628906 157.421875 C 673.496094 158.195312 673.265625 160.214844 672.757812 161.925781 C 673.03125 161.941406 673.304688 161.976562 673.574219 162.042969 C 674.78125 158.460938 674.917969 152.464844 674.847656 151.117188 Z M 648.582031 130.734375 C 652.199219 129.839844 656.625 129.6875 660.351562 129.582031 C 667.519531 129.378906 674.738281 130.402344 681.710938 131.859375 C 682.074219 131.933594 682.351562 131.398438 681.976562 131.222656 C 681.035156 130.78125 680.019531 130.449219 678.980469 130.164062 C 680.578125 126.886719 679.4375 122.890625 677.328125 120.171875 C 677.273438 120.105469 677.183594 120.191406 677.214844 120.257812 C 678.089844 122.011719 678.703125 123.90625 678.902344 125.859375 C 679.046875 127.277344 678.722656 128.6875 678.746094 130.101562 C 674.054688 128.863281 668.628906 128.976562 664.054688 128.976562 C 662.78125 128.976562 661.53125 128.984375 660.289062 129.011719 C 656.929688 126.894531 657.097656 122.035156 658.730469 118.746094 C 658.769531 118.667969 658.667969 118.613281 658.617188 118.679688 C 656.628906 121.289062 655.839844 127.695312 659.625 129.03125 C 657.632812 129.089844 655.652344 129.207031 653.625 129.496094 C 653.429688 129.523438 653.234375 129.546875 653.039062 129.574219 C 651.964844 129.058594 651.269531 128.449219 651.148438 127.121094 C 651.046875 126.007812 651.128906 124.84375 651.234375 123.734375 C 651.242188 123.617188 651.070312 123.605469 651.039062 123.710938 C 650.574219 125.179688 649.984375 126.609375 650.441406 128.160156 C 650.691406 129.007812 651.316406 129.5 652.058594 129.703125 C 651.097656 129.828125 650.140625 129.953125 649.183594 130.085938 C 647.894531 130.265625 646.683594 131.097656 645.347656 130.945312 C 645.273438 130.9375 645.253906 131.050781 645.3125 131.085938 C 646.242188 131.652344 647.632812 130.96875 648.582031 130.734375 Z M 671.695312 129.011719 C 671.6875 129.0625 671.773438 129.085938 671.792969 129.039062 C 673.277344 125.777344 671.609375 121.964844 670.300781 118.929688 C 670.265625 118.851562 670.152344 118.90625 670.171875 118.984375 C 670.984375 122.292969 672.109375 125.5625 671.695312 129.011719 Z M 664.832031 128.792969 C 664.875 128.898438 665.0625 128.9375 665.082031 128.796875 C 665.605469 125.058594 665.3125 120.496094 664.023438 116.9375 C 663.988281 116.847656 663.871094 116.882812 663.882812 116.972656 C 664.457031 120.765625 663.4375 125.1875 664.832031 128.792969 Z M 646.605469 214.925781 C 653.1875 217.554688 664.898438 218.660156 669.582031 212.214844 C 669.652344 212.117188 669.519531 212.015625 669.429688 212.0625 C 661.839844 215.796875 654.898438 216.464844 646.609375 214.914062 C 646.601562 214.914062 646.597656 214.925781 646.605469 214.925781 Z M 672.558594 214.476562 C 673.433594 213.480469 673.183594 212.101562 672.648438 210.984375 C 672.152344 209.957031 671.085938 208.078125 669.734375 208.082031 C 669.679688 208.082031 669.664062 208.140625 669.695312 208.179688 C 670.382812 209.070312 671.128906 209.792969 671.664062 210.820312 C 672.1875 211.824219 672.636719 213.257812 672.421875 214.398438 C 672.410156 214.472656 672.5 214.546875 672.558594 214.476562 Z M 642.992188 217.238281 C 643.046875 217.332031 643.199219 217.296875 643.199219 217.183594 C 643.1875 216.265625 643.328125 215.238281 643.503906 214.34375 C 643.671875 213.476562 644.070312 211.695312 645.101562 211.421875 C 645.125 211.414062 645.117188 211.390625 645.097656 211.386719 C 642.667969 211.152344 642.046875 215.699219 642.992188 217.238281 Z M 651.273438 220.054688 C 651.125 219.882812 650.839844 220.105469 650.957031 220.296875 C 652.242188 222.367188 655.886719 222.28125 657.984375 222.273438 C 659.707031 222.269531 664.238281 222.355469 664.558594 219.972656 C 664.570312 219.894531 664.488281 219.792969 664.402344 219.855469 C 661.773438 221.789062 653.636719 222.75 651.273438 220.054688 Z M 729.320312 227.070312 C 729.441406 227.070312 729.441406 226.882812 729.320312 226.882812 C 729.195312 226.882812 729.195312 227.070312 729.320312 227.070312 Z M 727.558594 206.84375 C 728.015625 206.828125 728.207031 206.214844 727.792969 205.976562 C 727.722656 205.9375 727.648438 205.894531 727.578125 205.851562 C 727.386719 205.742188 727.074219 205.75 726.925781 205.9375 C 724.957031 208.398438 723.417969 210.703125 722.179688 213.660156 C 720.675781 217.257812 717.925781 220.789062 717.492188 224.714844 C 717.496094 224.722656 717.503906 224.722656 717.507812 224.714844 C 718.496094 221.125 720.921875 218.214844 722.398438 214.828125 C 723.136719 213.128906 725.359375 206.910156 727.558594 206.84375 Z M 654 304.261719 C 653.96875 304.289062 653.941406 304.320312 653.910156 304.34375 C 653.894531 304.355469 653.875 304.34375 653.882812 304.324219 C 653.902344 304.289062 653.914062 304.25 653.933594 304.214844 C 653.753906 304.089844 653.578125 303.953125 653.390625 303.835938 C 653.386719 303.832031 653.390625 303.820312 653.398438 303.828125 C 653.59375 303.917969 653.78125 304.023438 653.976562 304.121094 C 655.382812 301.402344 656.058594 298.449219 657.226562 295.636719 C 657.78125 294.292969 658.683594 291.734375 660.335938 291.460938 C 660.148438 291.019531 660.296875 289.660156 660.277344 289.425781 C 660.15625 287.882812 659.957031 286.28125 659.578125 284.777344 C 659.550781 284.664062 659.714844 284.585938 659.769531 284.699219 C 660.109375 285.378906 661.691406 291.601562 660.488281 291.609375 C 660.484375 291.617188 660.480469 291.621094 660.476562 291.628906 C 663.800781 292.910156 666.226562 295.390625 668.746094 297.820312 C 670.175781 299.203125 672.066406 301.609375 673.890625 302.433594 C 676.296875 303.53125 677.273438 302.183594 678.972656 301.535156 C 679.519531 301.160156 680.109375 301.03125 680.738281 301.140625 C 680.695312 301.09375 680.703125 301.003906 680.777344 300.992188 C 680.914062 300.984375 681.054688 300.957031 681.1875 300.914062 C 681.773438 300.746094 681.941406 301.6875 681.300781 301.761719 C 678.589844 302.0625 676.679688 303.644531 674.597656 303.253906 C 674.625 303.285156 674.660156 303.320312 674.644531 303.363281 C 673.769531 305.921875 672.503906 308.371094 671.46875 310.871094 C 670.652344 312.84375 670.003906 315.136719 668.617188 316.777344 C 668.613281 316.78125 668.605469 316.78125 668.601562 316.785156 C 669.636719 318.421875 670.402344 320.542969 669.949219 322.476562 C 669.886719 322.757812 669.464844 322.640625 669.519531 322.359375 C 669.488281 322.222656 669.453125 322.085938 669.421875 321.953125 C 669.390625 321.890625 669.457031 321.816406 669.519531 321.855469 C 669.550781 321.875 669.5625 321.890625 669.589844 321.90625 C 669.816406 320.179688 669.085938 318.449219 668.515625 316.832031 C 668.394531 316.859375 668.269531 316.722656 668.289062 316.589844 C 668.292969 316.582031 668.292969 316.578125 668.296875 316.570312 C 667.792969 316.40625 667.347656 315.625 667.1875 315.203125 C 667.140625 315.222656 667.097656 315.242188 667.042969 315.246094 C 666.40625 315.289062 664.136719 312.660156 663.5 312.210938 C 660.148438 309.835938 657.363281 306.601562 654 304.261719 Z M 654.085938 304.179688 C 657.117188 305.75 659.84375 308.179688 662.464844 310.324219 C 663.964844 311.550781 666.4375 312.882812 667.394531 314.636719 C 667.496094 314.824219 667.4375 315.015625 667.300781 315.136719 C 667.445312 315.328125 667.601562 315.476562 667.792969 315.628906 C 667.820312 315.65625 668.003906 315.804688 668.175781 315.941406 C 668.171875 315.921875 668.164062 315.90625 668.164062 315.886719 C 668.15625 315.824219 668.253906 315.800781 668.28125 315.855469 C 668.316406 315.914062 668.371094 315.941406 668.421875 315.980469 C 668.929688 313.8125 670.140625 311.683594 671.019531 309.667969 C 671.988281 307.453125 672.898438 305.140625 674.417969 303.234375 C 674.421875 303.226562 674.4375 303.234375 674.441406 303.230469 C 673.746094 303.070312 673.023438 302.675781 672.242188 301.929688 C 668.582031 298.421875 664.953125 294.175781 660.355469 291.921875 C 660.347656 291.917969 660.347656 291.910156 660.339844 291.90625 C 659.910156 292.746094 659.128906 293.386719 658.675781 294.253906 C 657.90625 295.726562 657.339844 297.273438 656.789062 298.835938 C 656.144531 300.664062 655.578125 302.835938 654.085938 304.179688 Z M 752.988281 273.753906 C 753.070312 273.707031 753.011719 273.601562 752.929688 273.613281 C 748.847656 274.210938 745.230469 274.410156 741.378906 272.640625 C 738.828125 271.472656 737.28125 269.449219 735.5 267.425781 C 734.546875 266.339844 730.691406 261.65625 728.8125 263.382812 C 728.804688 263.386719 728.8125 263.394531 728.816406 263.394531 C 729.730469 263.472656 730.535156 263.765625 731.261719 264.195312 C 729.992188 265.222656 729.851562 270.132812 729.585938 271.589844 C 728.761719 276.019531 727.980469 280.988281 729.613281 285.300781 C 729.710938 285.558594 730.101562 285.460938 730.03125 285.183594 C 728.320312 278.550781 729.6875 270.832031 731.316406 264.226562 C 732.34375 264.839844 733.222656 265.714844 734.050781 266.683594 C 733.832031 269.484375 734.5625 272.640625 735.953125 275.441406 C 736.347656 276.925781 736.695312 278.339844 737.503906 279.792969 C 738.597656 281.769531 740.160156 283.199219 742.117188 284.28125 C 742.167969 284.3125 742.226562 284.242188 742.179688 284.199219 C 739.726562 281.992188 737.457031 279.265625 736.296875 276.109375 C 737.582031 278.460938 739.332031 280.5 741.367188 281.761719 C 741.40625 281.785156 741.453125 281.726562 741.417969 281.695312 C 737.125 277.726562 734.851562 272.570312 734.191406 266.859375 C 735.070312 267.90625 735.894531 269.027344 736.78125 270.007812 C 737.191406 271.46875 738.179688 272.796875 739.039062 274 C 740.535156 276.089844 742.25 278.007812 743.875 279.992188 C 743.902344 280.023438 743.953125 279.984375 743.929688 279.953125 C 741.832031 276.710938 739.207031 273.953125 737.34375 270.59375 C 737.644531 270.894531 737.957031 271.179688 738.285156 271.425781 C 742.390625 274.527344 748.203125 276.367188 752.988281 273.753906 Z M 760.242188 272.949219 C 762.40625 273.128906 764.734375 272.496094 766.304688 270.953125 C 766.335938 270.917969 766.296875 270.863281 766.253906 270.886719 C 764.441406 272.011719 762.355469 272.65625 760.246094 272.914062 C 760.21875 272.917969 760.21875 272.949219 760.242188 272.949219 Z M 738.789062 244.046875 C 738.695312 245.527344 738.5 247.085938 738.566406 248.566406 C 738.570312 248.628906 738.652344 248.636719 738.671875 248.582031 C 739.179688 247.1875 739.042969 245.503906 738.953125 244.046875 C 738.949219 243.9375 738.796875 243.9375 738.789062 244.046875 Z M 764.816406 233.582031 C 764.882812 233.539062 764.886719 233.414062 764.792969 233.398438 C 761.332031 232.816406 758.621094 230.800781 755.300781 229.886719 C 753.898438 229.503906 752.367188 229.542969 750.9375 229.554688 C 748.78125 229.574219 746.773438 229.007812 744.644531 229.460938 C 744.632812 229.460938 744.628906 229.492188 744.648438 229.492188 C 748.914062 230.078125 753.933594 230.015625 757.851562 231.792969 C 759.902344 232.722656 762.597656 235.109375 764.816406 233.582031 Z M 774.460938 242.761719 C 771.765625 240.792969 770.089844 238.9375 768.640625 235.949219 C 768.574219 235.828125 768.410156 235.921875 768.433594 236.035156 C 769.273438 240.835938 773.1875 241.726562 775.859375 245.21875 C 777.140625 246.890625 776.582031 249.945312 776.875 251.960938 C 777.171875 254.007812 777.875 255.921875 779.292969 257.417969 C 779.351562 257.480469 779.449219 257.417969 779.429688 257.339844 C 778.789062 254.878906 777.753906 252.414062 777.496094 249.878906 C 777.351562 248.480469 777.582031 246.921875 776.925781 245.609375 C 776.328125 244.421875 775.542969 243.554688 774.460938 242.761719 Z M 758.328125 265.398438 C 757.761719 260.671875 756.222656 255.292969 752.113281 252.378906 C 750.015625 250.894531 747.617188 249.9375 745.027344 249.75 C 742.480469 249.566406 740.546875 250.730469 738.128906 250.785156 C 738.125 250.785156 738.125 250.777344 738.117188 250.777344 C 736.441406 250.988281 734.78125 251.25 733.089844 251.378906 C 732.828125 251.398438 732.824219 251.773438 733.089844 251.789062 C 734.839844 251.882812 736.546875 251.582031 738.144531 250.875 C 738.148438 250.875 738.144531 250.871094 738.148438 250.871094 C 738.980469 251.015625 739.820312 250.675781 740.609375 250.460938 C 743.824219 249.585938 747.070312 250.375 749.976562 251.878906 C 754.828125 254.394531 756.449219 260.6875 758.132812 265.425781 C 758.164062 265.523438 758.34375 265.515625 758.328125 265.398438 Z M 759.472656 251.171875 C 760.125 251.96875 760.765625 252.761719 761.394531 253.554688 C 760.800781 252.703125 760.164062 251.90625 759.472656 251.171875 Z M 767.347656 263.621094 C 765.996094 259.765625 763.820312 256.625 761.394531 253.554688 C 763.613281 256.738281 765.28125 260.554688 767.21875 263.675781 C 767.257812 263.742188 767.375 263.699219 767.347656 263.621094 Z M 758.429688 250.128906 C 758.796875 250.449219 759.136719 250.8125 759.472656 251.171875 C 759.160156 250.789062 758.847656 250.40625 758.535156 250.023438 C 758.472656 249.945312 758.351562 250.0625 758.429688 250.128906 Z M 608.488281 256.855469 C 608.476562 256.734375 608.316406 256.738281 608.300781 256.855469 C 607.886719 260.019531 607.558594 263.207031 607.292969 266.402344 C 606.738281 263.570312 606.621094 260.675781 605.945312 257.84375 C 605.925781 257.761719 605.804688 257.796875 605.816406 257.878906 C 606.273438 261.03125 605.707031 264.867188 607.1875 267.824219 C 607.003906 270.1875 606.84375 272.550781 606.726562 274.90625 C 606.507812 279.292969 607.808594 283.65625 607.105469 288 C 607.097656 288.03125 607.136719 288.058594 607.164062 288.03125 C 609.226562 286.007812 607.800781 280.863281 607.628906 278.347656 C 607.144531 271.160156 609.261719 264.039062 608.488281 256.855469 Z M 703.875 336.195312 C 702.832031 337.359375 702.964844 339.835938 702.789062 341.273438 C 702.191406 346.097656 702.539062 350.929688 702.894531 355.757812 C 703.164062 359.445312 703.550781 363.105469 704.125 366.753906 C 704.265625 367.636719 704.308594 371.203125 705.480469 371.523438 C 705.769531 371.605469 704.398438 362.132812 704.308594 361.308594 C 703.375 352.832031 703.523438 344.710938 704 336.25 C 704.007812 336.183594 703.917969 336.144531 703.875 336.195312 Z M 664.933594 370.070312 C 664.886719 370.082031 664.851562 370.136719 664.871094 370.1875 C 664.882812 370.226562 664.898438 370.265625 664.910156 370.304688 C 664.964844 370.453125 665.15625 370.53125 665.277344 370.402344 C 666.328125 369.277344 662.433594 362.074219 662.140625 361.34375 C 661.023438 358.542969 660.113281 355.835938 659.441406 352.894531 C 658.984375 350.890625 658.53125 349.097656 657.21875 347.5 C 657.164062 347.429688 657.066406 347.515625 657.101562 347.589844 C 659.25 351.859375 659.617188 357.070312 661.351562 361.558594 C 661.675781 362.398438 664.578125 370.164062 664.933594 370.070312 Z M 597.773438 284.539062 C 598.492188 285.667969 599.230469 286.777344 599.863281 287.957031 C 600.664062 289.460938 600.914062 290.929688 601.273438 292.5625 C 601.292969 292.644531 601.414062 292.636719 601.433594 292.5625 C 602.386719 289.445312 599.636719 286.683594 597.886719 284.453125 C 597.835938 284.386719 597.730469 284.472656 597.773438 284.539062 Z M 599.675781 299.316406 C 599.761719 299.457031 599.929688 299.570312 600.097656 299.558594 C 600.171875 299.550781 600.246094 299.546875 600.320312 299.539062 C 601.1875 299.472656 600.664062 298.230469 600.078125 298.648438 C 599.984375 298.71875 599.894531 298.78125 599.863281 298.902344 C 600.148438 297.851562 599.335938 297.003906 598.589844 295.996094 C 596.980469 293.820312 594.976562 291.828125 592.828125 290.1875 C 588.175781 286.640625 582.164062 283.5 576.214844 283.132812 C 576.085938 283.125 576.066406 283.320312 576.1875 283.355469 C 585.988281 286.230469 594.179688 290.25 599.675781 299.316406 Z M 561.589844 351.042969 C 560.957031 351.957031 560.09375 352.699219 559.863281 353.828125 C 559.859375 353.84375 559.878906 353.847656 559.882812 353.835938 C 560.300781 352.804688 561.257812 352.121094 561.679688 351.082031 C 561.699219 351.027344 561.617188 351.003906 561.589844 351.042969 Z M 567.277344 334.007812 C 566.480469 333.929688 565.726562 334.144531 565.273438 334.886719 C 565.253906 337.730469 564.445312 340.597656 563.929688 343.359375 C 563.308594 346.667969 563.300781 350.355469 561.691406 353.359375 C 561.660156 353.417969 561.566406 353.394531 561.570312 353.328125 C 561.894531 346.550781 564.585938 340.101562 565.097656 333.335938 C 564.152344 330.757812 561.128906 328.082031 558.714844 330.421875 C 558.167969 333.796875 556.683594 336.804688 555.949219 340.113281 C 555.445312 342.402344 555.203125 345.09375 553.886719 347.078125 C 553.859375 347.117188 553.78125 347.109375 553.789062 347.050781 C 554.144531 344.355469 554.742188 341.398438 555.597656 338.820312 C 555.929688 337.824219 558.140625 331.414062 557.746094 330.46875 C 557.707031 330.429688 557.667969 330.394531 557.628906 330.355469 C 557.625 330.355469 557.621094 330.34375 557.613281 330.34375 C 557.550781 330.339844 557.515625 330.292969 557.503906 330.238281 C 556.625 329.441406 555.542969 328.960938 554.339844 329.359375 C 553.574219 329.613281 552.882812 330.09375 552.097656 330.285156 C 552.050781 330.296875 551.988281 330.238281 552.027344 330.1875 C 552.675781 329.324219 553.933594 328.710938 555.003906 328.617188 C 556.261719 328.511719 557.082031 329.039062 557.671875 330.007812 C 557.800781 329.894531 557.933594 329.785156 558.066406 329.667969 C 558.332031 329.4375 558.644531 329.570312 558.746094 329.835938 C 559.867188 327.273438 566.796875 330.476562 565.546875 333.878906 C 565.90625 333.648438 566.28125 333.460938 566.710938 333.375 C 567.476562 333.222656 568.273438 333.3125 568.984375 333.65625 C 569.925781 333.671875 570.851562 333.628906 571.609375 333.121094 C 574.691406 331.066406 569.195312 326.398438 567.589844 325.613281 C 563.851562 323.789062 559.433594 323.960938 555.820312 321.992188 C 555.761719 321.960938 555.785156 321.855469 555.855469 321.859375 C 556.734375 321.933594 557.636719 322.027344 558.542969 322.148438 C 558.160156 321.828125 557.757812 321.519531 557.304688 321.273438 C 557.210938 321.222656 557.25 321.054688 557.363281 321.0625 C 558.144531 321.136719 558.734375 321.652344 559.226562 322.242188 C 564.007812 322.957031 568.898438 324.558594 571.761719 328.375 C 573.410156 326.695312 577.003906 327.113281 578.765625 328.398438 C 578.828125 328.441406 578.792969 328.554688 578.710938 328.527344 C 577.605469 328.160156 576.144531 328.09375 574.980469 328.113281 C 574.210938 328.121094 572.746094 328.121094 571.851562 328.492188 C 572.164062 328.921875 572.460938 329.371094 572.722656 329.855469 C 574.140625 332.515625 572.246094 334.007812 569.992188 334.28125 C 571.191406 335.171875 572.191406 336.53125 572.03125 338.003906 C 572.023438 338.070312 571.933594 338.136719 571.878906 338.066406 C 571.871094 338.054688 571.859375 338.035156 571.851562 338.023438 C 571.875 338.347656 571.898438 338.671875 571.910156 338.996094 C 572.371094 338.8125 572.8125 338.613281 573.359375 338.523438 C 574.054688 338.410156 574.867188 338.441406 575.550781 338.621094 C 576.667969 338.921875 578.101562 340.03125 577.652344 341.316406 C 579.363281 342.699219 579.027344 346.070312 578.792969 347.929688 C 578.597656 349.488281 578.453125 351.28125 578.199219 353.039062 C 579.101562 354.457031 579.183594 356.066406 578.554688 357.621094 C 578.523438 357.691406 578.394531 357.691406 578.402344 357.597656 C 578.53125 356.359375 578.277344 355.121094 578.066406 353.894531 C 577.84375 355.230469 577.539062 356.515625 577.082031 357.628906 C 577.046875 357.710938 576.921875 357.753906 576.875 357.65625 C 576.007812 355.828125 577.175781 352.863281 577.503906 351.003906 C 578.097656 347.652344 578.484375 344.742188 577.382812 341.5625 C 577.039062 341.023438 576.992188 340.308594 576.484375 339.875 C 575.960938 339.421875 575.265625 339.226562 574.578125 339.195312 C 573.992188 339.164062 573.394531 339.183594 572.8125 339.246094 C 572.542969 339.273438 572.230469 339.269531 571.929688 339.28125 C 572.039062 342.417969 571.746094 345.65625 571.339844 348.699219 C 570.9375 351.691406 570.589844 355.03125 569.019531 357.652344 C 568.953125 357.761719 568.804688 357.6875 568.824219 357.574219 C 569.449219 353.765625 570.605469 350.160156 570.976562 346.273438 C 571.199219 343.957031 571.230469 341.617188 571.386719 339.292969 C 571.375 339.273438 571.386719 339.265625 571.390625 339.242188 C 571.429688 338.683594 571.488281 338.128906 571.546875 337.570312 C 570.980469 336.695312 570.546875 335.730469 569.730469 335.046875 C 569.375 334.75 568.863281 334.464844 568.3125 334.261719 C 567.953125 334.207031 567.605469 334.125 567.277344 334.007812 Z M 565.285156 334.03125 C 565.292969 334.027344 565.300781 334.023438 565.308594 334.019531 C 565.308594 334.015625 565.304688 334.015625 565.304688 334.015625 C 565.289062 333.9375 565.257812 333.855469 565.238281 333.777344 C 565.246094 333.875 565.253906 333.976562 565.257812 334.078125 C 565.269531 334.066406 565.269531 334.042969 565.285156 334.03125 Z M 563.167969 321.363281 C 563.847656 321.324219 564.566406 321.914062 565.09375 322.285156 C 565.746094 322.746094 566.433594 323.101562 567.128906 323.5 C 567.199219 323.539062 567.273438 323.445312 567.214844 323.386719 C 566.175781 322.351562 564.773438 320.480469 563.082031 320.71875 C 562.714844 320.773438 562.800781 321.382812 563.167969 321.363281 Z M 581.3125 327.722656 C 581.519531 327.90625 581.738281 328.070312 581.941406 328.253906 C 582.382812 328.640625 582.855469 329.042969 583.230469 329.492188 C 583.257812 329.523438 583.304688 329.480469 583.285156 329.449219 C 582.855469 328.71875 582.171875 327.992188 581.441406 327.558594 C 581.171875 327.394531 580.742188 327.253906 580.988281 327.710938 C 580.988281 327.714844 581 327.710938 580.996094 327.707031 C 580.847656 327.3125 581.167969 327.59375 581.3125 327.722656 Z M 720.027344 270.425781 C 720.019531 270.417969 720 270.425781 720.003906 270.4375 C 720.542969 272.734375 721.378906 274.957031 722.335938 277.109375 C 722.863281 278.296875 724.082031 280.679688 725.601562 280.429688 C 725.667969 280.421875 725.730469 280.351562 725.746094 280.285156 C 725.828125 279.890625 725.910156 279.570312 725.625 279.242188 C 724.839844 278.351562 724.15625 277.414062 723.464844 276.449219 C 722.113281 274.550781 721.203125 272.433594 720.027344 270.425781 Z M 628.265625 211.46875 C 628.347656 214.128906 629.460938 216.398438 630.472656 218.8125 C 631.355469 220.925781 632.0625 223.429688 633.855469 224.960938 C 633.886719 224.988281 633.929688 224.957031 633.910156 224.921875 C 632.8125 222.871094 631.925781 220.816406 631.0625 218.648438 C 630.117188 216.265625 628.824219 213.996094 628.367188 211.453125 C 628.359375 211.394531 628.261719 211.410156 628.265625 211.46875 Z M 686.59375 224.171875 C 691.496094 216.503906 695.449219 209.546875 703.96875 205.199219 C 704.058594 205.152344 703.992188 205.03125 703.902344 205.046875 C 695.253906 206.511719 688.898438 217.488281 686.070312 224.96875 C 686.070312 224.972656 686.074219 224.972656 686.078125 224.972656 C 682.664062 230.96875 678.082031 236.28125 673.394531 241.3125 C 667.925781 247.1875 660.65625 250.851562 652.507812 249.390625 C 644.519531 247.953125 638.644531 241.679688 634.371094 235.242188 C 629.949219 228.570312 624.46875 220.097656 624.3125 211.910156 C 624.3125 211.800781 624.15625 211.804688 624.148438 211.910156 C 623.851562 220.625 630.15625 229.652344 634.773438 236.609375 C 638.953125 242.914062 644.886719 248.097656 652.371094 249.894531 C 659.296875 251.554688 666.320312 248.5625 671.507812 244.109375 C 677.648438 238.839844 683.601562 231.738281 686.628906 224.230469 C 686.640625 224.199219 686.621094 224.179688 686.59375 224.171875 Z M 663.203125 395.527344 C 663.199219 395.519531 663.191406 395.527344 663.195312 395.535156 C 668.855469 402.082031 675.824219 407.324219 682.730469 412.496094 C 682.738281 412.527344 682.753906 412.558594 682.785156 412.570312 C 683.054688 412.761719 683.320312 412.949219 683.585938 413.136719 C 683.632812 413.171875 683.675781 413.203125 683.71875 413.238281 C 683.71875 413.238281 683.722656 413.234375 683.722656 413.234375 C 684.132812 413.503906 684.652344 412.839844 684.160156 412.488281 C 676.828125 407.203125 669.480469 402.085938 663.203125 395.527344 Z M 710.679688 397.730469 C 706.621094 400.191406 702.296875 402.175781 698.164062 404.511719 C 695.9375 405.765625 693.804688 407.167969 691.75 408.691406 C 690.230469 409.816406 688.925781 411.488281 687.320312 412.460938 C 687.296875 412.476562 687.300781 412.503906 687.328125 412.511719 C 687.929688 412.769531 687.929688 412.691406 688.566406 412.164062 C 691.054688 410.117188 693.613281 408.195312 696.355469 406.503906 C 701.140625 403.558594 706.121094 401.066406 710.75 397.851562 C 710.824219 397.800781 710.757812 397.683594 710.679688 397.730469 Z M 614.179688 509.691406 C 614.171875 509.691406 614.167969 509.699219 614.171875 509.703125 C 621.101562 515.921875 625.746094 522.890625 628.019531 531.960938 C 628.054688 532.089844 628.230469 532.050781 628.242188 531.929688 C 629.121094 522.867188 620.777344 514.71875 614.179688 509.691406 Z M 737.195312 542.457031 C 732.484375 541.566406 727.882812 541.757812 723.160156 542.542969 C 718.421875 543.328125 714.726562 545.5625 710.421875 547.519531 C 709.941406 546.199219 709.5 544.90625 709.082031 543.691406 C 707.296875 538.464844 706.207031 532.929688 706.191406 527.40625 C 706.195312 527.402344 706.183594 527.402344 706.183594 527.410156 C 705.871094 534.425781 707.28125 541.046875 709.707031 547.605469 C 711.507812 552.476562 713.894531 558.941406 718.296875 562.078125 C 725.964844 567.546875 734.5625 561.371094 736.8125 553.429688 C 736.839844 553.335938 736.707031 553.28125 736.660156 553.363281 C 732.324219 560.933594 724.253906 567.140625 716.78125 559.242188 C 714.003906 556.3125 712.109375 552.074219 710.605469 548.015625 C 710.664062 547.941406 710.71875 547.867188 710.777344 547.792969 C 710.832031 547.726562 710.714844 547.636719 710.660156 547.703125 C 710.652344 547.714844 713.378906 547.136719 713.546875 547.058594 C 715.550781 546.152344 717.464844 545.113281 719.558594 544.421875 C 724.898438 542.65625 731.453125 543.089844 736.902344 543.988281 C 738.136719 544.1875 738.074219 542.515625 737.195312 542.457031 Z M 604.117188 521.152344 C 598.371094 516.792969 592.25 515.175781 585.367188 513.460938 C 579.472656 511.988281 573.609375 511.261719 567.605469 510.832031 C 567.492188 511.128906 567.324219 511.40625 567.128906 511.667969 C 568.84375 512.011719 570.59375 512.132812 572.359375 512.269531 C 575.773438 512.53125 579.109375 513.226562 582.445312 513.976562 C 588.652344 515.375 594.792969 517.101562 600.238281 520.472656 C 604.941406 523.382812 609.097656 527.296875 613.136719 531.054688 C 616.296875 533.996094 619.394531 537.289062 621.539062 541.089844 C 621.664062 540.707031 621.789062 540.324219 621.894531 539.929688 C 621.976562 539.625 622.101562 539.34375 622.25 539.078125 C 621.042969 536.746094 619.085938 534.679688 617.351562 532.828125 C 613.355469 528.554688 608.769531 524.683594 604.117188 521.152344 Z M 517.707031 716.207031 C 512.976562 715.398438 508.929688 713.117188 504.445312 711.644531 C 504.425781 711.636719 504.414062 711.664062 504.425781 711.675781 C 508.328125 715.320312 514.777344 716.8125 519.890625 717.578125 C 526.023438 718.496094 532.574219 717.3125 538.484375 715.667969 C 539.53125 715.378906 546.347656 713.15625 549.679688 711.039062 L 549.679688 710.035156 C 546.136719 712.726562 534.820312 715.355469 533.25 715.699219 C 528.117188 716.824219 522.886719 717.089844 517.707031 716.207031 Z M 530.800781 689.585938 C 524.957031 688.476562 519.191406 688.765625 514.191406 692.21875 C 511.820312 693.855469 510.085938 696.210938 508.664062 698.671875 C 508.28125 699.328125 507.875 699.953125 507.472656 700.570312 C 507.460938 700.90625 507.496094 701.257812 507.519531 701.609375 C 508.292969 700.429688 509.117188 699.273438 509.832031 698.101562 C 511.421875 695.496094 513.714844 693.40625 516.304688 691.847656 C 521.089844 688.96875 527.210938 689.648438 532.398438 690.828125 C 537.101562 691.898438 541.546875 694.085938 545.058594 697.402344 C 547.898438 700.082031 548.902344 703.082031 549.679688 706.382812 L 549.679688 703.75 C 549.679688 703.269531 549.773438 702.851562 549.90625 702.472656 C 548.878906 700.269531 547.394531 698.25 545.8125 696.648438 C 541.863281 692.660156 536.199219 690.613281 530.800781 689.585938 Z M 526.015625 661.21875 C 528.175781 657.605469 529.445312 653.433594 530.898438 649.503906 C 530.925781 649.4375 530.808594 649.386719 530.78125 649.457031 C 529.097656 653.292969 526.804688 657.035156 525.84375 661.144531 C 525.820312 661.246094 525.960938 661.3125 526.015625 661.21875 Z M 554.140625 651.394531 C 554.476562 653.597656 553.925781 655.796875 553.835938 658 C 553.777344 659.359375 553.667969 661.464844 554.867188 662.402344 C 554.953125 662.472656 555.136719 662.445312 555.121094 662.300781 C 554.679688 658.726562 555.21875 654.851562 554.296875 651.351562 C 554.269531 651.246094 554.121094 651.292969 554.140625 651.394531 Z M 599.722656 221.667969 C 599.898438 221.566406 600.085938 221.480469 600.289062 221.410156 C 596.535156 219.480469 592.753906 217.609375 589.65625 214.671875 C 583.757812 209.078125 585.269531 200.945312 589.460938 194.878906 C 593.554688 188.945312 599.53125 183.863281 605.621094 180.089844 C 611.824219 176.25 619.234375 173.648438 624.382812 168.359375 C 624.546875 168.1875 624.328125 167.878906 624.125 168.023438 C 610.910156 177.496094 593.890625 182.867188 586.285156 198.558594 C 580.722656 210.035156 590.339844 217.398438 599.722656 221.667969 Z M 623.484375 198.824219 C 623.339844 198.515625 623.203125 198.179688 623.132812 197.839844 C 621.238281 199.707031 618.765625 204.316406 618.476562 204.847656 C 617.019531 207.53125 616.117188 211.851562 617.535156 214.804688 C 617.792969 214.617188 618.09375 214.476562 618.417969 214.367188 C 617.050781 211.320312 618.046875 207.734375 619.730469 204.640625 C 619.976562 204.183594 622.101562 200.757812 623.484375 198.824219 Z M 738.886719 130.679688 C 755.820312 126.296875 773.867188 125.484375 791.28125 125.273438 C 808.914062 125.0625 826.671875 125.746094 844.042969 128.980469 C 856.25 131.253906 868.984375 132.480469 880.945312 136.105469 C 881.105469 135.84375 881.289062 135.597656 881.503906 135.382812 C 870.160156 131.113281 857.554688 130.589844 845.722656 128.21875 C 828.34375 124.738281 810.382812 124.265625 792.714844 124.445312 C 775.609375 124.617188 758.109375 125.484375 741.378906 129.28125 C 724.394531 133.136719 707.914062 140.066406 691.597656 146.066406 C 691.554688 146.082031 691.570312 146.148438 691.617188 146.136719 C 707.691406 142.082031 722.8125 134.84375 738.886719 130.679688 Z M 828.023438 177.242188 C 833.523438 178.019531 838.925781 179.222656 844.296875 180.550781 C 843.867188 180.007812 843.671875 179.386719 843.644531 178.75 C 839.015625 177.589844 834.34375 176.597656 829.585938 175.972656 C 821.902344 174.964844 814.316406 175.132812 806.59375 175.273438 C 798.164062 175.429688 789.863281 174.742188 781.472656 174.121094 C 764.476562 172.855469 747.75 173.496094 730.785156 174.808594 C 723.644531 175.363281 716.488281 175.863281 709.355469 176.511719 C 703.808594 177.019531 697.902344 177.761719 693 180.570312 C 692.75 180.714844 692.972656 181.089844 693.226562 180.957031 C 698.832031 178.070312 705.378906 177.511719 711.570312 177.015625 C 718.9375 176.421875 726.308594 175.890625 733.679688 175.332031 C 749.691406 174.121094 765.445312 173.707031 781.46875 174.953125 C 788.960938 175.535156 796.402344 176.347656 803.921875 176.429688 C 811.992188 176.511719 820.011719 176.109375 828.023438 177.242188 Z M 787.945312 216.339844 C 788.28125 216.03125 788.613281 215.71875 788.964844 215.4375 C 788.117188 215.429688 787.269531 215.421875 786.417969 215.4375 C 782.304688 215.515625 778.332031 215.054688 774.382812 214.417969 C 774.285156 214.703125 774.160156 214.980469 774.007812 215.242188 C 778.082031 215.949219 782.167969 216.464844 786.421875 216.34375 C 786.929688 216.328125 787.4375 216.335938 787.945312 216.339844 Z M 743.800781 211.617188 C 743.195312 211.628906 742.585938 211.640625 741.980469 211.648438 C 737.738281 211.679688 732.855469 211.757812 728.695312 213.292969 C 728.703125 213.339844 728.726562 213.378906 728.726562 213.429688 L 728.726562 214 C 733.40625 212.332031 738.78125 212.417969 743.648438 212.414062 C 743.6875 212.144531 743.738281 211.878906 743.800781 211.617188 Z M 760.441406 211.980469 C 758.945312 211.757812 757.429688 211.621094 755.898438 211.542969 C 755.878906 211.859375 755.820312 212.179688 755.734375 212.492188 C 757.691406 212.578125 759.648438 212.722656 761.613281 212.980469 C 761.734375 212.726562 761.851562 212.476562 761.992188 212.230469 C 761.472656 212.148438 760.960938 212.054688 760.441406 211.980469 Z M 835.167969 224.734375 C 826.863281 222.292969 818.566406 219.835938 810.109375 217.972656 C 806.425781 217.160156 802.707031 216.53125 798.972656 216.097656 C 799.003906 216.4375 798.976562 216.777344 798.917969 217.105469 C 803.476562 217.710938 808.003906 218.605469 812.453125 219.625 C 828.359375 223.269531 843.867188 228.53125 859.738281 232.371094 C 869.96875 234.84375 879.683594 238.957031 889.375 243.09375 C 889.0625 242.742188 888.832031 242.335938 888.675781 241.890625 C 879.371094 237.738281 869.976562 233.84375 860.03125 231.292969 C 851.710938 229.160156 843.414062 227.164062 835.167969 224.734375 Z M 920.515625 370.1875 C 906.441406 355.027344 890.539062 341.648438 875.152344 327.863281 C 860.453125 314.691406 845.476562 301.6875 828.539062 291.4375 C 811.042969 280.851562 791.773438 273.925781 773.371094 265.160156 C 773.226562 265.355469 773.050781 265.523438 772.839844 265.664062 C 789.953125 274.179688 808.082031 280.5 824.636719 290.15625 C 842.097656 300.339844 857.488281 313.308594 872.523438 326.722656 C 887.570312 340.148438 902.902344 353.359375 916.898438 367.890625 C 923.230469 374.464844 929.585938 381.070312 935.777344 387.777344 C 937.394531 389.53125 938.964844 391.339844 940.464844 393.203125 C 940.550781 392.605469 940.660156 392.007812 940.808594 391.417969 C 934.566406 383.765625 926.804688 376.957031 920.515625 370.1875 Z M 872.246094 399.417969 C 866.804688 390.628906 861.019531 382.023438 854.554688 373.945312 C 847.734375 365.421875 839.617188 358.128906 831.699219 350.652344 C 823.652344 343.050781 815.328125 335.652344 806.109375 329.480469 C 797.289062 323.582031 787.175781 318.335938 777.382812 314.273438 C 768.972656 310.785156 759.835938 307.515625 750.847656 305.902344 C 746.855469 305.1875 742.769531 304.777344 738.714844 304.679688 C 738.226562 304.667969 737.085938 304.570312 736.003906 304.644531 C 736.007812 304.792969 736.007812 304.941406 736.003906 305.089844 C 740.269531 304.625 750.355469 306.5625 751.769531 306.839844 C 761.558594 308.765625 771.707031 312.472656 780.703125 316.707031 C 790.78125 321.453125 801.101562 326.691406 810.03125 333.390625 C 819.660156 340.617188 828.378906 348.816406 837.058594 357.136719 C 845.117188 364.859375 852.554688 372.667969 859.152344 381.710938 C 865.460938 390.355469 871.019531 399.535156 876.542969 408.691406 C 882.46875 418.503906 887.9375 428.308594 892.179688 438.984375 C 896.289062 449.316406 899.25 460.023438 902.210938 470.726562 C 902.4375 471.539062 902.671875 472.347656 902.898438 473.152344 C 903.171875 472.972656 903.457031 472.816406 903.75 472.683594 C 899.886719 457.214844 895.339844 441.976562 888.449219 427.460938 C 883.832031 417.71875 877.914062 408.570312 872.246094 399.417969 Z M 872.246094 399.417969 " fill-opacity="1" fill-rule="nonzero"/></svg>