<svg xmlns="http://www.w3.org/2000/svg" xmlns:xlink="http://www.w3.org/1999/xlink" width="1920" zoomAndPan="magnify" viewBox="0 0 1440 809.999993" height="1080" preserveAspectRatio="xMidYMid meet" version="1.0"><metadata><ContainsAiGeneratedContent>Yes</ContainsAiGeneratedContent></metadata><defs><clipPath id="0efd327b75"><path d="M 421.921875 84 L 1018.171875 84 L 1018.171875 681 L 421.921875 681 Z M 421.921875 84 " clip-rule="nonzero"/></clipPath></defs><g clip-path="url(#0efd327b75)"><path fill="#ffcb4c" d="M 1018.171875 382.519531 C 1018.171875 387.398438 1018.050781 392.273438 1017.8125 397.148438 C 1017.570312 402.019531 1017.210938 406.882812 1016.734375 411.738281 C 1016.257812 416.59375 1015.660156 421.433594 1014.941406 426.257812 C 1014.226562 431.082031 1013.394531 435.890625 1012.441406 440.671875 C 1011.488281 445.457031 1010.421875 450.214844 1009.234375 454.949219 C 1008.050781 459.679688 1006.75 464.378906 1005.332031 469.050781 C 1003.917969 473.71875 1002.386719 478.347656 1000.742188 482.941406 C 999.097656 487.535156 997.34375 492.082031 995.476562 496.589844 C 993.609375 501.097656 991.632812 505.554688 989.546875 509.964844 C 987.460938 514.375 985.269531 518.730469 982.96875 523.035156 C 980.667969 527.335938 978.261719 531.578125 975.753906 535.765625 C 973.246094 539.949219 970.636719 544.070312 967.925781 548.125 C 965.214844 552.179688 962.40625 556.167969 959.5 560.085938 C 956.59375 564.003906 953.59375 567.847656 950.5 571.621094 C 947.402344 575.390625 944.21875 579.082031 940.941406 582.699219 C 937.664062 586.3125 934.300781 589.84375 930.851562 593.292969 C 927.402344 596.742188 923.867188 600.105469 920.253906 603.382812 C 916.636719 606.660156 912.945312 609.84375 909.171875 612.9375 C 905.402344 616.035156 901.558594 619.035156 897.636719 621.941406 C 893.71875 624.847656 889.730469 627.652344 885.675781 630.363281 C 881.617188 633.074219 877.496094 635.683594 873.3125 638.191406 C 869.128906 640.699219 864.882812 643.101562 860.582031 645.402344 C 856.277344 647.703125 851.921875 649.894531 847.511719 651.980469 C 843.097656 654.066406 838.640625 656.042969 834.132812 657.910156 C 829.625 659.777344 825.074219 661.53125 820.480469 663.175781 C 815.886719 664.820312 811.253906 666.347656 806.585938 667.765625 C 801.917969 669.179688 797.214844 670.480469 792.484375 671.667969 C 787.75 672.851562 782.992188 673.921875 778.207031 674.871094 C 773.421875 675.824219 768.613281 676.65625 763.789062 677.375 C 758.960938 678.089844 754.121094 678.6875 749.265625 679.164062 C 744.410156 679.640625 739.546875 680 734.671875 680.242188 C 729.800781 680.480469 724.925781 680.597656 720.046875 680.597656 C 715.164062 680.597656 710.289062 680.480469 705.417969 680.242188 C 700.542969 680 695.679688 679.640625 690.824219 679.164062 C 685.96875 678.6875 681.128906 678.089844 676.300781 677.375 C 671.476562 676.65625 666.667969 675.824219 661.882812 674.871094 C 657.097656 673.921875 652.339844 672.851562 647.605469 671.667969 C 642.875 670.480469 638.171875 669.179688 633.503906 667.765625 C 628.835938 666.347656 624.203125 664.820312 619.609375 663.175781 C 615.015625 661.53125 610.464844 659.777344 605.957031 657.910156 C 601.449219 656.042969 596.992188 654.066406 592.582031 651.980469 C 588.167969 649.894531 583.8125 647.703125 579.511719 645.402344 C 575.207031 643.101562 570.964844 640.699219 566.777344 638.191406 C 562.59375 635.683594 558.472656 633.074219 554.414062 630.363281 C 550.359375 627.652344 546.371094 624.847656 542.453125 621.941406 C 538.535156 619.035156 534.6875 616.035156 530.917969 612.9375 C 527.144531 609.84375 523.453125 606.660156 519.835938 603.382812 C 516.222656 600.105469 512.6875 596.742188 509.238281 593.292969 C 505.789062 589.84375 502.425781 586.3125 499.148438 582.699219 C 495.871094 579.082031 492.6875 575.390625 489.589844 571.621094 C 486.496094 567.847656 483.496094 564.003906 480.589844 560.085938 C 477.683594 556.167969 474.875 552.179688 472.164062 548.125 C 469.453125 544.070312 466.84375 539.949219 464.335938 535.765625 C 461.828125 531.578125 459.421875 527.335938 457.121094 523.035156 C 454.820312 518.730469 452.628906 514.375 450.542969 509.964844 C 448.457031 505.554688 446.480469 501.097656 444.613281 496.589844 C 442.746094 492.082031 440.992188 487.535156 439.347656 482.941406 C 437.703125 478.347656 436.171875 473.71875 434.757812 469.050781 C 433.339844 464.378906 432.039062 459.679688 430.855469 454.949219 C 429.667969 450.214844 428.601562 445.457031 427.648438 440.671875 C 426.695312 435.890625 425.863281 431.082031 425.148438 426.257812 C 424.429688 421.433594 423.832031 416.59375 423.355469 411.738281 C 422.878906 406.882812 422.519531 402.019531 422.277344 397.148438 C 422.039062 392.273438 421.921875 387.398438 421.921875 382.519531 C 421.921875 377.644531 422.039062 372.769531 422.277344 367.894531 C 422.519531 363.023438 422.878906 358.160156 423.355469 353.304688 C 423.832031 348.449219 424.429688 343.609375 425.148438 338.785156 C 425.863281 333.957031 426.695312 329.152344 427.648438 324.371094 C 428.601562 319.585938 429.667969 314.828125 430.855469 310.09375 C 432.039062 305.363281 433.339844 300.660156 434.757812 295.992188 C 436.171875 291.324219 437.703125 286.695312 439.347656 282.101562 C 440.992188 277.507812 442.746094 272.957031 444.613281 268.453125 C 446.480469 263.945312 448.457031 259.488281 450.542969 255.078125 C 452.628906 250.667969 454.820312 246.3125 457.121094 242.007812 C 459.421875 237.707031 461.828125 233.460938 464.335938 229.277344 C 466.84375 225.09375 469.453125 220.972656 472.164062 216.917969 C 474.875 212.863281 477.683594 208.875 480.589844 204.957031 C 483.496094 201.039062 486.496094 197.195312 489.589844 193.421875 C 492.6875 189.652344 495.871094 185.957031 499.148438 182.34375 C 502.425781 178.730469 505.789062 175.199219 509.238281 171.75 C 512.6875 168.300781 516.222656 164.9375 519.835938 161.660156 C 523.453125 158.382812 527.144531 155.199219 530.917969 152.105469 C 534.6875 149.007812 538.535156 146.007812 542.453125 143.101562 C 546.371094 140.195312 550.359375 137.390625 554.414062 134.679688 C 558.472656 131.96875 562.59375 129.359375 566.777344 126.851562 C 570.964844 124.34375 575.207031 121.941406 579.511719 119.640625 C 583.8125 117.339844 588.167969 115.148438 592.582031 113.0625 C 596.992188 110.976562 601.449219 109 605.957031 107.132812 C 610.464844 105.265625 615.015625 103.511719 619.609375 101.867188 C 624.203125 100.222656 628.835938 98.695312 633.503906 97.277344 C 638.171875 95.863281 642.875 94.5625 647.605469 93.375 C 652.339844 92.191406 657.097656 91.121094 661.882812 90.171875 C 666.667969 89.21875 671.476562 88.386719 676.300781 87.667969 C 681.128906 86.953125 685.96875 86.355469 690.824219 85.878906 C 695.679688 85.402344 700.542969 85.042969 705.417969 84.800781 C 710.289062 84.5625 715.164062 84.441406 720.046875 84.441406 C 724.925781 84.441406 729.800781 84.5625 734.671875 84.800781 C 739.546875 85.042969 744.410156 85.402344 749.265625 85.878906 C 754.121094 86.355469 758.960938 86.953125 763.789062 87.667969 C 768.613281 88.386719 773.421875 89.21875 778.207031 90.171875 C 782.992188 91.121094 787.75 92.191406 792.484375 93.375 C 797.214844 94.5625 801.917969 95.863281 806.585938 97.277344 C 811.253906 98.695312 815.886719 100.222656 820.480469 101.867188 C 825.074219 103.511719 829.625 105.265625 834.132812 107.132812 C 838.640625 109 843.097656 110.976562 847.511719 113.0625 C 851.921875 115.148438 856.277344 117.339844 860.582031 119.640625 C 864.882812 121.941406 869.128906 124.34375 873.3125 126.851562 C 877.496094 129.359375 881.617188 131.96875 885.675781 134.679688 C 889.730469 137.390625 893.71875 140.195312 897.636719 143.101562 C 901.558594 146.007812 905.402344 149.007812 909.171875 152.105469 C 912.945312 155.199219 916.636719 158.382812 920.253906 161.660156 C 923.867188 164.9375 927.402344 168.300781 930.851562 171.75 C 934.300781 175.199219 937.664062 178.730469 940.941406 182.34375 C 944.21875 185.957031 947.402344 189.652344 950.5 193.421875 C 953.59375 197.195312 956.59375 201.039062 959.5 204.957031 C 962.40625 208.875 965.214844 212.863281 967.925781 216.917969 C 970.636719 220.972656 973.246094 225.09375 975.753906 229.277344 C 978.261719 233.460938 980.667969 237.707031 982.96875 242.007812 C 985.269531 246.3125 987.460938 250.667969 989.546875 255.078125 C 991.632812 259.488281 993.609375 263.945312 995.476562 268.453125 C 997.34375 272.957031 999.097656 277.507812 1000.742188 282.101562 C 1002.386719 286.695312 1003.917969 291.324219 1005.332031 295.992188 C 1006.75 300.660156 1008.050781 305.363281 1009.234375 310.09375 C 1010.421875 314.828125 1011.488281 319.585938 1012.441406 324.371094 C 1013.394531 329.152344 1014.226562 333.957031 1014.941406 338.785156 C 1015.660156 343.609375 1016.257812 348.449219 1016.734375 353.304688 C 1017.210938 358.160156 1017.570312 363.023438 1017.8125 367.894531 C 1018.050781 372.769531 1018.171875 377.644531 1018.171875 382.519531 Z M 1018.171875 382.519531 " fill-opacity="1" fill-rule="nonzero"/></g><path fill="#65471b" d="M 659.085938 452.972656 C 656.542969 450.9375 654.5625 448.167969 653.617188 444.835938 C 651.265625 436.773438 655.894531 428.742188 663.960938 426.933594 C 743.367188 409.03125 796.839844 450.832031 799.101562 452.621094 C 805.835938 457.988281 807.148438 467.4375 802.132812 473.75 C 797.117188 480.027344 787.613281 480.78125 780.898438 475.453125 C 778.96875 473.980469 736.652344 441.734375 672.484375 456.199219 C 667.679688 457.269531 662.769531 455.917969 659.085938 452.972656 Z M 659.085938 452.972656 " fill-opacity="1" fill-rule="nonzero"/><path fill="#65471b" d="M 671.714844 280.050781 C 671.714844 281.578125 671.652344 283.097656 671.535156 284.617188 C 671.414062 286.136719 671.234375 287.640625 670.996094 289.136719 C 670.757812 290.632812 670.464844 292.113281 670.109375 293.570312 C 669.753906 295.03125 669.34375 296.464844 668.878906 297.875 C 668.410156 299.285156 667.890625 300.660156 667.3125 302.003906 C 666.738281 303.351562 666.113281 304.65625 665.433594 305.925781 C 664.753906 307.195312 664.027344 308.417969 663.253906 309.597656 C 662.480469 310.777344 661.660156 311.90625 660.796875 312.984375 C 659.9375 314.0625 659.03125 315.085938 658.089844 316.050781 C 657.144531 317.019531 656.167969 317.925781 655.152344 318.773438 C 654.136719 319.621094 653.089844 320.40625 652.015625 321.125 C 650.9375 321.84375 649.835938 322.496094 648.707031 323.078125 C 647.582031 323.660156 646.433594 324.175781 645.265625 324.617188 C 644.097656 325.058594 642.914062 325.429688 641.71875 325.726562 C 640.519531 326.027344 639.316406 326.25 638.101562 326.398438 C 636.886719 326.546875 635.667969 326.621094 634.449219 326.621094 C 633.226562 326.621094 632.011719 326.546875 630.796875 326.398438 C 629.582031 326.25 628.375 326.027344 627.179688 325.726562 C 625.980469 325.429688 624.796875 325.058594 623.628906 324.617188 C 622.460938 324.175781 621.316406 323.660156 620.1875 323.078125 C 619.058594 322.496094 617.957031 321.84375 616.882812 321.125 C 615.804688 320.40625 614.757812 319.621094 613.746094 318.773438 C 612.730469 317.925781 611.75 317.019531 610.808594 316.050781 C 609.863281 315.085938 608.960938 314.0625 608.097656 312.984375 C 607.234375 311.90625 606.414062 310.777344 605.640625 309.597656 C 604.867188 308.417969 604.140625 307.195312 603.460938 305.925781 C 602.785156 304.65625 602.15625 303.351562 601.582031 302.003906 C 601.007812 300.660156 600.484375 299.285156 600.019531 297.875 C 599.550781 296.464844 599.140625 295.03125 598.785156 293.570312 C 598.433594 292.113281 598.136719 290.632812 597.898438 289.136719 C 597.660156 287.640625 597.480469 286.136719 597.363281 284.617188 C 597.242188 283.097656 597.183594 281.578125 597.183594 280.050781 C 597.183594 278.527344 597.242188 277.007812 597.363281 275.488281 C 597.480469 273.96875 597.660156 272.464844 597.898438 270.96875 C 598.136719 269.472656 598.433594 267.992188 598.785156 266.535156 C 599.140625 265.074219 599.550781 263.640625 600.019531 262.230469 C 600.484375 260.820312 601.007812 259.445312 601.582031 258.097656 C 602.15625 256.753906 602.785156 255.449219 603.460938 254.179688 C 604.140625 252.910156 604.867188 251.6875 605.640625 250.507812 C 606.414062 249.328125 607.234375 248.199219 608.097656 247.121094 C 608.960938 246.042969 609.863281 245.019531 610.808594 244.054688 C 611.75 243.085938 612.730469 242.179688 613.746094 241.332031 C 614.757812 240.484375 615.804688 239.699219 616.882812 238.980469 C 617.957031 238.261719 619.058594 237.609375 620.1875 237.027344 C 621.316406 236.445312 622.460938 235.929688 623.628906 235.488281 C 624.796875 235.042969 625.980469 234.675781 627.179688 234.378906 C 628.375 234.078125 629.582031 233.855469 630.796875 233.707031 C 632.011719 233.558594 633.226562 233.480469 634.449219 233.480469 C 635.667969 233.480469 636.886719 233.558594 638.101562 233.707031 C 639.316406 233.855469 640.519531 234.078125 641.71875 234.378906 C 642.914062 234.675781 644.097656 235.042969 645.265625 235.488281 C 646.433594 235.929688 647.582031 236.445312 648.707031 237.027344 C 649.835938 237.609375 650.9375 238.261719 652.015625 238.980469 C 653.089844 239.699219 654.136719 240.484375 655.152344 241.332031 C 656.167969 242.179688 657.144531 243.085938 658.089844 244.054688 C 659.03125 245.019531 659.9375 246.042969 660.796875 247.121094 C 661.660156 248.199219 662.480469 249.328125 663.253906 250.507812 C 664.027344 251.6875 664.753906 252.910156 665.433594 254.179688 C 666.113281 255.449219 666.738281 256.753906 667.3125 258.097656 C 667.890625 259.445312 668.410156 260.820312 668.878906 262.230469 C 669.34375 263.640625 669.753906 265.074219 670.109375 266.535156 C 670.464844 267.992188 670.757812 269.472656 670.996094 270.96875 C 671.234375 272.464844 671.414062 273.96875 671.535156 275.488281 C 671.652344 277.007812 671.714844 278.527344 671.714844 280.050781 Z M 671.714844 280.050781 " fill-opacity="1" fill-rule="nonzero"/><path fill="#65471b" d="M 869.109375 298.671875 C 869.109375 300.199219 869.046875 301.71875 868.929688 303.238281 C 868.808594 304.757812 868.628906 306.261719 868.390625 307.757812 C 868.152344 309.253906 867.855469 310.734375 867.503906 312.191406 C 867.148438 313.652344 866.738281 315.085938 866.269531 316.496094 C 865.804688 317.90625 865.28125 319.28125 864.707031 320.625 C 864.132812 321.972656 863.503906 323.277344 862.828125 324.546875 C 862.148438 325.816406 861.421875 327.039062 860.648438 328.21875 C 859.875 329.398438 859.054688 330.527344 858.191406 331.605469 C 857.328125 332.683594 856.425781 333.707031 855.484375 334.671875 C 854.539062 335.640625 853.558594 336.546875 852.546875 337.394531 C 851.53125 338.242188 850.484375 339.027344 849.410156 339.746094 C 848.332031 340.464844 847.230469 341.117188 846.101562 341.699219 C 844.976562 342.28125 843.828125 342.796875 842.660156 343.238281 C 841.492188 343.679688 840.308594 344.050781 839.113281 344.347656 C 837.914062 344.648438 836.710938 344.871094 835.496094 345.019531 C 834.28125 345.167969 833.0625 345.242188 831.84375 345.242188 C 830.621094 345.242188 829.402344 345.167969 828.1875 345.019531 C 826.972656 344.871094 825.769531 344.648438 824.570312 344.347656 C 823.375 344.050781 822.191406 343.679688 821.023438 343.238281 C 819.855469 342.796875 818.707031 342.28125 817.582031 341.699219 C 816.453125 341.117188 815.351562 340.464844 814.273438 339.746094 C 813.199219 339.027344 812.152344 338.242188 811.136719 337.394531 C 810.125 336.546875 809.144531 335.640625 808.199219 334.671875 C 807.257812 333.707031 806.355469 332.683594 805.492188 331.605469 C 804.628906 330.527344 803.808594 329.398438 803.035156 328.21875 C 802.261719 327.039062 801.535156 325.816406 800.855469 324.546875 C 800.179688 323.277344 799.550781 321.972656 798.976562 320.625 C 798.402344 319.28125 797.878906 317.90625 797.414062 316.496094 C 796.945312 315.085938 796.535156 313.652344 796.179688 312.191406 C 795.828125 310.734375 795.53125 309.253906 795.292969 307.757812 C 795.054688 306.261719 794.875 304.757812 794.753906 303.238281 C 794.636719 301.71875 794.578125 300.199219 794.578125 298.671875 C 794.578125 297.148438 794.636719 295.628906 794.753906 294.109375 C 794.875 292.589844 795.054688 291.085938 795.292969 289.589844 C 795.53125 288.09375 795.828125 286.613281 796.179688 285.15625 C 796.535156 283.695312 796.945312 282.261719 797.414062 280.851562 C 797.878906 279.441406 798.402344 278.066406 798.976562 276.71875 C 799.550781 275.375 800.179688 274.070312 800.855469 272.800781 C 801.535156 271.53125 802.261719 270.308594 803.035156 269.128906 C 803.808594 267.949219 804.628906 266.820312 805.492188 265.742188 C 806.355469 264.664062 807.257812 263.640625 808.199219 262.675781 C 809.144531 261.707031 810.125 260.800781 811.136719 259.953125 C 812.152344 259.105469 813.199219 258.320312 814.273438 257.601562 C 815.351562 256.882812 816.453125 256.230469 817.582031 255.648438 C 818.707031 255.066406 819.855469 254.550781 821.023438 254.109375 C 822.191406 253.667969 823.375 253.296875 824.570312 253 C 825.769531 252.699219 826.972656 252.476562 828.1875 252.328125 C 829.402344 252.179688 830.621094 252.101562 831.84375 252.101562 C 833.0625 252.101562 834.28125 252.179688 835.496094 252.328125 C 836.710938 252.476562 837.914062 252.699219 839.113281 253 C 840.308594 253.296875 841.492188 253.667969 842.660156 254.109375 C 843.828125 254.550781 844.976562 255.066406 846.101562 255.648438 C 847.230469 256.230469 848.332031 256.882812 849.410156 257.601562 C 850.484375 258.320312 851.53125 259.105469 852.546875 259.953125 C 853.558594 260.800781 854.539062 261.707031 855.484375 262.675781 C 856.425781 263.640625 857.328125 264.664062 858.191406 265.742188 C 859.054688 266.820312 859.875 267.949219 860.648438 269.128906 C 861.421875 270.308594 862.148438 271.53125 862.828125 272.800781 C 863.503906 274.070312 864.132812 275.375 864.707031 276.71875 C 865.28125 278.066406 865.804688 279.441406 866.269531 280.851562 C 866.738281 282.261719 867.148438 283.695312 867.503906 285.15625 C 867.855469 286.613281 868.152344 288.09375 868.390625 289.589844 C 868.628906 291.085938 868.808594 292.589844 868.929688 294.109375 C 869.046875 295.628906 869.109375 297.148438 869.109375 298.671875 Z M 869.109375 298.671875 " fill-opacity="1" fill-rule="nonzero"/><path fill="#f19020" d="M 707.347656 700.429688 C 707.347656 700.429688 729.53125 693.222656 732.410156 676.722656 C 735.441406 659.679688 721.464844 656.261719 721.464844 656.261719 C 721.464844 656.261719 739.722656 652.613281 742.019531 632.136719 C 744.175781 612.832031 726.917969 608.238281 726.917969 608.238281 C 726.917969 608.238281 743.929688 601.222656 744.738281 581.25 C 745.402344 564.4375 727.289062 556.214844 727.289062 556.214844 C 727.289062 556.214844 815.636719 534.804688 824.722656 532.699219 C 833.769531 530.597656 847.871094 521.917969 843.46875 502.996094 C 839.101562 484.0625 822.355469 483.394531 813.707031 485.410156 C 805.046875 487.425781 695.441406 512.871094 657.632812 521.671875 L 632.394531 527.527344 C 622.925781 529.753906 618.628906 525.597656 625.3125 518.550781 C 634.21875 509.152344 639.917969 498.753906 641.902344 481.5 C 643.988281 463.351562 637.832031 440.945312 634.308594 432.246094 C 627.75 416.097656 616.683594 403.335938 603.898438 398.949219 C 583.960938 392.113281 569.789062 404.578125 576.855469 426.320312 C 587.449219 458.828125 580.503906 485.5 562.25 501.59375 C 519.300781 539.414062 499.328125 566.382812 512.621094 623.859375 C 527.140625 686.542969 589.378906 726.890625 652.074219 712.371094 Z M 707.347656 700.429688 " fill-opacity="1" fill-rule="nonzero"/><path fill="#65471b" d="M 567.40625 195.484375 C 564.527344 193.941406 562.089844 191.558594 560.546875 188.488281 C 556.761719 180.984375 559.847656 172.234375 567.441406 168.992188 C 642.25 136.886719 702.457031 168.238281 704.980469 169.589844 C 712.574219 173.640625 715.644531 182.6875 711.835938 189.824219 C 708.050781 196.925781 698.859375 199.394531 691.265625 195.398438 C 689.109375 194.292969 641.601562 170.289062 581.171875 196.222656 C 576.664062 198.132812 571.578125 197.714844 567.40625 195.484375 Z M 780.214844 261.238281 C 777.476562 259.519531 775.199219 256.976562 773.867188 253.804688 C 770.585938 246.054688 774.269531 237.550781 782.074219 234.796875 C 858.902344 207.863281 916.84375 243.214844 919.261719 244.738281 C 926.539062 249.296875 928.996094 258.539062 924.734375 265.394531 C 920.488281 272.234375 911.125 274.074219 903.847656 269.566406 C 901.742188 268.304688 856.023438 241.144531 793.945312 262.921875 C 789.28125 264.515625 784.246094 263.730469 780.214844 261.238281 Z M 780.214844 261.238281 " fill-opacity="1" fill-rule="nonzero"/></svg>