<svg xmlns="http://www.w3.org/2000/svg" xmlns:xlink="http://www.w3.org/1999/xlink" width="1920" zoomAndPan="magnify" viewBox="0 0 1440 809.999993" height="1080" preserveAspectRatio="xMidYMid meet" version="1.0"><metadata><ContainsAiGeneratedContent>Yes</ContainsAiGeneratedContent></metadata><defs><g/><clipPath id="9c0c9c457a"><path d="M 153.59375 470.324219 L 310.582031 470.324219 L 310.582031 663.855469 L 153.59375 663.855469 Z M 153.59375 470.324219 " clip-rule="nonzero"/></clipPath><clipPath id="beb2728177"><path d="M 176.421875 540.578125 L 228 540.578125 L 228 590 L 176.421875 590 Z M 176.421875 540.578125 " clip-rule="nonzero"/></clipPath><clipPath id="732ace99e5"><path d="M 211 540.578125 L 263 540.578125 L 263 590 L 211 590 Z M 211 540.578125 " clip-rule="nonzero"/></clipPath><clipPath id="95ac2ff404"><path d="M 195 594 L 246 594 L 246 642.753906 L 195 642.753906 Z M 195 594 " clip-rule="nonzero"/></clipPath><clipPath id="20af16bf24"><path d="M 251 594 L 287.398438 594 L 287.398438 642.753906 L 251 642.753906 Z M 251 594 " clip-rule="nonzero"/></clipPath></defs><g fill="#000000" fill-opacity="1"><g transform="translate(80.973672, 719.787015)"><g><path d="M 10.78125 0.4375 C 9.78125 0.4375 8.9375 0.0859375 8.25 -0.609375 C 7.5625 -1.304688 7.21875 -2.171875 7.21875 -3.203125 C 7.21875 -4.253906 7.5625 -5.117188 8.25 -5.796875 C 8.9375 -6.484375 9.78125 -6.828125 10.78125 -6.828125 C 11.8125 -6.828125 12.660156 -6.484375 13.328125 -5.796875 C 14.003906 -5.117188 14.34375 -4.253906 14.34375 -3.203125 C 14.34375 -2.171875 14.003906 -1.304688 13.328125 -0.609375 C 12.660156 0.0859375 11.8125 0.4375 10.78125 0.4375 Z M 10.78125 0.4375 "/></g></g></g><g fill="#000000" fill-opacity="1"><g transform="translate(102.543287, 719.787015)"><g><path d="M 10.28125 7.796875 C 8.65625 7.796875 7.242188 7.625 6.046875 7.28125 C 4.847656 6.9375 3.910156 6.414062 3.234375 5.71875 C 2.566406 5.019531 2.234375 4.144531 2.234375 3.09375 C 2.234375 2.394531 2.472656 1.722656 2.953125 1.078125 C 3.429688 0.429688 4.125 -0.128906 5.03125 -0.609375 L 5.03125 -0.75 C 4.570312 -1.039062 4.15625 -1.421875 3.78125 -1.890625 C 3.414062 -2.359375 3.234375 -2.960938 3.234375 -3.703125 C 3.234375 -4.273438 3.425781 -4.859375 3.8125 -5.453125 C 4.195312 -6.054688 4.710938 -6.578125 5.359375 -7.015625 L 5.359375 -7.15625 C 4.734375 -7.613281 4.195312 -8.226562 3.75 -9 C 3.3125 -9.78125 3.09375 -10.6875 3.09375 -11.71875 C 3.09375 -13.082031 3.425781 -14.238281 4.09375 -15.1875 C 4.769531 -16.132812 5.65625 -16.851562 6.75 -17.34375 C 7.851562 -17.832031 9.054688 -18.078125 10.359375 -18.078125 C 11.410156 -18.078125 12.332031 -17.9375 13.125 -17.65625 L 20.34375 -17.65625 L 20.34375 -14.484375 L 16.28125 -14.484375 C 16.59375 -14.148438 16.863281 -13.722656 17.09375 -13.203125 C 17.320312 -12.691406 17.4375 -12.148438 17.4375 -11.578125 C 17.4375 -10.285156 17.117188 -9.1875 16.484375 -8.28125 C 15.847656 -7.382812 15.003906 -6.707031 13.953125 -6.25 C 12.898438 -5.800781 11.703125 -5.578125 10.359375 -5.578125 C 9.953125 -5.578125 9.515625 -5.617188 9.046875 -5.703125 C 8.578125 -5.785156 8.113281 -5.910156 7.65625 -6.078125 C 7.300781 -5.859375 7.03125 -5.617188 6.84375 -5.359375 C 6.664062 -5.097656 6.578125 -4.785156 6.578125 -4.421875 C 6.578125 -3.867188 6.859375 -3.453125 7.421875 -3.171875 C 7.984375 -2.898438 8.816406 -2.765625 9.921875 -2.765625 L 13.515625 -2.765625 C 15.816406 -2.765625 17.546875 -2.4375 18.703125 -1.78125 C 19.867188 -1.125 20.453125 -0.015625 20.453125 1.546875 C 20.453125 2.691406 20.035156 3.742188 19.203125 4.703125 C 18.378906 5.660156 17.207031 6.414062 15.6875 6.96875 C 14.164062 7.519531 12.363281 7.796875 10.28125 7.796875 Z M 10.359375 -8.203125 C 10.984375 -8.203125 11.546875 -8.335938 12.046875 -8.609375 C 12.546875 -8.890625 12.945312 -9.289062 13.25 -9.8125 C 13.550781 -10.34375 13.703125 -10.976562 13.703125 -11.71875 C 13.703125 -12.4375 13.550781 -13.050781 13.25 -13.5625 C 12.945312 -14.082031 12.546875 -14.484375 12.046875 -14.765625 C 11.546875 -15.054688 10.984375 -15.203125 10.359375 -15.203125 C 9.753906 -15.203125 9.203125 -15.054688 8.703125 -14.765625 C 8.203125 -14.484375 7.796875 -14.082031 7.484375 -13.5625 C 7.171875 -13.050781 7.015625 -12.4375 7.015625 -11.71875 C 7.015625 -10.976562 7.171875 -10.34375 7.484375 -9.8125 C 7.796875 -9.289062 8.203125 -8.890625 8.703125 -8.609375 C 9.203125 -8.335938 9.753906 -8.203125 10.359375 -8.203125 Z M 10.78125 5.0625 C 11.9375 5.0625 12.9375 4.929688 13.78125 4.671875 C 14.632812 4.410156 15.296875 4.0625 15.765625 3.625 C 16.234375 3.195312 16.46875 2.734375 16.46875 2.234375 C 16.46875 1.535156 16.171875 1.070312 15.578125 0.84375 C 14.992188 0.613281 14.101562 0.5 12.90625 0.5 L 10.109375 0.5 C 9.523438 0.5 9.019531 0.472656 8.59375 0.421875 C 8.164062 0.378906 7.769531 0.320312 7.40625 0.25 C 6.78125 0.613281 6.335938 0.984375 6.078125 1.359375 C 5.816406 1.742188 5.6875 2.140625 5.6875 2.546875 C 5.6875 3.335938 6.128906 3.953125 7.015625 4.390625 C 7.898438 4.835938 9.15625 5.0625 10.78125 5.0625 Z M 10.78125 5.0625 "/></g></g></g><g fill="#000000" fill-opacity="1"><g transform="translate(124.112902, 719.787015)"><g><path d="M 10.671875 0 L 10.671875 -14.375 L 3.015625 -14.375 L 3.015625 -17.65625 L 14.8125 -17.65625 L 14.8125 0 Z M 12.4375 -20.890625 C 11.601562 -20.890625 10.90625 -21.140625 10.34375 -21.640625 C 9.78125 -22.148438 9.5 -22.820312 9.5 -23.65625 C 9.5 -24.5 9.78125 -25.175781 10.34375 -25.6875 C 10.90625 -26.207031 11.601562 -26.46875 12.4375 -26.46875 C 13.300781 -26.46875 14.007812 -26.207031 14.5625 -25.6875 C 15.113281 -25.175781 15.390625 -24.5 15.390625 -23.65625 C 15.390625 -22.820312 15.113281 -22.148438 14.5625 -21.640625 C 14.007812 -21.140625 13.300781 -20.890625 12.4375 -20.890625 Z M 12.4375 -20.890625 "/></g></g></g><g fill="#000000" fill-opacity="1"><g transform="translate(145.682518, 719.787015)"><g><path d="M 14.0625 0.4375 C 12.257812 0.4375 10.832031 0.117188 9.78125 -0.515625 C 8.726562 -1.148438 7.972656 -2.03125 7.515625 -3.15625 C 7.054688 -4.289062 6.828125 -5.597656 6.828125 -7.078125 L 6.828125 -14.375 L 2.125 -14.375 L 2.125 -17.46875 L 7.015625 -17.65625 L 7.546875 -23.1875 L 10.96875 -23.1875 L 10.96875 -17.65625 L 19.015625 -17.65625 L 19.015625 -14.375 L 10.96875 -14.375 L 10.96875 -7.125 C 10.96875 -6.164062 11.097656 -5.367188 11.359375 -4.734375 C 11.617188 -4.097656 12.046875 -3.628906 12.640625 -3.328125 C 13.242188 -3.023438 14.039062 -2.875 15.03125 -2.875 C 15.789062 -2.875 16.484375 -2.929688 17.109375 -3.046875 C 17.734375 -3.171875 18.332031 -3.34375 18.90625 -3.5625 L 19.703125 -0.578125 C 18.910156 -0.316406 18.054688 -0.0820312 17.140625 0.125 C 16.234375 0.332031 15.207031 0.4375 14.0625 0.4375 Z M 14.0625 0.4375 "/></g></g></g><g fill="#000000" fill-opacity="1"><g transform="translate(167.252133, 719.787015)"><g><path d="M 14.375 0.4375 C 12.34375 0.4375 10.789062 -0.164062 9.71875 -1.375 C 8.65625 -2.59375 8.125 -4.28125 8.125 -6.4375 L 8.125 -22.109375 L 2.375 -22.109375 L 2.375 -25.390625 L 12.265625 -25.390625 L 12.265625 -6.21875 C 12.265625 -5.019531 12.566406 -4.175781 13.171875 -3.6875 C 13.785156 -3.195312 14.535156 -2.953125 15.421875 -2.953125 C 15.878906 -2.953125 16.347656 -3.003906 16.828125 -3.109375 C 17.304688 -3.210938 17.84375 -3.382812 18.4375 -3.625 L 19.421875 -0.578125 C 18.578125 -0.285156 17.789062 -0.046875 17.0625 0.140625 C 16.332031 0.335938 15.4375 0.4375 14.375 0.4375 Z M 14.375 0.4375 "/></g></g></g><g fill="#000000" fill-opacity="1"><g transform="translate(188.821748, 719.787015)"><g><path d="M 8.453125 0.4375 C 7.296875 0.4375 6.273438 0.210938 5.390625 -0.234375 C 4.503906 -0.679688 3.804688 -1.285156 3.296875 -2.046875 C 2.796875 -2.816406 2.546875 -3.71875 2.546875 -4.75 C 2.546875 -6.707031 3.488281 -8.207031 5.375 -9.25 C 7.257812 -10.300781 10.378906 -10.984375 14.734375 -11.296875 C 14.691406 -11.941406 14.519531 -12.523438 14.21875 -13.046875 C 13.914062 -13.578125 13.460938 -13.988281 12.859375 -14.28125 C 12.265625 -14.582031 11.488281 -14.734375 10.53125 -14.734375 C 9.863281 -14.734375 9.207031 -14.648438 8.5625 -14.484375 C 7.914062 -14.316406 7.273438 -14.085938 6.640625 -13.796875 C 6.003906 -13.515625 5.375 -13.207031 4.75 -12.875 L 3.234375 -15.640625 C 3.953125 -16.066406 4.742188 -16.46875 5.609375 -16.84375 C 6.472656 -17.21875 7.382812 -17.515625 8.34375 -17.734375 C 9.300781 -17.960938 10.285156 -18.078125 11.296875 -18.078125 C 12.941406 -18.078125 14.320312 -17.785156 15.4375 -17.203125 C 16.550781 -16.617188 17.398438 -15.753906 17.984375 -14.609375 C 18.578125 -13.472656 18.875 -12.09375 18.875 -10.46875 L 18.875 0 L 15.5 0 L 15.171875 -2.1875 L 15.0625 -2.1875 C 14.125 -1.46875 13.085938 -0.847656 11.953125 -0.328125 C 10.816406 0.179688 9.648438 0.4375 8.453125 0.4375 Z M 9.703125 -2.796875 C 10.585938 -2.796875 11.441406 -2.992188 12.265625 -3.390625 C 13.097656 -3.785156 13.921875 -4.3125 14.734375 -4.96875 L 14.734375 -8.703125 C 12.628906 -8.554688 10.976562 -8.320312 9.78125 -8 C 8.582031 -7.675781 7.742188 -7.257812 7.265625 -6.75 C 6.785156 -6.25 6.546875 -5.6875 6.546875 -5.0625 C 6.546875 -4.539062 6.6875 -4.109375 6.96875 -3.765625 C 7.257812 -3.429688 7.640625 -3.1875 8.109375 -3.03125 C 8.578125 -2.875 9.109375 -2.796875 9.703125 -2.796875 Z M 9.703125 -2.796875 "/></g></g></g><g fill="#000000" fill-opacity="1"><g transform="translate(210.391364, 719.787015)"><g><path d="M 11.828125 0.4375 C 10.984375 0.4375 10.113281 0.234375 9.21875 -0.171875 C 8.320312 -0.585938 7.476562 -1.175781 6.6875 -1.9375 L 6.578125 -1.9375 L 6.21875 0 L 2.953125 0 L 2.953125 -25.390625 L 7.125 -25.390625 L 7.125 -18.84375 L 6.9375 -15.75 L 7.046875 -15.75 C 7.785156 -16.46875 8.628906 -17.035156 9.578125 -17.453125 C 10.523438 -17.867188 11.476562 -18.078125 12.4375 -18.078125 C 13.96875 -18.078125 15.265625 -17.707031 16.328125 -16.96875 C 17.398438 -16.226562 18.222656 -15.191406 18.796875 -13.859375 C 19.378906 -12.523438 19.671875 -10.945312 19.671875 -9.125 C 19.671875 -7.113281 19.296875 -5.394531 18.546875 -3.96875 C 17.804688 -2.539062 16.84375 -1.445312 15.65625 -0.6875 C 14.46875 0.0625 13.191406 0.4375 11.828125 0.4375 Z M 11 -2.984375 C 11.8125 -2.984375 12.550781 -3.207031 13.21875 -3.65625 C 13.894531 -4.113281 14.425781 -4.789062 14.8125 -5.6875 C 15.195312 -6.59375 15.390625 -7.71875 15.390625 -9.0625 C 15.390625 -10.238281 15.242188 -11.242188 14.953125 -12.078125 C 14.671875 -12.921875 14.234375 -13.5625 13.640625 -14 C 13.054688 -14.445312 12.273438 -14.671875 11.296875 -14.671875 C 10.617188 -14.671875 9.929688 -14.5 9.234375 -14.15625 C 8.546875 -13.820312 7.84375 -13.285156 7.125 -12.546875 L 7.125 -4.609375 C 7.769531 -4.023438 8.4375 -3.609375 9.125 -3.359375 C 9.820312 -3.109375 10.445312 -2.984375 11 -2.984375 Z M 11 -2.984375 "/></g></g></g><g fill="#000000" fill-opacity="1"><g transform="translate(231.960979, 719.787015)"><g><path d="M 2.796875 -10.359375 L 2.796875 -13.375 L 18.765625 -13.375 L 18.765625 -10.359375 Z M 2.796875 -10.359375 "/></g></g></g><g fill="#000000" fill-opacity="1"><g transform="translate(253.530594, 719.787015)"><g><path d="M 12.375 0.4375 C 10.519531 0.4375 8.851562 0.0703125 7.375 -0.65625 C 5.90625 -1.394531 4.742188 -2.453125 3.890625 -3.828125 C 3.046875 -5.203125 2.625 -6.863281 2.625 -8.8125 C 2.625 -10.769531 3.082031 -12.4375 4 -13.8125 C 4.925781 -15.195312 6.15625 -16.253906 7.6875 -16.984375 C 9.226562 -17.710938 10.882812 -18.078125 12.65625 -18.078125 C 14.09375 -18.078125 15.363281 -17.84375 16.46875 -17.375 C 17.570312 -16.914062 18.484375 -16.328125 19.203125 -15.609375 L 17.21875 -13.015625 C 16.519531 -13.566406 15.816406 -13.984375 15.109375 -14.265625 C 14.410156 -14.554688 13.664062 -14.703125 12.875 -14.703125 C 11.695312 -14.703125 10.65625 -14.457031 9.75 -13.96875 C 8.851562 -13.476562 8.15625 -12.785156 7.65625 -11.890625 C 7.15625 -11.003906 6.90625 -9.976562 6.90625 -8.8125 C 6.90625 -7.632812 7.148438 -6.601562 7.640625 -5.71875 C 8.128906 -4.832031 8.8125 -4.148438 9.6875 -3.671875 C 10.5625 -3.191406 11.585938 -2.953125 12.765625 -2.953125 C 13.765625 -2.953125 14.6875 -3.140625 15.53125 -3.515625 C 16.375 -3.898438 17.128906 -4.359375 17.796875 -4.890625 L 19.515625 -2.234375 C 18.515625 -1.367188 17.390625 -0.707031 16.140625 -0.25 C 14.890625 0.207031 13.632812 0.4375 12.375 0.4375 Z M 12.375 0.4375 "/></g></g></g><g fill="#000000" fill-opacity="1"><g transform="translate(275.100209, 719.787015)"><g><path d="M 10.671875 0 L 10.671875 -14.375 L 3.015625 -14.375 L 3.015625 -17.65625 L 14.8125 -17.65625 L 14.8125 0 Z M 12.4375 -20.890625 C 11.601562 -20.890625 10.90625 -21.140625 10.34375 -21.640625 C 9.78125 -22.148438 9.5 -22.820312 9.5 -23.65625 C 9.5 -24.5 9.78125 -25.175781 10.34375 -25.6875 C 10.90625 -26.207031 11.601562 -26.46875 12.4375 -26.46875 C 13.300781 -26.46875 14.007812 -26.207031 14.5625 -25.6875 C 15.113281 -25.175781 15.390625 -24.5 15.390625 -23.65625 C 15.390625 -22.820312 15.113281 -22.148438 14.5625 -21.640625 C 14.007812 -21.140625 13.300781 -20.890625 12.4375 -20.890625 Z M 12.4375 -20.890625 "/></g></g></g><g fill="#000000" fill-opacity="1"><g transform="translate(296.669825, 719.787015)"><g><path d="M 10.78125 0.4375 C 9.78125 0.4375 8.9375 0.0859375 8.25 -0.609375 C 7.5625 -1.304688 7.21875 -2.171875 7.21875 -3.203125 C 7.21875 -4.253906 7.5625 -5.117188 8.25 -5.796875 C 8.9375 -6.484375 9.78125 -6.828125 10.78125 -6.828125 C 11.8125 -6.828125 12.660156 -6.484375 13.328125 -5.796875 C 14.003906 -5.117188 14.34375 -4.253906 14.34375 -3.203125 C 14.34375 -2.171875 14.003906 -1.304688 13.328125 -0.609375 C 12.660156 0.0859375 11.8125 0.4375 10.78125 0.4375 Z M 10.78125 0.4375 "/></g></g></g><g fill="#000000" fill-opacity="1"><g transform="translate(318.23944, 719.787015)"><g><path d="M 4.921875 7.265625 C 4.472656 7.265625 4.023438 7.226562 3.578125 7.15625 C 3.128906 7.082031 2.738281 7 2.40625 6.90625 L 3.203125 3.671875 C 3.441406 3.742188 3.6875 3.800781 3.9375 3.84375 C 4.1875 3.894531 4.429688 3.921875 4.671875 3.921875 C 5.796875 3.921875 6.691406 3.628906 7.359375 3.046875 C 8.035156 2.472656 8.554688 1.757812 8.921875 0.90625 L 9.34375 -0.21875 L 1.4375 -17.65625 L 5.578125 -17.65625 L 9.203125 -8.984375 C 9.515625 -8.191406 9.835938 -7.351562 10.171875 -6.46875 C 10.503906 -5.582031 10.828125 -4.695312 11.140625 -3.8125 L 11.296875 -3.8125 C 11.578125 -4.644531 11.867188 -5.507812 12.171875 -6.40625 C 12.472656 -7.3125 12.765625 -8.171875 13.046875 -8.984375 L 16.25 -17.65625 L 20.171875 -17.65625 L 12.796875 0.796875 C 12.316406 2.109375 11.726562 3.25 11.03125 4.21875 C 10.34375 5.195312 9.503906 5.945312 8.515625 6.46875 C 7.535156 7 6.335938 7.265625 4.921875 7.265625 Z M 4.921875 7.265625 "/></g></g></g><g fill="#000000" fill-opacity="1"><g transform="translate(339.809055, 719.787015)"><g><path d="M 1.65625 0 L 1.65625 -17.65625 L 4.859375 -17.65625 L 5.171875 -15.421875 L 5.28125 -15.421875 C 5.664062 -16.191406 6.15625 -16.828125 6.75 -17.328125 C 7.351562 -17.828125 8.171875 -18.078125 9.203125 -18.078125 C 10.015625 -18.078125 10.695312 -17.832031 11.25 -17.34375 C 11.800781 -16.851562 12.1875 -16.117188 12.40625 -15.140625 C 12.8125 -16.003906 13.328125 -16.707031 13.953125 -17.25 C 14.578125 -17.800781 15.40625 -18.078125 16.4375 -18.078125 C 17.675781 -18.078125 18.632812 -17.59375 19.3125 -16.625 C 20 -15.65625 20.34375 -14.285156 20.34375 -12.515625 L 20.34375 0 L 16.359375 0 L 16.359375 -12.21875 C 16.359375 -13.78125 15.890625 -14.5625 14.953125 -14.5625 C 14.472656 -14.5625 14.070312 -14.378906 13.75 -14.015625 C 13.425781 -13.660156 13.085938 -13.097656 12.734375 -12.328125 L 12.734375 0 L 9.28125 0 L 9.28125 -12.21875 C 9.28125 -12.988281 9.171875 -13.570312 8.953125 -13.96875 C 8.734375 -14.363281 8.375 -14.5625 7.875 -14.5625 C 7.414062 -14.5625 7.019531 -14.378906 6.6875 -14.015625 C 6.351562 -13.660156 6.019531 -13.097656 5.6875 -12.328125 L 5.6875 0 Z M 1.65625 0 "/></g></g></g><g fill="#000000" fill-opacity="1"><g transform="translate(361.378671, 719.787015)"><g><path d="M 14.375 0.4375 C 12.34375 0.4375 10.789062 -0.164062 9.71875 -1.375 C 8.65625 -2.59375 8.125 -4.28125 8.125 -6.4375 L 8.125 -22.109375 L 2.375 -22.109375 L 2.375 -25.390625 L 12.265625 -25.390625 L 12.265625 -6.21875 C 12.265625 -5.019531 12.566406 -4.175781 13.171875 -3.6875 C 13.785156 -3.195312 14.535156 -2.953125 15.421875 -2.953125 C 15.878906 -2.953125 16.347656 -3.003906 16.828125 -3.109375 C 17.304688 -3.210938 17.84375 -3.382812 18.4375 -3.625 L 19.421875 -0.578125 C 18.578125 -0.285156 17.789062 -0.046875 17.0625 0.140625 C 16.332031 0.335938 15.4375 0.4375 14.375 0.4375 Z M 14.375 0.4375 "/></g></g></g><g clip-path="url(#9c0c9c457a)"><path fill="#000000" d="M 176.714844 479.539062 C 169.066406 479.539062 162.871094 485.730469 162.871094 493.363281 L 162.871094 640.816406 C 162.871094 648.449219 169.066406 654.636719 176.714844 654.636719 L 287.460938 654.636719 C 295.105469 654.636719 301.304688 648.449219 301.304688 640.816406 L 301.304688 538.703125 C 301.304688 534.667969 299.539062 530.835938 296.46875 528.207031 L 243.496094 482.867188 C 240.988281 480.722656 237.792969 479.539062 234.488281 479.539062 Z M 153.640625 493.363281 C 153.640625 480.640625 163.96875 470.324219 176.714844 470.324219 L 234.488281 470.324219 C 239.996094 470.324219 245.320312 472.292969 249.503906 475.871094 L 302.476562 521.210938 C 307.589844 525.589844 310.53125 531.976562 310.53125 538.703125 L 310.53125 640.816406 C 310.53125 653.539062 300.203125 663.855469 287.460938 663.855469 L 176.714844 663.855469 C 163.96875 663.855469 153.640625 653.539062 153.640625 640.816406 Z M 153.640625 493.363281 " fill-opacity="1" fill-rule="evenodd"/></g><path fill="#000000" d="M 236.703125 511.796875 L 236.703125 479.539062 L 245.929688 479.539062 L 245.929688 511.796875 C 245.929688 519.429688 252.128906 525.617188 259.773438 525.617188 L 301.304688 525.617188 L 301.304688 534.835938 L 259.773438 534.835938 C 247.03125 534.835938 236.703125 524.519531 236.703125 511.796875 Z M 236.703125 511.796875 " fill-opacity="1" fill-rule="evenodd"/><g clip-path="url(#beb2728177)"><path fill="#000000" d="M 227.53125 540.617188 L 207.628906 570.480469 L 207.628906 589.414062 L 195.429688 589.414062 L 195.429688 570.480469 L 176.421875 540.617188 L 190.132812 540.617188 L 202.21875 559.847656 L 214.40625 540.617188 Z M 227.53125 540.617188 " fill-opacity="1" fill-rule="nonzero"/></g><g clip-path="url(#732ace99e5)"><path fill="#cb171e" d="M 248.011719 578.675781 L 225.933594 578.675781 L 221.445312 589.527344 L 211.667969 589.527344 L 232.339844 540.730469 L 242.339844 540.730469 L 262.175781 589.527344 L 251.726562 589.527344 Z M 244.34375 568.933594 L 237.578125 551.027344 L 230.027344 568.933594 Z M 244.34375 568.933594 " fill-opacity="1" fill-rule="nonzero"/></g><g clip-path="url(#95ac2ff404)"><path fill="#000000" d="M 195.429688 594.886719 L 195.429688 642.714844 L 205.683594 642.714844 L 205.683594 609.722656 L 216.414062 631.898438 L 224.484375 631.898438 L 235.582031 608.945312 L 235.582031 642.703125 L 245.417969 642.703125 L 245.417969 594.886719 L 231.988281 594.886719 L 220.070312 616.515625 L 208.722656 594.886719 Z M 195.429688 594.886719 " fill-opacity="1" fill-rule="nonzero"/></g><g clip-path="url(#20af16bf24)"><path fill="#000000" d="M 287.398438 632.320312 L 262.175781 632.320312 L 262.175781 594.875 L 251.730469 594.875 L 251.730469 642.496094 L 287.398438 642.496094 Z M 287.398438 632.320312 " fill-opacity="1" fill-rule="nonzero"/></g></svg>