<svg xmlns="http://www.w3.org/2000/svg" xmlns:xlink="http://www.w3.org/1999/xlink" width="1920" zoomAndPan="magnify" viewBox="0 0 1440 809.999993" height="1080" preserveAspectRatio="xMidYMid meet" version="1.0"><metadata><ContainsAiGeneratedContent>Yes</ContainsAiGeneratedContent></metadata><defs><clipPath id="8398d8fca9"><path d="M 0 162 L 217.136719 162 L 217.136719 405 L 0 405 Z M 0 162 " clip-rule="nonzero"/></clipPath><clipPath id="6b640ac02c"><path d="M 0 55 L 298 55 L 298 269 L 0 269 Z M 0 55 " clip-rule="nonzero"/></clipPath><clipPath id="919247df5d"><path d="M -34.011719 55.683594 L 297.4375 187.582031 L 265.304688 268.320312 L -66.140625 136.421875 Z M -34.011719 55.683594 " clip-rule="nonzero"/></clipPath><clipPath id="a78381fb71"><path d="M 0 288 L 290 288 L 290 478 L 0 478 Z M 0 288 " clip-rule="nonzero"/></clipPath><clipPath id="1adae9f084"><path d="M -57.824219 288.542969 L 289.476562 370 L 264.320312 477.265625 L -82.984375 395.808594 Z M -57.824219 288.542969 " clip-rule="nonzero"/></clipPath><clipPath id="615c9f28df"><path d="M 1251.507812 288.539062 L 1440 288.539062 L 1440 445.75 L 1251.507812 445.75 Z M 1251.507812 288.539062 " clip-rule="nonzero"/></clipPath><clipPath id="08991989ac"><path d="M 1157 404 L 1440 404 L 1440 549 L 1157 549 Z M 1157 404 " clip-rule="nonzero"/></clipPath><clipPath id="0e3dee7c5f"><path d="M 1168.671875 404.25 L 1523.699219 439.0625 L 1512.945312 548.710938 L 1157.921875 513.902344 Z M 1168.671875 404.25 " clip-rule="nonzero"/></clipPath><clipPath id="014de01dff"><path d="M 1084 197 L 1440 197 L 1440 345 L 1084 345 Z M 1084 197 " clip-rule="nonzero"/></clipPath><clipPath id="60361d5437"><path d="M 1084.207031 235.039062 L 1438.917969 197.132812 L 1450.625 306.683594 L 1095.914062 344.59375 Z M 1084.207031 235.039062 " clip-rule="nonzero"/></clipPath><clipPath id="9ed0328ffd"><path d="M 1251.507812 616.738281 L 1440 616.738281 L 1440 810 L 1251.507812 810 Z M 1251.507812 616.738281 " clip-rule="nonzero"/></clipPath><clipPath id="481c6f3e91"><path d="M 1066 661 L 1440 661 L 1440 810 L 1066 810 Z M 1066 661 " clip-rule="nonzero"/></clipPath><clipPath id="43859227da"><path d="M 1111.617188 661.816406 L 1454.320312 816.550781 L 1408.980469 916.964844 L 1066.28125 762.230469 Z M 1111.617188 661.816406 " clip-rule="nonzero"/></clipPath><clipPath id="9726ec6f17"><path d="M 1141 479 L 1440 479 L 1440 683 L 1141 683 Z M 1141 479 " clip-rule="nonzero"/></clipPath><clipPath id="13b5472774"><path d="M 1174.617188 479.523438 L 1482.878906 577.3125 L 1449.5625 682.332031 L 1141.300781 584.542969 Z M 1174.617188 479.523438 " clip-rule="nonzero"/></clipPath><clipPath id="4668d7343b"><path d="M 0 540.449219 L 181.5 540.449219 L 181.5 734.847656 L 0 734.847656 Z M 0 540.449219 " clip-rule="nonzero"/></clipPath><clipPath id="d6cceab58e"><path d="M 0 496 L 323 496 L 323 555 L 0 555 Z M 0 496 " clip-rule="nonzero"/></clipPath><clipPath id="c57aed05de"><path d="M -8.320312 501.007812 L 321.769531 496.976562 L 322.421875 550.417969 L -7.667969 554.449219 Z M -8.320312 501.007812 " clip-rule="nonzero"/></clipPath><clipPath id="aa2ea08f02"><path d="M 0 633 L 309 633 L 309 778 L 0 778 Z M 0 633 " clip-rule="nonzero"/></clipPath><clipPath id="ed2328d81e"><path d="M -25.75 689.558594 L 292.695312 633.148438 L 308.265625 721.046875 L -10.175781 777.460938 Z M -25.75 689.558594 " clip-rule="nonzero"/></clipPath></defs><path fill="#f7928c" d="M 691.214844 377.238281 L 665.914062 462.195312 L 729.175781 518.828125 L 742.128906 496.839844 L 762.917969 404.355469 L 691.214844 377.238281 " fill-opacity="1" fill-rule="nonzero"/><path fill="#f4e4bc" d="M 630.667969 485.542969 L 630.667969 810 L 811.039062 810 L 809.542969 730.21875 L 809.539062 729.890625 L 808.109375 653.714844 L 808.042969 650.152344 L 807.597656 626.257812 L 807.070312 598.347656 L 805.394531 508.589844 L 763.371094 477.234375 L 762.875 476.867188 L 748.957031 466.480469 C 748.949219 466.480469 725.460938 480.675781 725.460938 480.675781 L 683.683594 455.269531 L 668.109375 464.164062 L 667.335938 464.605469 L 665.582031 465.601562 L 630.667969 485.542969 " fill-opacity="1" fill-rule="nonzero"/><path fill="#f24f55" d="M 721.710938 513.953125 L 698.105469 705.195312 L 734.28125 761.75 L 765.183594 696.863281 L 739.503906 512.714844 L 721.710938 513.953125 " fill-opacity="1" fill-rule="nonzero"/><path fill="#f24f55" d="M 725.460938 480.675781 L 707.070312 508.601562 L 731.753906 532.863281 L 749.535156 498.351562 L 725.460938 480.675781 " fill-opacity="1" fill-rule="nonzero"/><path fill="#f4e4bc" d="M 658.761719 456.40625 L 674.550781 432.253906 L 725.460938 480.675781 L 707.582031 522.246094 L 658.761719 456.40625 " fill-opacity="1" fill-rule="nonzero"/><path fill="#ccac73" d="M 707.582031 524.003906 C 707.652344 524.003906 707.722656 524 707.789062 523.992188 C 708.414062 523.921875 708.953125 523.519531 709.203125 522.941406 L 713.074219 513.941406 C 713.453125 513.050781 713.039062 512.015625 712.148438 511.628906 C 711.257812 511.246094 710.222656 511.65625 709.839844 512.550781 L 707.179688 518.738281 L 659.332031 454.21875 C 658.753906 453.4375 657.648438 453.273438 656.867188 453.855469 C 656.085938 454.429688 655.925781 455.535156 656.503906 456.316406 L 706.171875 523.292969 C 706.503906 523.742188 707.03125 524.003906 707.582031 524.003906 " fill-opacity="1" fill-rule="nonzero"/><path fill="#16223c" d="M 579.671875 810 L 687.410156 810 C 687.320312 781.15625 686.980469 740.695312 685.949219 697.160156 C 685.949219 697.058594 685.949219 696.957031 685.949219 696.855469 C 685.585938 681.539062 685.136719 665.847656 684.585938 650.152344 C 684.453125 646.386719 684.316406 642.628906 684.171875 638.867188 C 683.640625 625.007812 683.027344 611.21875 682.3125 597.742188 C 679.515625 545.039062 675.226562 497.257812 668.660156 469.753906 C 668.230469 467.949219 667.789062 466.230469 667.335938 464.605469 C 667.191406 464.085938 667.050781 463.582031 666.90625 463.082031 C 666.695312 462.367188 666.484375 461.667969 666.269531 460.992188 C 665 456.960938 663.65625 453.636719 662.230469 451.097656 C 662.109375 450.878906 661.984375 450.664062 661.859375 450.453125 C 656.3125 454.738281 636.371094 459.554688 620.992188 463.34375 C 613.800781 465.121094 607.671875 466.65625 604.414062 467.820312 C 604.066406 467.941406 603.753906 468.066406 603.46875 468.179688 C 603.46875 468.179688 596.679688 559.492188 590.261719 650.152344 C 588.855469 669.972656 587.46875 689.757812 586.175781 708.558594 C 583.238281 751.234375 580.777344 788.796875 579.671875 810 " fill-opacity="1" fill-rule="nonzero"/><path fill="#f4e4bc" d="M 752.171875 516.21875 L 725.460938 480.675781 L 754.160156 443.3125 L 768.039062 460.988281 L 752.171875 516.21875 " fill-opacity="1" fill-rule="nonzero"/><path fill="#ccac73" d="M 752.171875 517.984375 C 752.277344 517.984375 752.382812 517.96875 752.492188 517.949219 C 753.148438 517.832031 753.679688 517.347656 753.863281 516.707031 L 768.914062 464.308594 C 769.183594 463.375 768.644531 462.398438 767.707031 462.128906 C 766.773438 461.863281 765.800781 462.402344 765.53125 463.335938 L 751.457031 512.335938 L 747.140625 506.589844 C 746.554688 505.8125 745.449219 505.65625 744.671875 506.242188 C 743.894531 506.820312 743.738281 507.929688 744.320312 508.703125 L 750.761719 517.28125 C 751.097656 517.726562 751.621094 517.984375 752.171875 517.984375 " fill-opacity="1" fill-rule="nonzero"/><path fill="#16223c" d="M 762.421875 453.839844 C 762.421875 453.839844 762.5625 462.742188 762.875 476.867188 C 762.894531 477.5 762.90625 478.140625 762.921875 478.796875 C 763.605469 508.472656 765.050781 559.074219 767.671875 599.5625 C 767.789062 601.410156 767.914062 603.238281 768.035156 605.039062 C 768.601562 613.273438 769.148438 621.789062 769.664062 630.496094 C 769.964844 635.601562 770.265625 640.777344 770.550781 645.992188 C 770.628906 647.375 770.707031 648.761719 770.78125 650.152344 C 772.144531 675.246094 773.324219 701.246094 774.378906 726.003906 C 774.378906 726.054688 774.386719 726.109375 774.386719 726.160156 C 775.71875 757.609375 776.84375 787.03125 777.84375 810 L 867.117188 810 L 859.003906 730.007812 L 850.910156 650.152344 L 850.488281 645.992188 L 848.660156 627.988281 L 848.019531 621.6875 L 846.699219 608.65625 L 831.761719 475.523438 C 830.292969 474.933594 828.789062 474.425781 827.261719 473.996094 C 825.742188 473.71875 817.214844 471.5 806.773438 468.570312 C 789.65625 463.773438 767.394531 457.0625 762.421875 453.839844 " fill-opacity="1" fill-rule="nonzero"/><path fill="#f7928c" d="M 732.8125 705.199219 L 684.625 696.617188 C 684.625 696.617188 655.707031 682.679688 650.425781 670.449219 C 661.726562 639.542969 666.835938 631.558594 666.835938 631.558594 L 741.425781 663.019531 L 732.8125 705.199219 " fill-opacity="1" fill-rule="nonzero"/><path fill="#f7928c" d="M 728.007812 607.46875 L 783.761719 596.355469 C 787.609375 595.585938 791.574219 595.550781 795.4375 596.246094 L 833.53125 603.117188 L 856.632812 632.726562 L 842.277344 663.707031 L 800.144531 651.382812 L 781.152344 643.742188 L 736.152344 653.292969 L 728.007812 607.46875 " fill-opacity="1" fill-rule="nonzero"/><path fill="#16223c" d="M 806.773438 468.570312 L 836.710938 476.234375 C 875.003906 486.035156 885.332031 488.988281 899.386719 525.929688 L 934.679688 651.878906 C 944.207031 685.871094 922.21875 720.632812 887.421875 726.617188 C 852.203125 732.675781 801.492188 733.9375 733.9375 718.21875 C 731.070312 717.554688 728.847656 715.265625 728.292969 712.375 C 723.898438 689.613281 723.25 665.867188 725.617188 641.335938 C 725.953125 637.84375 728.710938 635.070312 732.199219 634.683594 L 837.96875 622.863281 L 806.773438 468.570312 " fill-opacity="1" fill-rule="nonzero"/><path fill="#4761a7" d="M 833.667969 732.851562 C 842.414062 732.851562 850.902344 732.484375 859.160156 731.761719 C 860.128906 731.675781 860.84375 730.820312 860.757812 729.851562 C 860.675781 728.882812 859.820312 728.167969 858.855469 728.253906 C 822.683594 731.429688 781.953125 727.585938 734.332031 716.507812 C 732.136719 715.996094 730.445312 714.25 730.023438 712.054688 C 725.835938 690.382812 724.945312 666.640625 727.367188 641.503906 C 727.621094 638.859375 729.738281 636.730469 732.394531 636.429688 L 838.167969 624.613281 C 838.65625 624.554688 839.097656 624.296875 839.394531 623.902344 C 839.683594 623.5 839.792969 622.996094 839.695312 622.511719 L 826.128906 555.414062 C 825.933594 554.460938 825.003906 553.84375 824.054688 554.035156 C 823.097656 554.230469 822.480469 555.15625 822.671875 556.109375 L 835.863281 621.328125 L 732.003906 632.933594 C 727.699219 633.410156 724.273438 636.875 723.863281 641.167969 C 721.40625 666.640625 722.320312 690.71875 726.566406 712.722656 C 727.25 716.277344 729.984375 719.109375 733.53125 719.933594 C 770.675781 728.578125 803.695312 732.851562 833.667969 732.851562 " fill-opacity="1" fill-rule="nonzero"/><path fill="#16223c" d="M 620.996094 463.34375 L 609.058594 466.457031 C 583.121094 473.230469 562.234375 492.460938 553.425781 517.773438 C 540.609375 554.625 524.941406 611.726562 525.320312 669.867188 C 525.4375 687.851562 538.558594 703.105469 556.292969 706.113281 C 621.65625 717.21875 730.292969 687.675781 762.484375 678.222656 C 767.953125 676.617188 771.441406 671.28125 770.726562 665.628906 C 768.542969 648.402344 762.171875 612.855469 745.566406 595.335938 C 743.082031 592.714844 739.496094 591.433594 735.910156 591.832031 L 628.457031 603.6875 L 620.996094 463.34375 " fill-opacity="1" fill-rule="nonzero"/><path fill="#4761a7" d="M 593.742188 710.300781 C 621.148438 709.867188 654.292969 705.617188 692.292969 697.65625 C 723.417969 691.136719 749.9375 683.742188 762.976562 679.914062 C 769.3125 678.054688 773.304688 671.953125 772.472656 665.402344 C 771.363281 656.632812 769.199219 643.386719 765.242188 630.089844 C 760.472656 614.070312 754.28125 601.96875 746.84375 594.125 C 744.011719 591.136719 739.847656 589.625 735.71875 590.082031 L 630.117188 601.730469 L 627.808594 558.320312 C 627.757812 557.34375 626.925781 556.609375 625.957031 556.65625 C 624.984375 556.703125 624.242188 557.535156 624.292969 558.503906 L 626.703125 603.777344 C 626.726562 604.265625 626.953125 604.714844 627.320312 605.03125 C 627.6875 605.339844 628.171875 605.488281 628.65625 605.433594 L 736.101562 593.582031 C 739.148438 593.242188 742.210938 594.355469 744.289062 596.550781 C 760.859375 614.03125 767.074219 650.835938 768.980469 665.847656 C 769.589844 670.671875 766.648438 675.164062 761.988281 676.535156 C 732.128906 685.300781 655.964844 705.796875 593.714844 706.777344 C 592.742188 706.792969 591.96875 707.597656 591.984375 708.566406 C 591.996094 709.53125 592.78125 710.300781 593.742188 710.300781 " fill-opacity="1" fill-rule="nonzero"/><path fill="#4761a7" d="M 842.210938 636.75 C 842.40625 636.75 842.601562 636.722656 842.792969 636.652344 C 843.707031 636.332031 844.191406 635.328125 843.871094 634.410156 L 841.03125 626.28125 L 855.34375 633.148438 C 856.21875 633.5625 857.269531 633.195312 857.691406 632.320312 C 858.113281 631.441406 857.742188 630.386719 856.863281 629.96875 L 838.730469 621.273438 C 838.089844 620.96875 837.324219 621.074219 836.796875 621.546875 C 836.261719 622.023438 836.070312 622.769531 836.308594 623.441406 L 840.546875 635.574219 C 840.800781 636.296875 841.484375 636.75 842.210938 636.75 " fill-opacity="1" fill-rule="nonzero"/><path fill="#4761a7" d="M 611.09375 628.1875 C 611.929688 628.1875 612.675781 627.585938 612.824219 626.730469 C 612.855469 626.574219 615.566406 612.226562 629.261719 605.253906 C 630.023438 604.863281 630.394531 603.976562 630.140625 603.160156 C 629.882812 602.339844 629.070312 601.824219 628.21875 601.941406 L 612.589844 604.082031 C 611.628906 604.210938 610.953125 605.097656 611.085938 606.058594 C 611.214844 607.027344 612.101562 607.699219 613.066406 607.566406 L 621.097656 606.46875 C 611.488281 614.601562 609.457031 625.574219 609.355469 626.121094 C 609.1875 627.078125 609.832031 627.992188 610.789062 628.160156 C 610.890625 628.179688 610.992188 628.1875 611.09375 628.1875 " fill-opacity="1" fill-rule="nonzero"/><path fill="#f7928c" d="M 801.320312 371.867188 C 789.546875 418.769531 765.25 455.527344 732.558594 451.082031 C 699.867188 446.640625 678.648438 404.195312 685.160156 356.28125 C 691.675781 308.363281 708.996094 269.445312 760.035156 278.308594 C 811.070312 287.164062 813.484375 323.410156 801.320312 371.867188 " fill-opacity="1" fill-rule="nonzero"/><path fill="#f36165" d="M 739.925781 453.46875 C 744.140625 453.46875 747.332031 452.597656 752.191406 450.535156 C 753.082031 450.15625 753.503906 449.125 753.125 448.230469 C 752.742188 447.332031 751.710938 446.914062 750.816406 447.296875 C 744.058594 450.15625 741.199219 450.484375 732.796875 449.339844 C 716.285156 447.09375 701.980469 434.382812 693.554688 414.460938 C 693.171875 413.566406 692.140625 413.144531 691.246094 413.527344 C 690.347656 413.90625 689.933594 414.9375 690.308594 415.832031 C 699.234375 436.929688 714.546875 450.414062 732.320312 452.832031 C 735.363281 453.242188 737.78125 453.46875 739.925781 453.46875 " fill-opacity="1" fill-rule="nonzero"/><path fill="#8f4f4a" d="M 798.539062 345.359375 C 796.273438 345.324219 794.039062 345.136719 791.984375 344.917969 C 781.09375 343.742188 770.558594 339.414062 761.925781 332.683594 C 759.652344 330.914062 757.484375 328.96875 754.960938 327.574219 C 747.660156 323.546875 738.710938 324.679688 730.464844 325.921875 C 724.246094 326.863281 717.390625 328.164062 713.574219 333.164062 C 710.945312 336.609375 710.328125 341.152344 710.085938 345.480469 C 709.917969 348.476562 709.878906 351.503906 709.160156 354.410156 C 708.433594 357.320312 706.933594 360.164062 704.433594 361.816406 C 700.988281 364.097656 698.042969 362.734375 694.773438 361.128906 C 692.726562 371.882812 690.679688 382.640625 688.632812 393.394531 C 687.570312 398.945312 686.105469 405.125 681.328125 408.140625 C 675.90625 411.566406 667.589844 408.375 665.847656 402.207031 C 665.207031 399.9375 665.359375 397.53125 665.511719 395.175781 C 666.722656 376.929688 667.933594 358.683594 669.144531 340.433594 C 670.375 321.941406 671.757812 302.863281 680.207031 286.371094 C 693.445312 260.539062 724.515625 245.175781 753.078125 250.335938 C 779.773438 255.15625 800.933594 275.121094 819.027344 295.332031 C 822.550781 299.269531 826.136719 303.460938 827.429688 308.582031 C 830.074219 319.03125 822.847656 326.425781 818.0625 334.695312 C 816.066406 338.140625 812.140625 342.929688 808.183594 344.199219 C 805.246094 345.136719 801.863281 345.40625 798.539062 345.359375 " fill-opacity="1" fill-rule="nonzero"/><path fill="#f7928c" d="M 702.289062 361.054688 C 701.683594 371.972656 695.707031 380.519531 688.941406 380.144531 C 682.175781 379.765625 677.183594 370.613281 677.789062 359.691406 C 678.394531 348.777344 684.371094 340.234375 691.136719 340.609375 C 697.902344 340.980469 702.894531 350.136719 702.289062 361.054688 " fill-opacity="1" fill-rule="nonzero"/><path fill="#16223c" d="M 746.164062 364.425781 C 746.117188 366.714844 747.929688 368.605469 750.214844 368.65625 C 752.5 368.707031 754.394531 366.894531 754.445312 364.605469 C 754.496094 362.320312 752.683594 360.425781 750.394531 360.378906 C 748.109375 360.328125 746.214844 362.140625 746.164062 364.425781 " fill-opacity="1" fill-rule="nonzero"/><path fill="#16223c" d="M 779.253906 370.230469 C 779.203125 372.519531 781.015625 374.414062 783.300781 374.460938 C 785.589844 374.515625 787.484375 372.699219 787.535156 370.414062 C 787.585938 368.125 785.773438 366.230469 783.488281 366.179688 C 781.199219 366.132812 779.304688 367.945312 779.253906 370.230469 " fill-opacity="1" fill-rule="nonzero"/><path fill="#8f4f4a" d="M 785.699219 354.28125 C 788.269531 354.882812 792.65625 356.835938 797.132812 363.105469 C 797.699219 363.894531 797.519531 364.996094 796.726562 365.558594 C 795.9375 366.125 794.835938 365.945312 794.269531 365.152344 C 790.351562 359.671875 786.714844 358.136719 784.910156 357.707031 C 784.175781 357.539062 783.65625 356.910156 783.589844 356.164062 C 783.480469 354.984375 784.546875 354.015625 785.699219 354.28125 " fill-opacity="1" fill-rule="nonzero"/><path fill="#8f4f4a" d="M 741.378906 353.460938 C 747.761719 349.25 752.527344 348.96875 755.15625 349.320312 C 756.355469 349.480469 757.046875 350.753906 756.511719 351.84375 C 756.175781 352.527344 755.4375 352.902344 754.683594 352.804688 C 752.824219 352.5625 748.898438 352.71875 743.316406 356.398438 C 743.019531 356.597656 742.679688 356.691406 742.347656 356.691406 C 741.777344 356.691406 741.214844 356.414062 740.875 355.894531 C 740.339844 355.085938 740.566406 353.996094 741.378906 353.460938 " fill-opacity="1" fill-rule="nonzero"/><path fill="#f36165" d="M 768.769531 402.03125 C 771.144531 402.03125 773.242188 400.464844 773.691406 398.1875 C 773.773438 397.777344 773.800781 397.351562 773.765625 396.925781 C 773.761719 396.871094 773.753906 396.8125 773.742188 396.761719 C 772.003906 387.03125 770.386719 376.84375 771.382812 368.558594 C 771.5 367.59375 770.808594 366.714844 769.84375 366.597656 C 768.878906 366.480469 768.003906 367.171875 767.886719 368.136719 C 766.835938 376.871094 768.476562 387.320312 770.261719 397.277344 C 770.261719 397.355469 770.257812 397.425781 770.238281 397.503906 C 770.101562 398.199219 769.253906 398.644531 768.390625 398.46875 L 759.332031 396.675781 C 758.375 396.488281 757.453125 397.109375 757.265625 398.0625 C 757.070312 399.015625 757.695312 399.9375 758.644531 400.132812 L 767.707031 401.925781 C 768.0625 401.996094 768.425781 402.03125 768.769531 402.03125 " fill-opacity="1" fill-rule="nonzero"/><path fill="#f36165" d="M 768.035156 419.914062 C 768.636719 419.914062 769.222656 419.609375 769.550781 419.054688 C 770.046875 418.21875 769.773438 417.136719 768.9375 416.644531 C 768.515625 416.394531 758.453125 410.539062 746.3125 413.167969 C 745.363281 413.375 744.757812 414.3125 744.96875 415.257812 C 745.171875 416.214844 746.109375 416.8125 747.058594 416.609375 C 757.863281 414.269531 767.050781 419.617188 767.140625 419.667969 C 767.421875 419.835938 767.730469 419.914062 768.035156 419.914062 " fill-opacity="1" fill-rule="nonzero"/><path fill="#f7928c" d="M 965.199219 26.175781 L 890.421875 136.664062 L 873.933594 155.40625 C 869.90625 159.980469 866.320312 164.921875 863.21875 170.164062 L 833.851562 219.828125 C 831.722656 223.433594 832.886719 228.078125 836.464844 230.246094 C 839.828125 232.285156 844.191406 231.4375 846.542969 228.285156 L 874.582031 190.714844 L 919.519531 198.578125 C 919.519531 198.578125 943.671875 174.09375 953.421875 142.796875 L 1027.574219 72.292969 L 965.199219 26.175781 " fill-opacity="1" fill-rule="nonzero"/><path fill="#f7928c" d="M 915.339844 166.261719 C 915.390625 166.261719 915.4375 166.261719 915.488281 166.261719 C 918.332031 166.230469 920.738281 168.355469 921.054688 171.175781 L 922.816406 186.757812 L 923.941406 193.6875 L 923.636719 195.261719 C 922.84375 199.410156 919.378906 202.519531 915.167969 202.855469 L 911.371094 203.164062 C 908.644531 203.382812 906.398438 201.050781 906.71875 198.335938 L 909.90625 171.15625 C 910.230469 168.390625 912.558594 166.296875 915.339844 166.261719 " fill-opacity="1" fill-rule="nonzero"/><path fill="#f36165" d="M 906.6875 200.492188 C 907.636719 200.492188 908.421875 199.734375 908.445312 198.777344 C 908.445312 198.699219 908.457031 198.617188 908.464844 198.539062 L 911.652344 171.359375 C 911.875 169.480469 913.472656 168.046875 915.363281 168.027344 L 915.507812 168.019531 C 917.480469 168.019531 919.09375 169.457031 919.308594 171.378906 L 921.0625 186.953125 C 921.074219 187.039062 922.050781 193.03125 922.050781 193.03125 C 922.207031 193.992188 923.109375 194.640625 924.066406 194.484375 C 925.027344 194.332031 925.679688 193.425781 925.523438 192.464844 L 924.558594 186.515625 L 922.808594 170.980469 C 922.386719 167.246094 919.238281 164.453125 915.46875 164.5 L 915.320312 164.503906 C 911.664062 164.542969 908.585938 167.316406 908.15625 170.949219 L 904.964844 198.125 C 904.945312 198.316406 904.933594 198.5 904.925781 198.683594 C 904.902344 199.65625 905.667969 200.460938 906.640625 200.492188 C 906.65625 200.492188 906.671875 200.492188 906.6875 200.492188 " fill-opacity="1" fill-rule="nonzero"/><path fill="#f7928c" d="M 897.640625 204.96875 C 901.988281 205.714844 906.179688 202.980469 907.238281 198.691406 L 914.4375 169.59375 C 915.429688 165.570312 912.96875 161.503906 908.941406 160.53125 C 905.117188 159.601562 901.230469 161.796875 900.042969 165.546875 L 891.027344 194.136719 C 889.496094 199.007812 892.609375 204.109375 897.640625 204.96875 " fill-opacity="1" fill-rule="nonzero"/><path fill="#f36165" d="M 906.488281 202.398438 C 907.117188 202.398438 907.726562 202.0625 908.042969 201.464844 C 908.4375 200.726562 908.742188 199.933594 908.941406 199.117188 L 916.144531 170.015625 C 916.742188 167.613281 916.359375 165.121094 915.074219 163.007812 C 913.792969 160.886719 911.761719 159.402344 909.355469 158.816406 C 904.652344 157.675781 899.824219 160.402344 898.367188 165.015625 L 889.351562 193.605469 C 889.121094 194.339844 888.96875 195.089844 888.910156 195.84375 C 888.828125 196.8125 889.550781 197.664062 890.515625 197.742188 C 891.488281 197.824219 892.335938 197.105469 892.417969 196.136719 C 892.460938 195.640625 892.558594 195.148438 892.710938 194.667969 L 901.726562 166.074219 C 902.628906 163.21875 905.613281 161.535156 908.523438 162.242188 C 910.015625 162.601562 911.269531 163.519531 912.0625 164.832031 C 912.859375 166.140625 913.09375 167.683594 912.726562 169.167969 L 905.527344 198.269531 C 905.390625 198.804688 905.195312 199.324219 904.9375 199.808594 C 904.480469 200.667969 904.800781 201.734375 905.660156 202.191406 C 905.925781 202.332031 906.210938 202.398438 906.488281 202.398438 " fill-opacity="1" fill-rule="nonzero"/><path fill="#f7928c" d="M 886.746094 174.035156 L 882.613281 180.023438 C 879.222656 184.941406 876.796875 190.5625 875.476562 196.550781 L 874.894531 199.199219 C 873.894531 203.722656 876.300781 208.378906 880.421875 209.894531 C 884.335938 211.335938 888.585938 209.492188 890.421875 205.550781 L 894.296875 197.230469 C 894.816406 196.113281 895.257812 194.953125 895.621094 193.761719 L 899.40625 181.285156 C 900.464844 177.800781 899.101562 173.953125 896.132812 172.066406 C 892.949219 170.042969 888.914062 170.894531 886.746094 174.035156 " fill-opacity="1" fill-rule="nonzero"/><path fill="#f36165" d="M 892.714844 202.386719 C 893.375 202.386719 894.011719 202.011719 894.308594 201.371094 L 895.894531 197.976562 C 896.445312 196.785156 896.917969 195.539062 897.308594 194.273438 L 901.09375 181.796875 C 902.367188 177.589844 900.683594 172.871094 897.078125 170.578125 C 893.078125 168.039062 888.011719 169.09375 885.292969 173.039062 L 881.164062 179.027344 C 878.851562 182.375 876.96875 186.050781 875.5625 189.949219 C 875.230469 190.863281 875.699219 191.871094 876.617188 192.203125 C 877.527344 192.535156 878.539062 192.058594 878.871094 191.148438 C 880.179688 187.53125 881.925781 184.128906 884.066406 181.027344 L 888.195312 175.039062 C 889.8125 172.6875 892.820312 172.046875 895.1875 173.550781 C 897.484375 175.011719 898.550781 178.050781 897.726562 180.773438 L 893.9375 193.25 C 893.597656 194.359375 893.183594 195.449219 892.695312 196.488281 L 891.117188 199.882812 C 890.710938 200.765625 891.089844 201.8125 891.972656 202.222656 C 892.210938 202.335938 892.464844 202.386719 892.714844 202.386719 " fill-opacity="1" fill-rule="nonzero"/><path fill="#f7928c" d="M 889.65625 137.535156 L 872.285156 173.179688 C 870.1875 177.488281 872.117188 182.675781 876.519531 184.566406 C 880.242188 186.164062 884.570312 184.878906 886.8125 181.503906 L 901.625 159.257812 C 901.625 159.257812 918.746094 157.703125 930.71875 141.90625 L 889.65625 137.535156 " fill-opacity="1" fill-rule="nonzero"/><path fill="#f36165" d="M 879.824219 187.007812 C 883.136719 187.007812 886.34375 185.382812 888.28125 182.484375 L 902.644531 160.902344 C 904.230469 160.664062 907.855469 159.976562 912.351562 158.136719 C 917.824219 155.894531 925.699219 151.449219 932.121094 142.96875 C 932.707031 142.195312 932.554688 141.089844 931.78125 140.503906 C 931.003906 139.917969 929.898438 140.070312 929.316406 140.84375 C 923.40625 148.644531 916.171875 152.75 911.140625 154.828125 C 905.644531 157.097656 901.503906 157.503906 901.460938 157.507812 C 900.933594 157.558594 900.449219 157.84375 900.15625 158.285156 L 885.347656 180.53125 C 883.574219 183.195312 880.152344 184.210938 877.214844 182.949219 C 875.53125 182.226562 874.25 180.882812 873.613281 179.164062 C 872.976562 177.453125 873.066406 175.597656 873.867188 173.953125 L 886.878906 147.253906 C 887.304688 146.375 886.941406 145.320312 886.066406 144.898438 C 885.195312 144.46875 884.140625 144.835938 883.714844 145.710938 L 870.707031 172.410156 C 869.472656 174.929688 869.335938 177.765625 870.3125 180.394531 C 871.289062 183.023438 873.25 185.078125 875.820312 186.1875 C 877.121094 186.742188 878.480469 187.007812 879.824219 187.007812 " fill-opacity="1" fill-rule="nonzero"/><path fill="#f4e4bc" d="M 922.023438 78.152344 L 927.132812 82.425781 L 974.886719 122.386719 L 981.824219 128.1875 L 1007.699219 100.160156 L 1088.144531 13.019531 L 1071.386719 0 L 972.90625 0 L 942.679688 46.425781 L 922.023438 78.152344 " fill-opacity="1" fill-rule="nonzero"/><path fill="#16223c" d="M 939.191406 43.542969 L 942.679688 46.425781 L 948.332031 51.101562 L 1002.648438 95.992188 L 1007.699219 100.160156 L 1011.820312 103.574219 L 1105.761719 0 L 965.550781 0 L 939.191406 43.542969 " fill-opacity="1" fill-rule="nonzero"/><path fill="#f7928c" d="M 251.285156 557.394531 L 384.632812 553.011719 L 409.277344 549.050781 C 415.292969 548.085938 421.386719 547.683594 427.476562 547.855469 L 485.152344 549.484375 C 489.332031 549.601562 492.640625 553.058594 492.570312 557.242188 C 492.503906 561.175781 489.460938 564.414062 485.539062 564.726562 L 438.804688 568.425781 L 421.507812 610.632812 C 421.507812 610.632812 387.914062 618.019531 356.238281 609.589844 L 257.0625 634.75 L 251.285156 557.394531 " fill-opacity="1" fill-rule="nonzero"/><path fill="#f7928c" d="M 396.394531 589.878906 C 396.367188 589.917969 396.339844 589.957031 396.3125 590.003906 C 394.769531 592.386719 395.285156 595.554688 397.503906 597.332031 L 409.75 607.121094 L 415.015625 611.765625 L 416.507812 612.351562 C 420.441406 613.894531 424.914062 612.617188 427.445312 609.238281 L 429.730469 606.1875 C 431.367188 603.992188 430.59375 600.851562 428.125 599.667969 L 403.425781 587.882812 C 400.914062 586.6875 397.90625 587.539062 396.394531 589.878906 " fill-opacity="1" fill-rule="nonzero"/><path fill="#f36165" d="M 414.296875 612.898438 C 414.785156 612.898438 415.273438 612.695312 415.621094 612.300781 C 416.261719 611.574219 416.195312 610.460938 415.464844 609.820312 L 410.914062 605.804688 C 410.847656 605.75 398.601562 595.957031 398.601562 595.957031 C 397.085938 594.738281 396.734375 592.59375 397.792969 590.957031 L 397.871094 590.835938 C 398.898438 589.242188 400.960938 588.65625 402.671875 589.476562 L 427.367188 601.261719 C 427.4375 601.292969 427.507812 601.335938 427.578125 601.371094 C 428.414062 601.871094 429.492188 601.59375 429.988281 600.757812 C 430.488281 599.925781 430.210938 598.839844 429.375 598.34375 C 429.214844 598.25 429.050781 598.164062 428.882812 598.082031 L 404.1875 586.296875 C 400.886719 584.722656 396.898438 585.851562 394.914062 588.917969 L 394.832031 589.046875 C 392.792969 592.203125 393.46875 596.355469 396.402344 598.710938 L 408.617188 608.46875 L 413.136719 612.457031 C 413.46875 612.753906 413.886719 612.898438 414.296875 612.898438 " fill-opacity="1" fill-rule="nonzero"/><path fill="#f7928c" d="M 438.578125 595.53125 C 436.890625 599.609375 432.34375 601.691406 428.152344 600.304688 L 399.691406 590.882812 C 395.757812 589.582031 393.632812 585.332031 394.953125 581.40625 C 396.203125 577.671875 400.132812 575.554688 403.9375 576.554688 L 432.9375 584.164062 C 437.875 585.457031 440.53125 590.8125 438.578125 595.53125 " fill-opacity="1" fill-rule="nonzero"/><path fill="#f36165" d="M 430.199219 602.472656 C 431.113281 602.472656 431.886719 601.765625 431.949219 600.835938 C 432.019531 599.867188 431.292969 599.023438 430.320312 598.953125 C 429.777344 598.914062 429.230469 598.808594 428.703125 598.632812 L 400.246094 589.214844 C 398.789062 588.730469 397.613281 587.710938 396.925781 586.34375 C 396.242188 584.972656 396.132812 583.417969 396.621094 581.964844 C 397.574219 579.125 400.59375 577.492188 403.492188 578.253906 L 432.488281 585.867188 C 432.976562 585.992188 433.445312 586.175781 433.882812 586.402344 C 434.75 586.855469 435.808594 586.519531 436.257812 585.65625 C 436.707031 584.789062 436.371094 583.726562 435.507812 583.277344 C 434.839844 582.929688 434.121094 582.65625 433.382812 582.460938 L 404.386719 574.851562 C 399.699219 573.617188 394.824219 576.253906 393.285156 580.84375 C 392.496094 583.191406 392.671875 585.703125 393.777344 587.917969 C 394.882812 590.128906 396.789062 591.777344 399.136719 592.554688 L 427.597656 601.972656 C 428.402344 602.238281 429.230469 602.40625 430.066406 602.464844 C 430.109375 602.46875 430.152344 602.472656 430.199219 602.472656 " fill-opacity="1" fill-rule="nonzero"/><path fill="#f7928c" d="M 418.214844 569.820312 L 425.480469 569.523438 C 431.449219 569.273438 437.5 570.214844 443.269531 572.292969 L 445.816406 573.210938 C 450.179688 574.777344 452.835938 579.292969 451.925781 583.585938 C 451.058594 587.667969 447.226562 590.28125 442.914062 589.734375 L 433.8125 588.574219 C 432.589844 588.417969 431.371094 588.179688 430.171875 587.847656 L 417.59375 584.402344 C 414.082031 583.441406 411.554688 580.230469 411.539062 576.714844 C 411.527344 572.949219 414.394531 569.980469 418.214844 569.820312 " fill-opacity="1" fill-rule="nonzero"/><path fill="#f36165" d="M 437.53125 590.808594 C 438.402344 590.808594 439.164062 590.160156 439.273438 589.273438 C 439.398438 588.304688 438.714844 587.425781 437.75 587.304688 L 434.035156 586.828125 C 432.894531 586.6875 431.753906 586.457031 430.636719 586.148438 L 418.058594 582.707031 C 415.316406 581.953125 413.3125 579.433594 413.300781 576.707031 C 413.289062 573.90625 415.433594 571.699219 418.285156 571.582031 L 425.554688 571.28125 C 429.320312 571.121094 433.132812 571.464844 436.886719 572.28125 C 437.835938 572.492188 438.777344 571.886719 438.984375 570.9375 C 439.191406 569.988281 438.589844 569.050781 437.636719 568.839844 C 433.589844 567.957031 429.472656 567.59375 425.40625 567.761719 L 418.140625 568.0625 C 413.355469 568.265625 409.761719 571.988281 409.78125 576.722656 C 409.796875 580.996094 412.890625 584.9375 417.128906 586.101562 L 429.707031 589.542969 C 430.980469 589.894531 432.289062 590.160156 433.589844 590.324219 L 437.304688 590.796875 C 437.382812 590.804688 437.457031 590.808594 437.53125 590.808594 " fill-opacity="1" fill-rule="nonzero"/><path fill="#f7928c" d="M 385.78125 552.828125 L 425.195312 557.132812 C 429.960938 557.652344 433.320312 562.050781 432.570312 566.78125 C 431.941406 570.785156 428.542969 573.761719 424.496094 573.863281 L 397.78125 574.535156 C 397.78125 574.535156 387.335938 588.199219 367.589844 589.90625 L 385.78125 552.828125 " fill-opacity="1" fill-rule="nonzero"/><path fill="#f36165" d="M 367.585938 591.664062 C 367.636719 591.664062 367.691406 591.664062 367.742188 591.660156 C 378.335938 590.742188 386.300781 586.453125 391.113281 583.011719 C 395.0625 580.1875 397.582031 577.492188 398.628906 576.273438 L 424.539062 575.621094 C 429.4375 575.5 433.546875 571.894531 434.3125 567.0625 C 434.75 564.289062 434.050781 561.539062 432.351562 559.308594 C 430.644531 557.085938 428.175781 555.6875 425.386719 555.382812 L 395.859375 552.15625 C 394.894531 552.050781 394.023438 552.753906 393.917969 553.71875 C 393.8125 554.6875 394.511719 555.554688 395.476562 555.660156 L 425.003906 558.882812 C 426.824219 559.082031 428.441406 559.992188 429.550781 561.449219 C 430.664062 562.90625 431.121094 564.699219 430.832031 566.507812 C 430.335938 569.671875 427.648438 572.023438 424.453125 572.101562 L 397.734375 572.777344 C 397.203125 572.789062 396.703125 573.042969 396.378906 573.46875 C 396.355469 573.496094 393.800781 576.785156 388.957031 580.226562 C 384.519531 583.375 377.183594 587.308594 367.4375 588.148438 C 366.46875 588.230469 365.75 589.085938 365.835938 590.054688 C 365.914062 590.972656 366.683594 591.664062 367.585938 591.664062 " fill-opacity="1" fill-rule="nonzero"/><path fill="#f4e4bc" d="M 180 550.632812 L 180 653.40625 L 328.742188 625.832031 L 327.527344 616.871094 L 319.171875 555.164062 L 318.277344 548.570312 L 180 550.632812 " fill-opacity="1" fill-rule="nonzero"/><path fill="#f7928c" d="M 587.503906 279.527344 L 564.746094 235.789062 L 551.296875 205.433594 C 550.511719 203.65625 549.496094 201.992188 548.277344 200.476562 L 522.746094 168.6875 L 520.292969 165.515625 L 439.023438 24.71875 L 373.460938 63.003906 C 373.460938 63.003906 453.019531 158.082031 492.101562 195.160156 L 505.863281 244.082031 C 506.453125 246.179688 507.933594 247.910156 509.914062 248.8125 C 512.136719 249.828125 515.261719 250.800781 518.550781 250.382812 C 520.089844 256.359375 533.683594 255.769531 533.683594 255.769531 C 533.683594 255.769531 537.71875 260.742188 545.554688 259.832031 C 548.101562 259.53125 550.386719 258.105469 551.832031 255.980469 L 554.621094 251.890625 L 579.097656 284.796875 C 580.898438 287.21875 584.429688 287.492188 586.582031 285.371094 C 588.140625 283.835938 588.515625 281.46875 587.503906 279.527344 " fill-opacity="1" fill-rule="nonzero"/><path fill="#f7d859" d="M 297.128906 0 L 438.839844 148.664062 L 444.394531 144.886719 L 490.359375 113.65625 L 495.429688 110.214844 L 431.582031 0 L 297.128906 0 " fill-opacity="1" fill-rule="nonzero"/><path fill="#f7928c" d="M 988.136719 372.128906 L 1029.148438 372.417969 L 1027.492188 377.085938 C 1026.636719 379.511719 1026.835938 382.199219 1028.101562 384.429688 C 1031.996094 391.289062 1038.390625 391.605469 1038.390625 391.605469 C 1038.390625 391.605469 1045.949219 402.921875 1051.683594 400.625 C 1053.289062 403.527344 1055.925781 405.472656 1058.054688 406.664062 C 1059.953125 407.726562 1062.226562 407.902344 1064.265625 407.136719 L 1111.859375 389.320312 C 1129.390625 392.5 1154.644531 395.496094 1180.609375 398.085938 C 1209.40625 400.960938 1239.070312 403.335938 1260 404.890625 L 1260 333.65625 L 1178.632812 342.546875 L 1119.105469 349.058594 L 1115.101562 348.953125 L 1074.367188 347.144531 C 1072.425781 347.0625 1070.480469 347.230469 1068.582031 347.644531 L 1036.148438 354.738281 L 987.417969 362.234375 C 985.253906 362.566406 983.570312 364.265625 983.25 366.429688 C 982.8125 369.421875 985.113281 372.109375 988.136719 372.128906 " fill-opacity="1" fill-rule="nonzero"/><path fill="#e9e9e7" d="M 1178.410156 336.425781 L 1178.632812 342.546875 L 1180.609375 398.085938 L 1180.84375 404.792969 L 1260 413.164062 L 1260 327.019531 L 1178.410156 336.425781 " fill-opacity="1" fill-rule="nonzero"/><path fill="#f7928c" d="M 1096.03125 570.539062 L 1093.515625 562.160156 L 1055.878906 543.746094 L 1004.265625 521.453125 C 1000.492188 519.824219 996.253906 522.46875 996.066406 526.578125 C 995.875 530.722656 998.78125 535.585938 1002.519531 537.382812 L 1042.636719 556.679688 L 1038.191406 603.59375 C 1038.191406 603.59375 1050.617188 629.574219 1089.53125 634.941406 C 1120.980469 651.640625 1144.382812 661.554688 1144.382812 661.554688 L 1148.359375 605.316406 L 1112.964844 589.699219 C 1104.792969 586.09375 1098.605469 579.09375 1096.03125 570.539062 " fill-opacity="1" fill-rule="nonzero"/><path fill="#f7928c" d="M 1057.097656 591.066406 L 1037.347656 590.042969 C 1033.9375 589.867188 1031.167969 592.777344 1031.507812 596.175781 L 1031.871094 599.804688 C 1032.214844 603.21875 1034.277344 606.222656 1037.339844 607.773438 L 1046.597656 612.460938 L 1045.546875 605.925781 L 1056.992188 605.503906 C 1060.875 605.359375 1063.949219 602.175781 1063.949219 598.289062 C 1063.957031 594.441406 1060.945312 591.265625 1057.097656 591.066406 " fill-opacity="1" fill-rule="nonzero"/><path fill="#f36165" d="M 1045.847656 609.625 C 1045.941406 609.625 1046.039062 609.617188 1046.136719 609.597656 C 1047.082031 609.449219 1047.730469 608.574219 1047.621094 607.632812 L 1057.058594 607.28125 C 1061.917969 607.105469 1065.726562 603.152344 1065.730469 598.289062 C 1065.734375 593.492188 1061.984375 589.542969 1057.191406 589.289062 L 1037.441406 588.269531 C 1037.03125 588.25 1036.617188 588.261719 1036.207031 588.304688 C 1035.226562 588.417969 1034.53125 589.304688 1034.644531 590.277344 C 1034.753906 591.253906 1035.636719 591.953125 1036.617188 591.839844 C 1036.824219 591.820312 1037.039062 591.8125 1037.257812 591.824219 L 1057.007812 592.847656 C 1059.90625 592.992188 1062.175781 595.386719 1062.171875 598.289062 C 1062.171875 601.230469 1059.867188 603.617188 1056.929688 603.730469 L 1045.480469 604.148438 C 1044.96875 604.167969 1044.492188 604.402344 1044.167969 604.800781 C 1043.84375 605.191406 1043.707031 605.703125 1043.789062 606.210938 L 1044.097656 608.125 C 1044.238281 608.996094 1044.992188 609.625 1045.847656 609.625 " fill-opacity="1" fill-rule="nonzero"/><path fill="#f7928c" d="M 1086.21875 601.019531 C 1065.917969 602.648438 1055.578125 568.769531 1063.714844 549.800781 L 1055.199219 519.226562 C 1053.855469 514.40625 1057.910156 509.632812 1062.847656 510.460938 C 1063.65625 510.59375 1064.46875 510.847656 1065.234375 511.230469 C 1066.820312 512.007812 1067.992188 513.429688 1068.578125 515.09375 L 1075.605469 535.121094 L 1087.039062 549.921875 C 1090.964844 554.996094 1093.726562 560.867188 1095.136719 567.132812 L 1098.628906 582.648438 L 1086.21875 601.019531 " fill-opacity="1" fill-rule="nonzero"/><path fill="#f36165" d="M 1084.835938 602.851562 C 1085.222656 602.851562 1085.613281 602.839844 1086.003906 602.816406 C 1086.984375 602.753906 1087.730469 601.910156 1087.671875 600.929688 C 1087.609375 599.953125 1086.765625 599.199219 1085.785156 599.265625 C 1081.375 599.539062 1077.300781 597.96875 1073.679688 594.59375 C 1067.113281 588.46875 1062.804688 576.941406 1062.710938 565.214844 C 1062.703125 564.238281 1061.90625 563.453125 1060.933594 563.453125 C 1059.933594 563.460938 1059.144531 564.261719 1059.152344 565.246094 C 1059.253906 577.898438 1064.007812 590.4375 1071.253906 597.195312 C 1075.242188 600.910156 1079.914062 602.851562 1084.835938 602.851562 " fill-opacity="1" fill-rule="nonzero"/><path fill="#f7928c" d="M 1026.273438 577.074219 L 1026.367188 582.933594 C 1026.429688 586.863281 1028.691406 590.429688 1032.222656 592.15625 C 1034.683594 593.363281 1037.398438 593.984375 1040.140625 593.96875 L 1060.320312 593.839844 C 1064.683594 593.8125 1068.1875 590.238281 1068.117188 585.875 C 1068.054688 581.640625 1064.644531 578.226562 1060.414062 578.148438 L 1042.113281 577.824219 L 1030.488281 570.523438 L 1027.695312 573.441406 C 1026.761719 574.421875 1026.253906 575.726562 1026.273438 577.074219 " fill-opacity="1" fill-rule="nonzero"/><path fill="#f36165" d="M 1040.035156 595.746094 C 1040.070312 595.746094 1040.113281 595.746094 1040.15625 595.742188 L 1060.332031 595.621094 C 1062.921875 595.605469 1065.34375 594.578125 1067.148438 592.726562 C 1068.960938 590.878906 1069.9375 588.4375 1069.894531 585.851562 C 1069.816406 580.625 1065.664062 576.460938 1060.441406 576.371094 L 1042.640625 576.058594 L 1032.027344 569.382812 C 1031.191406 568.863281 1030.09375 569.117188 1029.570312 569.945312 C 1029.046875 570.78125 1029.296875 571.878906 1030.132812 572.398438 L 1041.167969 579.332031 C 1041.441406 579.507812 1041.757812 579.601562 1042.085938 579.605469 L 1060.378906 579.929688 C 1063.671875 579.988281 1066.289062 582.609375 1066.339844 585.90625 C 1066.367188 587.53125 1065.746094 589.074219 1064.609375 590.238281 C 1063.46875 591.402344 1061.941406 592.050781 1060.3125 592.0625 L 1040.128906 592.1875 C 1037.675781 592.195312 1035.210938 591.640625 1033.003906 590.558594 C 1032.757812 590.4375 1032.515625 590.304688 1032.285156 590.164062 C 1031.445312 589.648438 1030.347656 589.914062 1029.835938 590.75 C 1029.320312 591.585938 1029.585938 592.683594 1030.421875 593.195312 C 1030.75 593.398438 1031.09375 593.585938 1031.4375 593.753906 C 1034.101562 595.054688 1037.070312 595.746094 1040.035156 595.746094 " fill-opacity="1" fill-rule="nonzero"/><path fill="#f7928c" d="M 1040.859375 556.433594 L 1029.660156 556.648438 C 1027.511719 556.691406 1025.699219 558.257812 1025.339844 560.375 L 1024.441406 565.792969 C 1023.773438 569.777344 1026.050781 573.667969 1029.855469 575.039062 L 1038.992188 578.332031 C 1039.988281 578.886719 1041.097656 579.199219 1042.238281 579.234375 L 1056.910156 579.761719 C 1060.671875 579.894531 1063.835938 576.96875 1064 573.210938 L 1064.007812 573.039062 C 1064.175781 569.285156 1061.421875 566.078125 1057.71875 565.683594 C 1053.359375 565.207031 1048.433594 564.675781 1048.433594 564.675781 L 1040.859375 556.433594 " fill-opacity="1" fill-rule="nonzero"/><path fill="#f36165" d="M 1057.15625 581.542969 C 1061.738281 581.542969 1065.574219 577.902344 1065.777344 573.289062 L 1065.789062 573.121094 C 1065.992188 568.457031 1062.53125 564.410156 1057.914062 563.910156 C 1054.519531 563.546875 1050.777344 563.136719 1049.289062 562.980469 L 1042.171875 555.230469 C 1041.503906 554.507812 1040.378906 554.457031 1039.65625 555.121094 C 1038.929688 555.785156 1038.886719 556.910156 1039.550781 557.636719 L 1047.121094 565.878906 C 1047.417969 566.199219 1047.8125 566.398438 1048.242188 566.445312 C 1048.242188 566.445312 1053.167969 566.980469 1057.527344 567.449219 C 1060.289062 567.746094 1062.355469 570.171875 1062.234375 572.960938 L 1062.226562 573.132812 C 1062.101562 575.90625 1059.746094 578.085938 1056.972656 577.980469 L 1042.296875 577.460938 C 1041.449219 577.425781 1040.605469 577.195312 1039.863281 576.777344 C 1039.777344 576.730469 1039.6875 576.6875 1039.597656 576.65625 L 1030.457031 573.363281 C 1029.539062 573.03125 1028.722656 572.515625 1028.039062 571.832031 C 1027.34375 571.136719 1026.21875 571.136719 1025.519531 571.832031 C 1024.824219 572.527344 1024.824219 573.652344 1025.519531 574.347656 C 1026.582031 575.40625 1027.835938 576.199219 1029.25 576.710938 L 1038.261719 579.957031 C 1039.457031 580.601562 1040.808594 580.964844 1042.171875 581.015625 L 1056.84375 581.539062 C 1056.945312 581.542969 1057.050781 581.542969 1057.15625 581.542969 " fill-opacity="1" fill-rule="nonzero"/><path fill="#f4e4bc" d="M 1114.863281 584.992188 L 1093.925781 649.441406 L 1191.089844 690.230469 L 1214.007812 614.828125 L 1114.863281 584.992188 " fill-opacity="1" fill-rule="nonzero"/><path fill="#f24f55" d="M 1128.550781 669.179688 L 1258.742188 729.421875 L 1260 725.890625 L 1260 619.117188 L 1153.476562 588.992188 L 1151.3125 595.960938 L 1149.347656 602.269531 L 1131.054688 661.128906 L 1129.984375 664.582031 L 1128.550781 669.179688 " fill-opacity="1" fill-rule="nonzero"/><path fill="#f7928c" d="M 377.238281 315.8125 L 384.289062 310.632812 L 425.429688 318.554688 L 480.078125 331.78125 C 484.070312 332.75 485.863281 337.414062 483.546875 340.804688 C 481.207031 344.234375 475.960938 346.375 471.890625 345.558594 L 428.234375 336.851562 L 403.574219 377.007812 C 403.574219 377.007812 378.023438 390.296875 343.703125 371.183594 C 308.535156 365.613281 283.875 359.460938 283.875 359.460938 L 314.515625 312.136719 L 352.1875 320.945312 C 360.886719 322.976562 370.039062 321.105469 377.238281 315.8125 " fill-opacity="1" fill-rule="nonzero"/><path fill="#f7928c" d="M 395.996094 355.632812 L 412.394531 366.691406 C 415.230469 368.605469 415.695312 372.59375 413.375 375.105469 L 410.902344 377.78125 C 408.574219 380.308594 405.121094 381.46875 401.738281 380.863281 L 391.527344 379.042969 L 396.296875 374.453125 L 387.402344 367.230469 C 384.386719 364.78125 383.847656 360.386719 386.183594 357.28125 C 388.492188 354.203125 392.808594 353.480469 395.996094 355.632812 " fill-opacity="1" fill-rule="nonzero"/><path fill="#f36165" d="M 394.898438 377.574219 C 395.339844 377.574219 395.785156 377.410156 396.132812 377.078125 L 397.527344 375.734375 C 397.898438 375.382812 398.09375 374.886719 398.074219 374.378906 C 398.050781 373.867188 397.8125 373.394531 397.417969 373.070312 L 388.523438 365.851562 C 386.242188 363.992188 385.835938 360.699219 387.605469 358.347656 C 389.347656 356.027344 392.597656 355.484375 395.003906 357.109375 L 411.398438 368.164062 C 411.578125 368.289062 411.746094 368.421875 411.898438 368.566406 C 412.609375 369.246094 413.738281 369.21875 414.414062 368.503906 C 415.09375 367.792969 415.0625 366.667969 414.351562 365.988281 C 414.058594 365.707031 413.734375 365.449219 413.390625 365.214844 L 396.992188 354.15625 C 393.015625 351.476562 387.640625 352.375 384.757812 356.210938 C 381.835938 360.097656 382.507812 365.546875 386.28125 368.613281 L 393.613281 374.566406 C 392.957031 375.25 392.949219 376.339844 393.617188 377.03125 C 393.964844 377.394531 394.429688 377.574219 394.898438 377.574219 " fill-opacity="1" fill-rule="nonzero"/><path fill="#f7928c" d="M 366.75 346.070312 C 381.988281 359.578125 410.625 338.730469 415.527344 318.6875 L 440.71875 299.375 C 444.691406 296.328125 444.320312 290.082031 439.882812 287.773438 C 439.152344 287.390625 438.351562 287.109375 437.511719 286.949219 C 435.777344 286.617188 433.984375 287.046875 432.515625 288.027344 L 414.855469 299.804688 L 396.820312 304.75 C 390.632812 306.445312 384.890625 309.476562 380.003906 313.628906 L 367.882812 323.925781 L 366.75 346.070312 " fill-opacity="1" fill-rule="nonzero"/><path fill="#f36165" d="M 378.492188 352.148438 C 379.3125 352.148438 380.152344 352.105469 381.003906 352.015625 C 390.859375 350.976562 402.195312 343.8125 409.886719 333.765625 C 410.484375 332.988281 410.335938 331.871094 409.554688 331.273438 C 408.777344 330.675781 407.660156 330.824219 407.0625 331.605469 C 399.9375 340.910156 389.558594 347.535156 380.628906 348.476562 C 375.710938 348.996094 371.511719 347.804688 368.152344 344.933594 C 367.402344 344.292969 366.28125 344.382812 365.640625 345.128906 C 365.003906 345.875 365.09375 347 365.839844 347.636719 C 369.320312 350.613281 373.65625 352.148438 378.492188 352.148438 " fill-opacity="1" fill-rule="nonzero"/><path fill="#f7928c" d="M 429.042969 362.988281 L 425.445312 367.613281 C 423.03125 370.71875 419.082031 372.203125 415.222656 371.460938 C 412.527344 370.941406 409.988281 369.808594 407.804688 368.144531 L 391.757812 355.910156 C 388.289062 353.265625 387.640625 348.300781 390.316406 344.855469 C 392.914062 341.511719 397.695312 340.832031 401.121094 343.316406 L 415.933594 354.0625 L 429.617188 355.21875 L 430.089844 359.234375 C 430.25 360.570312 429.871094 361.921875 429.042969 362.988281 " fill-opacity="1" fill-rule="nonzero"/><path fill="#f36165" d="M 416.207031 373.382812 C 417.109375 373.382812 417.886719 372.695312 417.972656 371.769531 C 418.066406 370.792969 417.347656 369.925781 416.371094 369.832031 C 416.101562 369.804688 415.828125 369.765625 415.558594 369.714844 C 413.144531 369.25 410.835938 368.21875 408.882812 366.730469 L 392.835938 354.492188 C 391.539062 353.503906 390.707031 352.074219 390.496094 350.453125 C 390.285156 348.835938 390.722656 347.238281 391.722656 345.945312 C 393.742188 343.351562 397.410156 342.828125 400.078125 344.757812 L 414.890625 355.503906 C 415.152344 355.691406 415.460938 355.808594 415.785156 355.835938 L 428.773438 356.933594 C 429.75 357.011719 430.613281 356.289062 430.695312 355.3125 C 430.777344 354.332031 430.050781 353.46875 429.074219 353.390625 L 416.578125 352.328125 L 402.164062 341.878906 C 397.9375 338.8125 392.117188 339.640625 388.914062 343.765625 C 387.324219 345.808594 386.636719 348.347656 386.96875 350.914062 C 387.304688 353.480469 388.621094 355.753906 390.679688 357.324219 L 406.726562 369.5625 C 409.113281 371.382812 411.9375 372.640625 414.886719 373.210938 C 415.265625 373.28125 415.652344 373.335938 416.035156 373.375 C 416.089844 373.382812 416.148438 373.382812 416.207031 373.382812 " fill-opacity="1" fill-rule="nonzero"/><path fill="#f7928c" d="M 429.800781 337.726562 L 438.621094 344.628906 C 440.3125 345.957031 440.820312 348.300781 439.828125 350.207031 L 437.292969 355.074219 C 435.429688 358.65625 431.269531 360.394531 427.40625 359.207031 L 418.125 356.34375 C 416.996094 356.191406 415.921875 355.769531 414.988281 355.113281 L 402.953125 346.710938 C 399.867188 344.558594 399.09375 340.3125 401.222656 337.214844 L 401.320312 337.070312 C 403.445312 333.972656 407.570312 333.070312 410.769531 334.976562 C 414.539062 337.222656 418.796875 339.753906 418.796875 339.753906 L 429.800781 337.726562 " fill-opacity="1" fill-rule="nonzero"/><path fill="#f36165" d="M 429.863281 361.363281 C 430.335938 361.363281 430.808594 361.324219 431.28125 361.257812 C 432.257812 361.125 432.933594 360.226562 432.796875 359.253906 C 432.660156 358.277344 431.757812 357.597656 430.785156 357.738281 C 429.828125 357.875 428.863281 357.792969 427.929688 357.507812 L 418.648438 354.640625 C 418.554688 354.613281 418.460938 354.59375 418.363281 354.578125 C 417.519531 354.464844 416.707031 354.148438 416.007812 353.660156 L 403.96875 345.253906 C 401.695312 343.664062 401.121094 340.507812 402.6875 338.222656 L 402.785156 338.078125 C 404.367188 335.773438 407.472656 335.082031 409.859375 336.5 C 413.628906 338.75 417.882812 341.285156 417.882812 341.285156 C 418.253906 341.503906 418.691406 341.582031 419.117188 341.503906 L 430.125 339.476562 C 431.09375 339.296875 431.730469 338.367188 431.550781 337.402344 C 431.375 336.4375 430.449219 335.792969 429.480469 335.972656 L 419.128906 337.886719 C 417.84375 337.121094 414.613281 335.191406 411.679688 333.445312 C 407.6875 331.066406 402.492188 332.21875 399.851562 336.0625 L 399.753906 336.207031 C 397.085938 340.101562 398.0625 345.464844 401.933594 348.167969 L 413.972656 356.574219 C 415.085938 357.355469 416.382812 357.875 417.734375 358.082031 L 426.882812 360.90625 C 427.859375 361.210938 428.859375 361.363281 429.863281 361.363281 " fill-opacity="1" fill-rule="nonzero"/><path fill="#16223c" d="M 353.003906 311.960938 L 329.996094 375.699219 L 228.242188 348.304688 L 256.402344 274.691406 L 353.003906 311.960938 " fill-opacity="1" fill-rule="nonzero"/><path fill="#6173a7" d="M 180 232.589844 L 180 344.5 L 290.542969 370.042969 L 292.238281 365.53125 L 293.507812 362.152344 L 315.167969 304.445312 L 317.488281 298.257812 L 320.054688 291.429688 L 180 232.589844 " fill-opacity="1" fill-rule="nonzero"/><g clip-path="url(#8398d8fca9)"><path fill="#6173a7" d="M -25.863281 162 L 217.136719 162 L 217.136719 405 L -25.863281 405 Z M -25.863281 162 " fill-opacity="1" fill-rule="nonzero"/></g><g clip-path="url(#6b640ac02c)"><g clip-path="url(#919247df5d)"><path fill="#ffffff" d="M -34.011719 55.683594 L 297.460938 187.59375 L 265.332031 268.332031 L -66.140625 136.421875 Z M -34.011719 55.683594 " fill-opacity="1" fill-rule="nonzero"/></g></g><g clip-path="url(#a78381fb71)"><g clip-path="url(#1adae9f084)"><path fill="#ffffff" d="M -57.824219 288.542969 L 289.53125 370.011719 L 264.371094 477.277344 L -82.984375 395.808594 Z M -57.824219 288.542969 " fill-opacity="1" fill-rule="nonzero"/></g></g><g clip-path="url(#615c9f28df)"><path fill="#e9e9e7" d="M 1251.507812 288.539062 L 1447.40625 288.539062 L 1447.40625 445.75 L 1251.507812 445.75 Z M 1251.507812 288.539062 " fill-opacity="1" fill-rule="nonzero"/></g><g clip-path="url(#08991989ac)"><g clip-path="url(#0e3dee7c5f)"><path fill="#ffffff" d="M 1168.671875 404.25 L 1523.753906 439.066406 L 1513 548.71875 L 1157.921875 513.902344 Z M 1168.671875 404.25 " fill-opacity="1" fill-rule="nonzero"/></g></g><g clip-path="url(#014de01dff)"><g clip-path="url(#60361d5437)"><path fill="#ffffff" d="M 1084.207031 235.039062 L 1438.96875 197.125 L 1450.679688 306.679688 L 1095.914062 344.59375 Z M 1084.207031 235.039062 " fill-opacity="1" fill-rule="nonzero"/></g></g><g clip-path="url(#9ed0328ffd)"><path fill="#f24f55" d="M 1251.507812 616.738281 L 1447.03125 616.738281 L 1447.03125 810 L 1251.507812 810 Z M 1251.507812 616.738281 " fill-opacity="1" fill-rule="nonzero"/></g><g clip-path="url(#481c6f3e91)"><g clip-path="url(#43859227da)"><path fill="#ffffff" d="M 1111.617188 661.816406 L 1454.441406 816.605469 L 1409.105469 917.019531 L 1066.28125 762.230469 Z M 1111.617188 661.816406 " fill-opacity="1" fill-rule="nonzero"/></g></g><g clip-path="url(#9726ec6f17)"><g clip-path="url(#13b5472774)"><path fill="#ffffff" d="M 1174.617188 479.523438 L 1482.699219 577.253906 L 1449.386719 682.273438 L 1141.300781 584.542969 Z M 1174.617188 479.523438 " fill-opacity="1" fill-rule="nonzero"/></g></g><g clip-path="url(#4668d7343b)"><path fill="#f4e4bc" d="M -14.269531 540.449219 L 181.648438 540.449219 L 181.648438 734.847656 L -14.269531 734.847656 Z M -14.269531 540.449219 " fill-opacity="1" fill-rule="nonzero"/></g><g clip-path="url(#d6cceab58e)"><g clip-path="url(#c57aed05de)"><path fill="#ffffff" d="M -8.320312 501.007812 L 321.726562 496.976562 L 322.378906 550.417969 L -7.667969 554.449219 Z M -8.320312 501.007812 " fill-opacity="1" fill-rule="nonzero"/></g></g><g clip-path="url(#aa2ea08f02)"><g clip-path="url(#ed2328d81e)"><path fill="#ffffff" d="M -25.75 689.558594 L 292.542969 633.175781 L 308.117188 721.074219 L -10.175781 777.460938 Z M -25.75 689.558594 " fill-opacity="1" fill-rule="nonzero"/></g></g></svg>