<svg xmlns="http://www.w3.org/2000/svg" xmlns:xlink="http://www.w3.org/1999/xlink" width="1920" zoomAndPan="magnify" viewBox="0 0 1440 809.999993" height="1080" preserveAspectRatio="xMidYMid meet" version="1.0"><metadata><ContainsAiGeneratedContent>Yes</ContainsAiGeneratedContent></metadata><defs><clipPath id="f98c216fbb"><path d="M 81 160.847656 L 1359 160.847656 L 1359 753.664062 L 81 753.664062 Z M 81 160.847656 " clip-rule="nonzero"/></clipPath><clipPath id="8d59c8af68"><path d="M 1336.496094 160.847656 L 103.503906 160.847656 C 97.539062 160.847656 91.816406 163.21875 87.59375 167.4375 C 83.375 171.65625 81.003906 177.378906 81.003906 183.347656 L 81.003906 629.933594 C 81.003906 635.902344 83.375 641.625 87.59375 645.84375 C 91.816406 650.066406 97.539062 652.433594 103.503906 652.433594 L 151.554688 652.433594 C 157.523438 652.433594 163.246094 654.804688 167.464844 659.023438 C 171.683594 663.246094 174.054688 668.96875 174.054688 674.933594 L 174.054688 740.996094 C 174.054688 745.550781 176.519531 749.753906 180.496094 751.980469 C 184.476562 754.203125 189.34375 754.105469 193.230469 751.71875 L 335.730469 664.210938 C 348.265625 656.511719 362.691406 652.433594 377.402344 652.433594 L 1336.496094 652.433594 C 1342.460938 652.433594 1348.183594 650.066406 1352.40625 645.84375 C 1356.625 641.625 1358.996094 635.902344 1358.996094 629.933594 L 1358.996094 183.347656 C 1358.996094 177.378906 1356.625 171.65625 1352.40625 167.4375 C 1348.183594 163.21875 1342.460938 160.847656 1336.496094 160.847656 Z M 1336.496094 160.847656 " clip-rule="nonzero"/></clipPath></defs><g clip-path="url(#f98c216fbb)"><g clip-path="url(#8d59c8af68)"><path stroke-linecap="butt" transform="matrix(0.75, 0, 0, 0.75, 81.005436, 160.846418)" fill="none" stroke-linejoin="miter" d="M 1673.987628 0.00165059 L 29.997962 0.00165059 C 22.044837 0.00165059 14.414628 3.163109 8.784419 8.788109 C 3.159419 14.41311 -0.00203933 22.043318 -0.00203933 30.001652 L -0.00203933 625.449599 C -0.00203933 633.407932 3.159419 641.038141 8.784419 646.663141 C 14.414628 652.29335 22.044837 655.4496 29.997962 655.4496 L 94.065674 655.4496 C 102.024007 655.4496 109.654216 658.611059 115.279216 664.236059 C 120.904217 669.866268 124.065675 677.496476 124.065675 685.449602 L 124.065675 773.53294 C 124.065675 779.605856 127.352134 785.210023 132.654217 788.178774 C 137.961509 791.142315 144.451093 791.012107 149.633385 787.829815 L 339.633394 671.152726 C 356.346937 660.887101 375.581313 655.4496 395.195897 655.4496 L 1673.987628 655.4496 C 1681.940754 655.4496 1689.570962 652.29335 1695.201171 646.663141 C 1700.826171 641.038141 1703.98763 633.407932 1703.98763 625.449599 L 1703.98763 30.001652 C 1703.98763 22.043318 1700.826171 14.41311 1695.201171 8.788109 C 1689.570962 3.163109 1681.940754 0.00165059 1673.987628 0.00165059 Z M 1673.987628 0.00165059 " stroke="#000000" stroke-width="30" stroke-opacity="1" stroke-miterlimit="4"/></g></g></svg>