<svg xmlns="http://www.w3.org/2000/svg" xmlns:xlink="http://www.w3.org/1999/xlink" width="1920" zoomAndPan="magnify" viewBox="0 0 1440 809.999993" height="1080" preserveAspectRatio="xMidYMid meet" version="1.0"><metadata><ContainsAiGeneratedContent>Yes</ContainsAiGeneratedContent></metadata><defs><clipPath id="1f35ce5712"><path d="M 314.398438 351.371094 L 464.664062 351.371094 L 464.664062 501.636719 L 314.398438 501.636719 Z M 314.398438 351.371094 " clip-rule="nonzero"/></clipPath><clipPath id="96f97decb9"><path d="M 389.53125 351.371094 C 348.035156 351.371094 314.398438 385.007812 314.398438 426.503906 C 314.398438 468 348.035156 501.636719 389.53125 501.636719 C 431.027344 501.636719 464.664062 468 464.664062 426.503906 C 464.664062 385.007812 431.027344 351.371094 389.53125 351.371094 Z M 389.53125 351.371094 " clip-rule="nonzero"/></clipPath><clipPath id="04e620c5fc"><path d="M 534.710938 351.371094 L 684.976562 351.371094 L 684.976562 501.636719 L 534.710938 501.636719 Z M 534.710938 351.371094 " clip-rule="nonzero"/></clipPath><clipPath id="5777fd3974"><path d="M 609.84375 351.371094 C 568.347656 351.371094 534.710938 385.007812 534.710938 426.503906 C 534.710938 468 568.347656 501.636719 609.84375 501.636719 C 651.339844 501.636719 684.976562 468 684.976562 426.503906 C 684.976562 385.007812 651.339844 351.371094 609.84375 351.371094 Z M 609.84375 351.371094 " clip-rule="nonzero"/></clipPath><clipPath id="edd38d5498"><path d="M 755.023438 351.371094 L 905.289062 351.371094 L 905.289062 501.636719 L 755.023438 501.636719 Z M 755.023438 351.371094 " clip-rule="nonzero"/></clipPath><clipPath id="78a1d6a016"><path d="M 830.15625 351.371094 C 788.660156 351.371094 755.023438 385.007812 755.023438 426.503906 C 755.023438 468 788.660156 501.636719 830.15625 501.636719 C 871.652344 501.636719 905.289062 468 905.289062 426.503906 C 905.289062 385.007812 871.652344 351.371094 830.15625 351.371094 Z M 830.15625 351.371094 " clip-rule="nonzero"/></clipPath><clipPath id="de20743525"><path d="M 975.335938 351.371094 L 1125.601562 351.371094 L 1125.601562 501.636719 L 975.335938 501.636719 Z M 975.335938 351.371094 " clip-rule="nonzero"/></clipPath><clipPath id="91189ecbdc"><path d="M 1050.46875 351.371094 C 1008.972656 351.371094 975.335938 385.007812 975.335938 426.503906 C 975.335938 468 1008.972656 501.636719 1050.46875 501.636719 C 1091.964844 501.636719 1125.601562 468 1125.601562 426.503906 C 1125.601562 385.007812 1091.964844 351.371094 1050.46875 351.371094 Z M 1050.46875 351.371094 " clip-rule="nonzero"/></clipPath><clipPath id="2b73ccf94a"><path d="M 342.804688 378.0625 L 400 378.0625 L 400 435 L 342.804688 435 Z M 342.804688 378.0625 " clip-rule="nonzero"/></clipPath><clipPath id="a8548f7052"><path d="M 363.644531 434 L 407.636719 434 L 407.636719 477.371094 L 363.644531 477.371094 Z M 363.644531 434 " clip-rule="nonzero"/></clipPath><clipPath id="aea879c8c7"><path d="M 395.289062 401.34375 L 440.710938 401.34375 L 440.710938 446.882812 L 395.289062 446.882812 Z M 395.289062 401.34375 " clip-rule="nonzero"/></clipPath></defs><g clip-path="url(#1f35ce5712)"><g clip-path="url(#96f97decb9)"><path fill="#108548" d="M 314.398438 351.371094 L 464.664062 351.371094 L 464.664062 501.636719 L 314.398438 501.636719 Z M 314.398438 351.371094 " fill-opacity="1" fill-rule="nonzero"/></g></g><g clip-path="url(#04e620c5fc)"><g clip-path="url(#5777fd3974)"><path fill="#a6a6a6" d="M 534.710938 351.371094 L 684.976562 351.371094 L 684.976562 501.636719 L 534.710938 501.636719 Z M 534.710938 351.371094 " fill-opacity="1" fill-rule="nonzero"/></g></g><g clip-path="url(#edd38d5498)"><g clip-path="url(#78a1d6a016)"><path fill="#a6a6a6" d="M 755.023438 351.371094 L 905.289062 351.371094 L 905.289062 501.636719 L 755.023438 501.636719 Z M 755.023438 351.371094 " fill-opacity="1" fill-rule="nonzero"/></g></g><g clip-path="url(#de20743525)"><g clip-path="url(#91189ecbdc)"><path fill="#a6a6a6" d="M 975.335938 351.371094 L 1125.601562 351.371094 L 1125.601562 501.636719 L 975.335938 501.636719 Z M 975.335938 351.371094 " fill-opacity="1" fill-rule="nonzero"/></g></g><path stroke-linecap="butt" transform="matrix(0.75, 0, 0, 0.75, 464.664127, 421.628207)" fill="none" stroke-linejoin="miter" d="M -0.0000857941 6.500933 L 86.895752 6.500933 " stroke="#545454" stroke-width="13" stroke-opacity="1" stroke-miterlimit="4"/><path stroke-linecap="round" transform="matrix(0.75, 0, 0, 0.75, 464.664127, 421.628207)" fill="none" stroke-linejoin="round" d="M 60.895751 -12.999068 L 86.895752 6.500933 L 60.895751 26.000934 " stroke="#545454" stroke-width="13" stroke-opacity="1" stroke-miterlimit="4"/><path stroke-linecap="butt" transform="matrix(0.75, 0, 0, 0.75, 684.977084, 421.628207)" fill="none" stroke-linejoin="miter" d="M -0.000695016 6.500933 L 86.895143 6.500933 " stroke="#545454" stroke-width="13" stroke-opacity="1" stroke-miterlimit="4"/><path stroke-linecap="round" transform="matrix(0.75, 0, 0, 0.75, 684.977084, 421.628207)" fill="none" stroke-linejoin="round" d="M 60.895141 -12.999068 L 86.895143 6.500933 L 60.895141 26.000934 " stroke="#545454" stroke-width="13" stroke-opacity="1" stroke-miterlimit="4"/><path stroke-linecap="butt" transform="matrix(0.75, 0, 0, 0.75, 905.289969, 421.628207)" fill="none" stroke-linejoin="miter" d="M -0.00120824 6.500933 L 86.894629 6.500933 " stroke="#545454" stroke-width="13" stroke-opacity="1" stroke-miterlimit="4"/><path stroke-linecap="round" transform="matrix(0.75, 0, 0, 0.75, 905.289969, 421.628207)" fill="none" stroke-linejoin="round" d="M 60.894628 -12.999068 L 86.894629 6.500933 L 60.894628 26.000934 " stroke="#545454" stroke-width="13" stroke-opacity="1" stroke-miterlimit="4"/><g clip-path="url(#2b73ccf94a)"><path fill="#ffffff" d="M 359.15625 406.476562 C 359.15625 399.886719 364.5 394.542969 371.089844 394.542969 C 377.683594 394.542969 383.027344 399.886719 383.027344 406.476562 C 383.027344 413.070312 377.683594 418.414062 371.089844 418.414062 C 364.5 418.414062 359.15625 413.070312 359.15625 406.476562 Z M 366.429688 434.765625 L 375.753906 434.765625 L 377.140625 427.527344 C 378.742188 427.070312 380.273438 426.433594 381.699219 425.640625 L 387.796875 429.777344 L 394.390625 423.183594 L 390.253906 417.085938 C 391.046875 415.65625 391.683594 414.128906 392.140625 412.523438 L 399.378906 411.140625 L 399.378906 401.816406 L 392.140625 400.429688 C 391.683594 398.828125 391.046875 397.300781 390.253906 395.867188 L 394.390625 389.773438 L 387.796875 383.179688 L 381.699219 387.316406 C 380.273438 386.523438 378.742188 385.886719 377.140625 385.429688 L 375.753906 378.191406 L 366.429688 378.191406 L 365.042969 385.429688 C 363.441406 385.886719 361.914062 386.523438 360.484375 387.316406 L 354.386719 383.179688 L 347.792969 389.773438 L 351.929688 395.867188 C 351.136719 397.300781 350.503906 398.828125 350.039062 400.429688 L 342.804688 401.816406 L 342.804688 411.140625 L 350.039062 412.523438 C 350.503906 414.128906 351.136719 415.65625 351.929688 417.085938 L 347.792969 423.183594 L 354.386719 429.777344 L 360.484375 425.640625 C 361.914062 426.433594 363.441406 427.070312 365.042969 427.527344 L 366.429688 434.765625 " fill-opacity="1" fill-rule="nonzero"/></g><g clip-path="url(#a8548f7052)"><path fill="#ffffff" d="M 394.359375 457.210938 C 393.605469 462.101562 389.035156 465.457031 384.144531 464.703125 C 379.25 463.953125 375.894531 459.378906 376.644531 454.488281 C 377.398438 449.597656 381.972656 446.242188 386.863281 446.992188 C 391.753906 447.746094 395.113281 452.320312 394.359375 457.210938 Z M 400.929688 450.160156 L 404.695312 446.109375 L 400.554688 440.464844 L 395.558594 442.839844 C 394.589844 442.089844 393.527344 441.445312 392.390625 440.917969 L 392.1875 435.390625 L 385.269531 434.328125 L 383.414062 439.542969 C 382.175781 439.699219 380.964844 439.996094 379.816406 440.421875 L 375.765625 436.65625 L 370.121094 440.800781 L 372.492188 445.792969 C 371.742188 446.761719 371.097656 447.824219 370.574219 448.964844 L 365.046875 449.164062 L 363.980469 456.085938 L 369.195312 457.9375 C 369.351562 459.179688 369.648438 460.382812 370.074219 461.535156 L 366.308594 465.589844 L 370.453125 471.230469 L 375.445312 468.859375 C 376.414062 469.609375 377.476562 470.253906 378.617188 470.78125 L 378.820312 476.304688 L 385.738281 477.371094 L 387.59375 472.15625 C 388.835938 472 390.039062 471.703125 391.191406 471.277344 L 395.246094 475.039062 L 400.886719 470.902344 L 398.511719 465.90625 C 399.261719 464.9375 399.910156 463.871094 400.433594 462.734375 L 405.960938 462.535156 L 407.023438 455.613281 L 401.8125 453.761719 C 401.652344 452.519531 401.355469 451.3125 400.929688 450.160156 " fill-opacity="1" fill-rule="nonzero"/></g><g clip-path="url(#aea879c8c7)"><path fill="#ffffff" d="M 427.292969 426.746094 C 425.914062 431.761719 420.730469 434.707031 415.710938 433.332031 C 410.695312 431.949219 407.746094 426.765625 409.128906 421.746094 C 410.507812 416.730469 415.691406 413.78125 420.707031 415.164062 C 425.726562 416.542969 428.675781 421.730469 427.292969 426.746094 Z M 435.496094 424.050781 C 435.480469 422.734375 435.320312 421.4375 435.015625 420.183594 L 439.441406 416.410156 L 435.800781 410.011719 L 430.296875 411.886719 C 429.375 410.980469 428.34375 410.179688 427.222656 409.492188 L 427.683594 403.695312 L 420.585938 401.742188 L 418.015625 406.960938 C 416.699219 406.972656 415.402344 407.136719 414.148438 407.441406 L 410.375 403.019531 L 403.976562 406.65625 L 405.847656 412.160156 C 404.945312 413.082031 404.140625 414.113281 403.457031 415.234375 L 397.660156 414.777344 L 395.707031 421.871094 L 400.925781 424.441406 C 400.9375 425.757812 401.101562 427.054688 401.40625 428.308594 L 396.980469 432.082031 L 400.621094 438.480469 L 406.125 436.609375 C 407.046875 437.511719 408.074219 438.316406 409.199219 439 L 408.738281 444.796875 L 415.835938 446.75 L 418.40625 441.53125 C 419.722656 441.515625 421.019531 441.355469 422.273438 441.050781 L 426.046875 445.476562 L 432.445312 441.839844 L 430.574219 436.332031 C 431.476562 435.410156 432.28125 434.378906 432.964844 433.253906 L 438.761719 433.71875 L 440.714844 426.621094 L 435.496094 424.050781 " fill-opacity="1" fill-rule="nonzero"/></g></svg>