<svg xmlns="http://www.w3.org/2000/svg" xmlns:xlink="http://www.w3.org/1999/xlink" width="1920" zoomAndPan="magnify" viewBox="0 0 1440 809.999993" height="1080" preserveAspectRatio="xMidYMid meet" version="1.0"><metadata><ContainsAiGeneratedContent>Yes</ContainsAiGeneratedContent></metadata><defs><clipPath id="eeb88660d9"><path d="M 440.75 420.667969 L 706.25 420.667969 L 706.25 686.167969 L 440.75 686.167969 Z M 440.75 420.667969 " clip-rule="nonzero"/></clipPath><clipPath id="d0c050c129"><path d="M 573.617188 420.667969 C 500.238281 420.667969 440.75 480.152344 440.75 553.535156 C 440.75 626.914062 500.238281 686.402344 573.617188 686.402344 C 647 686.402344 706.484375 626.914062 706.484375 553.535156 C 706.484375 480.152344 647 420.667969 573.617188 420.667969 Z M 573.617188 420.667969 " clip-rule="nonzero"/></clipPath><clipPath id="293fa58317"><path d="M 608.6875 81.003906 L 909.4375 81.003906 L 909.4375 344.25 L 608.6875 344.25 Z M 608.6875 81.003906 " clip-rule="nonzero"/></clipPath><clipPath id="2e9c1930e2"><path d="M 759.222656 81.003906 L 909.753906 344.433594 L 608.6875 344.433594 Z M 759.222656 81.003906 " clip-rule="nonzero"/></clipPath></defs><path stroke-linecap="butt" transform="matrix(-0.564699, -0.493574, 0.493574, -0.564699, 961.60983, 559.181488)" fill="none" stroke-linejoin="miter" d="M -0.00189048 10.000487 L 825.88704 9.999887 " stroke="#000000" stroke-width="20" stroke-opacity="1" stroke-miterlimit="4"/><g clip-path="url(#eeb88660d9)"><g clip-path="url(#d0c050c129)"><path stroke-linecap="butt" transform="matrix(0.75, 0, 0, 0.75, 440.751752, 420.666359)" fill="none" stroke-linejoin="miter" d="M 177.153923 0.00214655 C 79.315376 0.00214655 -0.00233606 79.314651 -0.00233606 177.158405 C -0.00233606 274.996952 79.315376 354.314664 177.153923 354.314664 C 274.997678 354.314664 354.310182 274.996952 354.310182 177.158405 C 354.310182 79.314651 274.997678 0.00214655 177.153923 0.00214655 Z M 177.153923 0.00214655 " stroke="#000000" stroke-width="40" stroke-opacity="1" stroke-miterlimit="4"/></g></g><g clip-path="url(#293fa58317)"><g clip-path="url(#2e9c1930e2)"><path stroke-linecap="butt" transform="matrix(0.75, 0, 0, 0.75, 608.687856, 81.002214)" fill="none" stroke-linejoin="miter" d="M 200.713078 0.0022559 L 401.421421 351.241857 L -0.000474133 351.241857 Z M 200.713078 0.0022559 " stroke="#000000" stroke-width="40" stroke-opacity="1" stroke-miterlimit="4"/></g></g></svg>