<svg xmlns="http://www.w3.org/2000/svg" xmlns:xlink="http://www.w3.org/1999/xlink" width="1920" zoomAndPan="magnify" viewBox="0 0 1440 809.999993" height="1080" preserveAspectRatio="xMidYMid meet" version="1.0"><metadata><ContainsAiGeneratedContent>Yes</ContainsAiGeneratedContent></metadata><defs><clipPath id="10d16b25b9"><path d="M 698 81 L 744 81 L 744 229 L 698 229 Z M 698 81 " clip-rule="nonzero"/></clipPath><clipPath id="888724eb47"><path d="M 882 473 L 1056.875 473 L 1056.875 525 L 882 525 Z M 882 473 " clip-rule="nonzero"/></clipPath><clipPath id="19aa30a347"><path d="M 383.375 473 L 558 473 L 558 525 L 383.375 525 Z M 383.375 473 " clip-rule="nonzero"/></clipPath></defs><g clip-path="url(#10d16b25b9)"><path fill="#fad989" d="M 743.167969 228.828125 L 698.378906 228.828125 L 698.378906 103.320312 C 698.378906 90.957031 708.40625 80.9375 720.773438 80.9375 C 733.144531 80.9375 743.167969 90.957031 743.167969 103.320312 Z M 743.167969 228.828125 " fill-opacity="1" fill-rule="nonzero"/></g><path fill="#fad989" d="M 606.710938 253.769531 L 590.292969 253.769531 C 488.117188 253.769531 405.28125 336.570312 405.28125 438.710938 L 405.28125 701.007812 C 405.28125 716.429688 417.789062 728.929688 433.214844 728.929688 L 509.445312 728.929688 C 524.871094 728.929688 537.378906 716.429688 537.378906 701.007812 L 537.378906 456.082031 C 537.378906 422.375 564.710938 395.050781 598.429688 395.050781 L 606.710938 395.050781 Z M 606.710938 253.769531 " fill-opacity="1" fill-rule="nonzero"/><path fill="#fbf198" d="M 851.253906 253.769531 L 834.835938 253.769531 L 834.835938 395.050781 L 843.117188 395.050781 C 876.835938 395.050781 904.171875 422.375 904.171875 456.078125 L 904.171875 701.007812 C 904.171875 716.429688 916.675781 728.929688 932.101562 728.929688 L 1008.335938 728.929688 C 1023.761719 728.929688 1036.265625 716.429688 1036.265625 701.007812 L 1036.265625 438.710938 C 1036.265625 336.570312 953.433594 253.769531 851.253906 253.769531 Z M 851.253906 253.769531 " fill-opacity="1" fill-rule="nonzero"/><path fill="#7888af" d="M 844.136719 254.175781 L 844.136719 401.144531 C 844.136719 416.566406 831.632812 429.066406 816.207031 429.066406 L 737.328125 429.066406 C 675.890625 379.335938 675.890625 279.390625 739.519531 226.253906 L 816.207031 226.253906 C 831.632812 226.253906 844.136719 238.753906 844.136719 254.175781 Z M 844.136719 254.175781 " fill-opacity="1" fill-rule="nonzero"/><path fill="#5972a5" d="M 737.328125 429.066406 L 625.335938 429.066406 C 609.910156 429.066406 597.40625 416.566406 597.40625 401.144531 L 597.40625 254.175781 C 597.40625 238.753906 609.910156 226.253906 625.335938 226.253906 L 739.519531 226.253906 C 693.253906 283.433594 694.902344 371.523438 737.328125 429.066406 Z M 737.328125 429.066406 " fill-opacity="1" fill-rule="nonzero"/><path fill="#ff8a98" d="M 813.730469 146.648438 C 813.730469 159.90625 802.972656 170.660156 789.710938 170.660156 L 731.957031 170.660156 C 710.644531 170.660156 703.253906 159.90625 703.253906 146.648438 C 703.253906 133.394531 710.875 122.640625 731.957031 122.640625 L 789.710938 122.640625 C 802.972656 122.640625 813.730469 133.394531 813.730469 146.648438 Z M 813.730469 146.648438 " fill-opacity="1" fill-rule="nonzero"/><path fill="#ff6e80" d="M 731.957031 170.660156 L 651.832031 170.660156 C 638.570312 170.660156 627.824219 159.90625 627.824219 146.648438 C 627.824219 133.390625 638.570312 122.636719 651.832031 122.636719 L 731.957031 122.636719 C 718.679688 122.636719 707.933594 133.390625 707.933594 146.648438 C 707.933594 159.90625 718.679688 170.660156 731.957031 170.660156 Z M 731.957031 170.660156 " fill-opacity="1" fill-rule="nonzero"/><g clip-path="url(#888724eb47)"><path fill="#7888af" d="M 1030.640625 524.730469 L 908.199219 524.730469 C 893.96875 524.730469 882.4375 513.203125 882.4375 498.980469 C 882.4375 484.761719 893.96875 473.230469 908.199219 473.230469 L 1030.640625 473.230469 C 1044.867188 473.230469 1056.402344 484.761719 1056.402344 498.980469 C 1056.402344 513.203125 1044.867188 524.730469 1030.640625 524.730469 Z M 1030.640625 524.730469 " fill-opacity="1" fill-rule="nonzero"/></g><g clip-path="url(#19aa30a347)"><path fill="#5972a5" d="M 532.054688 524.730469 L 409.613281 524.730469 C 395.386719 524.730469 383.851562 513.203125 383.851562 498.980469 C 383.851562 484.761719 395.386719 473.230469 409.613281 473.230469 L 532.054688 473.230469 C 546.28125 473.230469 557.816406 484.761719 557.816406 498.980469 C 557.816406 513.203125 546.28125 524.730469 532.054688 524.730469 Z M 532.054688 524.730469 " fill-opacity="1" fill-rule="nonzero"/></g><path fill="#c2eafb" d="M 824.019531 656.144531 L 837.191406 653.082031 C 842.867188 640.234375 846.480469 626.273438 847.605469 611.609375 L 838.554688 601.761719 L 847.605469 591.914062 C 846.480469 577.25 842.867188 563.289062 837.1875 550.441406 L 825.164062 546.421875 L 827.851562 533.09375 C 818.851562 519.101562 807.183594 506.992188 793.5625 497.480469 L 779.011719 500.511719 L 776.589844 487.480469 C 770.703125 484.605469 764.570312 482.164062 758.222656 480.210938 C 690.796875 488.175781 659.390625 544.558594 659.390625 601.765625 C 659.390625 658.96875 688.703125 712.660156 758.222656 723.316406 C 787.222656 714.40625 811.789062 695.410156 827.855469 670.429688 Z M 824.019531 656.144531 " fill-opacity="1" fill-rule="nonzero"/><path fill="#a8e1f6" d="M 758.222656 480.210938 C 749.402344 477.488281 740.160156 475.707031 730.625 474.976562 L 720.773438 485.664062 L 710.921875 474.972656 C 694.535156 476.230469 679.019531 480.59375 664.957031 487.46875 L 662.535156 503.046875 L 647.980469 497.46875 C 634.363281 506.988281 622.691406 519.097656 613.691406 533.089844 L 616.78125 546.417969 L 604.359375 550.4375 C 598.679688 563.285156 595.0625 577.25 593.9375 591.910156 L 603.683594 601.761719 L 593.9375 611.605469 C 595.058594 626.269531 598.675781 640.230469 604.355469 653.082031 L 616.777344 657.421875 L 613.683594 670.429688 C 636.3125 705.621094 675.820312 728.929688 720.777344 728.929688 C 733.808594 728.929688 746.394531 726.96875 758.21875 723.316406 C 706.242188 707.34375 668.460938 658.96875 668.460938 601.761719 C 668.460938 544.558594 706.242188 496.1875 758.222656 480.210938 Z M 758.222656 480.210938 " fill-opacity="1" fill-rule="nonzero"/><path fill="#7888af" d="M 740.726562 601.761719 C 740.726562 594.332031 736.652344 587.863281 730.625 584.433594 L 730.625 535.46875 C 730.625 530.03125 726.214844 525.621094 720.773438 525.621094 C 715.332031 525.621094 710.921875 530.03125 710.921875 535.46875 L 710.921875 584.433594 C 704.894531 587.863281 700.824219 594.332031 700.824219 601.761719 C 700.824219 609.191406 704.894531 615.660156 710.921875 619.089844 L 710.921875 634.035156 C 710.921875 639.472656 715.332031 643.882812 720.773438 643.882812 C 726.214844 643.882812 730.625 639.472656 730.625 634.035156 L 730.625 619.089844 C 736.652344 615.660156 740.726562 609.191406 740.726562 601.761719 Z M 740.726562 601.761719 " fill-opacity="1" fill-rule="nonzero"/><path fill="#7888af" d="M 847.605469 591.914062 L 826.378906 591.914062 C 820.9375 591.914062 816.527344 596.320312 816.527344 601.761719 C 816.527344 607.199219 820.9375 611.609375 826.378906 611.609375 L 847.605469 611.609375 C 847.851562 608.359375 847.992188 605.078125 847.992188 601.765625 C 847.992188 598.449219 847.851562 595.164062 847.605469 591.914062 Z M 847.605469 591.914062 " fill-opacity="1" fill-rule="nonzero"/><path fill="#7888af" d="M 837.191406 653.082031 L 818.46875 643.035156 C 813.675781 640.460938 807.703125 642.257812 805.128906 647.050781 C 802.554688 651.839844 804.355469 657.8125 809.148438 660.386719 L 827.855469 670.429688 C 831.398438 664.925781 834.519531 659.128906 837.191406 653.082031 Z M 837.191406 653.082031 " fill-opacity="1" fill-rule="nonzero"/><path fill="#7888af" d="M 769.320312 519.257812 C 770.886719 520.179688 772.605469 520.617188 774.304688 520.617188 C 777.679688 520.617188 780.96875 518.882812 782.804688 515.761719 L 793.5625 497.476562 C 788.191406 493.726562 782.519531 490.378906 776.589844 487.476562 L 765.820312 505.777344 C 763.0625 510.464844 764.628906 516.5 769.320312 519.257812 Z M 769.320312 519.257812 " fill-opacity="1" fill-rule="nonzero"/><path fill="#7888af" d="M 805.128906 556.472656 C 806.90625 559.78125 810.304688 561.664062 813.816406 561.664062 C 815.390625 561.664062 816.988281 561.285156 818.46875 560.488281 L 837.1875 550.441406 C 834.519531 544.398438 831.394531 538.601562 827.851562 533.09375 L 809.148438 543.136719 C 804.355469 545.710938 802.554688 551.679688 805.128906 556.472656 Z M 805.128906 556.472656 " fill-opacity="1" fill-rule="nonzero"/><path fill="#7888af" d="M 720.777344 474.597656 C 717.460938 474.597656 714.175781 474.726562 710.921875 474.976562 L 710.921875 496.199219 C 710.921875 501.636719 715.332031 506.046875 720.773438 506.046875 C 726.214844 506.046875 730.625 501.636719 730.625 496.199219 L 730.625 474.976562 C 727.375 474.726562 724.089844 474.597656 720.777344 474.597656 Z M 720.777344 474.597656 " fill-opacity="1" fill-rule="nonzero"/><path fill="#7888af" d="M 632.402344 660.386719 C 637.195312 657.8125 638.992188 651.839844 636.417969 647.050781 C 633.84375 642.257812 627.871094 640.460938 623.078125 643.035156 L 604.359375 653.085938 C 607.027344 659.128906 610.148438 664.925781 613.6875 670.433594 Z M 632.402344 660.386719 " fill-opacity="1" fill-rule="nonzero"/><path fill="#7888af" d="M 604.359375 550.4375 L 623.078125 560.488281 C 624.558594 561.285156 626.15625 561.664062 627.730469 561.664062 C 631.242188 561.664062 634.640625 559.78125 636.417969 556.472656 C 638.992188 551.679688 637.191406 545.710938 632.398438 543.136719 L 613.6875 533.089844 C 610.148438 538.597656 607.027344 544.394531 604.359375 550.4375 Z M 604.359375 550.4375 " fill-opacity="1" fill-rule="nonzero"/><path fill="#7888af" d="M 625.019531 601.761719 C 625.019531 596.320312 620.609375 591.914062 615.167969 591.914062 L 593.9375 591.914062 C 593.6875 595.164062 593.5625 598.449219 593.5625 601.765625 C 593.5625 605.078125 593.6875 608.359375 593.9375 611.609375 L 615.167969 611.609375 C 620.609375 611.609375 625.019531 607.199219 625.019531 601.761719 Z M 625.019531 601.761719 " fill-opacity="1" fill-rule="nonzero"/><path fill="#7888af" d="M 658.742188 515.761719 C 660.578125 518.882812 663.867188 520.621094 667.242188 520.621094 C 668.941406 520.621094 670.660156 520.179688 672.226562 519.257812 C 676.917969 516.5 678.484375 510.464844 675.726562 505.777344 L 664.957031 487.472656 C 659.023438 490.371094 653.351562 493.722656 647.980469 497.472656 Z M 658.742188 515.761719 " fill-opacity="1" fill-rule="nonzero"/><path fill="#ffffff" d="M 640.683594 339.277344 C 635.242188 339.277344 630.832031 334.867188 630.832031 329.429688 L 630.832031 314.042969 C 630.832031 308.605469 635.242188 304.195312 640.683594 304.195312 C 646.125 304.195312 650.535156 308.605469 650.535156 314.042969 L 650.535156 329.429688 C 650.535156 334.867188 646.125 339.277344 640.683594 339.277344 Z M 640.683594 339.277344 " fill-opacity="1" fill-rule="nonzero"/><path fill="#ffffff" d="M 800.886719 339.277344 C 795.445312 339.277344 791.035156 334.867188 791.035156 329.429688 L 791.035156 314.042969 C 791.035156 308.605469 795.445312 304.195312 800.886719 304.195312 C 806.328125 304.195312 810.738281 308.605469 810.738281 314.042969 L 810.738281 329.429688 C 810.738281 334.867188 806.328125 339.277344 800.886719 339.277344 Z M 800.886719 339.277344 " fill-opacity="1" fill-rule="nonzero"/><path fill="#ffffff" d="M 720.785156 348.4375 C 709.84375 348.4375 699.4375 343.699219 692.238281 335.441406 C 688.664062 331.34375 689.09375 325.121094 693.191406 321.546875 C 697.292969 317.972656 703.519531 318.402344 707.09375 322.5 C 710.550781 326.464844 715.539062 328.742188 720.785156 328.742188 C 726.027344 328.742188 731.019531 326.464844 734.476562 322.5 C 738.050781 318.402344 744.273438 317.972656 748.375 321.546875 C 752.480469 325.121094 752.90625 331.34375 749.328125 335.441406 C 742.128906 343.703125 731.726562 348.4375 720.785156 348.4375 Z M 720.785156 348.4375 " fill-opacity="1" fill-rule="nonzero"/></svg>