<svg xmlns="http://www.w3.org/2000/svg" xml:space="preserve" viewBox="0 0 231 231">
  <path fill="#FFF" d="M0 0h231v231H0z"/>
  <path d="M0 0h100v100H0z" transform="matrix(.07 0 0 .07 70 14)" style="fill:#000"/>
  <path d="M0 0h100v100H0z" transform="matrix(.07 0 0 .07 77 14)" style="fill:#000"/>
  <path d="M0 0h100v100H0z" transform="matrix(.07 0 0 .07 91 14)" style="fill:#000"/>
  <path d="M0 0h100v100H0z" transform="matrix(.07 0 0 .07 119 14)" style="fill:#000"/>
  <path d="M0 0h100v100H0z" transform="matrix(.07 0 0 .07 126 14)" style="fill:#000"/>
  <path d="M0 0h100v100H0z" transform="matrix(.07 0 0 .07 133 14)" style="fill:#000"/>
  <path d="M0 0h100v100H0z" transform="matrix(.07 0 0 .07 140 14)" style="fill:#000"/>
  <path d="M0 0h100v100H0z" transform="matrix(.07 0 0 .07 70 21)" style="fill:#000"/>
  <path d="M0 0h100v100H0z" transform="matrix(.07 0 0 .07 84 21)" style="fill:#000"/>
  <path d="M0 0h100v100H0z" transform="matrix(.07 0 0 .07 91 21)" style="fill:#000"/>
  <path d="M0 0h100v100H0z" transform="matrix(.07 0 0 .07 98 21)" style="fill:#000"/>
  <path d="M0 0h100v100H0z" transform="matrix(.07 0 0 .07 126 21)" style="fill:#000"/>
  <path d="M0 0h100v100H0z" transform="matrix(.07 0 0 .07 147 21)" style="fill:#000"/>
  <path d="M0 0h100v100H0z" transform="matrix(.07 0 0 .07 154 21)" style="fill:#000"/>
  <path d="M0 0h100v100H0z" transform="matrix(.07 0 0 .07 70 28)" style="fill:#000"/>
  <path d="M0 0h100v100H0z" transform="matrix(.07 0 0 .07 77 28)" style="fill:#000"/>
  <path d="M0 0h100v100H0z" transform="matrix(.07 0 0 .07 91 28)" style="fill:#000"/>
  <path d="M0 0h100v100H0z" transform="matrix(.07 0 0 .07 119 28)" style="fill:#000"/>
  <path d="M0 0h100v100H0z" transform="matrix(.07 0 0 .07 126 28)" style="fill:#000"/>
  <path d="M0 0h100v100H0z" transform="matrix(.07 0 0 .07 154 28)" style="fill:#000"/>
  <path d="M0 0h100v100H0z" transform="matrix(.07 0 0 .07 84 35)" style="fill:#000"/>
  <path d="M0 0h100v100H0z" transform="matrix(.07 0 0 .07 91 35)" style="fill:#000"/>
  <path d="M0 0h100v100H0z" transform="matrix(.07 0 0 .07 126 35)" style="fill:#000"/>
  <path d="M0 0h100v100H0z" transform="matrix(.07 0 0 .07 133 35)" style="fill:#000"/>
  <path d="M0 0h100v100H0z" transform="matrix(.07 0 0 .07 147 35)" style="fill:#000"/>
  <path d="M0 0h100v100H0z" transform="matrix(.07 0 0 .07 154 35)" style="fill:#000"/>
  <path d="M0 0h100v100H0z" transform="matrix(.07 0 0 .07 70 42)" style="fill:#000"/>
  <path d="M0 0h100v100H0z" transform="matrix(.07 0 0 .07 98 42)" style="fill:#000"/>
  <path d="M0 0h100v100H0z" transform="matrix(.07 0 0 .07 112 42)" style="fill:#000"/>
  <path d="M0 0h100v100H0z" transform="matrix(.07 0 0 .07 119 42)" style="fill:#000"/>
  <path d="M0 0h100v100H0z" transform="matrix(.07 0 0 .07 126 42)" style="fill:#000"/>
  <path d="M0 0h100v100H0z" transform="matrix(.07 0 0 .07 133 42)" style="fill:#000"/>
  <path d="M0 0h100v100H0z" transform="matrix(.07 0 0 .07 147 42)" style="fill:#000"/>
  <path d="M0 0h100v100H0z" transform="matrix(.07 0 0 .07 84 49)" style="fill:#000"/>
  <path d="M0 0h100v100H0z" transform="matrix(.07 0 0 .07 91 49)" style="fill:#000"/>
  <path d="M0 0h100v100H0z" transform="matrix(.07 0 0 .07 98 49)" style="fill:#000"/>
  <path d="M0 0h100v100H0z" transform="matrix(.07 0 0 .07 119 49)" style="fill:#000"/>
  <path d="M0 0h100v100H0z" transform="matrix(.07 0 0 .07 126 49)" style="fill:#000"/>
  <path d="M0 0h100v100H0z" transform="matrix(.07 0 0 .07 140 49)" style="fill:#000"/>
  <path d="M0 0h100v100H0z" transform="matrix(.07 0 0 .07 154 49)" style="fill:#000"/>
  <path d="M0 0h100v100H0z" transform="matrix(.07 0 0 .07 70 56)" style="fill:#000"/>
  <path d="M0 0h100v100H0z" transform="matrix(.07 0 0 .07 84 56)" style="fill:#000"/>
  <path d="M0 0h100v100H0z" transform="matrix(.07 0 0 .07 98 56)" style="fill:#000"/>
  <path d="M0 0h100v100H0z" transform="matrix(.07 0 0 .07 112 56)" style="fill:#000"/>
  <path d="M0 0h100v100H0z" transform="matrix(.07 0 0 .07 126 56)" style="fill:#000"/>
  <path d="M0 0h100v100H0z" transform="matrix(.07 0 0 .07 140 56)" style="fill:#000"/>
  <path d="M0 0h100v100H0z" transform="matrix(.07 0 0 .07 154 56)" style="fill:#000"/>
  <path d="M0 0h100v100H0z" transform="matrix(.07 0 0 .07 84 63)" style="fill:#000"/>
  <path d="M0 0h100v100H0z" transform="matrix(.07 0 0 .07 91 63)" style="fill:#000"/>
  <path d="M0 0h100v100H0z" transform="matrix(.07 0 0 .07 98 63)" style="fill:#000"/>
  <path d="M0 0h100v100H0z" transform="matrix(.07 0 0 .07 105 63)" style="fill:#000"/>
  <path d="M0 0h100v100H0z" transform="matrix(.07 0 0 .07 119 63)" style="fill:#000"/>
  <path d="M0 0h100v100H0z" transform="matrix(.07 0 0 .07 126 63)" style="fill:#000"/>
  <path d="M0 0h100v100H0z" transform="matrix(.07 0 0 .07 140 63)" style="fill:#000"/>
  <path d="M0 0h100v100H0z" transform="matrix(.07 0 0 .07 147 63)" style="fill:#000"/>
  <path d="M0 0h100v100H0z" transform="matrix(.07 0 0 .07 154 63)" style="fill:#000"/>
  <path d="M0 0h100v100H0z" transform="matrix(.07 0 0 .07 14 70)" style="fill:#000"/>
  <path d="M0 0h100v100H0z" transform="matrix(.07 0 0 .07 35 70)" style="fill:#000"/>
  <path d="M0 0h100v100H0z" transform="matrix(.07 0 0 .07 42 70)" style="fill:#000"/>
  <path d="M0 0h100v100H0z" transform="matrix(.07 0 0 .07 49 70)" style="fill:#000"/>
  <path d="M0 0h100v100H0z" transform="matrix(.07 0 0 .07 56 70)" style="fill:#000"/>
  <path d="M0 0h100v100H0z" transform="matrix(.07 0 0 .07 63 70)" style="fill:#000"/>
  <path d="M0 0h100v100H0z" transform="matrix(.07 0 0 .07 70 70)" style="fill:#000"/>
  <path d="M0 0h100v100H0z" transform="matrix(.07 0 0 .07 84 70)" style="fill:#000"/>
  <path d="M0 0h100v100H0z" transform="matrix(.07 0 0 .07 98 70)" style="fill:#000"/>
  <path d="M0 0h100v100H0z" transform="matrix(.07 0 0 .07 105 70)" style="fill:#000"/>
  <path d="M0 0h100v100H0z" transform="matrix(.07 0 0 .07 133 70)" style="fill:#000"/>
  <path d="M0 0h100v100H0z" transform="matrix(.07 0 0 .07 147 70)" style="fill:#000"/>
  <path d="M0 0h100v100H0z" transform="matrix(.07 0 0 .07 161 70)" style="fill:#000"/>
  <path d="M0 0h100v100H0z" transform="matrix(.07 0 0 .07 182 70)" style="fill:#000"/>
  <path d="M0 0h100v100H0z" transform="matrix(.07 0 0 .07 196 70)" style="fill:#000"/>
  <path d="M0 0h100v100H0z" transform="matrix(.07 0 0 .07 203 70)" style="fill:#000"/>
  <path d="M0 0h100v100H0z" transform="matrix(.07 0 0 .07 210 70)" style="fill:#000"/>
  <path d="M0 0h100v100H0z" transform="matrix(.07 0 0 .07 14 77)" style="fill:#000"/>
  <path d="M0 0h100v100H0z" transform="matrix(.07 0 0 .07 28 77)" style="fill:#000"/>
  <path d="M0 0h100v100H0z" transform="matrix(.07 0 0 .07 77 77)" style="fill:#000"/>
  <path d="M0 0h100v100H0z" transform="matrix(.07 0 0 .07 91 77)" style="fill:#000"/>
  <path d="M0 0h100v100H0z" transform="matrix(.07 0 0 .07 105 77)" style="fill:#000"/>
  <path d="M0 0h100v100H0z" transform="matrix(.07 0 0 .07 126 77)" style="fill:#000"/>
  <path d="M0 0h100v100H0z" transform="matrix(.07 0 0 .07 147 77)" style="fill:#000"/>
  <path d="M0 0h100v100H0z" transform="matrix(.07 0 0 .07 161 77)" style="fill:#000"/>
  <path d="M0 0h100v100H0z" transform="matrix(.07 0 0 .07 175 77)" style="fill:#000"/>
  <path d="M0 0h100v100H0z" transform="matrix(.07 0 0 .07 182 77)" style="fill:#000"/>
  <path d="M0 0h100v100H0z" transform="matrix(.07 0 0 .07 196 77)" style="fill:#000"/>
  <path d="M0 0h100v100H0z" transform="matrix(.07 0 0 .07 203 77)" style="fill:#000"/>
  <path d="M0 0h100v100H0z" transform="matrix(.07 0 0 .07 21 84)" style="fill:#000"/>
  <path d="M0 0h100v100H0z" transform="matrix(.07 0 0 .07 49 84)" style="fill:#000"/>
  <path d="M0 0h100v100H0z" transform="matrix(.07 0 0 .07 56 84)" style="fill:#000"/>
  <path d="M0 0h100v100H0z" transform="matrix(.07 0 0 .07 70 84)" style="fill:#000"/>
  <path d="M0 0h100v100H0z" transform="matrix(.07 0 0 .07 91 84)" style="fill:#000"/>
  <path d="M0 0h100v100H0z" transform="matrix(.07 0 0 .07 105 84)" style="fill:#000"/>
  <path d="M0 0h100v100H0z" transform="matrix(.07 0 0 .07 119 84)" style="fill:#000"/>
  <path d="M0 0h100v100H0z" transform="matrix(.07 0 0 .07 126 84)" style="fill:#000"/>
  <path d="M0 0h100v100H0z" transform="matrix(.07 0 0 .07 140 84)" style="fill:#000"/>
  <path d="M0 0h100v100H0z" transform="matrix(.07 0 0 .07 161 84)" style="fill:#000"/>
  <path d="M0 0h100v100H0z" transform="matrix(.07 0 0 .07 182 84)" style="fill:#000"/>
  <path d="M0 0h100v100H0z" transform="matrix(.07 0 0 .07 196 84)" style="fill:#000"/>
  <path d="M0 0h100v100H0z" transform="matrix(.07 0 0 .07 14 91)" style="fill:#000"/>
  <path d="M0 0h100v100H0z" transform="matrix(.07 0 0 .07 21 91)" style="fill:#000"/>
  <path d="M0 0h100v100H0z" transform="matrix(.07 0 0 .07 35 91)" style="fill:#000"/>
  <path d="M0 0h100v100H0z" transform="matrix(.07 0 0 .07 70 91)" style="fill:#000"/>
  <path d="M0 0h100v100H0z" transform="matrix(.07 0 0 .07 84 91)" style="fill:#000"/>
  <path d="M0 0h100v100H0z" transform="matrix(.07 0 0 .07 105 91)" style="fill:#000"/>
  <path d="M0 0h100v100H0z" transform="matrix(.07 0 0 .07 126 91)" style="fill:#000"/>
  <path d="M0 0h100v100H0z" transform="matrix(.07 0 0 .07 133 91)" style="fill:#000"/>
  <path d="M0 0h100v100H0z" transform="matrix(.07 0 0 .07 140 91)" style="fill:#000"/>
  <path d="M0 0h100v100H0z" transform="matrix(.07 0 0 .07 154 91)" style="fill:#000"/>
  <path d="M0 0h100v100H0z" transform="matrix(.07 0 0 .07 161 91)" style="fill:#000"/>
  <path d="M0 0h100v100H0z" transform="matrix(.07 0 0 .07 182 91)" style="fill:#000"/>
  <path d="M0 0h100v100H0z" transform="matrix(.07 0 0 .07 189 91)" style="fill:#000"/>
  <path d="M0 0h100v100H0z" transform="matrix(.07 0 0 .07 210 91)" style="fill:#000"/>
  <path d="M0 0h100v100H0z" transform="matrix(.07 0 0 .07 14 98)" style="fill:#000"/>
  <path d="M0 0h100v100H0z" transform="matrix(.07 0 0 .07 21 98)" style="fill:#000"/>
  <path d="M0 0h100v100H0z" transform="matrix(.07 0 0 .07 28 98)" style="fill:#000"/>
  <path d="M0 0h100v100H0z" transform="matrix(.07 0 0 .07 35 98)" style="fill:#000"/>
  <path d="M0 0h100v100H0z" transform="matrix(.07 0 0 .07 56 98)" style="fill:#000"/>
  <path d="M0 0h100v100H0z" transform="matrix(.07 0 0 .07 63 98)" style="fill:#000"/>
  <path d="M0 0h100v100H0z" transform="matrix(.07 0 0 .07 77 98)" style="fill:#000"/>
  <path d="M0 0h100v100H0z" transform="matrix(.07 0 0 .07 84 98)" style="fill:#000"/>
  <path d="M0 0h100v100H0z" transform="matrix(.07 0 0 .07 105 98)" style="fill:#000"/>
  <path d="M0 0h100v100H0z" transform="matrix(.07 0 0 .07 119 98)" style="fill:#000"/>
  <path d="M0 0h100v100H0z" transform="matrix(.07 0 0 .07 126 98)" style="fill:#000"/>
  <path d="M0 0h100v100H0z" transform="matrix(.07 0 0 .07 154 98)" style="fill:#000"/>
  <path d="M0 0h100v100H0z" transform="matrix(.07 0 0 .07 168 98)" style="fill:#000"/>
  <path d="M0 0h100v100H0z" transform="matrix(.07 0 0 .07 175 98)" style="fill:#000"/>
  <path d="M0 0h100v100H0z" transform="matrix(.07 0 0 .07 210 98)" style="fill:#000"/>
  <path d="M0 0h100v100H0z" transform="matrix(.07 0 0 .07 21 105)" style="fill:#000"/>
  <path d="M0 0h100v100H0z" transform="matrix(.07 0 0 .07 35 105)" style="fill:#000"/>
  <path d="M0 0h100v100H0z" transform="matrix(.07 0 0 .07 49 105)" style="fill:#000"/>
  <path d="M0 0h100v100H0z" transform="matrix(.07 0 0 .07 70 105)" style="fill:#000"/>
  <path d="M0 0h100v100H0z" transform="matrix(.07 0 0 .07 91 105)" style="fill:#000"/>
  <path d="M0 0h100v100H0z" transform="matrix(.07 0 0 .07 105 105)" style="fill:#000"/>
  <path d="M0 0h100v100H0z" transform="matrix(.07 0 0 .07 112 105)" style="fill:#000"/>
  <path d="M0 0h100v100H0z" transform="matrix(.07 0 0 .07 126 105)" style="fill:#000"/>
  <path d="M0 0h100v100H0z" transform="matrix(.07 0 0 .07 133 105)" style="fill:#000"/>
  <path d="M0 0h100v100H0z" transform="matrix(.07 0 0 .07 140 105)" style="fill:#000"/>
  <path d="M0 0h100v100H0z" transform="matrix(.07 0 0 .07 161 105)" style="fill:#000"/>
  <path d="M0 0h100v100H0z" transform="matrix(.07 0 0 .07 168 105)" style="fill:#000"/>
  <path d="M0 0h100v100H0z" transform="matrix(.07 0 0 .07 175 105)" style="fill:#000"/>
  <path d="M0 0h100v100H0z" transform="matrix(.07 0 0 .07 182 105)" style="fill:#000"/>
  <path d="M0 0h100v100H0z" transform="matrix(.07 0 0 .07 189 105)" style="fill:#000"/>
  <path d="M0 0h100v100H0z" transform="matrix(.07 0 0 .07 196 105)" style="fill:#000"/>
  <path d="M0 0h100v100H0z" transform="matrix(.07 0 0 .07 203 105)" style="fill:#000"/>
  <path d="M0 0h100v100H0z" transform="matrix(.07 0 0 .07 210 105)" style="fill:#000"/>
  <path d="M0 0h100v100H0z" transform="matrix(.07 0 0 .07 21 112)" style="fill:#000"/>
  <path d="M0 0h100v100H0z" transform="matrix(.07 0 0 .07 42 112)" style="fill:#000"/>
  <path d="M0 0h100v100H0z" transform="matrix(.07 0 0 .07 49 112)" style="fill:#000"/>
  <path d="M0 0h100v100H0z" transform="matrix(.07 0 0 .07 56 112)" style="fill:#000"/>
  <path d="M0 0h100v100H0z" transform="matrix(.07 0 0 .07 70 112)" style="fill:#000"/>
  <path d="M0 0h100v100H0z" transform="matrix(.07 0 0 .07 77 112)" style="fill:#000"/>
  <path d="M0 0h100v100H0z" transform="matrix(.07 0 0 .07 84 112)" style="fill:#000"/>
  <path d="M0 0h100v100H0z" transform="matrix(.07 0 0 .07 91 112)" style="fill:#000"/>
  <path d="M0 0h100v100H0z" transform="matrix(.07 0 0 .07 105 112)" style="fill:#000"/>
  <path d="M0 0h100v100H0z" transform="matrix(.07 0 0 .07 126 112)" style="fill:#000"/>
  <path d="M0 0h100v100H0z" transform="matrix(.07 0 0 .07 133 112)" style="fill:#000"/>
  <path d="M0 0h100v100H0z" transform="matrix(.07 0 0 .07 147 112)" style="fill:#000"/>
  <path d="M0 0h100v100H0z" transform="matrix(.07 0 0 .07 154 112)" style="fill:#000"/>
  <path d="M0 0h100v100H0z" transform="matrix(.07 0 0 .07 168 112)" style="fill:#000"/>
  <path d="M0 0h100v100H0z" transform="matrix(.07 0 0 .07 182 112)" style="fill:#000"/>
  <path d="M0 0h100v100H0z" transform="matrix(.07 0 0 .07 196 112)" style="fill:#000"/>
  <path d="M0 0h100v100H0z" transform="matrix(.07 0 0 .07 210 112)" style="fill:#000"/>
  <path d="M0 0h100v100H0z" transform="matrix(.07 0 0 .07 42 119)" style="fill:#000"/>
  <path d="M0 0h100v100H0z" transform="matrix(.07 0 0 .07 70 119)" style="fill:#000"/>
  <path d="M0 0h100v100H0z" transform="matrix(.07 0 0 .07 98 119)" style="fill:#000"/>
  <path d="M0 0h100v100H0z" transform="matrix(.07 0 0 .07 119 119)" style="fill:#000"/>
  <path d="M0 0h100v100H0z" transform="matrix(.07 0 0 .07 168 119)" style="fill:#000"/>
  <path d="M0 0h100v100H0z" transform="matrix(.07 0 0 .07 175 119)" style="fill:#000"/>
  <path d="M0 0h100v100H0z" transform="matrix(.07 0 0 .07 182 119)" style="fill:#000"/>
  <path d="M0 0h100v100H0z" transform="matrix(.07 0 0 .07 196 119)" style="fill:#000"/>
  <path d="M0 0h100v100H0z" transform="matrix(.07 0 0 .07 210 119)" style="fill:#000"/>
  <path d="M0 0h100v100H0z" transform="matrix(.07 0 0 .07 28 126)" style="fill:#000"/>
  <path d="M0 0h100v100H0z" transform="matrix(.07 0 0 .07 35 126)" style="fill:#000"/>
  <path d="M0 0h100v100H0z" transform="matrix(.07 0 0 .07 49 126)" style="fill:#000"/>
  <path d="M0 0h100v100H0z" transform="matrix(.07 0 0 .07 56 126)" style="fill:#000"/>
  <path d="M0 0h100v100H0z" transform="matrix(.07 0 0 .07 63 126)" style="fill:#000"/>
  <path d="M0 0h100v100H0z" transform="matrix(.07 0 0 .07 77 126)" style="fill:#000"/>
  <path d="M0 0h100v100H0z" transform="matrix(.07 0 0 .07 98 126)" style="fill:#000"/>
  <path d="M0 0h100v100H0z" transform="matrix(.07 0 0 .07 112 126)" style="fill:#000"/>
  <path d="M0 0h100v100H0z" transform="matrix(.07 0 0 .07 161 126)" style="fill:#000"/>
  <path d="M0 0h100v100H0z" transform="matrix(.07 0 0 .07 189 126)" style="fill:#000"/>
  <path d="M0 0h100v100H0z" transform="matrix(.07 0 0 .07 14 133)" style="fill:#000"/>
  <path d="M0 0h100v100H0z" transform="matrix(.07 0 0 .07 28 133)" style="fill:#000"/>
  <path d="M0 0h100v100H0z" transform="matrix(.07 0 0 .07 49 133)" style="fill:#000"/>
  <path d="M0 0h100v100H0z" transform="matrix(.07 0 0 .07 77 133)" style="fill:#000"/>
  <path d="M0 0h100v100H0z" transform="matrix(.07 0 0 .07 98 133)" style="fill:#000"/>
  <path d="M0 0h100v100H0z" transform="matrix(.07 0 0 .07 105 133)" style="fill:#000"/>
  <path d="M0 0h100v100H0z" transform="matrix(.07 0 0 .07 112 133)" style="fill:#000"/>
  <path d="M0 0h100v100H0z" transform="matrix(.07 0 0 .07 126 133)" style="fill:#000"/>
  <path d="M0 0h100v100H0z" transform="matrix(.07 0 0 .07 133 133)" style="fill:#000"/>
  <path d="M0 0h100v100H0z" transform="matrix(.07 0 0 .07 147 133)" style="fill:#000"/>
  <path d="M0 0h100v100H0z" transform="matrix(.07 0 0 .07 154 133)" style="fill:#000"/>
  <path d="M0 0h100v100H0z" transform="matrix(.07 0 0 .07 182 133)" style="fill:#000"/>
  <path d="M0 0h100v100H0z" transform="matrix(.07 0 0 .07 196 133)" style="fill:#000"/>
  <path d="M0 0h100v100H0z" transform="matrix(.07 0 0 .07 203 133)" style="fill:#000"/>
  <path d="M0 0h100v100H0z" transform="matrix(.07 0 0 .07 14 140)" style="fill:#000"/>
  <path d="M0 0h100v100H0z" transform="matrix(.07 0 0 .07 21 140)" style="fill:#000"/>
  <path d="M0 0h100v100H0z" transform="matrix(.07 0 0 .07 49 140)" style="fill:#000"/>
  <path d="M0 0h100v100H0z" transform="matrix(.07 0 0 .07 56 140)" style="fill:#000"/>
  <path d="M0 0h100v100H0z" transform="matrix(.07 0 0 .07 119 140)" style="fill:#000"/>
  <path d="M0 0h100v100H0z" transform="matrix(.07 0 0 .07 140 140)" style="fill:#000"/>
  <path d="M0 0h100v100H0z" transform="matrix(.07 0 0 .07 147 140)" style="fill:#000"/>
  <path d="M0 0h100v100H0z" transform="matrix(.07 0 0 .07 154 140)" style="fill:#000"/>
  <path d="M0 0h100v100H0z" transform="matrix(.07 0 0 .07 182 140)" style="fill:#000"/>
  <path d="M0 0h100v100H0z" transform="matrix(.07 0 0 .07 189 140)" style="fill:#000"/>
  <path d="M0 0h100v100H0z" transform="matrix(.07 0 0 .07 210 140)" style="fill:#000"/>
  <path d="M0 0h100v100H0z" transform="matrix(.07 0 0 .07 14 147)" style="fill:#000"/>
  <path d="M0 0h100v100H0z" transform="matrix(.07 0 0 .07 21 147)" style="fill:#000"/>
  <path d="M0 0h100v100H0z" transform="matrix(.07 0 0 .07 28 147)" style="fill:#000"/>
  <path d="M0 0h100v100H0z" transform="matrix(.07 0 0 .07 42 147)" style="fill:#000"/>
  <path d="M0 0h100v100H0z" transform="matrix(.07 0 0 .07 49 147)" style="fill:#000"/>
  <path d="M0 0h100v100H0z" transform="matrix(.07 0 0 .07 77 147)" style="fill:#000"/>
  <path d="M0 0h100v100H0z" transform="matrix(.07 0 0 .07 98 147)" style="fill:#000"/>
  <path d="M0 0h100v100H0z" transform="matrix(.07 0 0 .07 112 147)" style="fill:#000"/>
  <path d="M0 0h100v100H0z" transform="matrix(.07 0 0 .07 126 147)" style="fill:#000"/>
  <path d="M0 0h100v100H0z" transform="matrix(.07 0 0 .07 140 147)" style="fill:#000"/>
  <path d="M0 0h100v100H0z" transform="matrix(.07 0 0 .07 147 147)" style="fill:#000"/>
  <path d="M0 0h100v100H0z" transform="matrix(.07 0 0 .07 154 147)" style="fill:#000"/>
  <path d="M0 0h100v100H0z" transform="matrix(.07 0 0 .07 168 147)" style="fill:#000"/>
  <path d="M0 0h100v100H0z" transform="matrix(.07 0 0 .07 189 147)" style="fill:#000"/>
  <path d="M0 0h100v100H0z" transform="matrix(.07 0 0 .07 196 147)" style="fill:#000"/>
  <path d="M0 0h100v100H0z" transform="matrix(.07 0 0 .07 14 154)" style="fill:#000"/>
  <path d="M0 0h100v100H0z" transform="matrix(.07 0 0 .07 21 154)" style="fill:#000"/>
  <path d="M0 0h100v100H0z" transform="matrix(.07 0 0 .07 28 154)" style="fill:#000"/>
  <path d="M0 0h100v100H0z" transform="matrix(.07 0 0 .07 49 154)" style="fill:#000"/>
  <path d="M0 0h100v100H0z" transform="matrix(.07 0 0 .07 56 154)" style="fill:#000"/>
  <path d="M0 0h100v100H0z" transform="matrix(.07 0 0 .07 105 154)" style="fill:#000"/>
  <path d="M0 0h100v100H0z" transform="matrix(.07 0 0 .07 112 154)" style="fill:#000"/>
  <path d="M0 0h100v100H0z" transform="matrix(.07 0 0 .07 126 154)" style="fill:#000"/>
  <path d="M0 0h100v100H0z" transform="matrix(.07 0 0 .07 133 154)" style="fill:#000"/>
  <path d="M0 0h100v100H0z" transform="matrix(.07 0 0 .07 154 154)" style="fill:#000"/>
  <path d="M0 0h100v100H0z" transform="matrix(.07 0 0 .07 161 154)" style="fill:#000"/>
  <path d="M0 0h100v100H0z" transform="matrix(.07 0 0 .07 168 154)" style="fill:#000"/>
  <path d="M0 0h100v100H0z" transform="matrix(.07 0 0 .07 175 154)" style="fill:#000"/>
  <path d="M0 0h100v100H0z" transform="matrix(.07 0 0 .07 182 154)" style="fill:#000"/>
  <path d="M0 0h100v100H0z" transform="matrix(.07 0 0 .07 189 154)" style="fill:#000"/>
  <path d="M0 0h100v100H0z" transform="matrix(.07 0 0 .07 196 154)" style="fill:#000"/>
  <path d="M0 0h100v100H0z" transform="matrix(.07 0 0 .07 203 154)" style="fill:#000"/>
  <path d="M0 0h100v100H0z" transform="matrix(.07 0 0 .07 70 161)" style="fill:#000"/>
  <path d="M0 0h100v100H0z" transform="matrix(.07 0 0 .07 77 161)" style="fill:#000"/>
  <path d="M0 0h100v100H0z" transform="matrix(.07 0 0 .07 84 161)" style="fill:#000"/>
  <path d="M0 0h100v100H0z" transform="matrix(.07 0 0 .07 98 161)" style="fill:#000"/>
  <path d="M0 0h100v100H0z" transform="matrix(.07 0 0 .07 112 161)" style="fill:#000"/>
  <path d="M0 0h100v100H0z" transform="matrix(.07 0 0 .07 119 161)" style="fill:#000"/>
  <path d="M0 0h100v100H0z" transform="matrix(.07 0 0 .07 154 161)" style="fill:#000"/>
  <path d="M0 0h100v100H0z" transform="matrix(.07 0 0 .07 182 161)" style="fill:#000"/>
  <path d="M0 0h100v100H0z" transform="matrix(.07 0 0 .07 189 161)" style="fill:#000"/>
  <path d="M0 0h100v100H0z" transform="matrix(.07 0 0 .07 70 168)" style="fill:#000"/>
  <path d="M0 0h100v100H0z" transform="matrix(.07 0 0 .07 84 168)" style="fill:#000"/>
  <path d="M0 0h100v100H0z" transform="matrix(.07 0 0 .07 91 168)" style="fill:#000"/>
  <path d="M0 0h100v100H0z" transform="matrix(.07 0 0 .07 112 168)" style="fill:#000"/>
  <path d="M0 0h100v100H0z" transform="matrix(.07 0 0 .07 119 168)" style="fill:#000"/>
  <path d="M0 0h100v100H0z" transform="matrix(.07 0 0 .07 126 168)" style="fill:#000"/>
  <path d="M0 0h100v100H0z" transform="matrix(.07 0 0 .07 140 168)" style="fill:#000"/>
  <path d="M0 0h100v100H0z" transform="matrix(.07 0 0 .07 147 168)" style="fill:#000"/>
  <path d="M0 0h100v100H0z" transform="matrix(.07 0 0 .07 154 168)" style="fill:#000"/>
  <path d="M0 0h100v100H0z" transform="matrix(.07 0 0 .07 168 168)" style="fill:#000"/>
  <path d="M0 0h100v100H0z" transform="matrix(.07 0 0 .07 182 168)" style="fill:#000"/>
  <path d="M0 0h100v100H0z" transform="matrix(.07 0 0 .07 189 168)" style="fill:#000"/>
  <path d="M0 0h100v100H0z" transform="matrix(.07 0 0 .07 70 175)" style="fill:#000"/>
  <path d="M0 0h100v100H0z" transform="matrix(.07 0 0 .07 91 175)" style="fill:#000"/>
  <path d="M0 0h100v100H0z" transform="matrix(.07 0 0 .07 112 175)" style="fill:#000"/>
  <path d="M0 0h100v100H0z" transform="matrix(.07 0 0 .07 119 175)" style="fill:#000"/>
  <path d="M0 0h100v100H0z" transform="matrix(.07 0 0 .07 133 175)" style="fill:#000"/>
  <path d="M0 0h100v100H0z" transform="matrix(.07 0 0 .07 147 175)" style="fill:#000"/>
  <path d="M0 0h100v100H0z" transform="matrix(.07 0 0 .07 154 175)" style="fill:#000"/>
  <path d="M0 0h100v100H0z" transform="matrix(.07 0 0 .07 182 175)" style="fill:#000"/>
  <path d="M0 0h100v100H0z" transform="matrix(.07 0 0 .07 210 175)" style="fill:#000"/>
  <path d="M0 0h100v100H0z" transform="matrix(.07 0 0 .07 70 182)" style="fill:#000"/>
  <path d="M0 0h100v100H0z" transform="matrix(.07 0 0 .07 77 182)" style="fill:#000"/>
  <path d="M0 0h100v100H0z" transform="matrix(.07 0 0 .07 84 182)" style="fill:#000"/>
  <path d="M0 0h100v100H0z" transform="matrix(.07 0 0 .07 91 182)" style="fill:#000"/>
  <path d="M0 0h100v100H0z" transform="matrix(.07 0 0 .07 105 182)" style="fill:#000"/>
  <path d="M0 0h100v100H0z" transform="matrix(.07 0 0 .07 112 182)" style="fill:#000"/>
  <path d="M0 0h100v100H0z" transform="matrix(.07 0 0 .07 126 182)" style="fill:#000"/>
  <path d="M0 0h100v100H0z" transform="matrix(.07 0 0 .07 140 182)" style="fill:#000"/>
  <path d="M0 0h100v100H0z" transform="matrix(.07 0 0 .07 147 182)" style="fill:#000"/>
  <path d="M0 0h100v100H0z" transform="matrix(.07 0 0 .07 154 182)" style="fill:#000"/>
  <path d="M0 0h100v100H0z" transform="matrix(.07 0 0 .07 161 182)" style="fill:#000"/>
  <path d="M0 0h100v100H0z" transform="matrix(.07 0 0 .07 168 182)" style="fill:#000"/>
  <path d="M0 0h100v100H0z" transform="matrix(.07 0 0 .07 175 182)" style="fill:#000"/>
  <path d="M0 0h100v100H0z" transform="matrix(.07 0 0 .07 182 182)" style="fill:#000"/>
  <path d="M0 0h100v100H0z" transform="matrix(.07 0 0 .07 189 182)" style="fill:#000"/>
  <path d="M0 0h100v100H0z" transform="matrix(.07 0 0 .07 203 182)" style="fill:#000"/>
  <path d="M0 0h100v100H0z" transform="matrix(.07 0 0 .07 210 182)" style="fill:#000"/>
  <path d="M0 0h100v100H0z" transform="matrix(.07 0 0 .07 70 189)" style="fill:#000"/>
  <path d="M0 0h100v100H0z" transform="matrix(.07 0 0 .07 77 189)" style="fill:#000"/>
  <path d="M0 0h100v100H0z" transform="matrix(.07 0 0 .07 84 189)" style="fill:#000"/>
  <path d="M0 0h100v100H0z" transform="matrix(.07 0 0 .07 119 189)" style="fill:#000"/>
  <path d="M0 0h100v100H0z" transform="matrix(.07 0 0 .07 126 189)" style="fill:#000"/>
  <path d="M0 0h100v100H0z" transform="matrix(.07 0 0 .07 133 189)" style="fill:#000"/>
  <path d="M0 0h100v100H0z" transform="matrix(.07 0 0 .07 140 189)" style="fill:#000"/>
  <path d="M0 0h100v100H0z" transform="matrix(.07 0 0 .07 161 189)" style="fill:#000"/>
  <path d="M0 0h100v100H0z" transform="matrix(.07 0 0 .07 210 189)" style="fill:#000"/>
  <path d="M0 0h100v100H0z" transform="matrix(.07 0 0 .07 77 196)" style="fill:#000"/>
  <path d="M0 0h100v100H0z" transform="matrix(.07 0 0 .07 84 196)" style="fill:#000"/>
  <path d="M0 0h100v100H0z" transform="matrix(.07 0 0 .07 91 196)" style="fill:#000"/>
  <path d="M0 0h100v100H0z" transform="matrix(.07 0 0 .07 98 196)" style="fill:#000"/>
  <path d="M0 0h100v100H0z" transform="matrix(.07 0 0 .07 112 196)" style="fill:#000"/>
  <path d="M0 0h100v100H0z" transform="matrix(.07 0 0 .07 119 196)" style="fill:#000"/>
  <path d="M0 0h100v100H0z" transform="matrix(.07 0 0 .07 133 196)" style="fill:#000"/>
  <path d="M0 0h100v100H0z" transform="matrix(.07 0 0 .07 154 196)" style="fill:#000"/>
  <path d="M0 0h100v100H0z" transform="matrix(.07 0 0 .07 161 196)" style="fill:#000"/>
  <path d="M0 0h100v100H0z" transform="matrix(.07 0 0 .07 175 196)" style="fill:#000"/>
  <path d="M0 0h100v100H0z" transform="matrix(.07 0 0 .07 182 196)" style="fill:#000"/>
  <path d="M0 0h100v100H0z" transform="matrix(.07 0 0 .07 196 196)" style="fill:#000"/>
  <path d="M0 0h100v100H0z" transform="matrix(.07 0 0 .07 203 196)" style="fill:#000"/>
  <path d="M0 0h100v100H0z" transform="matrix(.07 0 0 .07 210 196)" style="fill:#000"/>
  <path d="M0 0h100v100H0z" transform="matrix(.07 0 0 .07 84 203)" style="fill:#000"/>
  <path d="M0 0h100v100H0z" transform="matrix(.07 0 0 .07 91 203)" style="fill:#000"/>
  <path d="M0 0h100v100H0z" transform="matrix(.07 0 0 .07 98 203)" style="fill:#000"/>
  <path d="M0 0h100v100H0z" transform="matrix(.07 0 0 .07 105 203)" style="fill:#000"/>
  <path d="M0 0h100v100H0z" transform="matrix(.07 0 0 .07 112 203)" style="fill:#000"/>
  <path d="M0 0h100v100H0z" transform="matrix(.07 0 0 .07 119 203)" style="fill:#000"/>
  <path d="M0 0h100v100H0z" transform="matrix(.07 0 0 .07 126 203)" style="fill:#000"/>
  <path d="M0 0h100v100H0z" transform="matrix(.07 0 0 .07 140 203)" style="fill:#000"/>
  <path d="M0 0h100v100H0z" transform="matrix(.07 0 0 .07 161 203)" style="fill:#000"/>
  <path d="M0 0h100v100H0z" transform="matrix(.07 0 0 .07 175 203)" style="fill:#000"/>
  <path d="M0 0h100v100H0z" transform="matrix(.07 0 0 .07 189 203)" style="fill:#000"/>
  <path d="M0 0h100v100H0z" transform="matrix(.07 0 0 .07 196 203)" style="fill:#000"/>
  <path d="M0 0h100v100H0z" transform="matrix(.07 0 0 .07 210 203)" style="fill:#000"/>
  <path d="M0 0h100v100H0z" transform="matrix(.07 0 0 .07 70 210)" style="fill:#000"/>
  <path d="M0 0h100v100H0z" transform="matrix(.07 0 0 .07 98 210)" style="fill:#000"/>
  <path d="M0 0h100v100H0z" transform="matrix(.07 0 0 .07 119 210)" style="fill:#000"/>
  <path d="M0 0h100v100H0z" transform="matrix(.07 0 0 .07 147 210)" style="fill:#000"/>
  <path d="M0 0h100v100H0z" transform="matrix(.07 0 0 .07 154 210)" style="fill:#000"/>
  <path d="M0 0h100v100H0z" transform="matrix(.07 0 0 .07 161 210)" style="fill:#000"/>
  <path d="M0 0h100v100H0z" transform="matrix(.07 0 0 .07 168 210)" style="fill:#000"/>
  <path d="M0 0h100v100H0z" transform="matrix(.07 0 0 .07 175 210)" style="fill:#000"/>
  <path d="M0 0h100v100H0z" transform="matrix(.07 0 0 .07 182 210)" style="fill:#000"/>
  <g style="fill:#000">
    <path style="fill:none" d="M15 15h70v70H15z" transform="matrix(.49 0 0 .49 14 14)"/>
    <path d="M56 14H14v49h49V14h-7zm0 42H21V21h35v35z"/>
  </g>
  <g style="fill:#000">
    <path style="fill:none" d="M15 15h70v70H15z" transform="matrix(.49 0 0 .49 168 14)"/>
    <path d="M210 14h-42v49h49V14h-7zm0 42h-35V21h35v35z"/>
  </g>
  <g style="fill:#000">
    <path style="fill:none" d="M15 15h70v70H15z" transform="matrix(.49 0 0 .49 14 168)"/>
    <path d="M56 168H14v49h49v-49h-7zm0 42H21v-35h35v35z"/>
  </g>
  <path d="M0 0h100v100H0z" transform="matrix(.21 0 0 .21 28 28)" style="fill:#000"/>
  <path d="M0 0h100v100H0z" transform="matrix(.21 0 0 .21 182 28)" style="fill:#000"/>
  <path d="M0 0h100v100H0z" transform="matrix(.21 0 0 .21 28 182)" style="fill:#000"/>
</svg>
