<svg xmlns="http://www.w3.org/2000/svg" xml:space="preserve" viewBox="0 0 1000 1000">
  <svg viewBox="0 0 740 740" xml:space="preserve">
    <path fill="#FFF" d="M0 0h740v740H0z"/>
    <path shape-rendering="crispEdges" d="M260 80h20v20h-20zm20 0h20v20h-20zm40 0h20v20h-20zm20 0h20v20h-20zm20 0h20v20h-20zm20 0h20v20h-20zm-120 20h20v20h-20zm40 0h20v20h-20zm40 0h20v20h-20zm20 0h20v20h-20zm20 0h20v20h-20zm20 0h20v20h-20zm20 0h20v20h-20zm-180 20h20v20h-20zm20 0h20v20h-20zm20 0h20v20h-20zm20 0h20v20h-20zm20 0h20v20h-20zm20 0h20v20h-20zm40 0h20v20h-20zm40 0h20v20h-20zm20 0h20v20h-20zm20 0h20v20h-20zm20 0h20v20h-20zm-240 20h20v20h-20zm40 0h20v20h-20zm20 0h20v20h-20zm20 0h20v20h-20zm40 0h20v20h-20zm20 0h20v20h-20zm40 0h20v20h-20zm60 0h20v20h-20zm-240 20h20v20h-20zm60 0h20v20h-20zm20 0h20v20h-20zm60 0h20v20h-20zm20 0h20v20h-20zm40 0h20v20h-20zm40 0h20v20h-20zm-240 20h20v20h-20zm80 0h20v20h-20zm100 0h20v20h-20zm40 0h20v20h-20zm-220 20h20v20h-20zm40 0h20v20h-20zm40 0h20v20h-20zm40 0h20v20h-20zm40 0h20v20h-20zm40 0h20v20h-20zm40 0h20v20h-20zm-240 20h20v20h-20zm20 0h20v20h-20zm100 0h20v20h-20zm40 0h20v20h-20zm40 0h20v20h-20zm20 0h20v20h-20zm20 0h20v20h-20zM80 240h20v20H80zm40 0h20v20h-20zm20 0h20v20h-20zm20 0h20v20h-20zm20 0h20v20h-20zm20 0h20v20h-20zm60 0h20v20h-20zm60 0h20v20h-20zm160 0h20v20h-20zm40 0h20v20h-20zm20 0h20v20h-20zm20 0h20v20h-20zm20 0h20v20h-20zm20 0h20v20h-20zM80 260h20v20H80zm40 0h20v20h-20zm20 0h20v20h-20zm40 0h20v20h-20zm80 0h20v20h-20zm20 0h20v20h-20zm20 0h20v20h-20zm40 0h20v20h-20zm20 0h20v20h-20zm20 0h20v20h-20zm100 0h20v20h-20zm20 0h20v20h-20zm40 0h20v20h-20zm20 0h20v20h-20zm20 0h20v20h-20zm40 0h20v20h-20zm-520 20h20v20h-20zm40 0h20v20h-20zm60 0h20v20h-20zm80 0h20v20h-20zm20 0h20v20h-20zm20 0h20v20h-20zm20 0h20v20h-20zm20 0h20v20h-20zm20 0h20v20h-20zm40 0h20v20h-20zm60 0h20v20h-20zm60 0h20v20h-20zm40 0h20v20h-20zm20 0h20v20h-20zM80 300h20v20H80zm20 0h20v20h-20zm20 0h20v20h-20zm20 0h20v20h-20zm40 0h20v20h-20zm40 0h20v20h-20zm20 0h20v20h-20zm40 0h20v20h-20zm20 0h20v20h-20zm40 0h20v20h-20zm40 0h20v20h-20zm80 0h20v20h-20zm20 0h20v20h-20zm20 0h20v20h-20zm20 0h20v20h-20zm20 0h20v20h-20zm20 0h20v20h-20zm20 0h20v20h-20zm60 0h20v20h-20zm-540 20h20v20h-20zm20 0h20v20h-20zm60 0h20v20h-20zm20 0h20v20h-20zm20 0h20v20h-20zm20 0h20v20h-20zm80 0h20v20h-20zm40 0h20v20h-20zm20 0h20v20h-20zm20 0h20v20h-20zm20 0h20v20h-20zm20 0h20v20h-20zm100 0h20v20h-20zm20 0h20v20h-20zM80 340h20v20H80zm60 0h20v20h-20zm20 0h20v20h-20zm20 0h20v20h-20zm40 0h20v20h-20zm60 0h20v20h-20zm100 0h20v20h-20zm20 0h20v20h-20zm40 0h20v20h-20zm140 0h20v20h-20zm40 0h20v20h-20zM80 360h20v20H80zm40 0h20v20h-20zm60 0h20v20h-20zm20 0h20v20h-20zm20 0h20v20h-20zm60 0h20v20h-20zm20 0h20v20h-20zm20 0h20v20h-20zm100 0h20v20h-20zm40 0h20v20h-20zm120 0h20v20h-20zm20 0h20v20h-20zm20 0h20v20h-20zm20 0h20v20h-20zm-540 20h20v20h-20zm20 0h20v20h-20zm20 0h20v20h-20zm20 0h20v20h-20zm60 0h20v20h-20zm40 0h20v20h-20zm20 0h20v20h-20zm20 0h20v20h-20zm60 0h20v20h-20zm40 0h20v20h-20zm60 0h20v20h-20zm20 0h20v20h-20zm40 0h20v20h-20zm20 0h20v20h-20zm20 0h20v20h-20zm60 0h20v20h-20zm20 0h20v20h-20zm-520 20h20v20h-20zm20 0h20v20h-20zm40 0h20v20h-20zm20 0h20v20h-20zm40 0h20v20h-20zm40 0h20v20h-20zm100 0h20v20h-20zm20 0h20v20h-20zm20 0h20v20h-20zm20 0h20v20h-20zm40 0h20v20h-20zm20 0h20v20h-20zm40 0h20v20h-20zM80 420h20v20H80zm40 0h20v20h-20zm120 0h20v20h-20zm20 0h20v20h-20zm20 0h20v20h-20zm20 0h20v20h-20zm20 0h20v20h-20zm20 0h20v20h-20zm20 0h20v20h-20zm40 0h20v20h-20zm40 0h20v20h-20zm20 0h20v20h-20zm20 0h20v20h-20zm40 0h20v20h-20zm40 0h20v20h-20zm20 0h20v20h-20zm40 0h20v20h-20zM80 440h20v20H80zm40 0h20v20h-20zm20 0h20v20h-20zm20 0h20v20h-20zm40 0h20v20h-20zm40 0h20v20h-20zm40 0h20v20h-20zm40 0h20v20h-20zm20 0h20v20h-20zm20 0h20v20h-20zm60 0h20v20h-20zm40 0h20v20h-20zm120 0h20v20h-20zm20 0h20v20h-20zm20 0h20v20h-20zM80 460h20v20H80zm60 0h20v20h-20zm80 0h20v20h-20zm100 0h20v20h-20zm20 0h20v20h-20zm60 0h20v20h-20zm20 0h20v20h-20zm20 0h20v20h-20zm20 0h20v20h-20zm20 0h20v20h-20zm40 0h20v20h-20zm20 0h20v20h-20zm20 0h20v20h-20zm60 0h20v20h-20zm20 0h20v20h-20zM80 480h20v20H80zm60 0h20v20h-20zm40 0h20v20h-20zm20 0h20v20h-20zm20 0h20v20h-20zm20 0h20v20h-20zm20 0h20v20h-20zm100 0h20v20h-20zm20 0h20v20h-20zm20 0h20v20h-20zm20 0h20v20h-20zm60 0h20v20h-20zm20 0h20v20h-20zm20 0h20v20h-20zm20 0h20v20h-20zm20 0h20v20h-20zm20 0h20v20h-20zm20 0h20v20h-20zm20 0h20v20h-20zm-380 20h20v20h-20zm20 0h20v20h-20zm20 0h20v20h-20zm200 0h20v20h-20zm80 0h20v20h-20zm60 0h20v20h-20zm-360 20h20v20h-20zm60 0h20v20h-20zm60 0h20v20h-20zm40 0h20v20h-20zm40 0h20v20h-20zm20 0h20v20h-20zm40 0h20v20h-20zm40 0h20v20h-20zm20 0h20v20h-20zm20 0h20v20h-20zm-360 20h20v20h-20zm40 0h20v20h-20zm40 0h20v20h-20zm40 0h20v20h-20zm40 0h20v20h-20zm60 0h20v20h-20zm20 0h20v20h-20zm80 0h20v20h-20zm40 0h20v20h-20zm20 0h20v20h-20zm20 0h20v20h-20zm-400 20h20v20h-20zm20 0h20v20h-20zm40 0h20v20h-20zm80 0h20v20h-20zm40 0h20v20h-20zm20 0h20v20h-20zm20 0h20v20h-20zm20 0h20v20h-20zm20 0h20v20h-20zm20 0h20v20h-20zm20 0h20v20h-20zm20 0h20v20h-20zm40 0h20v20h-20zm20 0h20v20h-20zm20 0h20v20h-20zm-400 20h20v20h-20zm20 0h20v20h-20zm20 0h20v20h-20zm20 0h20v20h-20zm60 0h20v20h-20zm40 0h20v20h-20zm40 0h20v20h-20zm40 0h20v20h-20zm60 0h20v20h-20zm-300 20h20v20h-20zm180 0h20v20h-20zm40 0h20v20h-20zm40 0h20v20h-20zm40 0h20v20h-20zm60 0h20v20h-20zm20 0h20v20h-20zm-360 20h20v20h-20zm100 0h20v20h-20zm120 0h20v20h-20zm20 0h20v20h-20zm80 0h20v20h-20zm20 0h20v20h-20zm40 0h20v20h-20zm-400 20h20v20h-20zm20 0h20v20h-20zm20 0h20v20h-20zm100 0h20v20h-20zm20 0h20v20h-20zm20 0h20v20h-20zm20 0h20v20h-20zm20 0h20v20h-20zm20 0h20v20h-20zm20 0h20v20h-20zm20 0h20v20h-20zm40 0h20v20h-20zm20 0h20v20h-20zm20 0h20v20h-20z"/>
    <path d="M80 80h140v140H80Zm20 20h100v100H100Zm420-20h140v140H520Zm20 20h100v100H540Z" fill-rule="evenodd" shape-rendering="crispEdges"/>
    <path shape-rendering="crispEdges" d="M120 120h60v60h-60zm440 0h60v60h-60z"/>
    <path d="M80 520h140v140H80Zm20 20h100v100H100Z" fill-rule="evenodd" shape-rendering="crispEdges"/>
    <path shape-rendering="crispEdges" d="M120 560h60v60h-60z"/>
  </svg>
</svg>
