<svg xmlns="http://www.w3.org/2000/svg" xmlns:xlink="http://www.w3.org/1999/xlink" width="1920" zoomAndPan="magnify" viewBox="0 0 1440 809.999993" height="1080" preserveAspectRatio="xMidYMid meet" version="1.0"><metadata><ContainsAiGeneratedContent>Yes</ContainsAiGeneratedContent></metadata><defs><clipPath id="cd8e54eec5"><path d="M 375.984375 82 L 1063.734375 82 L 1063.734375 611 L 375.984375 611 Z M 375.984375 82 " clip-rule="nonzero"/></clipPath></defs><g clip-path="url(#cd8e54eec5)"><path fill="#81a8c3" d="M 1064.003906 295.898438 C 1064.003906 219.902344 1002.398438 158.296875 926.398438 158.296875 C 903.460938 158.296875 881.875 163.996094 862.867188 173.902344 C 821.9375 118.332031 756.222656 82.121094 681.917969 82.121094 C 581.035156 82.121094 495.660156 148.566406 467.195312 240.089844 C 414.945312 252.21875 375.984375 298.945312 375.984375 354.871094 C 375.984375 413.433594 418.71875 461.910156 474.6875 471.109375 C 478.933594 548.738281 543.035156 610.421875 621.707031 610.421875 C 664.480469 610.421875 702.890625 592.082031 729.824219 562.988281 C 756.753906 592.082031 795.144531 610.421875 837.941406 610.421875 C 919.382812 610.421875 985.375 544.433594 985.375 462.988281 C 985.375 449.035156 983.308594 435.585938 979.691406 422.789062 C 1029.210938 401.972656 1064.003906 353.003906 1064.003906 295.898438 Z M 1064.003906 295.898438 " fill-opacity="1" fill-rule="nonzero"/></g><path fill="#81a8c3" d="M 513.589844 669.394531 C 513.589844 671.328125 513.492188 673.253906 513.304688 675.175781 C 513.113281 677.097656 512.832031 679.007812 512.457031 680.902344 C 512.078125 682.796875 511.609375 684.667969 511.050781 686.515625 C 510.488281 688.363281 509.839844 690.179688 509.097656 691.964844 C 508.359375 693.75 507.535156 695.492188 506.625 697.195312 C 505.714844 698.898438 504.722656 700.554688 503.648438 702.160156 C 502.578125 703.765625 501.425781 705.316406 500.203125 706.808594 C 498.976562 708.300781 497.679688 709.730469 496.316406 711.097656 C 494.949219 712.460938 493.519531 713.757812 492.027344 714.984375 C 490.535156 716.207031 488.984375 717.355469 487.378906 718.429688 C 485.773438 719.503906 484.117188 720.496094 482.414062 721.40625 C 480.710938 722.316406 478.96875 723.140625 477.183594 723.878906 C 475.398438 724.621094 473.582031 725.269531 471.734375 725.828125 C 469.886719 726.390625 468.015625 726.859375 466.121094 727.234375 C 464.226562 727.613281 462.316406 727.894531 460.394531 728.085938 C 458.472656 728.273438 456.546875 728.371094 454.617188 728.371094 C 452.683594 728.371094 450.757812 728.273438 448.835938 728.085938 C 446.914062 727.894531 445.003906 727.613281 443.109375 727.234375 C 441.214844 726.859375 439.34375 726.390625 437.496094 725.828125 C 435.648438 725.269531 433.832031 724.621094 432.046875 723.878906 C 430.261719 723.140625 428.519531 722.316406 426.816406 721.40625 C 425.113281 720.496094 423.457031 719.503906 421.851562 718.429688 C 420.246094 717.355469 418.695312 716.207031 417.203125 714.984375 C 415.710938 713.757812 414.28125 712.460938 412.914062 711.097656 C 411.550781 709.730469 410.253906 708.300781 409.027344 706.808594 C 407.804688 705.316406 406.652344 703.765625 405.582031 702.160156 C 404.507812 700.554688 403.515625 698.898438 402.605469 697.195312 C 401.695312 695.492188 400.871094 693.75 400.132812 691.964844 C 399.390625 690.179688 398.742188 688.363281 398.179688 686.515625 C 397.621094 684.667969 397.152344 682.796875 396.773438 680.902344 C 396.398438 679.007812 396.117188 677.097656 395.925781 675.175781 C 395.738281 673.253906 395.640625 671.328125 395.640625 669.394531 C 395.640625 667.464844 395.738281 665.539062 395.925781 663.617188 C 396.117188 661.695312 396.398438 659.785156 396.773438 657.890625 C 397.152344 655.996094 397.621094 654.125 398.179688 652.277344 C 398.742188 650.429688 399.390625 648.613281 400.132812 646.828125 C 400.871094 645.042969 401.695312 643.300781 402.605469 641.597656 C 403.515625 639.894531 404.507812 638.238281 405.582031 636.632812 C 406.652344 635.027344 407.804688 633.476562 409.027344 631.984375 C 410.253906 630.492188 411.550781 629.0625 412.914062 627.695312 C 414.28125 626.328125 415.710938 625.035156 417.203125 623.808594 C 418.695312 622.582031 420.246094 621.433594 421.851562 620.363281 C 423.457031 619.289062 425.113281 618.296875 426.816406 617.386719 C 428.519531 616.476562 430.261719 615.652344 432.046875 614.910156 C 433.832031 614.171875 435.648438 613.523438 437.496094 612.960938 C 439.34375 612.402344 441.214844 611.933594 443.109375 611.554688 C 445.003906 611.179688 446.914062 610.894531 448.835938 610.707031 C 450.757812 610.519531 452.683594 610.421875 454.617188 610.421875 C 456.546875 610.421875 458.472656 610.519531 460.394531 610.707031 C 462.316406 610.894531 464.226562 611.179688 466.121094 611.554688 C 468.015625 611.933594 469.886719 612.402344 471.734375 612.960938 C 473.582031 613.523438 475.398438 614.171875 477.183594 614.910156 C 478.96875 615.652344 480.710938 616.476562 482.414062 617.386719 C 484.117188 618.296875 485.773438 619.289062 487.378906 620.363281 C 488.984375 621.433594 490.535156 622.582031 492.027344 623.808594 C 493.519531 625.035156 494.949219 626.328125 496.316406 627.695312 C 497.679688 629.0625 498.976562 630.492188 500.203125 631.984375 C 501.425781 633.476562 502.578125 635.027344 503.648438 636.632812 C 504.722656 638.238281 505.714844 639.894531 506.625 641.597656 C 507.535156 643.300781 508.359375 645.042969 509.097656 646.828125 C 509.839844 648.613281 510.488281 650.429688 511.050781 652.277344 C 511.609375 654.125 512.078125 655.996094 512.457031 657.890625 C 512.832031 659.785156 513.113281 661.695312 513.304688 663.617188 C 513.492188 665.539062 513.589844 667.464844 513.589844 669.394531 Z M 513.589844 669.394531 " fill-opacity="1" fill-rule="nonzero"/></svg>